<svg width="722" height="252" viewBox="0 0 722 252" fill="none" xmlns="http://www.w3.org/2000/svg">
<g clip-path="url(#clip0_7_17)">
<path d="M104.04 98.76V85.5H168.64V98.76L149.94 103.18L94.86 249.04H80.24L18.36 102.16L0 98.76V85.5H82.28V98.76L52.36 103.18L93.84 211.98L131.58 103.52L104.04 98.76ZM176.76 247V234.76L202.26 230C202.487 221.387 202.6 212.093 202.6 202.12C202.827 191.92 202.94 183.08 202.94 175.6V159.62C202.94 150.327 202.827 142.62 202.6 136.5C202.6 130.153 202.373 123.58 201.92 116.78L174.72 113.72V101.82L227.08 81.08L232.18 84.48L231.16 130.72V175.6C231.16 183.08 231.16 191.92 231.16 202.12C231.387 212.093 231.613 221.387 231.84 230L255.64 234.76V247H176.76ZM216.88 43.68C210.533 43.68 205.093 41.64 200.56 37.56C196.253 33.48 194.1 28.2667 194.1 21.92C194.1 15.3466 196.253 10.1333 200.56 6.28C205.093 2.2 210.533 0.159996 216.88 0.159996C223.227 0.159996 228.553 2.2 232.86 6.28C237.393 10.1333 239.66 15.3466 239.66 21.92C239.66 28.2667 237.393 33.48 232.86 37.56C228.553 41.64 223.227 43.68 216.88 43.68ZM350.79 96.72C344.443 96.72 337.983 98.5333 331.41 102.16C325.063 105.787 319.51 111.567 314.75 119.5C310.216 127.433 307.27 137.973 305.91 151.12H367.79C375.95 151.12 381.276 149.42 383.77 146.02C386.49 142.62 387.85 138.427 387.85 133.44C387.85 126.867 386.15 120.86 382.75 115.42C379.576 109.753 375.156 105.22 369.49 101.82C364.05 98.42 357.816 96.72 350.79 96.72ZM350.45 251.42C327.556 251.42 309.196 244.053 295.37 229.32C281.543 214.36 274.63 193.847 274.63 167.78C274.63 150.327 278.143 135.14 285.17 122.22C292.423 109.3 301.943 99.2133 313.73 91.96C325.743 84.7067 338.776 81.08 352.83 81.08C364.616 81.08 375.27 83.6867 384.79 88.9C394.31 94.1133 401.903 101.593 407.57 111.34C413.236 120.86 416.07 132.533 416.07 146.36C416.07 150.213 415.843 153.84 415.39 157.24C414.936 160.413 414.37 163.133 413.69 165.4H305.23C305.683 186.253 310.896 202.12 320.87 213C330.843 223.88 343.99 229.32 360.31 229.32C371.19 229.32 380.256 227.167 387.51 222.86C394.763 218.327 401.45 212.547 407.57 205.52L415.73 211.98C409.383 223.993 400.77 233.627 389.89 240.88C379.01 247.907 365.863 251.42 350.45 251.42ZM439.45 247V234.76L464.61 230C464.837 221.387 464.95 212.093 464.95 202.12C465.177 192.147 465.29 183.307 465.29 175.6V159.28C465.29 149.987 465.177 142.28 464.95 136.16C464.95 130.04 464.723 123.58 464.27 116.78L437.41 113.72V101.82L485.01 81.08L490.11 84.48L492.83 112.02C500.763 102.953 510.057 95.5867 520.71 89.92C531.363 84.0267 541.903 81.08 552.33 81.08C562.983 81.08 571.597 83.5733 578.17 88.56C584.97 93.5467 589.843 101.707 592.79 113.04C601.403 102.387 611.037 94.4533 621.69 89.24C632.343 83.8 643.223 81.08 654.33 81.08C668.157 81.08 678.81 85.7267 686.29 95.02C693.997 104.313 697.85 119.5 697.85 140.58V175.6C697.85 183.307 697.85 192.147 697.85 202.12C698.077 212.093 698.303 221.387 698.53 230L722.33 234.76V247H643.45V234.76L668.61 230C668.837 221.613 668.95 212.433 668.95 202.46C669.177 192.26 669.29 183.307 669.29 175.6V146.02C669.29 130.153 667.023 119.5 662.49 114.06C657.957 108.393 650.703 105.56 640.73 105.56C633.703 105.56 626.45 107.147 618.97 110.32C611.717 113.493 603.783 119.047 595.17 126.98C595.397 129.473 595.51 132.193 595.51 135.14C595.737 137.86 595.85 140.807 595.85 143.98V175.6C595.85 183.307 595.85 192.147 595.85 202.12C596.077 212.093 596.303 221.387 596.53 230L620.33 234.76V247H541.45V234.76L566.61 230C566.837 221.613 566.95 212.433 566.95 202.46C567.177 192.26 567.29 183.307 567.29 175.6V146.7C567.29 131.287 565.137 120.633 560.83 114.74C556.523 108.62 549.383 105.56 539.41 105.56C531.703 105.56 524.337 107.147 517.31 110.32C510.283 113.493 502.577 118.707 494.19 125.96V175.6C494.19 183.08 494.19 191.92 494.19 202.12C494.417 212.093 494.643 221.387 494.87 230L518.33 234.76V247H439.45Z" fill="black"/>
</g>
<defs>
<clipPath id="clip0_7_17">
<rect width="722" height="252" fill="white"/>
</clipPath>
</defs>
</svg>
