<svg width="228" height="75" viewBox="-40 -20 228 75" fill="none" xmlns="http://www.w3.org/2000/svg">
<path d="M138 23.4762C140.519 23.4762 142.845 21.6458 142.845 18.025C142.845 14.4043 140.519 12.5737 138 12.5737C135.481 12.5737 133.155 14.4043 133.155 18.025C133.155 21.6458 135.481 23.4762 138 23.4762ZM138 7.8645C143.697 7.8645 148 12.1083 148 18.025C148 23.9417 143.699 28.1855 138 28.1855C132.301 28.1855 128 23.9032 128 18.025C128 12.1468 132.301 7.8645 138 7.8645Z" fill="black"/>
<path d="M112.212 35H107.057V8.449H112.057V10.7852C112.911 9.3065 115.042 8.02025 117.909 8.02025C123.491 8.02025 126.707 12.3025 126.707 17.9865C126.707 23.6705 123.103 28.07 117.716 28.07C115.08 28.07 113.143 27.0182 112.212 25.7337V35ZM121.631 18.025C121.631 14.6388 119.538 12.6525 116.902 12.6525C114.267 12.6525 112.136 14.6388 112.136 18.025C112.136 21.4113 114.268 23.436 116.902 23.436C119.537 23.436 121.631 21.4498 121.631 18.025Z" fill="black"/>
<path d="M81.2421 27.6045H76.087V8.449H81.0086V10.7852C82.0557 8.91625 84.4964 7.90475 86.5905 7.90475C89.1881 7.90475 91.2804 9.0335 92.2491 11.0968C93.7613 8.7605 95.7752 7.90475 98.2944 7.90475C101.821 7.90475 105.193 10.0467 105.193 15.1847V27.6045H100.193V16.2365C100.193 14.1732 99.1864 12.6157 96.8205 12.6157C94.6114 12.6157 93.2943 14.329 93.2943 16.3923V27.6045H88.1776V16.2365C88.1776 14.1732 87.1306 12.6157 84.8065 12.6157C82.4825 12.6157 81.2421 14.2905 81.2421 16.3923V27.6045Z" fill="black"/>
<path d="M60.749 15.8463H69.2752C69.1985 13.9388 67.9581 12.0697 65.0121 12.0697C62.3379 12.0697 60.8657 14.0945 60.749 15.8463ZM69.7804 20.8285L74.0818 22.113C73.1131 25.4222 70.0905 28.1855 65.4006 28.1855C60.1689 28.1855 55.5556 24.409 55.5556 17.9462C55.5556 11.8335 60.0522 7.86275 64.9354 7.86275C70.8257 7.86275 74.3536 11.6393 74.3536 17.7905C74.3536 18.5308 74.2752 19.3095 74.2752 19.3865H60.6323C60.749 21.917 62.8797 23.7475 65.4389 23.7475C67.8414 23.7475 69.1602 22.54 69.7804 20.8285Z" fill="black"/>
<path d="M59.6096 5.0995H50.9285V27.6027H45.5417V5.0995H36.8587V0H59.6096V5.0995Z" fill="black"/>
<path fill-rule="evenodd" clip-rule="evenodd" d="M27.5078 27.6316H0V2.91501e-05H27.5078V27.6316ZM9.37224 7.66782C9.20536 7.66782 9.0573 7.77519 9.00466 7.93421L7.82254 11.497C7.77848 11.6298 7.87683 11.7667 8.01595 11.7667H11.4486C11.5877 11.7667 11.6861 11.9036 11.642 12.0364L9.10092 19.6941C9.05686 19.8269 9.1552 19.9638 9.29434 19.9638H12.9755C13.1424 19.9638 13.2904 19.8564 13.3431 19.6974L15.8867 12.0328C15.9393 11.8738 16.0874 11.7664 16.2543 11.7664H19.6942C19.8611 11.7664 20.0093 11.659 20.062 11.5L21.2439 7.93751C21.288 7.80472 21.1897 7.66782 21.0505 7.66782H9.37224Z" fill="black"/>
</svg>
