<svg width="3372" height="2164" viewBox="0 0 3372 2164" fill="none" xmlns="http://www.w3.org/2000/svg">
<rect width="3372" height="2164" fill="#1E1E20"/>
<rect width="3088" height="1583" transform="translate(142 290)" fill="#1E1E20"/>
<path d="M366.502 491.658H365.902L344.662 447.018C343.462 444.378 342.422 442.698 341.542 441.978C340.742 441.178 339.222 440.778 336.982 440.778V438.258H365.542V440.778C363.622 440.778 362.182 440.898 361.222 441.138C360.262 441.378 359.782 442.018 359.782 443.058C359.782 443.538 359.902 444.138 360.142 444.858C360.382 445.498 360.702 446.258 361.102 447.138L371.782 471.978L381.622 447.858C381.942 446.898 382.222 446.098 382.462 445.458C382.702 444.738 382.822 444.098 382.822 443.538C382.822 442.258 382.182 441.498 380.902 441.258C379.702 440.938 377.902 440.778 375.502 440.778V438.258H394.222V440.778C391.822 440.778 390.142 441.178 389.182 441.978C388.302 442.778 387.142 444.778 385.702 447.978L366.502 491.658ZM401.473 421.938C401.473 419.538 402.313 417.538 403.993 415.938C405.753 414.258 407.873 413.418 410.353 413.418C412.753 413.418 414.793 414.258 416.473 415.938C418.153 417.538 418.993 419.538 418.993 421.938C418.993 424.338 418.153 426.338 416.473 427.938C414.793 429.538 412.753 430.338 410.353 430.338C407.873 430.338 405.753 429.538 403.993 427.938C402.313 426.338 401.473 424.338 401.473 421.938ZM402.793 447.498C402.793 444.538 402.393 442.698 401.593 441.978C400.873 441.178 399.233 440.778 396.673 440.778V438.258H418.273V481.218C418.273 484.178 418.633 486.058 419.353 486.858C420.153 487.578 421.793 487.938 424.273 487.938V490.458H396.673V487.938C399.233 487.938 400.873 487.578 401.593 486.858C402.393 486.058 402.793 484.178 402.793 481.218V447.498ZM452.336 440.418C449.536 440.418 447.176 441.658 445.256 444.138C443.416 446.618 442.336 450.258 442.016 455.058H461.576C461.416 450.818 460.576 447.338 459.056 444.618C457.536 441.818 455.296 440.418 452.336 440.418ZM474.776 478.938C472.296 483.098 469.176 486.258 465.416 488.418C461.656 490.578 457.736 491.658 453.656 491.658C446.456 491.658 440.216 489.218 434.936 484.338C429.736 479.458 427.136 473.098 427.136 465.258C427.136 457.338 429.776 450.658 435.056 445.218C440.416 439.778 446.376 437.058 452.936 437.058C459.816 437.058 465.016 439.338 468.536 443.898C472.136 448.458 473.976 453.258 474.056 458.298H441.896V458.538C441.896 465.978 443.736 472.098 447.416 476.898C451.096 481.618 455.656 483.978 461.096 483.978C463.576 483.978 465.776 483.458 467.696 482.418C469.696 481.378 471.496 479.778 473.096 477.618L474.776 478.938ZM505.953 487.938V490.458H478.353V487.938C480.913 487.938 482.553 487.578 483.273 486.858C484.073 486.058 484.473 484.178 484.473 481.218V447.498C484.473 444.538 484.073 442.698 483.273 441.978C482.553 441.178 480.913 440.778 478.353 440.778V438.258H499.953V447.618C501.153 445.138 503.153 442.778 505.953 440.538C508.753 438.218 512.153 437.058 516.153 437.058C520.393 437.058 523.753 438.138 526.233 440.298C528.793 442.378 530.473 445.058 531.273 448.338C532.473 445.778 534.513 443.258 537.393 440.778C540.353 438.298 543.993 437.058 548.313 437.058C553.753 437.058 557.753 438.778 560.313 442.218C562.873 445.658 564.153 449.778 564.153 454.578V481.218C564.153 484.178 564.513 486.058 565.233 486.858C566.033 487.578 567.713 487.938 570.273 487.938V490.458H542.673V487.938C545.233 487.938 546.873 487.578 547.593 486.858C548.313 486.058 548.673 484.178 548.673 481.218V456.738C548.673 452.578 547.953 449.538 546.513 447.618C545.073 445.618 542.993 444.618 540.273 444.618C538.513 444.618 536.873 445.178 535.353 446.298C533.833 447.338 532.673 448.858 531.873 450.858C531.953 451.418 531.993 452.018 531.993 452.658C532.073 453.298 532.113 453.938 532.113 454.578V481.218C532.113 484.178 532.473 486.058 533.193 486.858C533.913 487.578 535.553 487.938 538.113 487.938V490.458H510.513V487.938C513.073 487.938 514.713 487.578 515.433 486.858C516.153 486.058 516.513 484.178 516.513 481.218V456.738C516.513 452.578 515.793 449.538 514.353 447.618C512.913 445.618 510.833 444.618 508.113 444.618C506.433 444.618 504.873 445.138 503.433 446.178C501.993 447.138 500.833 448.538 499.953 450.378V481.218C499.953 484.178 500.313 486.058 501.033 486.858C501.833 487.578 503.473 487.938 505.953 487.938Z" fill="white"/>
<g filter="url(#filter0_d_14_267)">
<rect x="678.145" y="319.183" width="15.7117" height="253.599" rx="7.85586" fill="url(#paint0_radial_14_267)" fill-opacity="0.96" shape-rendering="crispEdges"/>
</g>
<rect x="678" y="316" width="16" height="262.25" rx="8" fill="url(#paint1_radial_14_267)" fill-opacity="0.96"/>
<path d="M2996.72 446.845C2996.72 443.858 2997.17 440.925 2998.08 438.045C2999.04 435.112 3000.34 432.525 3002 430.285C3003.65 428.045 3005.6 426.232 3007.84 424.845C3010.13 423.458 3012.61 422.765 3015.28 422.765C3017.89 422.765 3020.32 423.458 3022.56 424.845C3024.85 426.232 3026.8 428.045 3028.4 430.285C3030.05 432.525 3031.33 435.112 3032.24 438.045C3033.2 440.925 3033.68 443.858 3033.68 446.845C3033.68 449.832 3033.2 452.792 3032.24 455.725C3031.33 458.605 3030.05 461.165 3028.4 463.405C3026.8 465.645 3024.85 467.458 3022.56 468.845C3020.32 470.232 3017.89 470.925 3015.28 470.925C3012.61 470.925 3010.13 470.232 3007.84 468.845C3005.6 467.458 3003.65 465.645 3002 463.405C3000.34 461.165 2999.04 458.605 2998.08 455.725C2997.17 452.792 2996.72 449.832 2996.72 446.845ZM3025.76 446.845C3025.76 444.285 3025.54 441.778 3025.12 439.325C3024.74 436.818 3024.13 434.605 3023.28 432.685C3022.48 430.765 3021.41 429.218 3020.08 428.045C3018.74 426.818 3017.14 426.205 3015.28 426.205C3013.41 426.205 3011.78 426.818 3010.4 428.045C3009.06 429.218 3007.94 430.765 3007.04 432.685C3006.18 434.605 3005.54 436.818 3005.12 439.325C3004.74 441.778 3004.56 444.285 3004.56 446.845C3004.56 449.405 3004.74 451.938 3005.12 454.445C3005.54 456.898 3006.18 459.085 3007.04 461.005C3007.94 462.925 3009.06 464.498 3010.4 465.725C3011.78 466.898 3013.41 467.485 3015.28 467.485C3017.14 467.485 3018.74 466.898 3020.08 465.725C3021.41 464.498 3022.48 462.925 3023.28 461.005C3024.13 459.085 3024.74 456.898 3025.12 454.445C3025.54 451.938 3025.76 449.405 3025.76 446.845ZM3037.69 465.725C3037.69 464.285 3038.2 463.058 3039.21 462.045C3040.22 461.032 3041.45 460.525 3042.89 460.525C3044.33 460.525 3045.56 461.032 3046.57 462.045C3047.58 463.058 3048.09 464.285 3048.09 465.725C3048.09 467.165 3047.58 468.392 3046.57 469.405C3045.56 470.418 3044.33 470.925 3042.89 470.925C3041.45 470.925 3040.22 470.418 3039.21 469.405C3038.2 468.392 3037.69 467.165 3037.69 465.725ZM3052.11 446.845C3052.11 443.858 3052.56 440.925 3053.47 438.045C3054.43 435.112 3055.73 432.525 3057.39 430.285C3059.04 428.045 3060.99 426.232 3063.23 424.845C3065.52 423.458 3068 422.765 3070.67 422.765C3073.28 422.765 3075.71 423.458 3077.95 424.845C3080.24 426.232 3082.19 428.045 3083.79 430.285C3085.44 432.525 3086.72 435.112 3087.63 438.045C3088.59 440.925 3089.07 443.858 3089.07 446.845C3089.07 449.832 3088.59 452.792 3087.63 455.725C3086.72 458.605 3085.44 461.165 3083.79 463.405C3082.19 465.645 3080.24 467.458 3077.95 468.845C3075.71 470.232 3073.28 470.925 3070.67 470.925C3068 470.925 3065.52 470.232 3063.23 468.845C3060.99 467.458 3059.04 465.645 3057.39 463.405C3055.73 461.165 3054.43 458.605 3053.47 455.725C3052.56 452.792 3052.11 449.832 3052.11 446.845ZM3081.15 446.845C3081.15 444.285 3080.93 441.778 3080.51 439.325C3080.13 436.818 3079.52 434.605 3078.67 432.685C3077.87 430.765 3076.8 429.218 3075.47 428.045C3074.13 426.818 3072.53 426.205 3070.67 426.205C3068.8 426.205 3067.17 426.818 3065.79 428.045C3064.45 429.218 3063.33 430.765 3062.43 432.685C3061.57 434.605 3060.93 436.818 3060.51 439.325C3060.13 441.778 3059.95 444.285 3059.95 446.845C3059.95 449.405 3060.13 451.938 3060.51 454.445C3060.93 456.898 3061.57 459.085 3062.43 461.005C3063.33 462.925 3064.45 464.498 3065.79 465.725C3067.17 466.898 3068.8 467.485 3070.67 467.485C3072.53 467.485 3074.13 466.898 3075.47 465.725C3076.8 464.498 3077.87 462.925 3078.67 461.005C3079.52 459.085 3080.13 456.898 3080.51 454.445C3080.93 451.938 3081.15 449.405 3081.15 446.845ZM3093.71 470.125V469.165L3105.87 456.365C3110.24 451.778 3113.01 448.152 3114.19 445.485C3115.36 442.765 3115.95 440.045 3115.95 437.325C3115.95 434.605 3115.17 432.418 3113.63 430.765C3112.08 429.058 3109.95 428.205 3107.23 428.205C3104.4 428.205 3102.21 429.085 3100.67 430.845C3099.17 432.552 3097.95 434.392 3096.99 436.365L3094.27 435.165C3095.28 432.125 3097.04 429.298 3099.55 426.685C3102.11 424.072 3105.49 422.765 3109.71 422.765C3113.76 422.765 3117.04 423.965 3119.55 426.365C3122.05 428.712 3123.31 431.885 3123.31 435.885C3123.31 440.845 3121.33 445.378 3117.39 449.485C3113.44 453.592 3108.53 458.498 3102.67 464.205H3122.03L3122.91 457.085H3125.79V470.125H3093.71ZM3133.84 444.925C3133.84 442.152 3134.86 439.858 3136.88 438.045C3138.96 436.178 3141.52 435.245 3144.56 435.245C3146.11 435.245 3147.52 435.512 3148.8 436.045C3150.08 436.525 3151.23 437.272 3152.24 438.285L3153.04 435.565H3155.36V446.605H3152.72C3152.19 443.832 3151.23 441.725 3149.84 440.285C3148.51 438.845 3146.8 438.125 3144.72 438.125C3143.12 438.125 3141.82 438.578 3140.8 439.485C3139.79 440.392 3139.28 441.565 3139.28 443.005C3139.28 444.018 3139.6 444.898 3140.24 445.645C3140.88 446.392 3142.24 447.298 3144.32 448.365L3150 451.245C3152.56 452.525 3154.38 453.885 3155.44 455.325C3156.51 456.712 3157.04 458.392 3157.04 460.365C3157.04 463.405 3155.87 465.938 3153.52 467.965C3151.18 469.938 3148.3 470.925 3144.88 470.925C3143.12 470.925 3141.47 470.578 3139.92 469.885C3138.38 469.192 3137.12 468.258 3136.16 467.085L3135.44 470.125H3133.04V457.725H3135.76C3136.14 460.978 3137.12 463.485 3138.72 465.245C3140.32 467.005 3142.32 467.885 3144.72 467.885C3146.7 467.885 3148.27 467.405 3149.44 466.445C3150.62 465.485 3151.2 464.232 3151.2 462.685C3151.2 461.512 3150.88 460.552 3150.24 459.805C3149.66 459.005 3148.62 458.232 3147.12 457.485L3140.64 454.285C3138.19 453.058 3136.43 451.725 3135.36 450.285C3134.35 448.792 3133.84 447.005 3133.84 444.925Z" fill="white"/>
<rect x="663.5" y="301.5" width="2555" height="291.25" rx="30.5" stroke="white" stroke-opacity="0.23" stroke-width="3"/>
<path d="M165.96 859.2L152.76 825.48L138.96 859.2H138.36L118.68 814.56C117.56 811.84 116.56 810.12 115.68 809.4C114.88 808.68 113.4 808.32 111.24 808.32V805.8H138.24V808.32C136.72 808.32 135.52 808.44 134.64 808.68C133.76 808.84 133.32 809.4 133.32 810.36C133.32 810.84 133.44 811.44 133.68 812.16C133.92 812.8 134.28 813.64 134.76 814.68L144.48 838.08L151.2 821.28L148.56 814.56C147.52 811.84 146.56 810.12 145.68 809.4C144.8 808.68 143.32 808.32 141.24 808.32V805.8H167.76V808.32C165.92 808.32 164.56 808.48 163.68 808.8C162.8 809.04 162.36 809.68 162.36 810.72C162.36 811.12 162.44 811.68 162.6 812.4C162.76 813.04 163 813.8 163.32 814.68L171.72 838.44L179.88 815.52C180.2 814.56 180.44 813.76 180.6 813.12C180.84 812.4 180.96 811.8 180.96 811.32C180.96 810.04 180.36 809.24 179.16 808.92C177.96 808.52 176.16 808.32 173.76 808.32V805.8H192.6V808.32C190.12 808.32 188.4 808.72 187.44 809.52C186.56 810.32 185.4 812.32 183.96 815.52L166.68 859.2H165.96ZM214.641 807.96C211.841 807.96 209.481 809.2 207.561 811.68C205.721 814.16 204.641 817.8 204.321 822.6H223.881C223.721 818.36 222.881 814.88 221.361 812.16C219.841 809.36 217.601 807.96 214.641 807.96ZM237.081 846.48C234.601 850.64 231.481 853.8 227.721 855.96C223.961 858.12 220.041 859.2 215.961 859.2C208.761 859.2 202.521 856.76 197.241 851.88C192.041 847 189.441 840.64 189.441 832.8C189.441 824.88 192.081 818.2 197.361 812.76C202.721 807.32 208.681 804.6 215.241 804.6C222.121 804.6 227.321 806.88 230.841 811.44C234.441 816 236.281 820.8 236.361 825.84H204.201V826.08C204.201 833.52 206.041 839.64 209.721 844.44C213.401 849.16 217.961 851.52 223.401 851.52C225.881 851.52 228.081 851 230.001 849.96C232.001 848.92 233.801 847.32 235.401 845.16L237.081 846.48ZM265.16 859.2C261.64 859.2 257.96 858.88 254.12 858.24C250.36 857.68 247.24 856.88 244.76 855.84V789C244.76 786.04 244.28 784.24 243.32 783.6C242.36 782.88 240.44 782.52 237.56 782.52V780H260.24V813.36C261.52 811.44 263.48 809.52 266.12 807.6C268.76 805.6 271.96 804.6 275.72 804.6C281.88 804.6 286.96 806.84 290.96 811.32C295.04 815.8 297.08 821.72 297.08 829.08C297.08 838.12 294 845.4 287.84 850.92C281.76 856.44 274.2 859.2 265.16 859.2ZM266.48 855.72C270.16 855.72 273.52 853.88 276.56 850.2C279.68 846.52 281.24 840.56 281.24 832.32C281.24 826.24 280.2 821.2 278.12 817.2C276.04 813.12 272.92 811.08 268.76 811.08C267 811.08 265.36 811.52 263.84 812.4C262.4 813.28 261.2 814.44 260.24 815.88V848.16C260.24 851.04 260.76 853.04 261.8 854.16C262.92 855.2 264.48 855.72 266.48 855.72ZM317.089 799.08C314.129 799.08 311.929 799.64 310.489 800.76C309.049 801.88 307.809 804.16 306.769 807.6H304.729L307.969 785.28H350.929V785.76L324.049 816.36C330.449 815.16 336.489 816.24 342.169 819.6C347.849 822.88 350.689 828.28 350.689 835.8C350.689 843 347.969 848.72 342.529 852.96C337.089 857.12 331.289 859.2 325.129 859.2C318.489 859.2 313.089 857.4 308.929 853.8C304.769 850.12 301.929 845.8 300.409 840.84L302.929 839.52C304.449 843.6 306.689 846.8 309.649 849.12C312.689 851.44 316.249 852.6 320.329 852.6C324.889 852.6 328.529 851.08 331.249 848.04C334.049 845 335.449 841.04 335.449 836.16C335.449 830.72 333.449 826.68 329.449 824.04C325.529 821.32 321.169 820.6 316.369 821.88L316.009 821.16L334.729 799.08H317.089ZM355.063 850.2C355.063 847.72 355.943 845.6 357.703 843.84C359.463 842.08 361.583 841.2 364.063 841.2C366.623 841.2 368.783 842.08 370.543 843.84C372.303 845.6 373.183 847.72 373.183 850.2C373.183 852.68 372.303 854.8 370.543 856.56C368.783 858.32 366.623 859.2 364.063 859.2C361.583 859.2 359.463 858.32 357.703 856.56C355.943 854.8 355.063 852.68 355.063 850.2ZM381.135 789.48C381.135 787.08 382.015 785.08 383.775 783.48C385.535 781.8 387.615 780.96 390.015 780.96C392.415 780.96 394.455 781.8 396.135 783.48C397.815 785.08 398.655 787.08 398.655 789.48C398.655 791.88 397.815 793.88 396.135 795.48C394.455 797.08 392.415 797.88 390.015 797.88C387.615 797.88 385.535 797.08 383.775 795.48C382.015 793.88 381.135 791.88 381.135 789.48ZM382.455 866.28V815.04C382.455 812.08 382.055 810.24 381.255 809.52C380.455 808.72 378.815 808.32 376.335 808.32V805.8H397.935V861C397.935 868.2 395.815 873.48 391.575 876.84C387.415 880.28 382.415 882 376.575 882C373.615 882 371.095 881.64 369.015 880.92C366.855 880.2 365.255 879.36 364.215 878.4L365.295 876.24C366.335 876.96 367.415 877.52 368.535 877.92C369.575 878.32 370.855 878.52 372.375 878.52C375.335 878.52 377.735 877.52 379.575 875.52C381.495 873.6 382.455 870.52 382.455 866.28ZM425.206 855.84C427.846 855.84 429.966 855.2 431.566 853.92C433.166 852.64 433.966 850.76 433.966 848.28C433.966 846.2 433.246 844.6 431.806 843.48C430.446 842.28 428.606 841.08 426.286 839.88L417.166 835.08C414.286 833.64 411.966 831.76 410.206 829.44C408.446 827.12 407.566 824.24 407.566 820.8C407.566 816 409.406 812.12 413.086 809.16C416.766 806.12 421.046 804.6 425.926 804.6C429.046 804.6 431.566 805.12 433.486 806.16C435.406 807.12 436.846 807.6 437.806 807.6C438.526 807.6 439.046 807.36 439.366 806.88C439.686 806.4 439.926 805.88 440.086 805.32H441.766L442.726 821.04L440.446 821.16C439.886 817.24 438.326 814.04 435.766 811.56C433.206 809.08 430.246 807.84 426.886 807.84C424.566 807.84 422.726 808.48 421.366 809.76C420.086 811.04 419.446 812.68 419.446 814.68C419.446 816.6 420.046 818.12 421.246 819.24C422.526 820.28 424.126 821.28 426.046 822.24L434.326 826.68C437.526 828.36 440.126 830.44 442.126 832.92C444.206 835.32 445.246 838.36 445.246 842.04C445.246 847.16 443.326 851.32 439.486 854.52C435.726 857.64 431.086 859.2 425.566 859.2C421.646 859.2 418.566 858.52 416.326 857.16C414.166 855.8 412.686 855.12 411.886 855.12C411.246 855.12 410.686 855.48 410.206 856.2C409.806 856.84 409.526 857.52 409.366 858.24H407.566L406.606 840.12L409.006 840C409.566 844.56 411.366 848.36 414.406 851.4C417.526 854.36 421.126 855.84 425.206 855.84ZM498.182 859.2H497.582L476.342 814.56C475.142 811.92 474.102 810.24 473.222 809.52C472.422 808.72 470.902 808.32 468.662 808.32V805.8H497.222V808.32C495.302 808.32 493.862 808.44 492.902 808.68C491.942 808.92 491.462 809.56 491.462 810.6C491.462 811.08 491.582 811.68 491.822 812.4C492.062 813.04 492.382 813.8 492.782 814.68L503.462 839.52L513.302 815.4C513.622 814.44 513.902 813.64 514.142 813C514.382 812.28 514.502 811.64 514.502 811.08C514.502 809.8 513.862 809.04 512.582 808.8C511.382 808.48 509.582 808.32 507.182 808.32V805.8H525.902V808.32C523.502 808.32 521.822 808.72 520.862 809.52C519.982 810.32 518.822 812.32 517.382 815.52L498.182 859.2ZM534.953 827.52H557.033V800.76L534.953 827.52ZM582.353 855.12V858H547.673V855.12C551.353 855.12 553.833 854.84 555.113 854.28C556.393 853.64 557.033 851.88 557.033 849V832.56H527.273V831.6L566.273 784.8H572.873V827.52H575.513C579.193 827.52 582.073 827.44 584.153 827.28C586.233 827.04 588.233 826.44 590.153 825.48H590.633L587.753 832.56H572.873V849C572.873 851.88 573.513 853.64 574.793 854.28C576.153 854.84 578.673 855.12 582.353 855.12Z" fill="white"/>
<rect x="679.5" y="691.75" width="836" height="259.25" rx="14.5" fill="url(#paint2_radial_14_267)" fill-opacity="0.96" stroke="#787878" stroke-width="3"/>
<path d="M2999.14 821.095C2999.14 818.108 2999.59 815.175 3000.5 812.295C3001.46 809.362 3002.76 806.775 3004.42 804.535C3006.07 802.295 3008.02 800.482 3010.26 799.095C3012.55 797.708 3015.03 797.015 3017.7 797.015C3020.31 797.015 3022.74 797.708 3024.98 799.095C3027.27 800.482 3029.22 802.295 3030.82 804.535C3032.47 806.775 3033.75 809.362 3034.66 812.295C3035.62 815.175 3036.1 818.108 3036.1 821.095C3036.1 824.082 3035.62 827.042 3034.66 829.975C3033.75 832.855 3032.47 835.415 3030.82 837.655C3029.22 839.895 3027.27 841.708 3024.98 843.095C3022.74 844.482 3020.31 845.175 3017.7 845.175C3015.03 845.175 3012.55 844.482 3010.26 843.095C3008.02 841.708 3006.07 839.895 3004.42 837.655C3002.76 835.415 3001.46 832.855 3000.5 829.975C2999.59 827.042 2999.14 824.082 2999.14 821.095ZM3028.18 821.095C3028.18 818.535 3027.96 816.028 3027.54 813.575C3027.16 811.068 3026.55 808.855 3025.7 806.935C3024.9 805.015 3023.83 803.468 3022.5 802.295C3021.16 801.068 3019.56 800.455 3017.7 800.455C3015.83 800.455 3014.2 801.068 3012.82 802.295C3011.48 803.468 3010.36 805.015 3009.46 806.935C3008.6 808.855 3007.96 811.068 3007.54 813.575C3007.16 816.028 3006.98 818.535 3006.98 821.095C3006.98 823.655 3007.16 826.188 3007.54 828.695C3007.96 831.148 3008.6 833.335 3009.46 835.255C3010.36 837.175 3011.48 838.748 3012.82 839.975C3014.2 841.148 3015.83 841.735 3017.7 841.735C3019.56 841.735 3021.16 841.148 3022.5 839.975C3023.83 838.748 3024.9 837.175 3025.7 835.255C3026.55 833.335 3027.16 831.148 3027.54 828.695C3027.96 826.188 3028.18 823.655 3028.18 821.095ZM3040.11 839.975C3040.11 838.535 3040.62 837.308 3041.63 836.295C3042.65 835.282 3043.87 834.775 3045.31 834.775C3046.75 834.775 3047.98 835.282 3048.99 836.295C3050.01 837.308 3050.51 838.535 3050.51 839.975C3050.51 841.415 3050.01 842.642 3048.99 843.655C3047.98 844.668 3046.75 845.175 3045.31 845.175C3043.87 845.175 3042.65 844.668 3041.63 843.655C3040.62 842.642 3040.11 841.415 3040.11 839.975ZM3072.87 845.175C3068.23 845.175 3064.42 843.948 3061.43 841.495C3058.44 839.042 3056.95 836.215 3056.95 833.015C3056.95 830.295 3057.96 827.948 3059.99 825.975C3062.02 824.002 3064.39 822.428 3067.11 821.255C3064.82 819.815 3062.82 818.188 3061.11 816.375C3059.46 814.562 3058.63 812.348 3058.63 809.735C3058.63 806.215 3059.99 803.228 3062.71 800.775C3065.48 798.268 3068.79 797.015 3072.63 797.015C3077 797.015 3080.47 798.135 3083.03 800.375C3085.64 802.562 3086.95 805.175 3086.95 808.215C3086.95 810.935 3085.94 813.202 3083.91 815.015C3081.94 816.828 3079.7 818.242 3077.19 819.255L3080.23 821.015C3082.68 822.402 3084.76 823.975 3086.47 825.735C3088.18 827.442 3089.03 829.495 3089.03 831.895C3089.03 835.522 3087.56 838.642 3084.63 841.255C3081.75 843.868 3077.83 845.175 3072.87 845.175ZM3071.11 815.815L3074.95 817.975C3076.6 817.122 3078.07 815.975 3079.35 814.535C3080.68 813.095 3081.35 811.068 3081.35 808.455C3081.35 806.482 3080.66 804.615 3079.27 802.855C3077.88 801.095 3075.67 800.215 3072.63 800.215C3070.55 800.215 3068.76 800.882 3067.27 802.215C3065.83 803.548 3065.11 805.362 3065.11 807.655C3065.11 809.308 3065.7 810.855 3066.87 812.295C3068.04 813.735 3069.46 814.908 3071.11 815.815ZM3072.87 841.975C3075.48 841.975 3077.72 841.335 3079.59 840.055C3081.46 838.722 3082.39 836.855 3082.39 834.455C3082.39 832.802 3081.86 831.388 3080.79 830.215C3079.78 829.042 3078.36 827.922 3076.55 826.855L3069.35 822.615C3067.43 823.735 3065.88 825.068 3064.71 826.615C3063.59 828.162 3063.03 830.002 3063.03 832.135C3063.03 835.122 3064.02 837.522 3065.99 839.335C3067.96 841.095 3070.26 841.975 3072.87 841.975ZM3093.71 844.375V843.415L3105.87 830.615C3110.24 826.028 3113.01 822.402 3114.19 819.735C3115.36 817.015 3115.95 814.295 3115.95 811.575C3115.95 808.855 3115.17 806.668 3113.63 805.015C3112.08 803.308 3109.95 802.455 3107.23 802.455C3104.4 802.455 3102.21 803.335 3100.67 805.095C3099.17 806.802 3097.95 808.642 3096.99 810.615L3094.27 809.415C3095.28 806.375 3097.04 803.548 3099.55 800.935C3102.11 798.322 3105.49 797.015 3109.71 797.015C3113.76 797.015 3117.04 798.215 3119.55 800.615C3122.05 802.962 3123.31 806.135 3123.31 810.135C3123.31 815.095 3121.33 819.628 3117.39 823.735C3113.44 827.842 3108.53 832.748 3102.67 838.455H3122.03L3122.91 831.335H3125.79V844.375H3093.71ZM3133.84 819.175C3133.84 816.402 3134.86 814.108 3136.88 812.295C3138.96 810.428 3141.52 809.495 3144.56 809.495C3146.11 809.495 3147.52 809.762 3148.8 810.295C3150.08 810.775 3151.23 811.522 3152.24 812.535L3153.04 809.815H3155.36V820.855H3152.72C3152.19 818.082 3151.23 815.975 3149.84 814.535C3148.51 813.095 3146.8 812.375 3144.72 812.375C3143.12 812.375 3141.82 812.828 3140.8 813.735C3139.79 814.642 3139.28 815.815 3139.28 817.255C3139.28 818.268 3139.6 819.148 3140.24 819.895C3140.88 820.642 3142.24 821.548 3144.32 822.615L3150 825.495C3152.56 826.775 3154.38 828.135 3155.44 829.575C3156.51 830.962 3157.04 832.642 3157.04 834.615C3157.04 837.655 3155.87 840.188 3153.52 842.215C3151.18 844.188 3148.3 845.175 3144.88 845.175C3143.12 845.175 3141.47 844.828 3139.92 844.135C3138.38 843.442 3137.12 842.508 3136.16 841.335L3135.44 844.375H3133.04V831.975H3135.76C3136.14 835.228 3137.12 837.735 3138.72 839.495C3140.32 841.255 3142.32 842.135 3144.72 842.135C3146.7 842.135 3148.27 841.655 3149.44 840.695C3150.62 839.735 3151.2 838.482 3151.2 836.935C3151.2 835.762 3150.88 834.802 3150.24 834.055C3149.66 833.255 3148.62 832.482 3147.12 831.735L3140.64 828.535C3138.19 827.308 3136.43 825.975 3135.36 824.535C3134.35 823.042 3133.84 821.255 3133.84 819.175Z" fill="white"/>
<rect x="663.5" y="675.75" width="2555" height="291.25" rx="30.5" stroke="white" stroke-opacity="0.23" stroke-width="3"/>
<path d="M179 1189.08C176.2 1189.08 173.84 1190.32 171.92 1192.8C170.08 1195.28 169 1198.92 168.68 1203.72H188.24C188.08 1199.48 187.24 1196 185.72 1193.28C184.2 1190.48 181.96 1189.08 179 1189.08ZM201.44 1227.6C198.96 1231.76 195.84 1234.92 192.08 1237.08C188.32 1239.25 184.4 1240.33 180.32 1240.33C173.12 1240.33 166.88 1237.88 161.6 1233C156.4 1228.12 153.8 1221.76 153.8 1213.92C153.8 1206 156.44 1199.32 161.72 1193.88C167.08 1188.44 173.04 1185.72 179.6 1185.72C186.48 1185.72 191.68 1188 195.2 1192.56C198.8 1197.12 200.64 1201.92 200.72 1206.96H168.56V1207.2C168.56 1214.64 170.4 1220.76 174.08 1225.56C177.76 1230.28 182.32 1232.64 187.76 1232.64C190.24 1232.64 192.44 1232.12 194.36 1231.08C196.36 1230.04 198.16 1228.44 199.76 1226.28L201.44 1227.6ZM204.417 1188.84C208.017 1186.92 211.737 1184.28 215.577 1180.92C219.417 1177.56 222.377 1174.44 224.457 1171.56H225.417V1187.16C227.337 1187.16 230.017 1187.12 233.457 1187.04C236.897 1186.96 239.497 1186.84 241.257 1186.68L240.537 1190.88H225.417V1223.52C225.417 1226.32 226.057 1228.64 227.337 1230.48C228.617 1232.32 230.497 1233.24 232.977 1233.24C234.737 1233.24 236.257 1232.84 237.537 1232.04C238.817 1231.16 240.097 1229.84 241.377 1228.08L243.057 1229.64C241.137 1232.84 238.657 1235.44 235.617 1237.44C232.657 1239.37 229.257 1240.33 225.417 1240.33C221.017 1240.33 217.297 1238.93 214.257 1236.12C211.297 1233.24 209.817 1229.52 209.817 1224.96L210.177 1190.76H204.417V1188.84ZM271.04 1236.6V1239.12H243.56V1236.6C246.12 1236.6 247.76 1236.24 248.48 1235.52C249.2 1234.72 249.56 1232.84 249.56 1229.88V1170.12C249.56 1167.16 249.08 1165.36 248.12 1164.72C247.16 1164 245.24 1163.64 242.36 1163.64V1161.12H265.16V1196.28C266.36 1193.72 268.4 1191.32 271.28 1189.08C274.24 1186.84 277.6 1185.72 281.36 1185.72C286.88 1185.72 291 1187.44 293.72 1190.88C296.52 1194.32 297.92 1198.44 297.92 1203.24V1229.88C297.92 1232.84 298.28 1234.72 299 1235.52C299.72 1236.24 301.36 1236.6 303.92 1236.6V1239.12H276.32V1236.6C278.88 1236.6 280.52 1236.24 281.24 1235.52C281.96 1234.72 282.32 1232.84 282.32 1229.88V1205.4C282.32 1201.24 281.52 1198.2 279.92 1196.28C278.32 1194.28 276.16 1193.28 273.44 1193.28C271.76 1193.28 270.16 1193.8 268.64 1194.84C267.2 1195.8 266.04 1197.2 265.16 1199.04V1229.88C265.16 1232.84 265.52 1234.72 266.24 1235.52C266.96 1236.24 268.56 1236.6 271.04 1236.6ZM331.695 1189.08C328.895 1189.08 326.535 1190.32 324.615 1192.8C322.775 1195.28 321.695 1198.92 321.375 1203.72H340.935C340.775 1199.48 339.935 1196 338.415 1193.28C336.895 1190.48 334.655 1189.08 331.695 1189.08ZM354.135 1227.6C351.655 1231.76 348.535 1234.92 344.775 1237.08C341.015 1239.25 337.095 1240.33 333.015 1240.33C325.815 1240.33 319.575 1237.88 314.295 1233C309.095 1228.12 306.495 1221.76 306.495 1213.92C306.495 1206 309.135 1199.32 314.415 1193.88C319.775 1188.44 325.735 1185.72 332.295 1185.72C339.175 1185.72 344.375 1188 347.895 1192.56C351.495 1197.12 353.335 1201.92 353.415 1206.96H321.255V1207.2C321.255 1214.64 323.095 1220.76 326.775 1225.56C330.455 1230.28 335.015 1232.64 340.455 1232.64C342.935 1232.64 345.135 1232.12 347.055 1231.08C349.055 1230.04 350.855 1228.44 352.455 1226.28L354.135 1227.6ZM387.712 1236.6V1239.12H357.712V1236.6C360.272 1236.6 361.912 1236.24 362.632 1235.52C363.432 1234.72 363.832 1232.84 363.832 1229.88V1196.16C363.832 1193.2 363.432 1191.36 362.632 1190.64C361.912 1189.84 360.272 1189.44 357.712 1189.44V1186.92H379.192V1199.16C382.072 1194.6 384.512 1191.24 386.512 1189.08C388.512 1186.84 390.752 1185.72 393.232 1185.72C394.912 1185.72 396.512 1186.2 398.032 1187.16C399.632 1188.12 400.832 1189.12 401.632 1190.16L397.552 1203.85L397.072 1203.96C395.792 1201.72 394.152 1199.92 392.152 1198.56C390.152 1197.12 388.272 1196.4 386.512 1196.4C385.312 1196.4 384.112 1196.88 382.912 1197.84C381.792 1198.8 380.552 1200.12 379.192 1201.8V1229.88C379.192 1232.84 379.712 1234.68 380.752 1235.4C381.792 1236.12 384.112 1236.52 387.712 1236.6ZM422.495 1236.96C425.135 1236.96 427.255 1236.32 428.855 1235.04C430.455 1233.76 431.255 1231.88 431.255 1229.4C431.255 1227.32 430.535 1225.72 429.095 1224.6C427.735 1223.4 425.895 1222.2 423.575 1221L414.455 1216.2C411.575 1214.76 409.255 1212.88 407.495 1210.56C405.735 1208.24 404.855 1205.36 404.855 1201.92C404.855 1197.12 406.695 1193.24 410.375 1190.28C414.055 1187.24 418.335 1185.72 423.215 1185.72C426.335 1185.72 428.855 1186.24 430.775 1187.28C432.695 1188.24 434.135 1188.72 435.095 1188.72C435.815 1188.72 436.335 1188.48 436.655 1188C436.975 1187.52 437.215 1187 437.375 1186.44H439.055L440.015 1202.16L437.735 1202.28C437.175 1198.36 435.615 1195.16 433.055 1192.68C430.495 1190.2 427.535 1188.96 424.175 1188.96C421.855 1188.96 420.015 1189.6 418.655 1190.88C417.375 1192.16 416.735 1193.8 416.735 1195.8C416.735 1197.72 417.335 1199.24 418.535 1200.36C419.815 1201.4 421.415 1202.4 423.335 1203.36L431.615 1207.8C434.815 1209.48 437.415 1211.56 439.415 1214.04C441.495 1216.44 442.535 1219.48 442.535 1223.16C442.535 1228.28 440.615 1232.44 436.775 1235.64C433.015 1238.77 428.375 1240.33 422.855 1240.33C418.935 1240.33 415.855 1239.65 413.615 1238.28C411.455 1236.92 409.975 1236.24 409.175 1236.24C408.535 1236.24 407.975 1236.6 407.495 1237.32C407.095 1237.96 406.815 1238.64 406.655 1239.37H404.855L403.895 1221.24L406.295 1221.12C406.855 1225.68 408.655 1229.48 411.695 1232.52C414.815 1235.48 418.415 1236.96 422.495 1236.96ZM495.471 1240.33H494.871L473.631 1195.68C472.431 1193.04 471.391 1191.36 470.511 1190.64C469.711 1189.84 468.191 1189.44 465.951 1189.44V1186.92H494.511V1189.44C492.591 1189.44 491.151 1189.56 490.191 1189.8C489.231 1190.04 488.751 1190.68 488.751 1191.72C488.751 1192.2 488.871 1192.8 489.111 1193.52C489.351 1194.16 489.671 1194.92 490.071 1195.8L500.751 1220.64L510.591 1196.52C510.911 1195.56 511.191 1194.76 511.431 1194.12C511.671 1193.4 511.791 1192.76 511.791 1192.2C511.791 1190.92 511.151 1190.16 509.871 1189.92C508.671 1189.6 506.871 1189.44 504.471 1189.44V1186.92H523.191V1189.44C520.791 1189.44 519.111 1189.84 518.151 1190.64C517.271 1191.44 516.111 1193.44 514.671 1196.64L495.471 1240.33ZM556.602 1167.12C562.762 1167.12 566.682 1166.88 568.362 1166.4C570.042 1165.92 571.402 1164.56 572.442 1162.32H574.602L570.282 1180.92H538.962L536.082 1199.76C537.682 1198.32 539.882 1197.08 542.682 1196.04C545.562 1194.92 548.562 1194.36 551.682 1194.36C557.922 1194.36 563.402 1196.28 568.122 1200.12C572.842 1203.96 575.202 1209.24 575.202 1215.96C575.202 1223.16 572.482 1229.04 567.042 1233.6C561.602 1238.08 555.562 1240.33 548.922 1240.33C542.202 1240.33 536.642 1238.48 532.242 1234.8C527.922 1231.04 525.002 1226.72 523.482 1221.84L526.002 1220.52C527.442 1224.6 529.722 1227.8 532.842 1230.12C536.042 1232.44 539.522 1233.6 543.282 1233.6C548.322 1233.6 552.202 1231.96 554.922 1228.68C557.722 1225.4 559.122 1221.36 559.122 1216.56C559.122 1211.68 557.642 1207.88 554.682 1205.16C551.802 1202.44 548.322 1201.08 544.242 1201.08C542.002 1201.08 540.002 1201.48 538.242 1202.28C536.482 1203.08 534.722 1204 532.962 1205.04L532.122 1204.8L537.762 1167.12H556.602Z" fill="white"/>
<rect x="679.5" y="1066" width="1527" height="259.25" rx="14.5" fill="url(#paint3_radial_14_267)" fill-opacity="0.96" stroke="#787878" stroke-width="3"/>
<path d="M3033.77 1218.62H3006.17V1215.02H3016.89V1178.06L3005.85 1180.7V1177.18L3023.93 1171.26V1215.02H3033.77V1218.62ZM3040.43 1214.22C3040.43 1212.78 3040.93 1211.56 3041.95 1210.54C3042.96 1209.53 3044.19 1209.02 3045.62 1209.02C3047.07 1209.02 3048.29 1209.53 3049.31 1210.54C3050.32 1211.56 3050.83 1212.78 3050.83 1214.22C3050.83 1215.66 3050.32 1216.89 3049.31 1217.9C3048.29 1218.92 3047.07 1219.43 3045.62 1219.43C3044.19 1219.43 3042.96 1218.92 3041.95 1217.9C3040.93 1216.89 3040.43 1215.66 3040.43 1214.22ZM3072.66 1219.43C3070.48 1219.43 3068.34 1218.95 3066.26 1217.98C3064.24 1217.02 3062.42 1215.69 3060.82 1213.98C3059.28 1212.22 3058.02 1210.12 3057.06 1207.66C3056.1 1205.21 3055.62 1202.49 3055.62 1199.5C3055.62 1195.72 3056.32 1192.14 3057.7 1188.78C3059.09 1185.37 3061.01 1182.41 3063.46 1179.9C3065.97 1177.34 3068.93 1175.32 3072.34 1173.82C3075.81 1172.33 3079.6 1171.59 3083.7 1171.59C3084.29 1171.59 3084.88 1171.61 3085.46 1171.66C3086.1 1171.72 3086.72 1171.77 3087.3 1171.82V1175.02H3085.94C3078.96 1175.02 3073.54 1177 3069.7 1180.94C3065.92 1184.89 3063.76 1190.49 3063.22 1197.74C3064.61 1195.45 3066.32 1193.77 3068.34 1192.7C3070.42 1191.64 3072.53 1191.1 3074.66 1191.1C3078.29 1191.1 3081.46 1192.28 3084.18 1194.62C3086.96 1196.97 3088.34 1200.12 3088.34 1204.06C3088.34 1208.54 3086.8 1212.22 3083.7 1215.1C3080.61 1217.98 3076.93 1219.43 3072.66 1219.43ZM3072.98 1215.9C3075.38 1215.9 3077.41 1215.02 3079.06 1213.26C3080.72 1211.5 3081.54 1209.02 3081.54 1205.82C3081.54 1202.62 3080.61 1200.14 3078.74 1198.38C3076.93 1196.57 3074.58 1195.66 3071.7 1195.66C3070.05 1195.66 3068.42 1196.12 3066.82 1197.02C3065.28 1197.88 3064.05 1199.16 3063.14 1200.86V1201.18C3063.14 1205.66 3064.1 1209.24 3066.02 1211.9C3068 1214.57 3070.32 1215.9 3072.98 1215.9ZM3111.41 1219.43C3109.23 1219.43 3107.09 1218.95 3105.01 1217.98C3102.99 1217.02 3101.17 1215.69 3099.57 1213.98C3098.03 1212.22 3096.77 1210.12 3095.81 1207.66C3094.85 1205.21 3094.37 1202.49 3094.37 1199.5C3094.37 1195.72 3095.07 1192.14 3096.45 1188.78C3097.84 1185.37 3099.76 1182.41 3102.21 1179.9C3104.72 1177.34 3107.68 1175.32 3111.09 1173.82C3114.56 1172.33 3118.35 1171.59 3122.45 1171.59C3123.04 1171.59 3123.63 1171.61 3124.21 1171.66C3124.85 1171.72 3125.47 1171.77 3126.05 1171.82V1175.02H3124.69C3117.71 1175.02 3112.29 1177 3108.45 1180.94C3104.67 1184.89 3102.51 1190.49 3101.97 1197.74C3103.36 1195.45 3105.07 1193.77 3107.09 1192.7C3109.17 1191.64 3111.28 1191.1 3113.41 1191.1C3117.04 1191.1 3120.21 1192.28 3122.93 1194.62C3125.71 1196.97 3127.09 1200.12 3127.09 1204.06C3127.09 1208.54 3125.55 1212.22 3122.45 1215.1C3119.36 1217.98 3115.68 1219.43 3111.41 1219.43ZM3111.73 1215.9C3114.13 1215.9 3116.16 1215.02 3117.81 1213.26C3119.47 1211.5 3120.29 1209.02 3120.29 1205.82C3120.29 1202.62 3119.36 1200.14 3117.49 1198.38C3115.68 1196.57 3113.33 1195.66 3110.45 1195.66C3108.8 1195.66 3107.17 1196.12 3105.57 1197.02C3104.03 1197.88 3102.8 1199.16 3101.89 1200.86V1201.18C3101.89 1205.66 3102.85 1209.24 3104.77 1211.9C3106.75 1214.57 3109.07 1215.9 3111.73 1215.9ZM3133.84 1193.42C3133.84 1190.65 3134.86 1188.36 3136.88 1186.54C3138.96 1184.68 3141.52 1183.74 3144.56 1183.74C3146.11 1183.74 3147.52 1184.01 3148.8 1184.54C3150.08 1185.02 3151.23 1185.77 3152.24 1186.78L3153.04 1184.06H3155.36V1195.11H3152.72C3152.19 1192.33 3151.23 1190.22 3149.84 1188.78C3148.51 1187.34 3146.8 1186.62 3144.72 1186.62C3143.12 1186.62 3141.82 1187.08 3140.8 1187.98C3139.79 1188.89 3139.28 1190.06 3139.28 1191.5C3139.28 1192.52 3139.6 1193.4 3140.24 1194.14C3140.88 1194.89 3142.24 1195.8 3144.32 1196.86L3150 1199.74C3152.56 1201.02 3154.38 1202.38 3155.44 1203.82C3156.51 1205.21 3157.04 1206.89 3157.04 1208.86C3157.04 1211.9 3155.87 1214.44 3153.52 1216.46C3151.18 1218.44 3148.3 1219.43 3144.88 1219.43C3143.12 1219.43 3141.47 1219.08 3139.92 1218.38C3138.38 1217.69 3137.12 1216.76 3136.16 1215.58L3135.44 1218.62H3133.04V1206.22H3135.76C3136.14 1209.48 3137.12 1211.98 3138.72 1213.74C3140.32 1215.5 3142.32 1216.38 3144.72 1216.38C3146.7 1216.38 3148.27 1215.9 3149.44 1214.94C3150.62 1213.98 3151.2 1212.73 3151.2 1211.18C3151.2 1210.01 3150.88 1209.05 3150.24 1208.3C3149.66 1207.5 3148.62 1206.73 3147.12 1205.98L3140.64 1202.78C3138.19 1201.56 3136.43 1200.22 3135.36 1198.78C3134.35 1197.29 3133.84 1195.5 3133.84 1193.42Z" fill="white"/>
<rect x="663.5" y="1050" width="2555" height="291.25" rx="30.5" stroke="white" stroke-opacity="0.23" stroke-width="3"/>
<path d="M179 1563.33C176.2 1563.33 173.84 1564.57 171.92 1567.05C170.08 1569.53 169 1573.17 168.68 1577.97H188.24C188.08 1573.73 187.24 1570.25 185.72 1567.53C184.2 1564.73 181.96 1563.33 179 1563.33ZM201.44 1601.85C198.96 1606.01 195.84 1609.17 192.08 1611.33C188.32 1613.5 184.4 1614.58 180.32 1614.58C173.12 1614.58 166.88 1612.13 161.6 1607.25C156.4 1602.37 153.8 1596.01 153.8 1588.17C153.8 1580.25 156.44 1573.57 161.72 1568.13C167.08 1562.69 173.04 1559.97 179.6 1559.97C186.48 1559.97 191.68 1562.25 195.2 1566.81C198.8 1571.37 200.64 1576.17 200.72 1581.21H168.56V1581.45C168.56 1588.89 170.4 1595.01 174.08 1599.81C177.76 1604.53 182.32 1606.89 187.76 1606.89C190.24 1606.89 192.44 1606.37 194.36 1605.33C196.36 1604.29 198.16 1602.69 199.76 1600.53L201.44 1601.85ZM204.417 1563.09C208.017 1561.17 211.737 1558.53 215.577 1555.17C219.417 1551.81 222.377 1548.69 224.457 1545.81H225.417V1561.41C227.337 1561.41 230.017 1561.37 233.457 1561.29C236.897 1561.21 239.497 1561.09 241.257 1560.93L240.537 1565.13H225.417V1597.77C225.417 1600.57 226.057 1602.89 227.337 1604.73C228.617 1606.57 230.497 1607.49 232.977 1607.49C234.737 1607.49 236.257 1607.09 237.537 1606.29C238.817 1605.41 240.097 1604.09 241.377 1602.33L243.057 1603.89C241.137 1607.09 238.657 1609.69 235.617 1611.69C232.657 1613.62 229.257 1614.58 225.417 1614.58C221.017 1614.58 217.297 1613.18 214.257 1610.37C211.297 1607.49 209.817 1603.77 209.817 1599.21L210.177 1565.01H204.417V1563.09ZM271.04 1610.85V1613.38H243.56V1610.85C246.12 1610.85 247.76 1610.49 248.48 1609.77C249.2 1608.97 249.56 1607.09 249.56 1604.13V1544.37C249.56 1541.41 249.08 1539.61 248.12 1538.97C247.16 1538.25 245.24 1537.89 242.36 1537.89V1535.37H265.16V1570.53C266.36 1567.97 268.4 1565.57 271.28 1563.33C274.24 1561.09 277.6 1559.97 281.36 1559.97C286.88 1559.97 291 1561.69 293.72 1565.13C296.52 1568.57 297.92 1572.69 297.92 1577.49V1604.13C297.92 1607.09 298.28 1608.97 299 1609.77C299.72 1610.49 301.36 1610.85 303.92 1610.85V1613.38H276.32V1610.85C278.88 1610.85 280.52 1610.49 281.24 1609.77C281.96 1608.97 282.32 1607.09 282.32 1604.13V1579.65C282.32 1575.49 281.52 1572.45 279.92 1570.53C278.32 1568.53 276.16 1567.53 273.44 1567.53C271.76 1567.53 270.16 1568.05 268.64 1569.09C267.2 1570.05 266.04 1571.45 265.16 1573.29V1604.13C265.16 1607.09 265.52 1608.97 266.24 1609.77C266.96 1610.49 268.56 1610.85 271.04 1610.85ZM331.695 1563.33C328.895 1563.33 326.535 1564.57 324.615 1567.05C322.775 1569.53 321.695 1573.17 321.375 1577.97H340.935C340.775 1573.73 339.935 1570.25 338.415 1567.53C336.895 1564.73 334.655 1563.33 331.695 1563.33ZM354.135 1601.85C351.655 1606.01 348.535 1609.17 344.775 1611.33C341.015 1613.5 337.095 1614.58 333.015 1614.58C325.815 1614.58 319.575 1612.13 314.295 1607.25C309.095 1602.37 306.495 1596.01 306.495 1588.17C306.495 1580.25 309.135 1573.57 314.415 1568.13C319.775 1562.69 325.735 1559.97 332.295 1559.97C339.175 1559.97 344.375 1562.25 347.895 1566.81C351.495 1571.37 353.335 1576.17 353.415 1581.21H321.255V1581.45C321.255 1588.89 323.095 1595.01 326.775 1599.81C330.455 1604.53 335.015 1606.89 340.455 1606.89C342.935 1606.89 345.135 1606.37 347.055 1605.33C349.055 1604.29 350.855 1602.69 352.455 1600.53L354.135 1601.85ZM387.712 1610.85V1613.38H357.712V1610.85C360.272 1610.85 361.912 1610.49 362.632 1609.77C363.432 1608.97 363.832 1607.09 363.832 1604.13V1570.41C363.832 1567.45 363.432 1565.61 362.632 1564.89C361.912 1564.09 360.272 1563.69 357.712 1563.69V1561.17H379.192V1573.41C382.072 1568.85 384.512 1565.49 386.512 1563.33C388.512 1561.09 390.752 1559.97 393.232 1559.97C394.912 1559.97 396.512 1560.45 398.032 1561.41C399.632 1562.37 400.832 1563.37 401.632 1564.41L397.552 1578.1L397.072 1578.21C395.792 1575.97 394.152 1574.17 392.152 1572.81C390.152 1571.37 388.272 1570.65 386.512 1570.65C385.312 1570.65 384.112 1571.13 382.912 1572.09C381.792 1573.05 380.552 1574.37 379.192 1576.05V1604.13C379.192 1607.09 379.712 1608.93 380.752 1609.65C381.792 1610.37 384.112 1610.77 387.712 1610.85ZM422.495 1611.21C425.135 1611.21 427.255 1610.57 428.855 1609.29C430.455 1608.01 431.255 1606.13 431.255 1603.65C431.255 1601.57 430.535 1599.97 429.095 1598.85C427.735 1597.65 425.895 1596.45 423.575 1595.25L414.455 1590.45C411.575 1589.01 409.255 1587.13 407.495 1584.81C405.735 1582.49 404.855 1579.61 404.855 1576.17C404.855 1571.37 406.695 1567.49 410.375 1564.53C414.055 1561.49 418.335 1559.97 423.215 1559.97C426.335 1559.97 428.855 1560.49 430.775 1561.53C432.695 1562.49 434.135 1562.97 435.095 1562.97C435.815 1562.97 436.335 1562.73 436.655 1562.25C436.975 1561.77 437.215 1561.25 437.375 1560.69H439.055L440.015 1576.41L437.735 1576.53C437.175 1572.61 435.615 1569.41 433.055 1566.93C430.495 1564.45 427.535 1563.21 424.175 1563.21C421.855 1563.21 420.015 1563.85 418.655 1565.13C417.375 1566.41 416.735 1568.05 416.735 1570.05C416.735 1571.97 417.335 1573.49 418.535 1574.61C419.815 1575.65 421.415 1576.65 423.335 1577.61L431.615 1582.05C434.815 1583.73 437.415 1585.81 439.415 1588.29C441.495 1590.69 442.535 1593.73 442.535 1597.41C442.535 1602.53 440.615 1606.69 436.775 1609.89C433.015 1613.02 428.375 1614.58 422.855 1614.58C418.935 1614.58 415.855 1613.9 413.615 1612.53C411.455 1611.17 409.975 1610.49 409.175 1610.49C408.535 1610.49 407.975 1610.85 407.495 1611.57C407.095 1612.21 406.815 1612.89 406.655 1613.62H404.855L403.895 1595.49L406.295 1595.37C406.855 1599.93 408.655 1603.73 411.695 1606.77C414.815 1609.73 418.415 1611.21 422.495 1611.21ZM495.471 1614.58H494.871L473.631 1569.93C472.431 1567.29 471.391 1565.61 470.511 1564.89C469.711 1564.09 468.191 1563.69 465.951 1563.69V1561.17H494.511V1563.69C492.591 1563.69 491.151 1563.81 490.191 1564.05C489.231 1564.29 488.751 1564.93 488.751 1565.97C488.751 1566.45 488.871 1567.05 489.111 1567.77C489.351 1568.41 489.671 1569.17 490.071 1570.05L500.751 1594.89L510.591 1570.77C510.911 1569.81 511.191 1569.01 511.431 1568.37C511.671 1567.65 511.791 1567.01 511.791 1566.45C511.791 1565.17 511.151 1564.41 509.871 1564.17C508.671 1563.85 506.871 1563.69 504.471 1563.69V1561.17H523.191V1563.69C520.791 1563.69 519.111 1564.09 518.151 1564.89C517.271 1565.69 516.111 1567.69 514.671 1570.89L495.471 1614.58ZM554.802 1614.58C547.762 1614.58 541.322 1611.69 535.482 1605.93C529.642 1600.09 526.722 1592.45 526.722 1583.01C526.722 1571.33 531.282 1561.25 540.402 1552.78C549.522 1544.3 560.922 1540.05 574.602 1540.05C575.322 1540.05 576.042 1540.09 576.762 1540.17C577.482 1540.17 578.202 1540.21 578.922 1540.29L578.802 1542.82H577.482C567.002 1542.82 558.882 1546.29 553.122 1553.25C547.362 1560.21 544.042 1569.41 543.162 1580.85C545.082 1578.13 547.562 1575.93 550.602 1574.25C553.642 1572.57 556.882 1571.73 560.322 1571.73C566.082 1571.73 570.922 1573.53 574.842 1577.13C578.842 1580.73 580.842 1585.41 580.842 1591.17C580.842 1597.89 578.242 1603.49 573.042 1607.97C567.842 1612.37 561.762 1614.58 554.802 1614.58ZM555.762 1611.09C558.642 1611.09 561.122 1609.81 563.202 1607.25C565.282 1604.61 566.322 1600.57 566.322 1595.13C566.322 1590.09 565.082 1586.01 562.602 1582.89C560.122 1579.77 556.922 1578.21 553.002 1578.21C551.242 1578.21 549.402 1578.73 547.482 1579.77C545.642 1580.81 544.122 1582.33 542.922 1584.33C542.922 1584.81 542.922 1585.29 542.922 1585.77C542.922 1586.25 542.922 1586.77 542.922 1587.33C542.922 1594.61 544.162 1600.41 546.642 1604.73C549.122 1608.97 552.162 1611.09 555.762 1611.09Z" fill="white"/>
<rect x="679.5" y="1440.25" width="2217" height="259.25" rx="14.5" fill="url(#paint4_radial_14_267)" fill-opacity="0.96" stroke="#787878" stroke-width="3"/>
<path d="M3000.74 1592.88V1591.91L3012.9 1579.11C3017.27 1574.53 3020.04 1570.9 3021.22 1568.23C3022.39 1565.51 3022.98 1562.79 3022.98 1560.07C3022.98 1557.35 3022.2 1555.17 3020.66 1553.51C3019.11 1551.81 3016.98 1550.95 3014.26 1550.95C3011.43 1550.95 3009.24 1551.83 3007.7 1553.59C3006.2 1555.3 3004.98 1557.14 3004.02 1559.11L3001.3 1557.91C3002.31 1554.87 3004.07 1552.05 3006.58 1549.43C3009.14 1546.82 3012.52 1545.51 3016.74 1545.51C3020.79 1545.51 3024.07 1546.71 3026.58 1549.11C3029.08 1551.46 3030.34 1554.63 3030.34 1558.63C3030.34 1563.59 3028.36 1568.13 3024.42 1572.23C3020.47 1576.34 3015.56 1581.25 3009.7 1586.95H3029.06L3029.94 1579.83H3032.82V1592.88H3000.74ZM3041.75 1588.47C3041.75 1587.03 3042.26 1585.81 3043.27 1584.79C3044.29 1583.78 3045.51 1583.27 3046.95 1583.27C3048.39 1583.27 3049.62 1583.78 3050.63 1584.79C3051.65 1585.81 3052.15 1587.03 3052.15 1588.47C3052.15 1589.91 3051.65 1591.14 3050.63 1592.15C3049.62 1593.17 3048.39 1593.68 3046.95 1593.68C3045.51 1593.68 3044.29 1593.17 3043.27 1592.15C3042.26 1591.14 3041.75 1589.91 3041.75 1588.47ZM3074.51 1593.68C3069.87 1593.68 3066.06 1592.45 3063.07 1589.99C3060.08 1587.54 3058.59 1584.71 3058.59 1581.51C3058.59 1578.79 3059.6 1576.45 3061.63 1574.47C3063.66 1572.5 3066.03 1570.93 3068.75 1569.75C3066.46 1568.31 3064.46 1566.69 3062.75 1564.87C3061.1 1563.06 3060.27 1560.85 3060.27 1558.23C3060.27 1554.71 3061.63 1551.73 3064.35 1549.27C3067.12 1546.77 3070.43 1545.51 3074.27 1545.51C3078.64 1545.51 3082.11 1546.63 3084.67 1548.87C3087.28 1551.06 3088.59 1553.67 3088.59 1556.71C3088.59 1559.43 3087.58 1561.7 3085.55 1563.51C3083.58 1565.33 3081.34 1566.74 3078.83 1567.75L3081.87 1569.51C3084.32 1570.9 3086.4 1572.47 3088.11 1574.23C3089.82 1575.94 3090.67 1577.99 3090.67 1580.39C3090.67 1584.02 3089.2 1587.14 3086.27 1589.75C3083.39 1592.37 3079.47 1593.68 3074.51 1593.68ZM3072.75 1564.31L3076.59 1566.47C3078.24 1565.62 3079.71 1564.47 3080.99 1563.03C3082.32 1561.59 3082.99 1559.57 3082.99 1556.95C3082.99 1554.98 3082.3 1553.11 3080.91 1551.35C3079.52 1549.59 3077.31 1548.71 3074.27 1548.71C3072.19 1548.71 3070.4 1549.38 3068.91 1550.71C3067.47 1552.05 3066.75 1553.86 3066.75 1556.15C3066.75 1557.81 3067.34 1559.35 3068.51 1560.79C3069.68 1562.23 3071.1 1563.41 3072.75 1564.31ZM3074.51 1590.47C3077.12 1590.47 3079.36 1589.83 3081.23 1588.55C3083.1 1587.22 3084.03 1585.35 3084.03 1582.95C3084.03 1581.3 3083.5 1579.89 3082.43 1578.71C3081.42 1577.54 3080 1576.42 3078.19 1575.35L3070.99 1571.11C3069.07 1572.23 3067.52 1573.57 3066.35 1575.11C3065.23 1576.66 3064.67 1578.5 3064.67 1580.63C3064.67 1583.62 3065.66 1586.02 3067.63 1587.83C3069.6 1589.59 3071.9 1590.47 3074.51 1590.47ZM3110.47 1593.68C3106.57 1593.68 3103.32 1592.64 3100.71 1590.55C3098.09 1588.47 3096.28 1585.97 3095.27 1583.03L3098.07 1581.19C3099.13 1583.43 3100.63 1585.35 3102.55 1586.95C3104.47 1588.55 3106.79 1589.35 3109.51 1589.35C3112.55 1589.35 3114.97 1588.39 3116.79 1586.47C3118.65 1584.5 3119.59 1581.91 3119.59 1578.71C3119.59 1575.46 3118.68 1573.01 3116.87 1571.35C3115.05 1569.65 3112.6 1568.79 3109.51 1568.79C3108.28 1568.79 3107 1569.01 3105.67 1569.43C3104.39 1569.81 3103.08 1570.34 3101.75 1571.03L3100.87 1570.31L3104.07 1546.31H3125.27V1553.35H3106.71L3104.95 1566.31C3105.8 1565.94 3106.87 1565.59 3108.15 1565.27C3109.43 1564.95 3110.87 1564.79 3112.47 1564.79C3114.01 1564.79 3115.61 1565.09 3117.27 1565.67C3118.97 1566.21 3120.52 1567.03 3121.91 1568.15C3123.29 1569.27 3124.41 1570.71 3125.27 1572.47C3126.17 1574.23 3126.63 1576.31 3126.63 1578.71C3126.63 1581.01 3126.15 1583.09 3125.19 1584.95C3124.23 1586.77 3122.97 1588.34 3121.43 1589.67C3119.93 1590.95 3118.23 1591.94 3116.31 1592.63C3114.39 1593.33 3112.44 1593.68 3110.47 1593.68ZM3133.84 1567.67C3133.84 1564.9 3134.86 1562.61 3136.88 1560.79C3138.96 1558.93 3141.52 1557.99 3144.56 1557.99C3146.11 1557.99 3147.52 1558.26 3148.8 1558.79C3150.08 1559.27 3151.23 1560.02 3152.24 1561.03L3153.04 1558.31H3155.36V1569.36H3152.72C3152.19 1566.58 3151.23 1564.47 3149.84 1563.03C3148.51 1561.59 3146.8 1560.87 3144.72 1560.87C3143.12 1560.87 3141.82 1561.33 3140.8 1562.23C3139.79 1563.14 3139.28 1564.31 3139.28 1565.75C3139.28 1566.77 3139.6 1567.65 3140.24 1568.39C3140.88 1569.14 3142.24 1570.05 3144.32 1571.11L3150 1573.99C3152.56 1575.27 3154.38 1576.63 3155.44 1578.07C3156.51 1579.46 3157.04 1581.14 3157.04 1583.11C3157.04 1586.15 3155.87 1588.69 3153.52 1590.71C3151.18 1592.69 3148.3 1593.68 3144.88 1593.68C3143.12 1593.68 3141.47 1593.33 3139.92 1592.63C3138.38 1591.94 3137.12 1591.01 3136.16 1589.83L3135.44 1592.88H3133.04V1580.47H3135.76C3136.14 1583.73 3137.12 1586.23 3138.72 1587.99C3140.32 1589.75 3142.32 1590.63 3144.72 1590.63C3146.7 1590.63 3148.27 1590.15 3149.44 1589.19C3150.62 1588.23 3151.2 1586.98 3151.2 1585.43C3151.2 1584.26 3150.88 1583.3 3150.24 1582.55C3149.66 1581.75 3148.62 1580.98 3147.12 1580.23L3140.64 1577.03C3138.19 1575.81 3136.43 1574.47 3135.36 1573.03C3134.35 1571.54 3133.84 1569.75 3133.84 1567.67Z" fill="white"/>
<rect x="663.5" y="1424.25" width="2555" height="291.25" rx="30.5" stroke="white" stroke-opacity="0.23" stroke-width="3"/>
<path d="M2265.6 1807.16C2265.6 1805.83 2266.03 1804.73 2266.88 1803.88C2267.79 1802.97 2268.88 1802.52 2270.16 1802.52C2271.5 1802.52 2272.62 1802.97 2273.52 1803.88C2274.43 1804.73 2274.88 1805.83 2274.88 1807.16C2274.88 1808.44 2274.43 1809.53 2273.52 1810.44C2272.62 1811.29 2271.5 1811.72 2270.16 1811.72C2268.88 1811.72 2267.79 1811.29 2266.88 1810.44C2266.03 1809.53 2265.6 1808.44 2265.6 1807.16ZM2274.24 1818.92V1850.12H2278.96V1853H2262.48V1850.12H2267.2V1821.8H2262.48V1818.92H2274.24ZM2285.09 1827.8C2285.09 1825.03 2286.11 1822.73 2288.13 1820.92C2290.21 1819.05 2292.77 1818.12 2295.81 1818.12C2297.36 1818.12 2298.77 1818.39 2300.05 1818.92C2301.33 1819.4 2302.48 1820.15 2303.49 1821.16L2304.29 1818.44H2306.61V1829.48H2303.97C2303.44 1826.71 2302.48 1824.6 2301.09 1823.16C2299.76 1821.72 2298.05 1821 2295.97 1821C2294.37 1821 2293.07 1821.45 2292.05 1822.36C2291.04 1823.27 2290.53 1824.44 2290.53 1825.88C2290.53 1826.89 2290.85 1827.77 2291.49 1828.52C2292.13 1829.27 2293.49 1830.17 2295.57 1831.24L2301.25 1834.12C2303.81 1835.4 2305.63 1836.76 2306.69 1838.2C2307.76 1839.59 2308.29 1841.27 2308.29 1843.24C2308.29 1846.28 2307.12 1848.81 2304.77 1850.84C2302.43 1852.81 2299.55 1853.8 2296.13 1853.8C2294.37 1853.8 2292.72 1853.45 2291.17 1852.76C2289.63 1852.07 2288.37 1851.13 2287.41 1849.96L2286.69 1853H2284.29V1840.6H2287.01C2287.39 1843.85 2288.37 1846.36 2289.97 1848.12C2291.57 1849.88 2293.57 1850.76 2295.97 1850.76C2297.95 1850.76 2299.52 1850.28 2300.69 1849.32C2301.87 1848.36 2302.45 1847.11 2302.45 1845.56C2302.45 1844.39 2302.13 1843.43 2301.49 1842.68C2300.91 1841.88 2299.87 1841.11 2298.37 1840.36L2291.89 1837.16C2289.44 1835.93 2287.68 1834.6 2286.61 1833.16C2285.6 1831.67 2285.09 1829.88 2285.09 1827.8ZM2334.61 1813.08L2328.29 1831.24H2341.09L2334.61 1813.08ZM2328.53 1849.64V1853H2312.37V1849.64H2317.49L2333.25 1806.44H2339.41L2355.65 1849.64H2360.61V1853H2341.89V1849.64H2347.73L2342.29 1834.52H2327.09L2321.81 1849.64H2328.53ZM2380.08 1849.64C2381.46 1849.64 2382.74 1849.45 2383.92 1849.08C2385.09 1848.71 2386.16 1847.93 2387.12 1846.76V1822.68C2386.26 1822.15 2385.3 1821.77 2384.24 1821.56C2383.22 1821.35 2382.18 1821.24 2381.12 1821.24C2378.29 1821.24 2375.76 1822.44 2373.52 1824.84C2371.28 1827.24 2370.16 1830.84 2370.16 1835.64C2370.16 1839.27 2370.98 1842.52 2372.64 1845.4C2374.29 1848.23 2376.77 1849.64 2380.08 1849.64ZM2387.12 1853V1848.76C2385.94 1849.99 2384.5 1851.13 2382.8 1852.2C2381.14 1853.27 2379.25 1853.8 2377.12 1853.8C2373.28 1853.8 2369.94 1852.31 2367.12 1849.32C2364.34 1846.28 2362.96 1842.31 2362.96 1837.4C2362.96 1834.41 2363.46 1831.75 2364.48 1829.4C2365.49 1827 2366.8 1824.97 2368.4 1823.32C2370 1821.67 2371.84 1820.39 2373.92 1819.48C2376.05 1818.57 2378.18 1818.12 2380.32 1818.12C2381.6 1818.12 2382.8 1818.25 2383.92 1818.52C2385.09 1818.79 2386.16 1819.19 2387.12 1819.72V1803.08H2380V1800.2H2394.16V1850.12H2398.88V1853H2387.12ZM2421.17 1849.64C2422.56 1849.64 2423.84 1849.45 2425.01 1849.08C2426.18 1848.71 2427.25 1847.93 2428.21 1846.76V1822.68C2427.36 1822.15 2426.4 1821.77 2425.33 1821.56C2424.32 1821.35 2423.28 1821.24 2422.21 1821.24C2419.38 1821.24 2416.85 1822.44 2414.61 1824.84C2412.37 1827.24 2411.25 1830.84 2411.25 1835.64C2411.25 1839.27 2412.08 1842.52 2413.73 1845.4C2415.38 1848.23 2417.86 1849.64 2421.17 1849.64ZM2428.21 1853V1848.76C2427.04 1849.99 2425.6 1851.13 2423.89 1852.2C2422.24 1853.27 2420.34 1853.8 2418.21 1853.8C2414.37 1853.8 2411.04 1852.31 2408.21 1849.32C2405.44 1846.28 2404.05 1842.31 2404.05 1837.4C2404.05 1834.41 2404.56 1831.75 2405.57 1829.4C2406.58 1827 2407.89 1824.97 2409.49 1823.32C2411.09 1821.67 2412.93 1820.39 2415.01 1819.48C2417.14 1818.57 2419.28 1818.12 2421.41 1818.12C2422.69 1818.12 2423.89 1818.25 2425.01 1818.52C2426.18 1818.79 2427.25 1819.19 2428.21 1819.72V1803.08H2421.09V1800.2H2435.25V1850.12H2439.97V1853H2428.21ZM2462.98 1850.12V1853H2444.9V1850.12H2449.62V1821.8H2444.9V1818.92H2456.66V1824.84C2458.21 1823.35 2459.84 1821.85 2461.54 1820.36C2463.25 1818.87 2464.8 1818.12 2466.18 1818.12C2467.52 1818.12 2468.72 1818.47 2469.78 1819.16C2470.9 1819.85 2471.78 1820.57 2472.42 1821.32L2468.66 1827.16C2467.49 1826.31 2466.37 1825.56 2465.3 1824.92C2464.29 1824.28 2463.25 1823.96 2462.18 1823.96C2461.65 1823.96 2460.88 1824.15 2459.86 1824.52C2458.9 1824.84 2457.84 1825.53 2456.66 1826.6V1850.12H2462.98ZM2490.97 1821.08C2489.21 1821.08 2487.45 1821.91 2485.69 1823.56C2483.93 1825.16 2482.84 1827.64 2482.41 1831H2498.25C2498.14 1828.17 2497.45 1825.83 2496.17 1823.96C2494.94 1822.04 2493.21 1821.08 2490.97 1821.08ZM2505.53 1847.48C2503.88 1849.72 2501.9 1851.35 2499.61 1852.36C2497.32 1853.32 2494.92 1853.8 2492.41 1853.8C2487.93 1853.8 2484.01 1852.25 2480.65 1849.16C2477.34 1846.07 2475.69 1841.96 2475.69 1836.84C2475.69 1831.61 2477.29 1827.19 2480.49 1823.56C2483.69 1819.93 2487.48 1818.12 2491.85 1818.12C2496.54 1818.12 2499.93 1819.72 2502.01 1822.92C2504.14 1826.07 2505.21 1829.72 2505.21 1833.88H2482.25C2482.3 1838.79 2483.66 1842.6 2486.33 1845.32C2489.05 1848.04 2492.06 1849.4 2495.37 1849.4C2496.76 1849.4 2498.22 1849.16 2499.77 1848.68C2501.32 1848.2 2502.76 1847.24 2504.09 1845.8L2505.53 1847.48ZM2511.89 1827.8C2511.89 1825.03 2512.9 1822.73 2514.93 1820.92C2517.01 1819.05 2519.57 1818.12 2522.61 1818.12C2524.16 1818.12 2525.57 1818.39 2526.85 1818.92C2528.13 1819.4 2529.28 1820.15 2530.29 1821.16L2531.09 1818.44H2533.41V1829.48H2530.77C2530.24 1826.71 2529.28 1824.6 2527.89 1823.16C2526.56 1821.72 2524.85 1821 2522.77 1821C2521.17 1821 2519.86 1821.45 2518.85 1822.36C2517.84 1823.27 2517.33 1824.44 2517.33 1825.88C2517.33 1826.89 2517.65 1827.77 2518.29 1828.52C2518.93 1829.27 2520.29 1830.17 2522.37 1831.24L2528.05 1834.12C2530.61 1835.4 2532.42 1836.76 2533.49 1838.2C2534.56 1839.59 2535.09 1841.27 2535.09 1843.24C2535.09 1846.28 2533.92 1848.81 2531.57 1850.84C2529.22 1852.81 2526.34 1853.8 2522.93 1853.8C2521.17 1853.8 2519.52 1853.45 2517.97 1852.76C2516.42 1852.07 2515.17 1851.13 2514.21 1849.96L2513.49 1853H2511.09V1840.6H2513.81C2514.18 1843.85 2515.17 1846.36 2516.77 1848.12C2518.37 1849.88 2520.37 1850.76 2522.77 1850.76C2524.74 1850.76 2526.32 1850.28 2527.49 1849.32C2528.66 1848.36 2529.25 1847.11 2529.25 1845.56C2529.25 1844.39 2528.93 1843.43 2528.29 1842.68C2527.7 1841.88 2526.66 1841.11 2525.17 1840.36L2518.69 1837.16C2516.24 1835.93 2514.48 1834.6 2513.41 1833.16C2512.4 1831.67 2511.89 1829.88 2511.89 1827.8ZM2541.97 1827.8C2541.97 1825.03 2542.98 1822.73 2545.01 1820.92C2547.09 1819.05 2549.65 1818.12 2552.69 1818.12C2554.23 1818.12 2555.65 1818.39 2556.93 1818.92C2558.21 1819.4 2559.35 1820.15 2560.37 1821.16L2561.17 1818.44H2563.49V1829.48H2560.85C2560.31 1826.71 2559.35 1824.6 2557.97 1823.16C2556.63 1821.72 2554.93 1821 2552.85 1821C2551.25 1821 2549.94 1821.45 2548.93 1822.36C2547.91 1823.27 2547.41 1824.44 2547.41 1825.88C2547.41 1826.89 2547.73 1827.77 2548.37 1828.52C2549.01 1829.27 2550.37 1830.17 2552.45 1831.24L2558.13 1834.12C2560.69 1835.4 2562.5 1836.76 2563.57 1838.2C2564.63 1839.59 2565.17 1841.27 2565.17 1843.24C2565.17 1846.28 2563.99 1848.81 2561.65 1850.84C2559.3 1852.81 2556.42 1853.8 2553.01 1853.8C2551.25 1853.8 2549.59 1853.45 2548.05 1852.76C2546.5 1852.07 2545.25 1851.13 2544.29 1849.96L2543.57 1853H2541.17V1840.6H2543.89C2544.26 1843.85 2545.25 1846.36 2546.85 1848.12C2548.45 1849.88 2550.45 1850.76 2552.85 1850.76C2554.82 1850.76 2556.39 1850.28 2557.57 1849.32C2558.74 1848.36 2559.33 1847.11 2559.33 1845.56C2559.33 1844.39 2559.01 1843.43 2558.37 1842.68C2557.78 1841.88 2556.74 1841.11 2555.25 1840.36L2548.77 1837.16C2546.31 1835.93 2544.55 1834.6 2543.49 1833.16C2542.47 1831.67 2541.97 1829.88 2541.97 1827.8ZM2589.76 1834.68V1828.44H2623.36V1834.68H2589.76ZM2675.72 1853H2648.12V1849.4H2658.84V1812.44L2647.8 1815.08V1811.56L2665.88 1805.64V1849.4H2675.72V1853ZM2680.78 1829.72C2680.78 1826.73 2681.23 1823.8 2682.14 1820.92C2683.1 1817.99 2684.4 1815.4 2686.06 1813.16C2687.71 1810.92 2689.66 1809.11 2691.9 1807.72C2694.19 1806.33 2696.67 1805.64 2699.34 1805.64C2701.95 1805.64 2704.38 1806.33 2706.62 1807.72C2708.91 1809.11 2710.86 1810.92 2712.46 1813.16C2714.11 1815.4 2715.39 1817.99 2716.3 1820.92C2717.26 1823.8 2717.74 1826.73 2717.74 1829.72C2717.74 1832.71 2717.26 1835.67 2716.3 1838.6C2715.39 1841.48 2714.11 1844.04 2712.46 1846.28C2710.86 1848.52 2708.91 1850.33 2706.62 1851.72C2704.38 1853.11 2701.95 1853.8 2699.34 1853.8C2696.67 1853.8 2694.19 1853.11 2691.9 1851.72C2689.66 1850.33 2687.71 1848.52 2686.06 1846.28C2684.4 1844.04 2683.1 1841.48 2682.14 1838.6C2681.23 1835.67 2680.78 1832.71 2680.78 1829.72ZM2709.82 1829.72C2709.82 1827.16 2709.6 1824.65 2709.18 1822.2C2708.8 1819.69 2708.19 1817.48 2707.34 1815.56C2706.54 1813.64 2705.47 1812.09 2704.14 1810.92C2702.8 1809.69 2701.2 1809.08 2699.34 1809.08C2697.47 1809.08 2695.84 1809.69 2694.46 1810.92C2693.12 1812.09 2692 1813.64 2691.1 1815.56C2690.24 1817.48 2689.6 1819.69 2689.18 1822.2C2688.8 1824.65 2688.62 1827.16 2688.62 1829.72C2688.62 1832.28 2688.8 1834.81 2689.18 1837.32C2689.6 1839.77 2690.24 1841.96 2691.1 1843.88C2692 1845.8 2693.12 1847.37 2694.46 1848.6C2695.84 1849.77 2697.47 1850.36 2699.34 1850.36C2701.2 1850.36 2702.8 1849.77 2704.14 1848.6C2705.47 1847.37 2706.54 1845.8 2707.34 1843.88C2708.19 1841.96 2708.8 1839.77 2709.18 1837.32C2709.6 1834.81 2709.82 1832.28 2709.82 1829.72ZM2724.14 1829.72C2724.14 1826.73 2724.59 1823.8 2725.5 1820.92C2726.46 1817.99 2727.76 1815.4 2729.42 1813.16C2731.07 1810.92 2733.02 1809.11 2735.26 1807.72C2737.55 1806.33 2740.03 1805.64 2742.7 1805.64C2745.31 1805.64 2747.74 1806.33 2749.98 1807.72C2752.27 1809.11 2754.22 1810.92 2755.82 1813.16C2757.47 1815.4 2758.75 1817.99 2759.66 1820.92C2760.62 1823.8 2761.1 1826.73 2761.1 1829.72C2761.1 1832.71 2760.62 1835.67 2759.66 1838.6C2758.75 1841.48 2757.47 1844.04 2755.82 1846.28C2754.22 1848.52 2752.27 1850.33 2749.98 1851.72C2747.74 1853.11 2745.31 1853.8 2742.7 1853.8C2740.03 1853.8 2737.55 1853.11 2735.26 1851.72C2733.02 1850.33 2731.07 1848.52 2729.42 1846.28C2727.76 1844.04 2726.46 1841.48 2725.5 1838.6C2724.59 1835.67 2724.14 1832.71 2724.14 1829.72ZM2753.18 1829.72C2753.18 1827.16 2752.96 1824.65 2752.54 1822.2C2752.16 1819.69 2751.55 1817.48 2750.7 1815.56C2749.9 1813.64 2748.83 1812.09 2747.5 1810.92C2746.16 1809.69 2744.56 1809.08 2742.7 1809.08C2740.83 1809.08 2739.2 1809.69 2737.82 1810.92C2736.48 1812.09 2735.36 1813.64 2734.46 1815.56C2733.6 1817.48 2732.96 1819.69 2732.54 1822.2C2732.16 1824.65 2731.98 1827.16 2731.98 1829.72C2731.98 1832.28 2732.16 1834.81 2732.54 1837.32C2732.96 1839.77 2733.6 1841.96 2734.46 1843.88C2735.36 1845.8 2736.48 1847.37 2737.82 1848.6C2739.2 1849.77 2740.83 1850.36 2742.7 1850.36C2744.56 1850.36 2746.16 1849.77 2747.5 1848.6C2748.83 1847.37 2749.9 1845.8 2750.7 1843.88C2751.55 1841.96 2752.16 1839.77 2752.54 1837.32C2752.96 1834.81 2753.18 1832.28 2753.18 1829.72ZM2770.87 1853C2769.54 1853.16 2768.26 1852.84 2767.03 1852.04C2765.86 1851.24 2765.27 1849.96 2765.27 1848.2C2765.27 1846.87 2765.75 1845.75 2766.71 1844.84C2767.67 1843.88 2768.77 1843.4 2769.99 1843.4C2771.59 1843.4 2772.93 1843.96 2773.99 1845.08C2775.06 1846.15 2775.59 1847.8 2775.59 1850.04C2775.59 1853.93 2774.37 1857.11 2771.91 1859.56C2769.51 1862.01 2766.71 1863.53 2763.51 1864.12L2762.71 1861.72C2765.17 1860.97 2767.14 1859.88 2768.63 1858.44C2770.13 1857.05 2770.87 1855.24 2770.87 1853ZM2779.53 1829.72C2779.53 1826.73 2779.98 1823.8 2780.89 1820.92C2781.85 1817.99 2783.15 1815.4 2784.81 1813.16C2786.46 1810.92 2788.41 1809.11 2790.65 1807.72C2792.94 1806.33 2795.42 1805.64 2798.09 1805.64C2800.7 1805.64 2803.13 1806.33 2805.37 1807.72C2807.66 1809.11 2809.61 1810.92 2811.21 1813.16C2812.86 1815.4 2814.14 1817.99 2815.05 1820.92C2816.01 1823.8 2816.49 1826.73 2816.49 1829.72C2816.49 1832.71 2816.01 1835.67 2815.05 1838.6C2814.14 1841.48 2812.86 1844.04 2811.21 1846.28C2809.61 1848.52 2807.66 1850.33 2805.37 1851.72C2803.13 1853.11 2800.7 1853.8 2798.09 1853.8C2795.42 1853.8 2792.94 1853.11 2790.65 1851.72C2788.41 1850.33 2786.46 1848.52 2784.81 1846.28C2783.15 1844.04 2781.85 1841.48 2780.89 1838.6C2779.98 1835.67 2779.53 1832.71 2779.53 1829.72ZM2808.57 1829.72C2808.57 1827.16 2808.35 1824.65 2807.93 1822.2C2807.55 1819.69 2806.94 1817.48 2806.09 1815.56C2805.29 1813.64 2804.22 1812.09 2802.89 1810.92C2801.55 1809.69 2799.95 1809.08 2798.09 1809.08C2796.22 1809.08 2794.59 1809.69 2793.21 1810.92C2791.87 1812.09 2790.75 1813.64 2789.85 1815.56C2788.99 1817.48 2788.35 1819.69 2787.93 1822.2C2787.55 1824.65 2787.37 1827.16 2787.37 1829.72C2787.37 1832.28 2787.55 1834.81 2787.93 1837.32C2788.35 1839.77 2788.99 1841.96 2789.85 1843.88C2790.75 1845.8 2791.87 1847.37 2793.21 1848.6C2794.59 1849.77 2796.22 1850.36 2798.09 1850.36C2799.95 1850.36 2801.55 1849.77 2802.89 1848.6C2804.22 1847.37 2805.29 1845.8 2806.09 1843.88C2806.94 1841.96 2807.55 1839.77 2807.93 1837.32C2808.35 1834.81 2808.57 1832.28 2808.57 1829.72ZM2822.89 1829.72C2822.89 1826.73 2823.34 1823.8 2824.25 1820.92C2825.21 1817.99 2826.51 1815.4 2828.17 1813.16C2829.82 1810.92 2831.77 1809.11 2834.01 1807.72C2836.3 1806.33 2838.78 1805.64 2841.45 1805.64C2844.06 1805.64 2846.49 1806.33 2848.73 1807.72C2851.02 1809.11 2852.97 1810.92 2854.57 1813.16C2856.22 1815.4 2857.5 1817.99 2858.41 1820.92C2859.37 1823.8 2859.85 1826.73 2859.85 1829.72C2859.85 1832.71 2859.37 1835.67 2858.41 1838.6C2857.5 1841.48 2856.22 1844.04 2854.57 1846.28C2852.97 1848.52 2851.02 1850.33 2848.73 1851.72C2846.49 1853.11 2844.06 1853.8 2841.45 1853.8C2838.78 1853.8 2836.3 1853.11 2834.01 1851.72C2831.77 1850.33 2829.82 1848.52 2828.17 1846.28C2826.51 1844.04 2825.21 1841.48 2824.25 1838.6C2823.34 1835.67 2822.89 1832.71 2822.89 1829.72ZM2851.93 1829.72C2851.93 1827.16 2851.71 1824.65 2851.29 1822.2C2850.91 1819.69 2850.3 1817.48 2849.45 1815.56C2848.65 1813.64 2847.58 1812.09 2846.25 1810.92C2844.91 1809.69 2843.31 1809.08 2841.45 1809.08C2839.58 1809.08 2837.95 1809.69 2836.57 1810.92C2835.23 1812.09 2834.11 1813.64 2833.21 1815.56C2832.35 1817.48 2831.71 1819.69 2831.29 1822.2C2830.91 1824.65 2830.73 1827.16 2830.73 1829.72C2830.73 1832.28 2830.91 1834.81 2831.29 1837.32C2831.71 1839.77 2832.35 1841.96 2833.21 1843.88C2834.11 1845.8 2835.23 1847.37 2836.57 1848.6C2837.95 1849.77 2839.58 1850.36 2841.45 1850.36C2843.31 1850.36 2844.91 1849.77 2846.25 1848.6C2847.58 1847.37 2848.65 1845.8 2849.45 1843.88C2850.3 1841.96 2850.91 1839.77 2851.29 1837.32C2851.71 1834.81 2851.93 1832.28 2851.93 1829.72ZM2866.25 1829.72C2866.25 1826.73 2866.7 1823.8 2867.61 1820.92C2868.57 1817.99 2869.87 1815.4 2871.53 1813.16C2873.18 1810.92 2875.13 1809.11 2877.37 1807.72C2879.66 1806.33 2882.14 1805.64 2884.81 1805.64C2887.42 1805.64 2889.85 1806.33 2892.09 1807.72C2894.38 1809.11 2896.33 1810.92 2897.93 1813.16C2899.58 1815.4 2900.86 1817.99 2901.77 1820.92C2902.73 1823.8 2903.21 1826.73 2903.21 1829.72C2903.21 1832.71 2902.73 1835.67 2901.77 1838.6C2900.86 1841.48 2899.58 1844.04 2897.93 1846.28C2896.33 1848.52 2894.38 1850.33 2892.09 1851.72C2889.85 1853.11 2887.42 1853.8 2884.81 1853.8C2882.14 1853.8 2879.66 1853.11 2877.37 1851.72C2875.13 1850.33 2873.18 1848.52 2871.53 1846.28C2869.87 1844.04 2868.57 1841.48 2867.61 1838.6C2866.7 1835.67 2866.25 1832.71 2866.25 1829.72ZM2895.29 1829.72C2895.29 1827.16 2895.07 1824.65 2894.65 1822.2C2894.27 1819.69 2893.66 1817.48 2892.81 1815.56C2892.01 1813.64 2890.94 1812.09 2889.61 1810.92C2888.27 1809.69 2886.67 1809.08 2884.81 1809.08C2882.94 1809.08 2881.31 1809.69 2879.93 1810.92C2878.59 1812.09 2877.47 1813.64 2876.57 1815.56C2875.71 1817.48 2875.07 1819.69 2874.65 1822.2C2874.27 1824.65 2874.09 1827.16 2874.09 1829.72C2874.09 1832.28 2874.27 1834.81 2874.65 1837.32C2875.07 1839.77 2875.71 1841.96 2876.57 1843.88C2877.47 1845.8 2878.59 1847.37 2879.93 1848.6C2881.31 1849.77 2882.94 1850.36 2884.81 1850.36C2886.67 1850.36 2888.27 1849.77 2889.61 1848.6C2890.94 1847.37 2892.01 1845.8 2892.81 1843.88C2893.66 1841.96 2894.27 1839.77 2894.65 1837.32C2895.07 1834.81 2895.29 1832.28 2895.29 1829.72ZM2930.52 1807.16C2930.52 1805.83 2930.95 1804.73 2931.8 1803.88C2932.71 1802.97 2933.8 1802.52 2935.08 1802.52C2936.42 1802.52 2937.54 1802.97 2938.44 1803.88C2939.35 1804.73 2939.8 1805.83 2939.8 1807.16C2939.8 1808.44 2939.35 1809.53 2938.44 1810.44C2937.54 1811.29 2936.42 1811.72 2935.08 1811.72C2933.8 1811.72 2932.71 1811.29 2931.8 1810.44C2930.95 1809.53 2930.52 1808.44 2930.52 1807.16ZM2939.16 1818.92V1850.12H2943.88V1853H2927.4V1850.12H2932.12V1821.8H2927.4V1818.92H2939.16ZM2946.89 1818.92H2952.09V1811.56L2959.05 1808.52V1818.92H2969.21V1821.8H2959.05V1844.44C2959.05 1845.93 2959.48 1847.16 2960.33 1848.12C2961.19 1849.08 2962.44 1849.56 2964.09 1849.56C2965.27 1849.56 2966.36 1849.21 2967.37 1848.52C2968.39 1847.83 2969.43 1846.89 2970.49 1845.72L2972.25 1847.48C2970.81 1849.51 2969.11 1851.08 2967.13 1852.2C2965.16 1853.27 2963.16 1853.8 2961.13 1853.8C2958.52 1853.8 2956.36 1853.08 2954.65 1851.64C2952.95 1850.15 2952.09 1848.04 2952.09 1845.32V1821.8H2946.89V1818.92ZM2990.11 1821.08C2988.35 1821.08 2986.59 1821.91 2984.83 1823.56C2983.07 1825.16 2981.98 1827.64 2981.55 1831H2997.39C2997.28 1828.17 2996.59 1825.83 2995.31 1823.96C2994.08 1822.04 2992.35 1821.08 2990.11 1821.08ZM3004.67 1847.48C3003.02 1849.72 3001.04 1851.35 2998.75 1852.36C2996.46 1853.32 2994.06 1853.8 2991.55 1853.8C2987.07 1853.8 2983.15 1852.25 2979.79 1849.16C2976.48 1846.07 2974.83 1841.96 2974.83 1836.84C2974.83 1831.61 2976.43 1827.19 2979.63 1823.56C2982.83 1819.93 2986.62 1818.12 2990.99 1818.12C2995.68 1818.12 2999.07 1819.72 3001.15 1822.92C3003.28 1826.07 3004.35 1829.72 3004.35 1833.88H2981.39C2981.44 1838.79 2982.8 1842.6 2985.47 1845.32C2988.19 1848.04 2991.2 1849.4 2994.51 1849.4C2995.9 1849.4 2997.36 1849.16 2998.91 1848.68C3000.46 1848.2 3001.9 1847.24 3003.23 1845.8L3004.67 1847.48ZM3027.75 1850.12V1853H3009.67V1850.12H3014.39V1821.8H3009.67V1818.92H3021.43V1824.84C3022.98 1823.35 3024.6 1821.85 3026.31 1820.36C3028.02 1818.87 3029.56 1818.12 3030.95 1818.12C3032.28 1818.12 3033.48 1818.47 3034.55 1819.16C3035.67 1819.85 3036.55 1820.57 3037.19 1821.32L3033.43 1827.16C3032.26 1826.31 3031.14 1825.56 3030.07 1824.92C3029.06 1824.28 3028.02 1823.96 3026.95 1823.96C3026.42 1823.96 3025.64 1824.15 3024.63 1824.52C3023.67 1824.84 3022.6 1825.53 3021.43 1826.6V1850.12H3027.75ZM3058.17 1832.76V1830.28C3058.17 1827.93 3057.56 1826.09 3056.33 1824.76C3055.11 1823.43 3053.35 1822.76 3051.05 1822.76C3049.29 1822.76 3047.67 1823.37 3046.17 1824.6C3044.73 1825.77 3043.56 1827.43 3042.65 1829.56L3039.69 1828.36C3040.92 1825.16 3042.73 1822.65 3045.13 1820.84C3047.59 1819.03 3050.36 1818.12 3053.45 1818.12C3057.03 1818.12 3059.88 1819.19 3062.01 1821.32C3064.15 1823.45 3065.21 1826.33 3065.21 1829.96V1846.92C3065.21 1847.83 3065.4 1848.52 3065.77 1849C3066.2 1849.48 3066.79 1849.72 3067.53 1849.72C3068.12 1849.72 3068.68 1849.61 3069.21 1849.4C3069.75 1849.13 3070.28 1848.76 3070.81 1848.28L3072.33 1850.28C3071.32 1851.4 3070.25 1852.28 3069.13 1852.92C3068.01 1853.51 3066.89 1853.8 3065.77 1853.8C3063.85 1853.8 3062.25 1853.32 3060.97 1852.36C3059.69 1851.35 3058.79 1849.91 3058.25 1848.04C3056.87 1849.75 3055.24 1851.13 3053.37 1852.2C3051.51 1853.21 3049.64 1853.72 3047.77 1853.72C3045.27 1853.72 3043.19 1852.97 3041.53 1851.48C3039.93 1849.93 3039.13 1847.96 3039.13 1845.56C3039.13 1843.53 3039.85 1841.77 3041.29 1840.28C3042.73 1838.79 3045.08 1837.45 3048.33 1836.28L3058.17 1832.76ZM3058.17 1845.8V1835.56L3051.45 1838.12C3049.59 1838.87 3048.23 1839.72 3047.37 1840.68C3046.52 1841.64 3046.09 1842.81 3046.09 1844.2C3046.09 1845.85 3046.49 1847.16 3047.29 1848.12C3048.15 1849.08 3049.29 1849.56 3050.73 1849.56C3052.01 1849.56 3053.29 1849.24 3054.57 1848.6C3055.85 1847.91 3057.05 1846.97 3058.17 1845.8ZM3073.07 1818.92H3078.27V1811.56L3085.23 1808.52V1818.92H3095.39V1821.8H3085.23V1844.44C3085.23 1845.93 3085.65 1847.16 3086.51 1848.12C3087.36 1849.08 3088.61 1849.56 3090.27 1849.56C3091.44 1849.56 3092.53 1849.21 3093.55 1848.52C3094.56 1847.83 3095.6 1846.89 3096.67 1845.72L3098.43 1847.48C3096.99 1849.51 3095.28 1851.08 3093.31 1852.2C3091.33 1853.27 3089.33 1853.8 3087.31 1853.8C3084.69 1853.8 3082.53 1853.08 3080.83 1851.64C3079.12 1850.15 3078.27 1848.04 3078.27 1845.32V1821.8H3073.07V1818.92ZM3103.88 1807.16C3103.88 1805.83 3104.31 1804.73 3105.16 1803.88C3106.07 1802.97 3107.16 1802.52 3108.44 1802.52C3109.78 1802.52 3110.9 1802.97 3111.8 1803.88C3112.71 1804.73 3113.16 1805.83 3113.16 1807.16C3113.16 1808.44 3112.71 1809.53 3111.8 1810.44C3110.9 1811.29 3109.78 1811.72 3108.44 1811.72C3107.16 1811.72 3106.07 1811.29 3105.16 1810.44C3104.31 1809.53 3103.88 1808.44 3103.88 1807.16ZM3112.52 1818.92V1850.12H3117.24V1853H3100.76V1850.12H3105.48V1821.8H3100.76V1818.92H3112.52ZM3138.57 1853.8C3136.55 1853.8 3134.55 1853.4 3132.57 1852.6C3130.6 1851.75 3128.84 1850.55 3127.29 1849C3125.8 1847.45 3124.57 1845.59 3123.61 1843.4C3122.71 1841.16 3122.25 1838.68 3122.25 1835.96C3122.25 1833.24 3122.71 1830.79 3123.61 1828.6C3124.57 1826.36 3125.8 1824.47 3127.29 1822.92C3128.84 1821.37 3130.6 1820.2 3132.57 1819.4C3134.55 1818.55 3136.55 1818.12 3138.57 1818.12C3140.6 1818.12 3142.6 1818.55 3144.57 1819.4C3146.55 1820.2 3148.28 1821.37 3149.77 1822.92C3151.32 1824.47 3152.55 1826.36 3153.45 1828.6C3154.41 1830.79 3154.89 1833.24 3154.89 1835.96C3154.89 1838.68 3154.41 1841.16 3153.45 1843.4C3152.55 1845.59 3151.32 1847.45 3149.77 1849C3148.28 1850.55 3146.55 1851.75 3144.57 1852.6C3142.6 1853.4 3140.6 1853.8 3138.57 1853.8ZM3138.57 1821.16C3135.96 1821.16 3133.8 1822.44 3132.09 1825C3130.44 1827.51 3129.61 1831.16 3129.61 1835.96C3129.61 1840.76 3130.44 1844.44 3132.09 1847C3133.8 1849.51 3135.96 1850.76 3138.57 1850.76C3141.19 1850.76 3143.32 1849.51 3144.97 1847C3146.68 1844.44 3147.53 1840.76 3147.53 1835.96C3147.53 1831.16 3146.68 1827.51 3144.97 1825C3143.32 1822.44 3141.19 1821.16 3138.57 1821.16ZM3176.7 1850.12V1853H3160.22V1850.12H3164.94V1821.8H3160.22V1818.92H3171.98V1823.8C3173.42 1822.47 3175.1 1821.19 3177.02 1819.96C3178.94 1818.73 3181.15 1818.12 3183.66 1818.12C3187.18 1818.12 3189.66 1819.29 3191.1 1821.64C3192.59 1823.93 3193.34 1826.68 3193.34 1829.88V1850.12H3198.06V1853H3181.58V1850.12H3186.3V1831.72C3186.3 1829.43 3185.92 1827.35 3185.18 1825.48C3184.48 1823.56 3182.86 1822.6 3180.3 1822.6C3178.8 1822.6 3177.36 1822.87 3175.98 1823.4C3174.64 1823.88 3173.31 1824.68 3171.98 1825.8V1850.12H3176.7ZM3203.84 1827.8C3203.84 1825.03 3204.86 1822.73 3206.88 1820.92C3208.96 1819.05 3211.52 1818.12 3214.56 1818.12C3216.11 1818.12 3217.52 1818.39 3218.8 1818.92C3220.08 1819.4 3221.23 1820.15 3222.24 1821.16L3223.04 1818.44H3225.36V1829.48H3222.72C3222.19 1826.71 3221.23 1824.6 3219.84 1823.16C3218.51 1821.72 3216.8 1821 3214.72 1821C3213.12 1821 3211.82 1821.45 3210.8 1822.36C3209.79 1823.27 3209.28 1824.44 3209.28 1825.88C3209.28 1826.89 3209.6 1827.77 3210.24 1828.52C3210.88 1829.27 3212.24 1830.17 3214.32 1831.24L3220 1834.12C3222.56 1835.4 3224.38 1836.76 3225.44 1838.2C3226.51 1839.59 3227.04 1841.27 3227.04 1843.24C3227.04 1846.28 3225.87 1848.81 3223.52 1850.84C3221.18 1852.81 3218.3 1853.8 3214.88 1853.8C3213.12 1853.8 3211.47 1853.45 3209.92 1852.76C3208.38 1852.07 3207.12 1851.13 3206.16 1849.96L3205.44 1853H3203.04V1840.6H3205.76C3206.14 1843.85 3207.12 1846.36 3208.72 1848.12C3210.32 1849.88 3212.32 1850.76 3214.72 1850.76C3216.7 1850.76 3218.27 1850.28 3219.44 1849.32C3220.62 1848.36 3221.2 1847.11 3221.2 1845.56C3221.2 1844.39 3220.88 1843.43 3220.24 1842.68C3219.66 1841.88 3218.62 1841.11 3217.12 1840.36L3210.64 1837.16C3208.19 1835.93 3206.43 1834.6 3205.36 1833.16C3204.35 1831.67 3203.84 1829.88 3203.84 1827.8Z" fill="white"/>
<defs>
<filter id="filter0_d_14_267" x="664.145" y="309.183" width="43.7119" height="281.6" filterUnits="userSpaceOnUse" color-interpolation-filters="sRGB">
<feFlood flood-opacity="0" result="BackgroundImageFix"/>
<feColorMatrix in="SourceAlpha" type="matrix" values="0 0 0 0 0 0 0 0 0 0 0 0 0 0 0 0 0 0 127 0" result="hardAlpha"/>
<feMorphology radius="3" operator="dilate" in="SourceAlpha" result="effect1_dropShadow_14_267"/>
<feOffset dy="4"/>
<feGaussianBlur stdDeviation="5.5"/>
<feComposite in2="hardAlpha" operator="out"/>
<feColorMatrix type="matrix" values="0 0 0 0 1 0 0 0 0 0.6 0 0 0 0 0 0 0 0 0.98 0"/>
<feBlend mode="normal" in2="BackgroundImageFix" result="effect1_dropShadow_14_267"/>
<feBlend mode="normal" in="SourceGraphic" in2="effect1_dropShadow_14_267" result="shape"/>
</filter>
<radialGradient id="paint0_radial_14_267" cx="0" cy="0" r="1" gradientUnits="userSpaceOnUse" gradientTransform="translate(678.859 472.805) rotate(88.6698) scale(448.797 24.2834)">
<stop stop-color="#FF8A00"/>
<stop offset="1" stop-color="#FFBA07"/>
</radialGradient>
<radialGradient id="paint1_radial_14_267" cx="0" cy="0" r="1" gradientUnits="userSpaceOnUse" gradientTransform="translate(678.727 474.863) rotate(88.6901) scale(464.102 24.7292)">
<stop stop-color="#FF8A00"/>
<stop offset="1" stop-color="#FFBA07"/>
</radialGradient>
<radialGradient id="paint2_radial_14_267" cx="0" cy="0" r="1" gradientUnits="userSpaceOnUse" gradientTransform="translate(716.136 849.113) rotate(39.8276) scale(724.427 830.75)">
<stop stop-color="white" stop-opacity="0.19"/>
<stop offset="1" stop-color="white" stop-opacity="0.32"/>
</radialGradient>
<radialGradient id="paint3_radial_14_267" cx="0" cy="0" r="1" gradientUnits="userSpaceOnUse" gradientTransform="translate(747.545 1223.36) rotate(24.576) scale(1115.61 983.747)">
<stop stop-color="white" stop-opacity="0.19"/>
<stop offset="1" stop-color="white" stop-opacity="0.32"/>
</radialGradient>
<radialGradient id="paint4_radial_14_267" cx="0" cy="0" r="1" gradientUnits="userSpaceOnUse" gradientTransform="translate(778.909 1597.61) rotate(17.4941) scale(1543.47 1031.71)">
<stop stop-color="white" stop-opacity="0.19"/>
<stop offset="1" stop-color="white" stop-opacity="0.32"/>
</radialGradient>
</defs>
</svg>
