<svg width="3372" height="2164" viewBox="0 0 3372 2164" fill="none" xmlns="http://www.w3.org/2000/svg">
<rect width="3372" height="2164" fill="#1E1E20"/>
<rect width="3088" height="1449" transform="translate(142 278)" fill="#1E1E20"/>
<path d="M371.502 447.408H370.902L349.662 402.768C348.462 400.128 347.422 398.448 346.542 397.728C345.742 396.928 344.222 396.528 341.982 396.528V394.008H370.542V396.528C368.622 396.528 367.182 396.648 366.222 396.888C365.262 397.128 364.782 397.768 364.782 398.808C364.782 399.288 364.902 399.888 365.142 400.608C365.382 401.248 365.702 402.008 366.102 402.888L376.782 427.728L386.622 403.608C386.942 402.648 387.222 401.848 387.462 401.208C387.702 400.488 387.822 399.848 387.822 399.288C387.822 398.008 387.182 397.248 385.902 397.008C384.702 396.688 382.902 396.528 380.502 396.528V394.008H399.222V396.528C396.822 396.528 395.142 396.928 394.182 397.728C393.302 398.528 392.142 400.528 390.702 403.728L371.502 447.408ZM406.473 377.688C406.473 375.288 407.313 373.288 408.993 371.688C410.753 370.008 412.873 369.168 415.353 369.168C417.753 369.168 419.793 370.008 421.473 371.688C423.153 373.288 423.993 375.288 423.993 377.688C423.993 380.088 423.153 382.088 421.473 383.688C419.793 385.288 417.753 386.088 415.353 386.088C412.873 386.088 410.753 385.288 408.993 383.688C407.313 382.088 406.473 380.088 406.473 377.688ZM407.793 403.248C407.793 400.288 407.393 398.448 406.593 397.728C405.873 396.928 404.233 396.528 401.673 396.528V394.008H423.273V436.968C423.273 439.928 423.633 441.808 424.353 442.608C425.153 443.328 426.793 443.688 429.273 443.688V446.208H401.673V443.688C404.233 443.688 405.873 443.328 406.593 442.608C407.393 441.808 407.793 439.928 407.793 436.968V403.248ZM457.336 396.168C454.536 396.168 452.176 397.408 450.256 399.888C448.416 402.368 447.336 406.008 447.016 410.808H466.576C466.416 406.568 465.576 403.088 464.056 400.368C462.536 397.568 460.296 396.168 457.336 396.168ZM479.776 434.688C477.296 438.848 474.176 442.008 470.416 444.168C466.656 446.328 462.736 447.408 458.656 447.408C451.456 447.408 445.216 444.968 439.936 440.088C434.736 435.208 432.136 428.848 432.136 421.008C432.136 413.088 434.776 406.408 440.056 400.968C445.416 395.528 451.376 392.808 457.936 392.808C464.816 392.808 470.016 395.088 473.536 399.648C477.136 404.208 478.976 409.008 479.056 414.048H446.896V414.288C446.896 421.728 448.736 427.848 452.416 432.648C456.096 437.368 460.656 439.728 466.096 439.728C468.576 439.728 470.776 439.208 472.696 438.168C474.696 437.128 476.496 435.528 478.096 433.368L479.776 434.688ZM510.953 443.688V446.208H483.353V443.688C485.913 443.688 487.553 443.328 488.273 442.608C489.073 441.808 489.473 439.928 489.473 436.968V403.248C489.473 400.288 489.073 398.448 488.273 397.728C487.553 396.928 485.913 396.528 483.353 396.528V394.008H504.953V403.368C506.153 400.888 508.153 398.528 510.953 396.288C513.753 393.968 517.153 392.808 521.153 392.808C525.393 392.808 528.753 393.888 531.233 396.048C533.793 398.128 535.473 400.808 536.273 404.088C537.473 401.528 539.513 399.008 542.393 396.528C545.353 394.048 548.993 392.808 553.313 392.808C558.753 392.808 562.753 394.528 565.313 397.968C567.873 401.408 569.153 405.528 569.153 410.328V436.968C569.153 439.928 569.513 441.808 570.233 442.608C571.033 443.328 572.713 443.688 575.273 443.688V446.208H547.673V443.688C550.233 443.688 551.873 443.328 552.593 442.608C553.313 441.808 553.673 439.928 553.673 436.968V412.488C553.673 408.328 552.953 405.288 551.513 403.368C550.073 401.368 547.993 400.368 545.273 400.368C543.513 400.368 541.873 400.928 540.353 402.048C538.833 403.088 537.673 404.608 536.873 406.608C536.953 407.168 536.993 407.768 536.993 408.408C537.073 409.048 537.113 409.688 537.113 410.328V436.968C537.113 439.928 537.473 441.808 538.193 442.608C538.913 443.328 540.553 443.688 543.113 443.688V446.208H515.513V443.688C518.073 443.688 519.713 443.328 520.433 442.608C521.153 441.808 521.513 439.928 521.513 436.968V412.488C521.513 408.328 520.793 405.288 519.353 403.368C517.913 401.368 515.833 400.368 513.113 400.368C511.433 400.368 509.873 400.888 508.433 401.928C506.993 402.888 505.833 404.288 504.953 406.128V436.968C504.953 439.928 505.313 441.808 506.033 442.608C506.833 443.328 508.473 443.688 510.953 443.688Z" fill="white"/>
<g filter="url(#filter0_d_14_148)">
<rect x="680" y="306.775" width="218" height="221.204" rx="16" fill="url(#paint0_radial_14_148)" fill-opacity="0.96" shape-rendering="crispEdges"/>
</g>
<rect x="678" y="304" width="222" height="228.75" rx="16" fill="url(#paint1_radial_14_148)" fill-opacity="0.96"/>
<path d="M3003.98 418.095C3003.98 415.108 3004.43 412.175 3005.34 409.295C3006.3 406.362 3007.61 403.775 3009.26 401.535C3010.91 399.295 3012.86 397.482 3015.1 396.095C3017.39 394.708 3019.87 394.015 3022.54 394.015C3025.15 394.015 3027.58 394.708 3029.82 396.095C3032.11 397.482 3034.06 399.295 3035.66 401.535C3037.31 403.775 3038.59 406.362 3039.5 409.295C3040.46 412.175 3040.94 415.108 3040.94 418.095C3040.94 421.082 3040.46 424.042 3039.5 426.975C3038.59 429.855 3037.31 432.415 3035.66 434.655C3034.06 436.895 3032.11 438.708 3029.82 440.095C3027.58 441.482 3025.15 442.175 3022.54 442.175C3019.87 442.175 3017.39 441.482 3015.1 440.095C3012.86 438.708 3010.91 436.895 3009.26 434.655C3007.61 432.415 3006.3 429.855 3005.34 426.975C3004.43 424.042 3003.98 421.082 3003.98 418.095ZM3033.02 418.095C3033.02 415.535 3032.81 413.028 3032.38 410.575C3032.01 408.068 3031.39 405.855 3030.54 403.935C3029.74 402.015 3028.67 400.468 3027.34 399.295C3026.01 398.068 3024.41 397.455 3022.54 397.455C3020.67 397.455 3019.05 398.068 3017.66 399.295C3016.33 400.468 3015.21 402.015 3014.3 403.935C3013.45 405.855 3012.81 408.068 3012.38 410.575C3012.01 413.028 3011.82 415.535 3011.82 418.095C3011.82 420.655 3012.01 423.188 3012.38 425.695C3012.81 428.148 3013.45 430.335 3014.3 432.255C3015.21 434.175 3016.33 435.748 3017.66 436.975C3019.05 438.148 3020.67 438.735 3022.54 438.735C3024.41 438.735 3026.01 438.148 3027.34 436.975C3028.67 435.748 3029.74 434.175 3030.54 432.255C3031.39 430.335 3032.01 428.148 3032.38 425.695C3032.81 423.188 3033.02 420.655 3033.02 418.095ZM3044.96 436.975C3044.96 435.535 3045.46 434.308 3046.48 433.295C3047.49 432.282 3048.72 431.775 3050.16 431.775C3051.6 431.775 3052.82 432.282 3053.84 433.295C3054.85 434.308 3055.36 435.535 3055.36 436.975C3055.36 438.415 3054.85 439.642 3053.84 440.655C3052.82 441.668 3051.6 442.175 3050.16 442.175C3048.72 442.175 3047.49 441.668 3046.48 440.655C3045.46 439.642 3044.96 438.415 3044.96 436.975ZM3090.88 441.375H3063.28V437.775H3074V400.815L3062.96 403.455V399.935L3081.04 394.015V437.775H3090.88V441.375ZM3126.89 426.895C3126.89 429.242 3126.41 431.375 3125.45 433.295C3124.55 435.215 3123.35 436.842 3121.85 438.175C3120.36 439.455 3118.63 440.442 3116.65 441.135C3114.73 441.828 3112.79 442.175 3110.81 442.175C3106.81 442.175 3103.48 441.108 3100.81 438.975C3098.15 436.842 3096.28 434.255 3095.21 431.215L3098.01 429.455C3099.13 431.748 3100.71 433.695 3102.73 435.295C3104.76 436.895 3107.13 437.695 3109.85 437.695C3113 437.695 3115.45 436.735 3117.21 434.815C3118.97 432.842 3119.85 430.335 3119.85 427.295C3119.85 424.095 3118.84 421.615 3116.81 419.855C3114.84 418.042 3112.28 417.135 3109.13 417.135C3108.71 417.135 3108.25 417.162 3107.77 417.215C3107.29 417.268 3106.81 417.322 3106.33 417.375L3105.85 416.575L3117.53 400.975H3102.09L3101.29 407.615H3098.33V394.815H3126.17V395.615L3111.85 414.255H3112.65C3116.17 414.255 3119.43 415.322 3122.41 417.455C3125.4 419.535 3126.89 422.682 3126.89 426.895ZM3133.84 416.175C3133.84 413.402 3134.86 411.108 3136.88 409.295C3138.96 407.428 3141.52 406.495 3144.56 406.495C3146.11 406.495 3147.52 406.762 3148.8 407.295C3150.08 407.775 3151.23 408.522 3152.24 409.535L3153.04 406.815H3155.36V417.855H3152.72C3152.19 415.082 3151.23 412.975 3149.84 411.535C3148.51 410.095 3146.8 409.375 3144.72 409.375C3143.12 409.375 3141.82 409.828 3140.8 410.735C3139.79 411.642 3139.28 412.815 3139.28 414.255C3139.28 415.268 3139.6 416.148 3140.24 416.895C3140.88 417.642 3142.24 418.548 3144.32 419.615L3150 422.495C3152.56 423.775 3154.38 425.135 3155.44 426.575C3156.51 427.962 3157.04 429.642 3157.04 431.615C3157.04 434.655 3155.87 437.188 3153.52 439.215C3151.18 441.188 3148.3 442.175 3144.88 442.175C3143.12 442.175 3141.47 441.828 3139.92 441.135C3138.38 440.442 3137.12 439.508 3136.16 438.335L3135.44 441.375H3133.04V428.975H3135.76C3136.14 432.228 3137.12 434.735 3138.72 436.495C3140.32 438.255 3142.32 439.135 3144.72 439.135C3146.7 439.135 3148.27 438.655 3149.44 437.695C3150.62 436.735 3151.2 435.482 3151.2 433.935C3151.2 432.762 3150.88 431.802 3150.24 431.055C3149.66 430.255 3148.62 429.482 3147.12 428.735L3140.64 425.535C3138.19 424.308 3136.43 422.975 3135.36 421.535C3134.35 420.042 3133.84 418.255 3133.84 416.175Z" fill="white"/>
<rect x="663.5" y="289.5" width="2555" height="257.75" rx="30.5" stroke="white" stroke-opacity="0.23" stroke-width="3"/>
<path d="M165.96 797.7L152.76 763.98L138.96 797.7H138.36L118.68 753.06C117.56 750.34 116.56 748.62 115.68 747.9C114.88 747.18 113.4 746.82 111.24 746.82V744.3H138.24V746.82C136.72 746.82 135.52 746.94 134.64 747.18C133.76 747.34 133.32 747.9 133.32 748.86C133.32 749.34 133.44 749.94 133.68 750.66C133.92 751.3 134.28 752.14 134.76 753.18L144.48 776.58L151.2 759.78L148.56 753.06C147.52 750.34 146.56 748.62 145.68 747.9C144.8 747.18 143.32 746.82 141.24 746.82V744.3H167.76V746.82C165.92 746.82 164.56 746.98 163.68 747.3C162.8 747.54 162.36 748.18 162.36 749.22C162.36 749.62 162.44 750.18 162.6 750.9C162.76 751.54 163 752.3 163.32 753.18L171.72 776.94L179.88 754.02C180.2 753.06 180.44 752.26 180.6 751.62C180.84 750.9 180.96 750.3 180.96 749.82C180.96 748.54 180.36 747.74 179.16 747.42C177.96 747.02 176.16 746.82 173.76 746.82V744.3H192.6V746.82C190.12 746.82 188.4 747.22 187.44 748.02C186.56 748.82 185.4 750.82 183.96 754.02L166.68 797.7H165.96ZM214.641 746.46C211.841 746.46 209.481 747.7 207.561 750.18C205.721 752.66 204.641 756.3 204.321 761.1H223.881C223.721 756.86 222.881 753.38 221.361 750.66C219.841 747.86 217.601 746.46 214.641 746.46ZM237.081 784.98C234.601 789.14 231.481 792.3 227.721 794.46C223.961 796.62 220.041 797.7 215.961 797.7C208.761 797.7 202.521 795.26 197.241 790.38C192.041 785.5 189.441 779.14 189.441 771.3C189.441 763.38 192.081 756.7 197.361 751.26C202.721 745.82 208.681 743.1 215.241 743.1C222.121 743.1 227.321 745.38 230.841 749.94C234.441 754.5 236.281 759.3 236.361 764.34H204.201V764.58C204.201 772.02 206.041 778.14 209.721 782.94C213.401 787.66 217.961 790.02 223.401 790.02C225.881 790.02 228.081 789.5 230.001 788.46C232.001 787.42 233.801 785.82 235.401 783.66L237.081 784.98ZM265.16 797.7C261.64 797.7 257.96 797.38 254.12 796.74C250.36 796.18 247.24 795.38 244.76 794.34V727.5C244.76 724.54 244.28 722.74 243.32 722.1C242.36 721.38 240.44 721.02 237.56 721.02V718.5H260.24V751.86C261.52 749.94 263.48 748.02 266.12 746.1C268.76 744.1 271.96 743.1 275.72 743.1C281.88 743.1 286.96 745.34 290.96 749.82C295.04 754.3 297.08 760.22 297.08 767.58C297.08 776.62 294 783.9 287.84 789.42C281.76 794.94 274.2 797.7 265.16 797.7ZM266.48 794.22C270.16 794.22 273.52 792.38 276.56 788.7C279.68 785.02 281.24 779.06 281.24 770.82C281.24 764.74 280.2 759.7 278.12 755.7C276.04 751.62 272.92 749.58 268.76 749.58C267 749.58 265.36 750.02 263.84 750.9C262.4 751.78 261.2 752.94 260.24 754.38V786.66C260.24 789.54 260.76 791.54 261.8 792.66C262.92 793.7 264.48 794.22 266.48 794.22ZM317.089 737.58C314.129 737.58 311.929 738.14 310.489 739.26C309.049 740.38 307.809 742.66 306.769 746.1H304.729L307.969 723.78H350.929V724.26L324.049 754.86C330.449 753.66 336.489 754.74 342.169 758.1C347.849 761.38 350.689 766.78 350.689 774.3C350.689 781.5 347.969 787.22 342.529 791.46C337.089 795.62 331.289 797.7 325.129 797.7C318.489 797.7 313.089 795.9 308.929 792.3C304.769 788.62 301.929 784.3 300.409 779.34L302.929 778.02C304.449 782.1 306.689 785.3 309.649 787.62C312.689 789.94 316.249 791.1 320.329 791.1C324.889 791.1 328.529 789.58 331.249 786.54C334.049 783.5 335.449 779.54 335.449 774.66C335.449 769.22 333.449 765.18 329.449 762.54C325.529 759.82 321.169 759.1 316.369 760.38L316.009 759.66L334.729 737.58H317.089ZM355.063 788.7C355.063 786.22 355.943 784.1 357.703 782.34C359.463 780.58 361.583 779.7 364.063 779.7C366.623 779.7 368.783 780.58 370.543 782.34C372.303 784.1 373.183 786.22 373.183 788.7C373.183 791.18 372.303 793.3 370.543 795.06C368.783 796.82 366.623 797.7 364.063 797.7C361.583 797.7 359.463 796.82 357.703 795.06C355.943 793.3 355.063 791.18 355.063 788.7ZM381.135 727.98C381.135 725.58 382.015 723.58 383.775 721.98C385.535 720.3 387.615 719.46 390.015 719.46C392.415 719.46 394.455 720.3 396.135 721.98C397.815 723.58 398.655 725.58 398.655 727.98C398.655 730.38 397.815 732.38 396.135 733.98C394.455 735.58 392.415 736.38 390.015 736.38C387.615 736.38 385.535 735.58 383.775 733.98C382.015 732.38 381.135 730.38 381.135 727.98ZM382.455 804.78V753.54C382.455 750.58 382.055 748.74 381.255 748.02C380.455 747.22 378.815 746.82 376.335 746.82V744.3H397.935V799.5C397.935 806.7 395.815 811.98 391.575 815.34C387.415 818.78 382.415 820.5 376.575 820.5C373.615 820.5 371.095 820.14 369.015 819.42C366.855 818.7 365.255 817.86 364.215 816.9L365.295 814.74C366.335 815.46 367.415 816.02 368.535 816.42C369.575 816.82 370.855 817.02 372.375 817.02C375.335 817.02 377.735 816.02 379.575 814.02C381.495 812.1 382.455 809.02 382.455 804.78ZM425.206 794.34C427.846 794.34 429.966 793.7 431.566 792.42C433.166 791.14 433.966 789.26 433.966 786.78C433.966 784.7 433.246 783.1 431.806 781.98C430.446 780.78 428.606 779.58 426.286 778.38L417.166 773.58C414.286 772.14 411.966 770.26 410.206 767.94C408.446 765.62 407.566 762.74 407.566 759.3C407.566 754.5 409.406 750.62 413.086 747.66C416.766 744.62 421.046 743.1 425.926 743.1C429.046 743.1 431.566 743.62 433.486 744.66C435.406 745.62 436.846 746.1 437.806 746.1C438.526 746.1 439.046 745.86 439.366 745.38C439.686 744.9 439.926 744.38 440.086 743.82H441.766L442.726 759.54L440.446 759.66C439.886 755.74 438.326 752.54 435.766 750.06C433.206 747.58 430.246 746.34 426.886 746.34C424.566 746.34 422.726 746.98 421.366 748.26C420.086 749.54 419.446 751.18 419.446 753.18C419.446 755.1 420.046 756.62 421.246 757.74C422.526 758.78 424.126 759.78 426.046 760.74L434.326 765.18C437.526 766.86 440.126 768.94 442.126 771.42C444.206 773.82 445.246 776.86 445.246 780.54C445.246 785.66 443.326 789.82 439.486 793.02C435.726 796.14 431.086 797.7 425.566 797.7C421.646 797.7 418.566 797.02 416.326 795.66C414.166 794.3 412.686 793.62 411.886 793.62C411.246 793.62 410.686 793.98 410.206 794.7C409.806 795.34 409.526 796.02 409.366 796.74H407.566L406.606 778.62L409.006 778.5C409.566 783.06 411.366 786.86 414.406 789.9C417.526 792.86 421.126 794.34 425.206 794.34ZM498.182 797.7H497.582L476.342 753.06C475.142 750.42 474.102 748.74 473.222 748.02C472.422 747.22 470.902 746.82 468.662 746.82V744.3H497.222V746.82C495.302 746.82 493.862 746.94 492.902 747.18C491.942 747.42 491.462 748.06 491.462 749.1C491.462 749.58 491.582 750.18 491.822 750.9C492.062 751.54 492.382 752.3 492.782 753.18L503.462 778.02L513.302 753.9C513.622 752.94 513.902 752.14 514.142 751.5C514.382 750.78 514.502 750.14 514.502 749.58C514.502 748.3 513.862 747.54 512.582 747.3C511.382 746.98 509.582 746.82 507.182 746.82V744.3H525.902V746.82C523.502 746.82 521.822 747.22 520.862 748.02C519.982 748.82 518.822 750.82 517.382 754.02L498.182 797.7ZM534.953 766.02H557.033V739.26L534.953 766.02ZM582.353 793.62V796.5H547.673V793.62C551.353 793.62 553.833 793.34 555.113 792.78C556.393 792.14 557.033 790.38 557.033 787.5V771.06H527.273V770.1L566.273 723.3H572.873V766.02H575.513C579.193 766.02 582.073 765.94 584.153 765.78C586.233 765.54 588.233 764.94 590.153 763.98H590.633L587.753 771.06H572.873V787.5C572.873 790.38 573.513 792.14 574.793 792.78C576.153 793.34 578.673 793.62 582.353 793.62Z" fill="white"/>
<rect x="679.5" y="646.25" width="479" height="225.75" rx="14.5" fill="url(#paint2_radial_14_148)" fill-opacity="0.96" stroke="#787878" stroke-width="3"/>
<path d="M2998.9 758.845C2998.9 755.858 2999.36 752.925 3000.26 750.045C3001.22 747.112 3002.53 744.525 3004.18 742.285C3005.84 740.045 3007.78 738.232 3010.02 736.845C3012.32 735.458 3014.8 734.765 3017.46 734.765C3020.08 734.765 3022.5 735.458 3024.74 736.845C3027.04 738.232 3028.98 740.045 3030.58 742.285C3032.24 744.525 3033.52 747.112 3034.42 750.045C3035.38 752.925 3035.86 755.858 3035.86 758.845C3035.86 761.832 3035.38 764.792 3034.42 767.725C3033.52 770.605 3032.24 773.165 3030.58 775.405C3028.98 777.645 3027.04 779.458 3024.74 780.845C3022.5 782.232 3020.08 782.925 3017.46 782.925C3014.8 782.925 3012.32 782.232 3010.02 780.845C3007.78 779.458 3005.84 777.645 3004.18 775.405C3002.53 773.165 3001.22 770.605 3000.26 767.725C2999.36 764.792 2998.9 761.832 2998.9 758.845ZM3027.94 758.845C3027.94 756.285 3027.73 753.778 3027.3 751.325C3026.93 748.818 3026.32 746.605 3025.46 744.685C3024.66 742.765 3023.6 741.218 3022.26 740.045C3020.93 738.818 3019.33 738.205 3017.46 738.205C3015.6 738.205 3013.97 738.818 3012.58 740.045C3011.25 741.218 3010.13 742.765 3009.22 744.685C3008.37 746.605 3007.73 748.818 3007.3 751.325C3006.93 753.778 3006.74 756.285 3006.74 758.845C3006.74 761.405 3006.93 763.938 3007.3 766.445C3007.73 768.898 3008.37 771.085 3009.22 773.005C3010.13 774.925 3011.25 776.498 3012.58 777.725C3013.97 778.898 3015.6 779.485 3017.46 779.485C3019.33 779.485 3020.93 778.898 3022.26 777.725C3023.6 776.498 3024.66 774.925 3025.46 773.005C3026.32 771.085 3026.93 768.898 3027.3 766.445C3027.73 763.938 3027.94 761.405 3027.94 758.845ZM3039.88 777.725C3039.88 776.285 3040.38 775.058 3041.4 774.045C3042.41 773.032 3043.64 772.525 3045.08 772.525C3046.52 772.525 3047.74 773.032 3048.76 774.045C3049.77 775.058 3050.28 776.285 3050.28 777.725C3050.28 779.165 3049.77 780.392 3048.76 781.405C3047.74 782.418 3046.52 782.925 3045.08 782.925C3043.64 782.925 3042.41 782.418 3041.4 781.405C3040.38 780.392 3039.88 779.165 3039.88 777.725ZM3056.52 782.125V781.165L3068.68 768.365C3073.05 763.778 3075.82 760.152 3077 757.485C3078.17 754.765 3078.76 752.045 3078.76 749.325C3078.76 746.605 3077.98 744.418 3076.44 742.765C3074.89 741.058 3072.76 740.205 3070.04 740.205C3067.21 740.205 3065.02 741.085 3063.48 742.845C3061.98 744.552 3060.76 746.392 3059.8 748.365L3057.08 747.165C3058.09 744.125 3059.85 741.298 3062.36 738.685C3064.92 736.072 3068.3 734.765 3072.52 734.765C3076.57 734.765 3079.85 735.965 3082.36 738.365C3084.86 740.712 3086.12 743.885 3086.12 747.885C3086.12 752.845 3084.14 757.378 3080.2 761.485C3076.25 765.592 3071.34 770.498 3065.48 776.205H3084.84L3085.72 769.085H3088.6V782.125H3056.52ZM3126.89 767.645C3126.89 769.992 3126.41 772.125 3125.45 774.045C3124.55 775.965 3123.35 777.592 3121.85 778.925C3120.36 780.205 3118.63 781.192 3116.65 781.885C3114.73 782.578 3112.79 782.925 3110.81 782.925C3106.81 782.925 3103.48 781.858 3100.81 779.725C3098.15 777.592 3096.28 775.005 3095.21 771.965L3098.01 770.205C3099.13 772.498 3100.71 774.445 3102.73 776.045C3104.76 777.645 3107.13 778.445 3109.85 778.445C3113 778.445 3115.45 777.485 3117.21 775.565C3118.97 773.592 3119.85 771.085 3119.85 768.045C3119.85 764.845 3118.84 762.365 3116.81 760.605C3114.84 758.792 3112.28 757.885 3109.13 757.885C3108.71 757.885 3108.25 757.912 3107.77 757.965C3107.29 758.018 3106.81 758.072 3106.33 758.125L3105.85 757.325L3117.53 741.725H3102.09L3101.29 748.365H3098.33V735.565H3126.17V736.365L3111.85 755.005H3112.65C3116.17 755.005 3119.43 756.072 3122.41 758.205C3125.4 760.285 3126.89 763.432 3126.89 767.645ZM3133.84 756.925C3133.84 754.152 3134.86 751.858 3136.88 750.045C3138.96 748.178 3141.52 747.245 3144.56 747.245C3146.11 747.245 3147.52 747.512 3148.8 748.045C3150.08 748.525 3151.23 749.272 3152.24 750.285L3153.04 747.565H3155.36V758.605H3152.72C3152.19 755.832 3151.23 753.725 3149.84 752.285C3148.51 750.845 3146.8 750.125 3144.72 750.125C3143.12 750.125 3141.82 750.578 3140.8 751.485C3139.79 752.392 3139.28 753.565 3139.28 755.005C3139.28 756.018 3139.6 756.898 3140.24 757.645C3140.88 758.392 3142.24 759.298 3144.32 760.365L3150 763.245C3152.56 764.525 3154.38 765.885 3155.44 767.325C3156.51 768.712 3157.04 770.392 3157.04 772.365C3157.04 775.405 3155.87 777.938 3153.52 779.965C3151.18 781.938 3148.3 782.925 3144.88 782.925C3143.12 782.925 3141.47 782.578 3139.92 781.885C3138.38 781.192 3137.12 780.258 3136.16 779.085L3135.44 782.125H3133.04V769.725H3135.76C3136.14 772.978 3137.12 775.485 3138.72 777.245C3140.32 779.005 3142.32 779.885 3144.72 779.885C3146.7 779.885 3148.27 779.405 3149.44 778.445C3150.62 777.485 3151.2 776.232 3151.2 774.685C3151.2 773.512 3150.88 772.552 3150.24 771.805C3149.66 771.005 3148.62 770.232 3147.12 769.485L3140.64 766.285C3138.19 765.058 3136.43 763.725 3135.36 762.285C3134.35 760.792 3133.84 759.005 3133.84 756.925Z" fill="white"/>
<rect x="663.5" y="630.25" width="2555" height="257.75" rx="30.5" stroke="white" stroke-opacity="0.23" stroke-width="3"/>
<path d="M185 1093.33C182.2 1093.33 179.84 1094.57 177.92 1097.05C176.08 1099.53 175 1103.17 174.68 1107.97H194.24C194.08 1103.73 193.24 1100.25 191.72 1097.53C190.2 1094.73 187.96 1093.33 185 1093.33ZM207.44 1131.85C204.96 1136.01 201.84 1139.17 198.08 1141.33C194.32 1143.5 190.4 1144.58 186.32 1144.58C179.12 1144.58 172.88 1142.13 167.6 1137.25C162.4 1132.37 159.8 1126.01 159.8 1118.17C159.8 1110.25 162.44 1103.57 167.72 1098.13C173.08 1092.69 179.04 1089.97 185.6 1089.97C192.48 1089.97 197.68 1092.25 201.2 1096.81C204.8 1101.37 206.64 1106.17 206.72 1111.21H174.56V1111.45C174.56 1118.89 176.4 1125.01 180.08 1129.81C183.76 1134.53 188.32 1136.89 193.76 1136.89C196.24 1136.89 198.44 1136.37 200.36 1135.33C202.36 1134.29 204.16 1132.69 205.76 1130.53L207.44 1131.85ZM210.417 1093.09C214.017 1091.17 217.737 1088.53 221.577 1085.17C225.417 1081.81 228.377 1078.69 230.457 1075.81H231.417V1091.41C233.337 1091.41 236.017 1091.37 239.457 1091.29C242.897 1091.21 245.497 1091.09 247.257 1090.93L246.537 1095.13H231.417V1127.77C231.417 1130.57 232.057 1132.89 233.337 1134.73C234.617 1136.57 236.497 1137.49 238.977 1137.49C240.737 1137.49 242.257 1137.09 243.537 1136.29C244.817 1135.41 246.097 1134.09 247.377 1132.33L249.057 1133.89C247.137 1137.09 244.657 1139.69 241.617 1141.69C238.657 1143.62 235.257 1144.58 231.417 1144.58C227.017 1144.58 223.297 1143.18 220.257 1140.37C217.297 1137.49 215.817 1133.77 215.817 1129.21L216.177 1095.01H210.417V1093.09ZM277.04 1140.85V1143.38H249.56V1140.85C252.12 1140.85 253.76 1140.49 254.48 1139.77C255.2 1138.97 255.56 1137.09 255.56 1134.13V1074.37C255.56 1071.41 255.08 1069.61 254.12 1068.97C253.16 1068.25 251.24 1067.89 248.36 1067.89V1065.37H271.16V1100.53C272.36 1097.97 274.4 1095.57 277.28 1093.33C280.24 1091.09 283.6 1089.97 287.36 1089.97C292.88 1089.97 297 1091.69 299.72 1095.13C302.52 1098.57 303.92 1102.69 303.92 1107.49V1134.13C303.92 1137.09 304.28 1138.97 305 1139.77C305.72 1140.49 307.36 1140.85 309.92 1140.85V1143.38H282.32V1140.85C284.88 1140.85 286.52 1140.49 287.24 1139.77C287.96 1138.97 288.32 1137.09 288.32 1134.13V1109.65C288.32 1105.49 287.52 1102.45 285.92 1100.53C284.32 1098.53 282.16 1097.53 279.44 1097.53C277.76 1097.53 276.16 1098.05 274.64 1099.09C273.2 1100.05 272.04 1101.45 271.16 1103.29V1134.13C271.16 1137.09 271.52 1138.97 272.24 1139.77C272.96 1140.49 274.56 1140.85 277.04 1140.85ZM337.695 1093.33C334.895 1093.33 332.535 1094.57 330.615 1097.05C328.775 1099.53 327.695 1103.17 327.375 1107.97H346.935C346.775 1103.73 345.935 1100.25 344.415 1097.53C342.895 1094.73 340.655 1093.33 337.695 1093.33ZM360.135 1131.85C357.655 1136.01 354.535 1139.17 350.775 1141.33C347.015 1143.5 343.095 1144.58 339.015 1144.58C331.815 1144.58 325.575 1142.13 320.295 1137.25C315.095 1132.37 312.495 1126.01 312.495 1118.17C312.495 1110.25 315.135 1103.57 320.415 1098.13C325.775 1092.69 331.735 1089.97 338.295 1089.97C345.175 1089.97 350.375 1092.25 353.895 1096.81C357.495 1101.37 359.335 1106.17 359.415 1111.21H327.255V1111.45C327.255 1118.89 329.095 1125.01 332.775 1129.81C336.455 1134.53 341.015 1136.89 346.455 1136.89C348.935 1136.89 351.135 1136.37 353.055 1135.33C355.055 1134.29 356.855 1132.69 358.455 1130.53L360.135 1131.85ZM393.712 1140.85V1143.38H363.712V1140.85C366.272 1140.85 367.912 1140.49 368.632 1139.77C369.432 1138.97 369.832 1137.09 369.832 1134.13V1100.41C369.832 1097.45 369.432 1095.61 368.632 1094.89C367.912 1094.09 366.272 1093.69 363.712 1093.69V1091.17H385.192V1103.41C388.072 1098.85 390.512 1095.49 392.512 1093.33C394.512 1091.09 396.752 1089.97 399.232 1089.97C400.912 1089.97 402.512 1090.45 404.032 1091.41C405.632 1092.37 406.832 1093.37 407.632 1094.41L403.552 1108.1L403.072 1108.21C401.792 1105.97 400.152 1104.17 398.152 1102.81C396.152 1101.37 394.272 1100.65 392.512 1100.65C391.312 1100.65 390.112 1101.13 388.912 1102.09C387.792 1103.05 386.552 1104.37 385.192 1106.05V1134.13C385.192 1137.09 385.712 1138.93 386.752 1139.65C387.792 1140.37 390.112 1140.77 393.712 1140.85ZM428.495 1141.21C431.135 1141.21 433.255 1140.57 434.855 1139.29C436.455 1138.01 437.255 1136.13 437.255 1133.65C437.255 1131.57 436.535 1129.97 435.095 1128.85C433.735 1127.65 431.895 1126.45 429.575 1125.25L420.455 1120.45C417.575 1119.01 415.255 1117.13 413.495 1114.81C411.735 1112.49 410.855 1109.61 410.855 1106.17C410.855 1101.37 412.695 1097.49 416.375 1094.53C420.055 1091.49 424.335 1089.97 429.215 1089.97C432.335 1089.97 434.855 1090.49 436.775 1091.53C438.695 1092.49 440.135 1092.97 441.095 1092.97C441.815 1092.97 442.335 1092.73 442.655 1092.25C442.975 1091.77 443.215 1091.25 443.375 1090.69H445.055L446.015 1106.41L443.735 1106.53C443.175 1102.61 441.615 1099.41 439.055 1096.93C436.495 1094.45 433.535 1093.21 430.175 1093.21C427.855 1093.21 426.015 1093.85 424.655 1095.13C423.375 1096.41 422.735 1098.05 422.735 1100.05C422.735 1101.97 423.335 1103.49 424.535 1104.61C425.815 1105.65 427.415 1106.65 429.335 1107.61L437.615 1112.05C440.815 1113.73 443.415 1115.81 445.415 1118.29C447.495 1120.69 448.535 1123.73 448.535 1127.41C448.535 1132.53 446.615 1136.69 442.775 1139.89C439.015 1143.02 434.375 1144.58 428.855 1144.58C424.935 1144.58 421.855 1143.9 419.615 1142.53C417.455 1141.17 415.975 1140.49 415.175 1140.49C414.535 1140.49 413.975 1140.85 413.495 1141.57C413.095 1142.21 412.815 1142.89 412.655 1143.62H410.855L409.895 1125.49L412.295 1125.37C412.855 1129.93 414.655 1133.73 417.695 1136.77C420.815 1139.73 424.415 1141.21 428.495 1141.21ZM501.471 1144.58H500.871L479.631 1099.93C478.431 1097.29 477.391 1095.61 476.511 1094.89C475.711 1094.09 474.191 1093.69 471.951 1093.69V1091.17H500.511V1093.69C498.591 1093.69 497.151 1093.81 496.191 1094.05C495.231 1094.29 494.751 1094.93 494.751 1095.97C494.751 1096.45 494.871 1097.05 495.111 1097.77C495.351 1098.41 495.671 1099.17 496.071 1100.05L506.751 1124.89L516.591 1100.77C516.911 1099.81 517.191 1099.01 517.431 1098.37C517.671 1097.65 517.791 1097.01 517.791 1096.45C517.791 1095.17 517.151 1094.41 515.871 1094.17C514.671 1093.85 512.871 1093.69 510.471 1093.69V1091.17H529.191V1093.69C526.791 1093.69 525.111 1094.09 524.151 1094.89C523.271 1095.69 522.111 1097.69 520.671 1100.89L501.471 1144.58ZM562.602 1071.37C568.762 1071.37 572.682 1071.13 574.362 1070.65C576.042 1070.17 577.402 1068.81 578.442 1066.57H580.602L576.282 1085.17H544.962L542.082 1104.01C543.682 1102.57 545.882 1101.33 548.682 1100.29C551.562 1099.17 554.562 1098.61 557.682 1098.61C563.922 1098.61 569.402 1100.53 574.122 1104.37C578.842 1108.21 581.202 1113.49 581.202 1120.21C581.202 1127.41 578.482 1133.29 573.042 1137.85C567.602 1142.33 561.562 1144.58 554.922 1144.58C548.202 1144.58 542.642 1142.73 538.242 1139.05C533.922 1135.29 531.002 1130.97 529.482 1126.09L532.002 1124.77C533.442 1128.85 535.722 1132.05 538.842 1134.37C542.042 1136.69 545.522 1137.85 549.282 1137.85C554.322 1137.85 558.202 1136.21 560.922 1132.93C563.722 1129.65 565.122 1125.61 565.122 1120.81C565.122 1115.93 563.642 1112.13 560.682 1109.41C557.802 1106.69 554.322 1105.33 550.242 1105.33C548.002 1105.33 546.002 1105.73 544.242 1106.53C542.482 1107.33 540.722 1108.25 538.962 1109.29L538.122 1109.05L543.762 1071.37H562.602Z" fill="white"/>
<rect x="679.5" y="987" width="1012" height="225.75" rx="14.5" fill="url(#paint3_radial_14_148)" fill-opacity="0.96" stroke="#787878" stroke-width="3"/>
<path d="M3003.47 1122.88V1121.91L3015.63 1109.11C3020 1104.53 3022.78 1100.9 3023.95 1098.23C3025.12 1095.51 3025.71 1092.79 3025.71 1090.07C3025.71 1087.35 3024.94 1085.17 3023.39 1083.51C3021.84 1081.81 3019.71 1080.95 3016.99 1080.95C3014.16 1080.95 3011.98 1081.83 3010.43 1083.59C3008.94 1085.3 3007.71 1087.14 3006.75 1089.11L3004.03 1087.91C3005.04 1084.87 3006.8 1082.05 3009.31 1079.43C3011.87 1076.82 3015.26 1075.51 3019.47 1075.51C3023.52 1075.51 3026.8 1076.71 3029.31 1079.11C3031.82 1081.46 3033.07 1084.63 3033.07 1088.63C3033.07 1093.59 3031.1 1098.13 3027.15 1102.23C3023.2 1106.34 3018.3 1111.25 3012.43 1116.95H3031.79L3032.67 1109.83H3035.55V1122.88H3003.47ZM3044.49 1118.47C3044.49 1117.03 3044.99 1115.81 3046.01 1114.79C3047.02 1113.78 3048.25 1113.27 3049.69 1113.27C3051.13 1113.27 3052.35 1113.78 3053.37 1114.79C3054.38 1115.81 3054.89 1117.03 3054.89 1118.47C3054.89 1119.91 3054.38 1121.14 3053.37 1122.15C3052.35 1123.17 3051.13 1123.68 3049.69 1123.68C3048.25 1123.68 3047.02 1123.17 3046.01 1122.15C3044.99 1121.14 3044.49 1119.91 3044.49 1118.47ZM3090.41 1122.88H3062.81V1119.27H3073.53V1082.31L3062.49 1084.95V1081.43L3080.57 1075.51V1119.27H3090.41V1122.88ZM3093.71 1122.88V1121.91L3105.87 1109.11C3110.24 1104.53 3113.01 1100.9 3114.19 1098.23C3115.36 1095.51 3115.95 1092.79 3115.95 1090.07C3115.95 1087.35 3115.17 1085.17 3113.63 1083.51C3112.08 1081.81 3109.95 1080.95 3107.23 1080.95C3104.4 1080.95 3102.21 1081.83 3100.67 1083.59C3099.17 1085.3 3097.95 1087.14 3096.99 1089.11L3094.27 1087.91C3095.28 1084.87 3097.04 1082.05 3099.55 1079.43C3102.11 1076.82 3105.49 1075.51 3109.71 1075.51C3113.76 1075.51 3117.04 1076.71 3119.55 1079.11C3122.05 1081.46 3123.31 1084.63 3123.31 1088.63C3123.31 1093.59 3121.33 1098.13 3117.39 1102.23C3113.44 1106.34 3108.53 1111.25 3102.67 1116.95H3122.03L3122.91 1109.83H3125.79V1122.88H3093.71ZM3133.84 1097.67C3133.84 1094.9 3134.86 1092.61 3136.88 1090.79C3138.96 1088.93 3141.52 1087.99 3144.56 1087.99C3146.11 1087.99 3147.52 1088.26 3148.8 1088.79C3150.08 1089.27 3151.23 1090.02 3152.24 1091.03L3153.04 1088.31H3155.36V1099.36H3152.72C3152.19 1096.58 3151.23 1094.47 3149.84 1093.03C3148.51 1091.59 3146.8 1090.87 3144.72 1090.87C3143.12 1090.87 3141.82 1091.33 3140.8 1092.23C3139.79 1093.14 3139.28 1094.31 3139.28 1095.75C3139.28 1096.77 3139.6 1097.65 3140.24 1098.39C3140.88 1099.14 3142.24 1100.05 3144.32 1101.11L3150 1103.99C3152.56 1105.27 3154.38 1106.63 3155.44 1108.07C3156.51 1109.46 3157.04 1111.14 3157.04 1113.11C3157.04 1116.15 3155.87 1118.69 3153.52 1120.71C3151.18 1122.69 3148.3 1123.68 3144.88 1123.68C3143.12 1123.68 3141.47 1123.33 3139.92 1122.63C3138.38 1121.94 3137.12 1121.01 3136.16 1119.83L3135.44 1122.88H3133.04V1110.47H3135.76C3136.14 1113.73 3137.12 1116.23 3138.72 1117.99C3140.32 1119.75 3142.32 1120.63 3144.72 1120.63C3146.7 1120.63 3148.27 1120.15 3149.44 1119.19C3150.62 1118.23 3151.2 1116.98 3151.2 1115.43C3151.2 1114.26 3150.88 1113.3 3150.24 1112.55C3149.66 1111.75 3148.62 1110.98 3147.12 1110.23L3140.64 1107.03C3138.19 1105.81 3136.43 1104.47 3135.36 1103.03C3134.35 1101.54 3133.84 1099.75 3133.84 1097.67Z" fill="white"/>
<rect x="663.5" y="971" width="2555" height="257.75" rx="30.5" stroke="white" stroke-opacity="0.23" stroke-width="3"/>
<path d="M169 1434.08C166.2 1434.08 163.84 1435.32 161.92 1437.8C160.08 1440.28 159 1443.92 158.68 1448.72H178.24C178.08 1444.48 177.24 1441 175.72 1438.28C174.2 1435.48 171.96 1434.08 169 1434.08ZM191.44 1472.6C188.96 1476.76 185.84 1479.92 182.08 1482.08C178.32 1484.25 174.4 1485.33 170.32 1485.33C163.12 1485.33 156.88 1482.88 151.6 1478C146.4 1473.12 143.8 1466.76 143.8 1458.92C143.8 1451 146.44 1444.32 151.72 1438.88C157.08 1433.44 163.04 1430.72 169.6 1430.72C176.48 1430.72 181.68 1433 185.2 1437.56C188.8 1442.12 190.64 1446.92 190.72 1451.96H158.56V1452.2C158.56 1459.64 160.4 1465.76 164.08 1470.56C167.76 1475.28 172.32 1477.64 177.76 1477.64C180.24 1477.64 182.44 1477.12 184.36 1476.08C186.36 1475.04 188.16 1473.44 189.76 1471.28L191.44 1472.6ZM194.417 1433.84C198.017 1431.92 201.737 1429.28 205.577 1425.92C209.417 1422.56 212.377 1419.44 214.457 1416.56H215.417V1432.16C217.337 1432.16 220.017 1432.12 223.457 1432.04C226.897 1431.96 229.497 1431.84 231.257 1431.68L230.537 1435.88H215.417V1468.52C215.417 1471.32 216.057 1473.64 217.337 1475.48C218.617 1477.32 220.497 1478.24 222.977 1478.24C224.737 1478.24 226.257 1477.84 227.537 1477.04C228.817 1476.16 230.097 1474.84 231.377 1473.08L233.057 1474.64C231.137 1477.84 228.657 1480.44 225.617 1482.44C222.657 1484.37 219.257 1485.33 215.417 1485.33C211.017 1485.33 207.297 1483.93 204.257 1481.12C201.297 1478.24 199.817 1474.52 199.817 1469.96L200.177 1435.76H194.417V1433.84ZM261.04 1481.6V1484.12H233.56V1481.6C236.12 1481.6 237.76 1481.24 238.48 1480.52C239.2 1479.72 239.56 1477.84 239.56 1474.88V1415.12C239.56 1412.16 239.08 1410.36 238.12 1409.72C237.16 1409 235.24 1408.64 232.36 1408.64V1406.12H255.16V1441.28C256.36 1438.72 258.4 1436.32 261.28 1434.08C264.24 1431.84 267.6 1430.72 271.36 1430.72C276.88 1430.72 281 1432.44 283.72 1435.88C286.52 1439.32 287.92 1443.44 287.92 1448.24V1474.88C287.92 1477.84 288.28 1479.72 289 1480.52C289.72 1481.24 291.36 1481.6 293.92 1481.6V1484.12H266.32V1481.6C268.88 1481.6 270.52 1481.24 271.24 1480.52C271.96 1479.72 272.32 1477.84 272.32 1474.88V1450.4C272.32 1446.24 271.52 1443.2 269.92 1441.28C268.32 1439.28 266.16 1438.28 263.44 1438.28C261.76 1438.28 260.16 1438.8 258.64 1439.84C257.2 1440.8 256.04 1442.2 255.16 1444.04V1474.88C255.16 1477.84 255.52 1479.72 256.24 1480.52C256.96 1481.24 258.56 1481.6 261.04 1481.6ZM321.695 1434.08C318.895 1434.08 316.535 1435.32 314.615 1437.8C312.775 1440.28 311.695 1443.92 311.375 1448.72H330.935C330.775 1444.48 329.935 1441 328.415 1438.28C326.895 1435.48 324.655 1434.08 321.695 1434.08ZM344.135 1472.6C341.655 1476.76 338.535 1479.92 334.775 1482.08C331.015 1484.25 327.095 1485.33 323.015 1485.33C315.815 1485.33 309.575 1482.88 304.295 1478C299.095 1473.12 296.495 1466.76 296.495 1458.92C296.495 1451 299.135 1444.32 304.415 1438.88C309.775 1433.44 315.735 1430.72 322.295 1430.72C329.175 1430.72 334.375 1433 337.895 1437.56C341.495 1442.12 343.335 1446.92 343.415 1451.96H311.255V1452.2C311.255 1459.64 313.095 1465.76 316.775 1470.56C320.455 1475.28 325.015 1477.64 330.455 1477.64C332.935 1477.64 335.135 1477.12 337.055 1476.08C339.055 1475.04 340.855 1473.44 342.455 1471.28L344.135 1472.6ZM377.712 1481.6V1484.12H347.712V1481.6C350.272 1481.6 351.912 1481.24 352.632 1480.52C353.432 1479.72 353.832 1477.84 353.832 1474.88V1441.16C353.832 1438.2 353.432 1436.36 352.632 1435.64C351.912 1434.84 350.272 1434.44 347.712 1434.44V1431.92H369.192V1444.16C372.072 1439.6 374.512 1436.24 376.512 1434.08C378.512 1431.84 380.752 1430.72 383.232 1430.72C384.912 1430.72 386.512 1431.2 388.032 1432.16C389.632 1433.12 390.832 1434.12 391.632 1435.16L387.552 1448.85L387.072 1448.96C385.792 1446.72 384.152 1444.92 382.152 1443.56C380.152 1442.12 378.272 1441.4 376.512 1441.4C375.312 1441.4 374.112 1441.88 372.912 1442.84C371.792 1443.8 370.552 1445.12 369.192 1446.8V1474.88C369.192 1477.84 369.712 1479.68 370.752 1480.4C371.792 1481.12 374.112 1481.52 377.712 1481.6ZM412.495 1481.96C415.135 1481.96 417.255 1481.32 418.855 1480.04C420.455 1478.76 421.255 1476.88 421.255 1474.4C421.255 1472.32 420.535 1470.72 419.095 1469.6C417.735 1468.4 415.895 1467.2 413.575 1466L404.455 1461.2C401.575 1459.76 399.255 1457.88 397.495 1455.56C395.735 1453.24 394.855 1450.36 394.855 1446.92C394.855 1442.12 396.695 1438.24 400.375 1435.28C404.055 1432.24 408.335 1430.72 413.215 1430.72C416.335 1430.72 418.855 1431.24 420.775 1432.28C422.695 1433.24 424.135 1433.72 425.095 1433.72C425.815 1433.72 426.335 1433.48 426.655 1433C426.975 1432.52 427.215 1432 427.375 1431.44H429.055L430.015 1447.16L427.735 1447.28C427.175 1443.36 425.615 1440.16 423.055 1437.68C420.495 1435.2 417.535 1433.96 414.175 1433.96C411.855 1433.96 410.015 1434.6 408.655 1435.88C407.375 1437.16 406.735 1438.8 406.735 1440.8C406.735 1442.72 407.335 1444.24 408.535 1445.36C409.815 1446.4 411.415 1447.4 413.335 1448.36L421.615 1452.8C424.815 1454.48 427.415 1456.56 429.415 1459.04C431.495 1461.44 432.535 1464.48 432.535 1468.16C432.535 1473.28 430.615 1477.44 426.775 1480.64C423.015 1483.77 418.375 1485.33 412.855 1485.33C408.935 1485.33 405.855 1484.65 403.615 1483.28C401.455 1481.92 399.975 1481.24 399.175 1481.24C398.535 1481.24 397.975 1481.6 397.495 1482.32C397.095 1482.96 396.815 1483.64 396.655 1484.37H394.855L393.895 1466.24L396.295 1466.12C396.855 1470.68 398.655 1474.48 401.695 1477.52C404.815 1480.48 408.415 1481.96 412.495 1481.96ZM485.471 1485.33H484.871L463.631 1440.68C462.431 1438.04 461.391 1436.36 460.511 1435.64C459.711 1434.84 458.191 1434.44 455.951 1434.44V1431.92H484.511V1434.44C482.591 1434.44 481.151 1434.56 480.191 1434.8C479.231 1435.04 478.751 1435.68 478.751 1436.72C478.751 1437.2 478.871 1437.8 479.111 1438.52C479.351 1439.16 479.671 1439.92 480.071 1440.8L490.751 1465.64L500.591 1441.52C500.911 1440.56 501.191 1439.76 501.431 1439.12C501.671 1438.4 501.791 1437.76 501.791 1437.2C501.791 1435.92 501.151 1435.16 499.871 1434.92C498.671 1434.6 496.871 1434.44 494.471 1434.44V1431.92H513.191V1434.44C510.791 1434.44 509.111 1434.84 508.151 1435.64C507.271 1436.44 506.111 1438.44 504.671 1441.64L485.471 1485.33ZM544.802 1485.33C537.762 1485.33 531.322 1482.44 525.482 1476.68C519.642 1470.84 516.722 1463.2 516.722 1453.76C516.722 1442.08 521.282 1432 530.402 1423.53C539.522 1415.05 550.922 1410.8 564.602 1410.8C565.322 1410.8 566.042 1410.84 566.762 1410.92C567.482 1410.92 568.202 1410.96 568.922 1411.04L568.802 1413.57H567.482C557.002 1413.57 548.882 1417.04 543.122 1424C537.362 1430.96 534.042 1440.16 533.162 1451.6C535.082 1448.88 537.562 1446.68 540.602 1445C543.642 1443.32 546.882 1442.48 550.322 1442.48C556.082 1442.48 560.922 1444.28 564.842 1447.88C568.842 1451.48 570.842 1456.16 570.842 1461.92C570.842 1468.64 568.242 1474.24 563.042 1478.72C557.842 1483.12 551.762 1485.33 544.802 1485.33ZM545.762 1481.84C548.642 1481.84 551.122 1480.56 553.202 1478C555.282 1475.36 556.322 1471.32 556.322 1465.88C556.322 1460.84 555.082 1456.76 552.602 1453.64C550.122 1450.52 546.922 1448.96 543.002 1448.96C541.242 1448.96 539.402 1449.48 537.482 1450.52C535.642 1451.56 534.122 1453.08 532.922 1455.08C532.922 1455.56 532.922 1456.04 532.922 1456.52C532.922 1457 532.922 1457.52 532.922 1458.08C532.922 1465.36 534.162 1471.16 536.642 1475.48C539.122 1479.72 542.162 1481.84 545.762 1481.84Z" fill="white"/>
<rect x="669.5" y="1317.75" width="2282" height="245.75" rx="14.5" fill="url(#paint4_radial_14_148)" fill-opacity="0.96" stroke="#787878" stroke-width="3"/>
<path d="M3035.31 1464.43C3031.42 1464.43 3028.16 1463.39 3025.55 1461.3C3022.94 1459.22 3021.12 1456.72 3020.11 1453.78L3022.91 1451.94C3023.98 1454.18 3025.47 1456.1 3027.39 1457.7C3029.31 1459.3 3031.63 1460.1 3034.35 1460.1C3037.39 1460.1 3039.82 1459.14 3041.63 1457.22C3043.5 1455.25 3044.43 1452.66 3044.43 1449.46C3044.43 1446.21 3043.52 1443.76 3041.71 1442.1C3039.9 1440.4 3037.44 1439.54 3034.35 1439.54C3033.12 1439.54 3031.84 1439.76 3030.51 1440.18C3029.23 1440.56 3027.92 1441.09 3026.59 1441.78L3025.71 1441.06L3028.91 1417.06H3050.11V1424.1H3031.55L3029.79 1437.06C3030.64 1436.69 3031.71 1436.34 3032.99 1436.02C3034.27 1435.7 3035.71 1435.54 3037.31 1435.54C3038.86 1435.54 3040.46 1435.84 3042.11 1436.42C3043.82 1436.96 3045.36 1437.78 3046.75 1438.9C3048.14 1440.02 3049.26 1441.46 3050.11 1443.22C3051.02 1444.98 3051.47 1447.06 3051.47 1449.46C3051.47 1451.76 3050.99 1453.84 3050.03 1455.7C3049.07 1457.52 3047.82 1459.09 3046.27 1460.42C3044.78 1461.7 3043.07 1462.69 3041.15 1463.38C3039.23 1464.08 3037.28 1464.43 3035.31 1464.43ZM3059.57 1459.22C3059.57 1457.78 3060.07 1456.56 3061.09 1455.54C3062.1 1454.53 3063.33 1454.02 3064.77 1454.02C3066.21 1454.02 3067.43 1454.53 3068.45 1455.54C3069.46 1456.56 3069.97 1457.78 3069.97 1459.22C3069.97 1460.66 3069.46 1461.89 3068.45 1462.9C3067.43 1463.92 3066.21 1464.43 3064.77 1464.43C3063.33 1464.43 3062.1 1463.92 3061.09 1462.9C3060.07 1461.89 3059.57 1460.66 3059.57 1459.22ZM3105.49 1463.62H3077.89V1460.02H3088.61V1423.06L3077.57 1425.7V1422.18L3095.65 1416.26V1460.02H3105.49V1463.62ZM3138.06 1463.62H3110.46V1460.02H3121.18V1423.06L3110.14 1425.7V1422.18L3128.22 1416.26V1460.02H3138.06V1463.62ZM3143.84 1438.42C3143.84 1435.65 3144.86 1433.36 3146.88 1431.54C3148.96 1429.68 3151.52 1428.74 3154.56 1428.74C3156.11 1428.74 3157.52 1429.01 3158.8 1429.54C3160.08 1430.02 3161.23 1430.77 3162.24 1431.78L3163.04 1429.06H3165.36V1440.11H3162.72C3162.19 1437.33 3161.23 1435.22 3159.84 1433.78C3158.51 1432.34 3156.8 1431.62 3154.72 1431.62C3153.12 1431.62 3151.82 1432.08 3150.8 1432.98C3149.79 1433.89 3149.28 1435.06 3149.28 1436.5C3149.28 1437.52 3149.6 1438.4 3150.24 1439.14C3150.88 1439.89 3152.24 1440.8 3154.32 1441.86L3160 1444.74C3162.56 1446.02 3164.38 1447.38 3165.44 1448.82C3166.51 1450.21 3167.04 1451.89 3167.04 1453.86C3167.04 1456.9 3165.87 1459.44 3163.52 1461.46C3161.18 1463.44 3158.3 1464.43 3154.88 1464.43C3153.12 1464.43 3151.47 1464.08 3149.92 1463.38C3148.38 1462.69 3147.12 1461.76 3146.16 1460.58L3145.44 1463.62H3143.04V1451.22H3145.76C3146.14 1454.48 3147.12 1456.98 3148.72 1458.74C3150.32 1460.5 3152.32 1461.38 3154.72 1461.38C3156.7 1461.38 3158.27 1460.9 3159.44 1459.94C3160.62 1458.98 3161.2 1457.73 3161.2 1456.18C3161.2 1455.01 3160.88 1454.05 3160.24 1453.3C3159.66 1452.5 3158.62 1451.73 3157.12 1450.98L3150.64 1447.78C3148.19 1446.56 3146.43 1445.22 3145.36 1443.78C3144.35 1442.29 3143.84 1440.5 3143.84 1438.42Z" fill="white"/>
<rect x="653.5" y="1301.75" width="2575" height="277.75" rx="30.5" stroke="white" stroke-opacity="0.23" stroke-width="3"/>
<path d="M1931.67 1675.08C1929.91 1675.08 1928.15 1675.91 1926.39 1677.56C1924.63 1679.16 1923.54 1681.64 1923.11 1685H1938.95C1938.85 1682.17 1938.15 1679.83 1936.87 1677.96C1935.65 1676.04 1933.91 1675.08 1931.67 1675.08ZM1946.23 1701.48C1944.58 1703.72 1942.61 1705.35 1940.31 1706.36C1938.02 1707.32 1935.62 1707.8 1933.11 1707.8C1928.63 1707.8 1924.71 1706.25 1921.35 1703.16C1918.05 1700.07 1916.39 1695.96 1916.39 1690.84C1916.39 1685.61 1917.99 1681.19 1921.19 1677.56C1924.39 1673.93 1928.18 1672.12 1932.55 1672.12C1937.25 1672.12 1940.63 1673.72 1942.71 1676.92C1944.85 1680.07 1945.91 1683.72 1945.91 1687.88H1922.95C1923.01 1692.79 1924.37 1696.6 1927.03 1699.32C1929.75 1702.04 1932.77 1703.4 1936.07 1703.4C1937.46 1703.4 1938.93 1703.16 1940.47 1702.68C1942.02 1702.2 1943.46 1701.24 1944.79 1699.8L1946.23 1701.48ZM1967.71 1704.12V1707H1951.23V1704.12H1955.95V1675.8H1951.23V1672.92H1962.99V1677.8C1964.43 1676.47 1966.11 1675.19 1968.03 1673.96C1969.95 1672.73 1972.17 1672.12 1974.67 1672.12C1978.19 1672.12 1980.67 1673.29 1982.11 1675.64C1983.61 1677.93 1984.35 1680.68 1984.35 1683.88V1704.12H1989.07V1707H1972.59V1704.12H1977.31V1685.72C1977.31 1683.43 1976.94 1681.35 1976.19 1679.48C1975.5 1677.56 1973.87 1676.6 1971.31 1676.6C1969.82 1676.6 1968.38 1676.87 1966.99 1677.4C1965.66 1677.88 1964.33 1678.68 1962.99 1679.8V1704.12H1967.71ZM2010.38 1675.08C2007.6 1675.08 2005.26 1676.25 2003.34 1678.6C2001.42 1680.95 2000.46 1683.99 2000.46 1687.72C2000.46 1692.2 2001.68 1695.93 2004.14 1698.92C2006.59 1701.91 2009.6 1703.4 2013.18 1703.4C2014.78 1703.4 2016.24 1703.08 2017.58 1702.44C2018.91 1701.8 2020.16 1700.84 2021.34 1699.56L2022.94 1701.16C2021.34 1703.29 2019.44 1704.95 2017.26 1706.12C2015.12 1707.24 2012.8 1707.8 2010.3 1707.8C2005.66 1707.8 2001.74 1706.2 1998.54 1703C1995.34 1699.8 1993.74 1695.77 1993.74 1690.92C1993.74 1685.69 1995.36 1681.27 1998.62 1677.64C2001.92 1673.96 2005.95 1672.12 2010.7 1672.12C2012.24 1672.12 2013.71 1672.39 2015.1 1672.92C2016.48 1673.45 2017.63 1674.17 2018.54 1675.08L2019.34 1672.44H2021.66V1684.44H2019.02C2018.43 1681.29 2017.42 1678.95 2015.98 1677.4C2014.54 1675.85 2012.67 1675.08 2010.38 1675.08ZM2043.34 1707.8C2041.31 1707.8 2039.31 1707.4 2037.34 1706.6C2035.37 1705.75 2033.61 1704.55 2032.06 1703C2030.57 1701.45 2029.34 1699.59 2028.38 1697.4C2027.47 1695.16 2027.02 1692.68 2027.02 1689.96C2027.02 1687.24 2027.47 1684.79 2028.38 1682.6C2029.34 1680.36 2030.57 1678.47 2032.06 1676.92C2033.61 1675.37 2035.37 1674.2 2037.34 1673.4C2039.31 1672.55 2041.31 1672.12 2043.34 1672.12C2045.37 1672.12 2047.37 1672.55 2049.34 1673.4C2051.31 1674.2 2053.05 1675.37 2054.54 1676.92C2056.09 1678.47 2057.31 1680.36 2058.22 1682.6C2059.18 1684.79 2059.66 1687.24 2059.66 1689.96C2059.66 1692.68 2059.18 1695.16 2058.22 1697.4C2057.31 1699.59 2056.09 1701.45 2054.54 1703C2053.05 1704.55 2051.31 1705.75 2049.34 1706.6C2047.37 1707.4 2045.37 1707.8 2043.34 1707.8ZM2043.34 1675.16C2040.73 1675.16 2038.57 1676.44 2036.86 1679C2035.21 1681.51 2034.38 1685.16 2034.38 1689.96C2034.38 1694.76 2035.21 1698.44 2036.86 1701C2038.57 1703.51 2040.73 1704.76 2043.34 1704.76C2045.95 1704.76 2048.09 1703.51 2049.74 1701C2051.45 1698.44 2052.3 1694.76 2052.3 1689.96C2052.3 1685.16 2051.45 1681.51 2049.74 1679C2048.09 1676.44 2045.95 1675.16 2043.34 1675.16ZM2082.34 1703.64C2083.73 1703.64 2085.01 1703.45 2086.18 1703.08C2087.36 1702.71 2088.42 1701.93 2089.38 1700.76V1676.68C2088.53 1676.15 2087.57 1675.77 2086.5 1675.56C2085.49 1675.35 2084.45 1675.24 2083.38 1675.24C2080.56 1675.24 2078.02 1676.44 2075.78 1678.84C2073.54 1681.24 2072.42 1684.84 2072.42 1689.64C2072.42 1693.27 2073.25 1696.52 2074.9 1699.4C2076.56 1702.23 2079.04 1703.64 2082.34 1703.64ZM2089.38 1707V1702.76C2088.21 1703.99 2086.77 1705.13 2085.06 1706.2C2083.41 1707.27 2081.52 1707.8 2079.38 1707.8C2075.54 1707.8 2072.21 1706.31 2069.38 1703.32C2066.61 1700.28 2065.22 1696.31 2065.22 1691.4C2065.22 1688.41 2065.73 1685.75 2066.74 1683.4C2067.76 1681 2069.06 1678.97 2070.66 1677.32C2072.26 1675.67 2074.1 1674.39 2076.18 1673.48C2078.32 1672.57 2080.45 1672.12 2082.58 1672.12C2083.86 1672.12 2085.06 1672.25 2086.18 1672.52C2087.36 1672.79 2088.42 1673.19 2089.38 1673.72V1657.08H2082.26V1654.2H2096.42V1704.12H2101.14V1707H2089.38ZM2121.6 1675.08C2119.84 1675.08 2118.08 1675.91 2116.32 1677.56C2114.56 1679.16 2113.46 1681.64 2113.04 1685H2128.88C2128.77 1682.17 2128.08 1679.83 2126.8 1677.96C2125.57 1676.04 2123.84 1675.08 2121.6 1675.08ZM2136.16 1701.48C2134.5 1703.72 2132.53 1705.35 2130.24 1706.36C2127.94 1707.32 2125.54 1707.8 2123.04 1707.8C2118.56 1707.8 2114.64 1706.25 2111.28 1703.16C2107.97 1700.07 2106.32 1695.96 2106.32 1690.84C2106.32 1685.61 2107.92 1681.19 2111.12 1677.56C2114.32 1673.93 2118.1 1672.12 2122.48 1672.12C2127.17 1672.12 2130.56 1673.72 2132.64 1676.92C2134.77 1680.07 2135.84 1683.72 2135.84 1687.88H2112.88C2112.93 1692.79 2114.29 1696.6 2116.96 1699.32C2119.68 1702.04 2122.69 1703.4 2126 1703.4C2127.38 1703.4 2128.85 1703.16 2130.4 1702.68C2131.94 1702.2 2133.38 1701.24 2134.72 1699.8L2136.16 1701.48ZM2161.95 1667.08L2155.63 1685.24H2168.43L2161.95 1667.08ZM2155.87 1703.64V1707H2139.71V1703.64H2144.83L2160.59 1660.44H2166.75L2182.99 1703.64H2187.95V1707H2169.23V1703.64H2175.07L2169.63 1688.52H2154.43L2149.15 1703.64H2155.87ZM2206.06 1707.8C2204.03 1707.8 2202.03 1707.67 2200.06 1707.4C2198.14 1707.13 2196.09 1706.65 2193.9 1705.96V1657.08H2188.38V1654.2H2200.94V1677.16C2202.11 1675.93 2203.58 1674.79 2205.34 1673.72C2207.1 1672.65 2209.05 1672.12 2211.18 1672.12C2215.02 1672.12 2218.3 1673.67 2221.02 1676.76C2223.74 1679.8 2225.1 1683.77 2225.1 1688.68C2225.1 1691.67 2224.57 1694.36 2223.5 1696.76C2222.43 1699.11 2221.02 1701.11 2219.26 1702.76C2217.5 1704.36 2215.47 1705.61 2213.18 1706.52C2210.89 1707.37 2208.51 1707.8 2206.06 1707.8ZM2206.06 1704.6C2208.89 1704.6 2211.55 1703.43 2214.06 1701.08C2216.62 1698.73 2217.9 1695.13 2217.9 1690.28C2217.9 1686.65 2217.1 1683.43 2215.5 1680.6C2213.95 1677.72 2211.53 1676.28 2208.22 1676.28C2206.83 1676.28 2205.5 1676.47 2204.22 1676.84C2202.99 1677.21 2201.9 1677.99 2200.94 1679.16V1703.8C2201.74 1704.07 2202.54 1704.28 2203.34 1704.44C2204.19 1704.55 2205.1 1704.6 2206.06 1704.6ZM2233.57 1661.16C2233.57 1659.83 2234 1658.73 2234.85 1657.88C2235.76 1656.97 2236.85 1656.52 2238.13 1656.52C2239.46 1656.52 2240.58 1656.97 2241.49 1657.88C2242.4 1658.73 2242.85 1659.83 2242.85 1661.16C2242.85 1662.44 2242.4 1663.53 2241.49 1664.44C2240.58 1665.29 2239.46 1665.72 2238.13 1665.72C2236.85 1665.72 2235.76 1665.29 2234.85 1664.44C2234 1663.53 2233.57 1662.44 2233.57 1661.16ZM2242.21 1672.92V1704.12H2246.93V1707H2230.45V1704.12H2235.17V1675.8H2230.45V1672.92H2242.21ZM2272.5 1707H2252.02V1703.64H2257.78V1663.8H2252.02V1660.44H2270.82C2275.73 1660.44 2279.97 1661.53 2283.54 1663.72C2287.11 1665.85 2288.9 1669 2288.9 1673.16C2288.9 1677.32 2287.11 1680.49 2283.54 1682.68C2279.97 1684.81 2275.73 1685.88 2270.82 1685.88H2265.14V1703.64H2272.5V1707ZM2269.86 1663.8H2265.14V1682.84H2269.86C2272.9 1682.84 2275.57 1682.09 2277.86 1680.6C2280.15 1679.11 2281.3 1676.63 2281.3 1673.16C2281.3 1669.75 2280.15 1667.35 2277.86 1665.96C2275.57 1664.52 2272.9 1663.8 2269.86 1663.8ZM2311.77 1686.76V1684.28C2311.77 1681.93 2311.15 1680.09 2309.93 1678.76C2308.7 1677.43 2306.94 1676.76 2304.65 1676.76C2302.89 1676.76 2301.26 1677.37 2299.77 1678.6C2298.33 1679.77 2297.15 1681.43 2296.25 1683.56L2293.29 1682.36C2294.51 1679.16 2296.33 1676.65 2298.73 1674.84C2301.18 1673.03 2303.95 1672.12 2307.05 1672.12C2310.62 1672.12 2313.47 1673.19 2315.61 1675.32C2317.74 1677.45 2318.81 1680.33 2318.81 1683.96V1700.92C2318.81 1701.83 2318.99 1702.52 2319.37 1703C2319.79 1703.48 2320.38 1703.72 2321.13 1703.72C2321.71 1703.72 2322.27 1703.61 2322.81 1703.4C2323.34 1703.13 2323.87 1702.76 2324.41 1702.28L2325.93 1704.28C2324.91 1705.4 2323.85 1706.28 2322.73 1706.92C2321.61 1707.51 2320.49 1707.8 2319.37 1707.8C2317.45 1707.8 2315.85 1707.32 2314.57 1706.36C2313.29 1705.35 2312.38 1703.91 2311.85 1702.04C2310.46 1703.75 2308.83 1705.13 2306.97 1706.2C2305.1 1707.21 2303.23 1707.72 2301.37 1707.72C2298.86 1707.72 2296.78 1706.97 2295.13 1705.48C2293.53 1703.93 2292.73 1701.96 2292.73 1699.56C2292.73 1697.53 2293.45 1695.77 2294.89 1694.28C2296.33 1692.79 2298.67 1691.45 2301.93 1690.28L2311.77 1686.76ZM2311.77 1699.8V1689.56L2305.05 1692.12C2303.18 1692.87 2301.82 1693.72 2300.97 1694.68C2300.11 1695.64 2299.69 1696.81 2299.69 1698.2C2299.69 1699.85 2300.09 1701.16 2300.89 1702.12C2301.74 1703.08 2302.89 1703.56 2304.33 1703.56C2305.61 1703.56 2306.89 1703.24 2308.17 1702.6C2309.45 1701.91 2310.65 1700.97 2311.77 1699.8ZM2346.5 1704.12V1707H2328.42V1704.12H2333.14V1675.8H2328.42V1672.92H2340.18V1678.84C2341.73 1677.35 2343.35 1675.85 2345.06 1674.36C2346.77 1672.87 2348.31 1672.12 2349.7 1672.12C2351.03 1672.12 2352.23 1672.47 2353.3 1673.16C2354.42 1673.85 2355.3 1674.57 2355.94 1675.32L2352.18 1681.16C2351.01 1680.31 2349.89 1679.56 2348.82 1678.92C2347.81 1678.28 2346.77 1677.96 2345.7 1677.96C2345.17 1677.96 2344.39 1678.15 2343.38 1678.52C2342.42 1678.84 2341.35 1679.53 2340.18 1680.6V1704.12H2346.5ZM2376.92 1686.76V1684.28C2376.92 1681.93 2376.31 1680.09 2375.08 1678.76C2373.86 1677.43 2372.1 1676.76 2369.8 1676.76C2368.04 1676.76 2366.42 1677.37 2364.92 1678.6C2363.48 1679.77 2362.31 1681.43 2361.4 1683.56L2358.44 1682.36C2359.67 1679.16 2361.48 1676.65 2363.88 1674.84C2366.34 1673.03 2369.11 1672.12 2372.2 1672.12C2375.78 1672.12 2378.63 1673.19 2380.76 1675.32C2382.9 1677.45 2383.96 1680.33 2383.96 1683.96V1700.92C2383.96 1701.83 2384.15 1702.52 2384.52 1703C2384.95 1703.48 2385.54 1703.72 2386.28 1703.72C2386.87 1703.72 2387.43 1703.61 2387.96 1703.4C2388.5 1703.13 2389.03 1702.76 2389.56 1702.28L2391.08 1704.28C2390.07 1705.4 2389 1706.28 2387.88 1706.92C2386.76 1707.51 2385.64 1707.8 2384.52 1707.8C2382.6 1707.8 2381 1707.32 2379.72 1706.36C2378.44 1705.35 2377.54 1703.91 2377 1702.04C2375.62 1703.75 2373.99 1705.13 2372.12 1706.2C2370.26 1707.21 2368.39 1707.72 2366.52 1707.72C2364.02 1707.72 2361.94 1706.97 2360.28 1705.48C2358.68 1703.93 2357.88 1701.96 2357.88 1699.56C2357.88 1697.53 2358.6 1695.77 2360.04 1694.28C2361.48 1692.79 2363.83 1691.45 2367.08 1690.28L2376.92 1686.76ZM2376.92 1699.8V1689.56L2370.2 1692.12C2368.34 1692.87 2366.98 1693.72 2366.12 1694.68C2365.27 1695.64 2364.84 1696.81 2364.84 1698.2C2364.84 1699.85 2365.24 1701.16 2366.04 1702.12C2366.9 1703.08 2368.04 1703.56 2369.48 1703.56C2370.76 1703.56 2372.04 1703.24 2373.32 1702.6C2374.6 1701.91 2375.8 1700.97 2376.92 1699.8ZM2410.06 1704.12V1707H2393.58V1704.12H2398.3V1675.8H2393.58V1672.92H2405.34V1677.8C2406.78 1676.47 2408.46 1675.19 2410.38 1673.96C2412.3 1672.73 2414.51 1672.12 2417.02 1672.12C2419.47 1672.12 2421.42 1672.71 2422.86 1673.88C2424.3 1675.05 2425.31 1676.57 2425.9 1678.44C2427.55 1676.79 2429.44 1675.32 2431.58 1674.04C2433.71 1672.76 2436.03 1672.12 2438.54 1672.12C2442.06 1672.12 2444.54 1673.29 2445.98 1675.64C2447.47 1677.93 2448.22 1680.68 2448.22 1683.88V1704.12H2452.94V1707H2436.46V1704.12H2441.18V1685.4C2441.18 1683.11 2440.8 1681.08 2440.06 1679.32C2439.36 1677.51 2437.74 1676.6 2435.18 1676.6C2433.74 1676.6 2432.3 1676.87 2430.86 1677.4C2429.42 1677.93 2427.92 1678.95 2426.38 1680.44C2426.48 1680.97 2426.56 1681.53 2426.62 1682.12C2426.67 1682.71 2426.7 1683.29 2426.7 1683.88V1704.12H2431.42V1707H2414.94V1704.12H2419.66V1685.4C2419.66 1683.11 2419.28 1681.08 2418.54 1679.32C2417.84 1677.51 2416.22 1676.6 2413.66 1676.6C2412.16 1676.6 2410.72 1676.87 2409.34 1677.4C2408 1677.88 2406.67 1678.73 2405.34 1679.96V1704.12H2410.06ZM2472.85 1675.08C2471.09 1675.08 2469.33 1675.91 2467.57 1677.56C2465.81 1679.16 2464.71 1681.64 2464.29 1685H2480.13C2480.02 1682.17 2479.33 1679.83 2478.05 1677.96C2476.82 1676.04 2475.09 1675.08 2472.85 1675.08ZM2487.41 1701.48C2485.75 1703.72 2483.78 1705.35 2481.49 1706.36C2479.19 1707.32 2476.79 1707.8 2474.29 1707.8C2469.81 1707.8 2465.89 1706.25 2462.53 1703.16C2459.22 1700.07 2457.57 1695.96 2457.57 1690.84C2457.57 1685.61 2459.17 1681.19 2462.37 1677.56C2465.57 1673.93 2469.35 1672.12 2473.73 1672.12C2478.42 1672.12 2481.81 1673.72 2483.89 1676.92C2486.02 1680.07 2487.09 1683.72 2487.09 1687.88H2464.13C2464.18 1692.79 2465.54 1696.6 2468.21 1699.32C2470.93 1702.04 2473.94 1703.4 2477.25 1703.4C2478.63 1703.4 2480.1 1703.16 2481.65 1702.68C2483.19 1702.2 2484.63 1701.24 2485.97 1699.8L2487.41 1701.48ZM2490.64 1672.92H2495.84V1665.56L2502.8 1662.52V1672.92H2512.96V1675.8H2502.8V1698.44C2502.8 1699.93 2503.23 1701.16 2504.08 1702.12C2504.94 1703.08 2506.19 1703.56 2507.84 1703.56C2509.02 1703.56 2510.11 1703.21 2511.12 1702.52C2512.14 1701.83 2513.18 1700.89 2514.24 1699.72L2516 1701.48C2514.56 1703.51 2512.86 1705.08 2510.88 1706.2C2508.91 1707.27 2506.91 1707.8 2504.88 1707.8C2502.27 1707.8 2500.11 1707.08 2498.4 1705.64C2496.7 1704.15 2495.84 1702.04 2495.84 1699.32V1675.8H2490.64V1672.92ZM2533.86 1675.08C2532.1 1675.08 2530.34 1675.91 2528.58 1677.56C2526.82 1679.16 2525.73 1681.64 2525.3 1685H2541.14C2541.03 1682.17 2540.34 1679.83 2539.06 1677.96C2537.83 1676.04 2536.1 1675.08 2533.86 1675.08ZM2548.42 1701.48C2546.77 1703.72 2544.79 1705.35 2542.5 1706.36C2540.21 1707.32 2537.81 1707.8 2535.3 1707.8C2530.82 1707.8 2526.9 1706.25 2523.54 1703.16C2520.23 1700.07 2518.58 1695.96 2518.58 1690.84C2518.58 1685.61 2520.18 1681.19 2523.38 1677.56C2526.58 1673.93 2530.37 1672.12 2534.74 1672.12C2539.43 1672.12 2542.82 1673.72 2544.9 1676.92C2547.03 1680.07 2548.1 1683.72 2548.1 1687.88H2525.14C2525.19 1692.79 2526.55 1696.6 2529.22 1699.32C2531.94 1702.04 2534.95 1703.4 2538.26 1703.4C2539.65 1703.4 2541.11 1703.16 2542.66 1702.68C2544.21 1702.2 2545.65 1701.24 2546.98 1699.8L2548.42 1701.48ZM2571.5 1704.12V1707H2553.42V1704.12H2558.14V1675.8H2553.42V1672.92H2565.18V1678.84C2566.73 1677.35 2568.35 1675.85 2570.06 1674.36C2571.77 1672.87 2573.31 1672.12 2574.7 1672.12C2576.03 1672.12 2577.23 1672.47 2578.3 1673.16C2579.42 1673.85 2580.3 1674.57 2580.94 1675.32L2577.18 1681.16C2576.01 1680.31 2574.89 1679.56 2573.82 1678.92C2572.81 1678.28 2571.77 1677.96 2570.7 1677.96C2570.17 1677.96 2569.39 1678.15 2568.38 1678.52C2567.42 1678.84 2566.35 1679.53 2565.18 1680.6V1704.12H2571.5ZM2585.33 1681.8C2585.33 1679.03 2586.34 1676.73 2588.37 1674.92C2590.45 1673.05 2593.01 1672.12 2596.05 1672.12C2597.59 1672.12 2599.01 1672.39 2600.29 1672.92C2601.57 1673.4 2602.71 1674.15 2603.73 1675.16L2604.53 1672.44H2606.85V1683.48H2604.21C2603.67 1680.71 2602.71 1678.6 2601.33 1677.16C2599.99 1675.72 2598.29 1675 2596.21 1675C2594.61 1675 2593.3 1675.45 2592.29 1676.36C2591.27 1677.27 2590.77 1678.44 2590.77 1679.88C2590.77 1680.89 2591.09 1681.77 2591.73 1682.52C2592.37 1683.27 2593.73 1684.17 2595.81 1685.24L2601.49 1688.12C2604.05 1689.4 2605.86 1690.76 2606.93 1692.2C2607.99 1693.59 2608.53 1695.27 2608.53 1697.24C2608.53 1700.28 2607.35 1702.81 2605.01 1704.84C2602.66 1706.81 2599.78 1707.8 2596.37 1707.8C2594.61 1707.8 2592.95 1707.45 2591.41 1706.76C2589.86 1706.07 2588.61 1705.13 2587.65 1703.96L2586.93 1707H2584.53V1694.6H2587.25C2587.62 1697.85 2588.61 1700.36 2590.21 1702.12C2591.81 1703.88 2593.81 1704.76 2596.21 1704.76C2598.18 1704.76 2599.75 1704.28 2600.93 1703.32C2602.1 1702.36 2602.69 1701.11 2602.69 1699.56C2602.69 1698.39 2602.37 1697.43 2601.73 1696.68C2601.14 1695.88 2600.1 1695.11 2598.61 1694.36L2592.13 1691.16C2589.67 1689.93 2587.91 1688.6 2586.85 1687.16C2585.83 1685.67 2585.33 1683.88 2585.33 1681.8ZM2633.12 1688.68V1682.44H2666.72V1688.68H2633.12ZM2719.08 1707H2691.48V1703.4H2702.2V1666.44L2691.16 1669.08V1665.56L2709.24 1659.64V1703.4H2719.08V1707ZM2724.14 1683.72C2724.14 1680.73 2724.59 1677.8 2725.5 1674.92C2726.46 1671.99 2727.76 1669.4 2729.42 1667.16C2731.07 1664.92 2733.02 1663.11 2735.26 1661.72C2737.55 1660.33 2740.03 1659.64 2742.7 1659.64C2745.31 1659.64 2747.74 1660.33 2749.98 1661.72C2752.27 1663.11 2754.22 1664.92 2755.82 1667.16C2757.47 1669.4 2758.75 1671.99 2759.66 1674.92C2760.62 1677.8 2761.1 1680.73 2761.1 1683.72C2761.1 1686.71 2760.62 1689.67 2759.66 1692.6C2758.75 1695.48 2757.47 1698.04 2755.82 1700.28C2754.22 1702.52 2752.27 1704.33 2749.98 1705.72C2747.74 1707.11 2745.31 1707.8 2742.7 1707.8C2740.03 1707.8 2737.55 1707.11 2735.26 1705.72C2733.02 1704.33 2731.07 1702.52 2729.42 1700.28C2727.76 1698.04 2726.46 1695.48 2725.5 1692.6C2724.59 1689.67 2724.14 1686.71 2724.14 1683.72ZM2753.18 1683.72C2753.18 1681.16 2752.96 1678.65 2752.54 1676.2C2752.16 1673.69 2751.55 1671.48 2750.7 1669.56C2749.9 1667.64 2748.83 1666.09 2747.5 1664.92C2746.16 1663.69 2744.56 1663.08 2742.7 1663.08C2740.83 1663.08 2739.2 1663.69 2737.82 1664.92C2736.48 1666.09 2735.36 1667.64 2734.46 1669.56C2733.6 1671.48 2732.96 1673.69 2732.54 1676.2C2732.16 1678.65 2731.98 1681.16 2731.98 1683.72C2731.98 1686.28 2732.16 1688.81 2732.54 1691.32C2732.96 1693.77 2733.6 1695.96 2734.46 1697.88C2735.36 1699.8 2736.48 1701.37 2737.82 1702.6C2739.2 1703.77 2740.83 1704.36 2742.7 1704.36C2744.56 1704.36 2746.16 1703.77 2747.5 1702.6C2748.83 1701.37 2749.9 1699.8 2750.7 1697.88C2751.55 1695.96 2752.16 1693.77 2752.54 1691.32C2752.96 1688.81 2753.18 1686.28 2753.18 1683.72ZM2770.87 1707C2769.54 1707.16 2768.26 1706.84 2767.03 1706.04C2765.86 1705.24 2765.27 1703.96 2765.27 1702.2C2765.27 1700.87 2765.75 1699.75 2766.71 1698.84C2767.67 1697.88 2768.77 1697.4 2769.99 1697.4C2771.59 1697.4 2772.93 1697.96 2773.99 1699.08C2775.06 1700.15 2775.59 1701.8 2775.59 1704.04C2775.59 1707.93 2774.37 1711.11 2771.91 1713.56C2769.51 1716.01 2766.71 1717.53 2763.51 1718.12L2762.71 1715.72C2765.17 1714.97 2767.14 1713.88 2768.63 1712.44C2770.13 1711.05 2770.87 1709.24 2770.87 1707ZM2779.53 1683.72C2779.53 1680.73 2779.98 1677.8 2780.89 1674.92C2781.85 1671.99 2783.15 1669.4 2784.81 1667.16C2786.46 1664.92 2788.41 1663.11 2790.65 1661.72C2792.94 1660.33 2795.42 1659.64 2798.09 1659.64C2800.7 1659.64 2803.13 1660.33 2805.37 1661.72C2807.66 1663.11 2809.61 1664.92 2811.21 1667.16C2812.86 1669.4 2814.14 1671.99 2815.05 1674.92C2816.01 1677.8 2816.49 1680.73 2816.49 1683.72C2816.49 1686.71 2816.01 1689.67 2815.05 1692.6C2814.14 1695.48 2812.86 1698.04 2811.21 1700.28C2809.61 1702.52 2807.66 1704.33 2805.37 1705.72C2803.13 1707.11 2800.7 1707.8 2798.09 1707.8C2795.42 1707.8 2792.94 1707.11 2790.65 1705.72C2788.41 1704.33 2786.46 1702.52 2784.81 1700.28C2783.15 1698.04 2781.85 1695.48 2780.89 1692.6C2779.98 1689.67 2779.53 1686.71 2779.53 1683.72ZM2808.57 1683.72C2808.57 1681.16 2808.35 1678.65 2807.93 1676.2C2807.55 1673.69 2806.94 1671.48 2806.09 1669.56C2805.29 1667.64 2804.22 1666.09 2802.89 1664.92C2801.55 1663.69 2799.95 1663.08 2798.09 1663.08C2796.22 1663.08 2794.59 1663.69 2793.21 1664.92C2791.87 1666.09 2790.75 1667.64 2789.85 1669.56C2788.99 1671.48 2788.35 1673.69 2787.93 1676.2C2787.55 1678.65 2787.37 1681.16 2787.37 1683.72C2787.37 1686.28 2787.55 1688.81 2787.93 1691.32C2788.35 1693.77 2788.99 1695.96 2789.85 1697.88C2790.75 1699.8 2791.87 1701.37 2793.21 1702.6C2794.59 1703.77 2796.22 1704.36 2798.09 1704.36C2799.95 1704.36 2801.55 1703.77 2802.89 1702.6C2804.22 1701.37 2805.29 1699.8 2806.09 1697.88C2806.94 1695.96 2807.55 1693.77 2807.93 1691.32C2808.35 1688.81 2808.57 1686.28 2808.57 1683.72ZM2822.89 1683.72C2822.89 1680.73 2823.34 1677.8 2824.25 1674.92C2825.21 1671.99 2826.51 1669.4 2828.17 1667.16C2829.82 1664.92 2831.77 1663.11 2834.01 1661.72C2836.3 1660.33 2838.78 1659.64 2841.45 1659.64C2844.06 1659.64 2846.49 1660.33 2848.73 1661.72C2851.02 1663.11 2852.97 1664.92 2854.57 1667.16C2856.22 1669.4 2857.5 1671.99 2858.41 1674.92C2859.37 1677.8 2859.85 1680.73 2859.85 1683.72C2859.85 1686.71 2859.37 1689.67 2858.41 1692.6C2857.5 1695.48 2856.22 1698.04 2854.57 1700.28C2852.97 1702.52 2851.02 1704.33 2848.73 1705.72C2846.49 1707.11 2844.06 1707.8 2841.45 1707.8C2838.78 1707.8 2836.3 1707.11 2834.01 1705.72C2831.77 1704.33 2829.82 1702.52 2828.17 1700.28C2826.51 1698.04 2825.21 1695.48 2824.25 1692.6C2823.34 1689.67 2822.89 1686.71 2822.89 1683.72ZM2851.93 1683.72C2851.93 1681.16 2851.71 1678.65 2851.29 1676.2C2850.91 1673.69 2850.3 1671.48 2849.45 1669.56C2848.65 1667.64 2847.58 1666.09 2846.25 1664.92C2844.91 1663.69 2843.31 1663.08 2841.45 1663.08C2839.58 1663.08 2837.95 1663.69 2836.57 1664.92C2835.23 1666.09 2834.11 1667.64 2833.21 1669.56C2832.35 1671.48 2831.71 1673.69 2831.29 1676.2C2830.91 1678.65 2830.73 1681.16 2830.73 1683.72C2830.73 1686.28 2830.91 1688.81 2831.29 1691.32C2831.71 1693.77 2832.35 1695.96 2833.21 1697.88C2834.11 1699.8 2835.23 1701.37 2836.57 1702.6C2837.95 1703.77 2839.58 1704.36 2841.45 1704.36C2843.31 1704.36 2844.91 1703.77 2846.25 1702.6C2847.58 1701.37 2848.65 1699.8 2849.45 1697.88C2850.3 1695.96 2850.91 1693.77 2851.29 1691.32C2851.71 1688.81 2851.93 1686.28 2851.93 1683.72ZM2866.25 1683.72C2866.25 1680.73 2866.7 1677.8 2867.61 1674.92C2868.57 1671.99 2869.87 1669.4 2871.53 1667.16C2873.18 1664.92 2875.13 1663.11 2877.37 1661.72C2879.66 1660.33 2882.14 1659.64 2884.81 1659.64C2887.42 1659.64 2889.85 1660.33 2892.09 1661.72C2894.38 1663.11 2896.33 1664.92 2897.93 1667.16C2899.58 1669.4 2900.86 1671.99 2901.77 1674.92C2902.73 1677.8 2903.21 1680.73 2903.21 1683.72C2903.21 1686.71 2902.73 1689.67 2901.77 1692.6C2900.86 1695.48 2899.58 1698.04 2897.93 1700.28C2896.33 1702.52 2894.38 1704.33 2892.09 1705.72C2889.85 1707.11 2887.42 1707.8 2884.81 1707.8C2882.14 1707.8 2879.66 1707.11 2877.37 1705.72C2875.13 1704.33 2873.18 1702.52 2871.53 1700.28C2869.87 1698.04 2868.57 1695.48 2867.61 1692.6C2866.7 1689.67 2866.25 1686.71 2866.25 1683.72ZM2895.29 1683.72C2895.29 1681.16 2895.07 1678.65 2894.65 1676.2C2894.27 1673.69 2893.66 1671.48 2892.81 1669.56C2892.01 1667.64 2890.94 1666.09 2889.61 1664.92C2888.27 1663.69 2886.67 1663.08 2884.81 1663.08C2882.94 1663.08 2881.31 1663.69 2879.93 1664.92C2878.59 1666.09 2877.47 1667.64 2876.57 1669.56C2875.71 1671.48 2875.07 1673.69 2874.65 1676.2C2874.27 1678.65 2874.09 1681.16 2874.09 1683.72C2874.09 1686.28 2874.27 1688.81 2874.65 1691.32C2875.07 1693.77 2875.71 1695.96 2876.57 1697.88C2877.47 1699.8 2878.59 1701.37 2879.93 1702.6C2881.31 1703.77 2882.94 1704.36 2884.81 1704.36C2886.67 1704.36 2888.27 1703.77 2889.61 1702.6C2890.94 1701.37 2892.01 1699.8 2892.81 1697.88C2893.66 1695.96 2894.27 1693.77 2894.65 1691.32C2895.07 1688.81 2895.29 1686.28 2895.29 1683.72ZM2930.52 1661.16C2930.52 1659.83 2930.95 1658.73 2931.8 1657.88C2932.71 1656.97 2933.8 1656.52 2935.08 1656.52C2936.42 1656.52 2937.54 1656.97 2938.44 1657.88C2939.35 1658.73 2939.8 1659.83 2939.8 1661.16C2939.8 1662.44 2939.35 1663.53 2938.44 1664.44C2937.54 1665.29 2936.42 1665.72 2935.08 1665.72C2933.8 1665.72 2932.71 1665.29 2931.8 1664.44C2930.95 1663.53 2930.52 1662.44 2930.52 1661.16ZM2939.16 1672.92V1704.12H2943.88V1707H2927.4V1704.12H2932.12V1675.8H2927.4V1672.92H2939.16ZM2946.89 1672.92H2952.09V1665.56L2959.05 1662.52V1672.92H2969.21V1675.8H2959.05V1698.44C2959.05 1699.93 2959.48 1701.16 2960.33 1702.12C2961.19 1703.08 2962.44 1703.56 2964.09 1703.56C2965.27 1703.56 2966.36 1703.21 2967.37 1702.52C2968.39 1701.83 2969.43 1700.89 2970.49 1699.72L2972.25 1701.48C2970.81 1703.51 2969.11 1705.08 2967.13 1706.2C2965.16 1707.27 2963.16 1707.8 2961.13 1707.8C2958.52 1707.8 2956.36 1707.08 2954.65 1705.64C2952.95 1704.15 2952.09 1702.04 2952.09 1699.32V1675.8H2946.89V1672.92ZM2990.11 1675.08C2988.35 1675.08 2986.59 1675.91 2984.83 1677.56C2983.07 1679.16 2981.98 1681.64 2981.55 1685H2997.39C2997.28 1682.17 2996.59 1679.83 2995.31 1677.96C2994.08 1676.04 2992.35 1675.08 2990.11 1675.08ZM3004.67 1701.48C3003.02 1703.72 3001.04 1705.35 2998.75 1706.36C2996.46 1707.32 2994.06 1707.8 2991.55 1707.8C2987.07 1707.8 2983.15 1706.25 2979.79 1703.16C2976.48 1700.07 2974.83 1695.96 2974.83 1690.84C2974.83 1685.61 2976.43 1681.19 2979.63 1677.56C2982.83 1673.93 2986.62 1672.12 2990.99 1672.12C2995.68 1672.12 2999.07 1673.72 3001.15 1676.92C3003.28 1680.07 3004.35 1683.72 3004.35 1687.88H2981.39C2981.44 1692.79 2982.8 1696.6 2985.47 1699.32C2988.19 1702.04 2991.2 1703.4 2994.51 1703.4C2995.9 1703.4 2997.36 1703.16 2998.91 1702.68C3000.46 1702.2 3001.9 1701.24 3003.23 1699.8L3004.67 1701.48ZM3027.75 1704.12V1707H3009.67V1704.12H3014.39V1675.8H3009.67V1672.92H3021.43V1678.84C3022.98 1677.35 3024.6 1675.85 3026.31 1674.36C3028.02 1672.87 3029.56 1672.12 3030.95 1672.12C3032.28 1672.12 3033.48 1672.47 3034.55 1673.16C3035.67 1673.85 3036.55 1674.57 3037.19 1675.32L3033.43 1681.16C3032.26 1680.31 3031.14 1679.56 3030.07 1678.92C3029.06 1678.28 3028.02 1677.96 3026.95 1677.96C3026.42 1677.96 3025.64 1678.15 3024.63 1678.52C3023.67 1678.84 3022.6 1679.53 3021.43 1680.6V1704.12H3027.75ZM3058.17 1686.76V1684.28C3058.17 1681.93 3057.56 1680.09 3056.33 1678.76C3055.11 1677.43 3053.35 1676.76 3051.05 1676.76C3049.29 1676.76 3047.67 1677.37 3046.17 1678.6C3044.73 1679.77 3043.56 1681.43 3042.65 1683.56L3039.69 1682.36C3040.92 1679.16 3042.73 1676.65 3045.13 1674.84C3047.59 1673.03 3050.36 1672.12 3053.45 1672.12C3057.03 1672.12 3059.88 1673.19 3062.01 1675.32C3064.15 1677.45 3065.21 1680.33 3065.21 1683.96V1700.92C3065.21 1701.83 3065.4 1702.52 3065.77 1703C3066.2 1703.48 3066.79 1703.72 3067.53 1703.72C3068.12 1703.72 3068.68 1703.61 3069.21 1703.4C3069.75 1703.13 3070.28 1702.76 3070.81 1702.28L3072.33 1704.28C3071.32 1705.4 3070.25 1706.28 3069.13 1706.92C3068.01 1707.51 3066.89 1707.8 3065.77 1707.8C3063.85 1707.8 3062.25 1707.32 3060.97 1706.36C3059.69 1705.35 3058.79 1703.91 3058.25 1702.04C3056.87 1703.75 3055.24 1705.13 3053.37 1706.2C3051.51 1707.21 3049.64 1707.72 3047.77 1707.72C3045.27 1707.72 3043.19 1706.97 3041.53 1705.48C3039.93 1703.93 3039.13 1701.96 3039.13 1699.56C3039.13 1697.53 3039.85 1695.77 3041.29 1694.28C3042.73 1692.79 3045.08 1691.45 3048.33 1690.28L3058.17 1686.76ZM3058.17 1699.8V1689.56L3051.45 1692.12C3049.59 1692.87 3048.23 1693.72 3047.37 1694.68C3046.52 1695.64 3046.09 1696.81 3046.09 1698.2C3046.09 1699.85 3046.49 1701.16 3047.29 1702.12C3048.15 1703.08 3049.29 1703.56 3050.73 1703.56C3052.01 1703.56 3053.29 1703.24 3054.57 1702.6C3055.85 1701.91 3057.05 1700.97 3058.17 1699.8ZM3073.07 1672.92H3078.27V1665.56L3085.23 1662.52V1672.92H3095.39V1675.8H3085.23V1698.44C3085.23 1699.93 3085.65 1701.16 3086.51 1702.12C3087.36 1703.08 3088.61 1703.56 3090.27 1703.56C3091.44 1703.56 3092.53 1703.21 3093.55 1702.52C3094.56 1701.83 3095.6 1700.89 3096.67 1699.72L3098.43 1701.48C3096.99 1703.51 3095.28 1705.08 3093.31 1706.2C3091.33 1707.27 3089.33 1707.8 3087.31 1707.8C3084.69 1707.8 3082.53 1707.08 3080.83 1705.64C3079.12 1704.15 3078.27 1702.04 3078.27 1699.32V1675.8H3073.07V1672.92ZM3103.88 1661.16C3103.88 1659.83 3104.31 1658.73 3105.16 1657.88C3106.07 1656.97 3107.16 1656.52 3108.44 1656.52C3109.78 1656.52 3110.9 1656.97 3111.8 1657.88C3112.71 1658.73 3113.16 1659.83 3113.16 1661.16C3113.16 1662.44 3112.71 1663.53 3111.8 1664.44C3110.9 1665.29 3109.78 1665.72 3108.44 1665.72C3107.16 1665.72 3106.07 1665.29 3105.16 1664.44C3104.31 1663.53 3103.88 1662.44 3103.88 1661.16ZM3112.52 1672.92V1704.12H3117.24V1707H3100.76V1704.12H3105.48V1675.8H3100.76V1672.92H3112.52ZM3138.57 1707.8C3136.55 1707.8 3134.55 1707.4 3132.57 1706.6C3130.6 1705.75 3128.84 1704.55 3127.29 1703C3125.8 1701.45 3124.57 1699.59 3123.61 1697.4C3122.71 1695.16 3122.25 1692.68 3122.25 1689.96C3122.25 1687.24 3122.71 1684.79 3123.61 1682.6C3124.57 1680.36 3125.8 1678.47 3127.29 1676.92C3128.84 1675.37 3130.6 1674.2 3132.57 1673.4C3134.55 1672.55 3136.55 1672.12 3138.57 1672.12C3140.6 1672.12 3142.6 1672.55 3144.57 1673.4C3146.55 1674.2 3148.28 1675.37 3149.77 1676.92C3151.32 1678.47 3152.55 1680.36 3153.45 1682.6C3154.41 1684.79 3154.89 1687.24 3154.89 1689.96C3154.89 1692.68 3154.41 1695.16 3153.45 1697.4C3152.55 1699.59 3151.32 1701.45 3149.77 1703C3148.28 1704.55 3146.55 1705.75 3144.57 1706.6C3142.6 1707.4 3140.6 1707.8 3138.57 1707.8ZM3138.57 1675.16C3135.96 1675.16 3133.8 1676.44 3132.09 1679C3130.44 1681.51 3129.61 1685.16 3129.61 1689.96C3129.61 1694.76 3130.44 1698.44 3132.09 1701C3133.8 1703.51 3135.96 1704.76 3138.57 1704.76C3141.19 1704.76 3143.32 1703.51 3144.97 1701C3146.68 1698.44 3147.53 1694.76 3147.53 1689.96C3147.53 1685.16 3146.68 1681.51 3144.97 1679C3143.32 1676.44 3141.19 1675.16 3138.57 1675.16ZM3176.7 1704.12V1707H3160.22V1704.12H3164.94V1675.8H3160.22V1672.92H3171.98V1677.8C3173.42 1676.47 3175.1 1675.19 3177.02 1673.96C3178.94 1672.73 3181.15 1672.12 3183.66 1672.12C3187.18 1672.12 3189.66 1673.29 3191.1 1675.64C3192.59 1677.93 3193.34 1680.68 3193.34 1683.88V1704.12H3198.06V1707H3181.58V1704.12H3186.3V1685.72C3186.3 1683.43 3185.92 1681.35 3185.18 1679.48C3184.48 1677.56 3182.86 1676.6 3180.3 1676.6C3178.8 1676.6 3177.36 1676.87 3175.98 1677.4C3174.64 1677.88 3173.31 1678.68 3171.98 1679.8V1704.12H3176.7ZM3203.84 1681.8C3203.84 1679.03 3204.86 1676.73 3206.88 1674.92C3208.96 1673.05 3211.52 1672.12 3214.56 1672.12C3216.11 1672.12 3217.52 1672.39 3218.8 1672.92C3220.08 1673.4 3221.23 1674.15 3222.24 1675.16L3223.04 1672.44H3225.36V1683.48H3222.72C3222.19 1680.71 3221.23 1678.6 3219.84 1677.16C3218.51 1675.72 3216.8 1675 3214.72 1675C3213.12 1675 3211.82 1675.45 3210.8 1676.36C3209.79 1677.27 3209.28 1678.44 3209.28 1679.88C3209.28 1680.89 3209.6 1681.77 3210.24 1682.52C3210.88 1683.27 3212.24 1684.17 3214.32 1685.24L3220 1688.12C3222.56 1689.4 3224.38 1690.76 3225.44 1692.2C3226.51 1693.59 3227.04 1695.27 3227.04 1697.24C3227.04 1700.28 3225.87 1702.81 3223.52 1704.84C3221.18 1706.81 3218.3 1707.8 3214.88 1707.8C3213.12 1707.8 3211.47 1707.45 3209.92 1706.76C3208.38 1706.07 3207.12 1705.13 3206.16 1703.96L3205.44 1707H3203.04V1694.6H3205.76C3206.14 1697.85 3207.12 1700.36 3208.72 1702.12C3210.32 1703.88 3212.32 1704.76 3214.72 1704.76C3216.7 1704.76 3218.27 1704.28 3219.44 1703.32C3220.62 1702.36 3221.2 1701.11 3221.2 1699.56C3221.2 1698.39 3220.88 1697.43 3220.24 1696.68C3219.66 1695.88 3218.62 1695.11 3217.12 1694.36L3210.64 1691.16C3208.19 1689.93 3206.43 1688.6 3205.36 1687.16C3204.35 1685.67 3203.84 1683.88 3203.84 1681.8Z" fill="white"/>
<defs>
<filter id="filter0_d_14_148" x="641" y="271.775" width="296" height="299.204" filterUnits="userSpaceOnUse" color-interpolation-filters="sRGB">
<feFlood flood-opacity="0" result="BackgroundImageFix"/>
<feColorMatrix in="SourceAlpha" type="matrix" values="0 0 0 0 0 0 0 0 0 0 0 0 0 0 0 0 0 0 127 0" result="hardAlpha"/>
<feMorphology radius="7" operator="dilate" in="SourceAlpha" result="effect1_dropShadow_14_148"/>
<feOffset dy="4"/>
<feGaussianBlur stdDeviation="16"/>
<feComposite in2="hardAlpha" operator="out"/>
<feColorMatrix type="matrix" values="0 0 0 0 1 0 0 0 0 0.6 0 0 0 0 0 0 0 0 0.98 0"/>
<feBlend mode="normal" in2="BackgroundImageFix" result="effect1_dropShadow_14_148"/>
<feBlend mode="normal" in="SourceGraphic" in2="effect1_dropShadow_14_148" result="shape"/>
</filter>
<radialGradient id="paint0_radial_14_148" cx="0" cy="0" r="1" gradientUnits="userSpaceOnUse" gradientTransform="translate(689.909 440.774) rotate(69.7274) scale(417.206 316.146)">
<stop stop-color="#FF8A00"/>
<stop offset="1" stop-color="#FFBA07"/>
</radialGradient>
<radialGradient id="paint1_radial_14_148" cx="0" cy="0" r="1" gradientUnits="userSpaceOnUse" gradientTransform="translate(688.091 442.57) rotate(70.0118) scale(430.653 322.533)">
<stop stop-color="#FF8A00"/>
<stop offset="1" stop-color="#FFBA07"/>
</radialGradient>
<radialGradient id="paint2_radial_14_148" cx="0" cy="0" r="1" gradientUnits="userSpaceOnUse" gradientTransform="translate(699.909 783.32) rotate(51.7006) scale(515.699 584.79)">
<stop stop-color="white" stop-opacity="0.19"/>
<stop offset="1" stop-color="white" stop-opacity="0.32"/>
</radialGradient>
<radialGradient id="paint3_radial_14_148" cx="0" cy="0" r="1" gradientUnits="userSpaceOnUse" gradientTransform="translate(724.136 1124.07) rotate(31.019) scale(785.357 808.627)">
<stop stop-color="white" stop-opacity="0.19"/>
<stop offset="1" stop-color="white" stop-opacity="0.32"/>
</radialGradient>
<radialGradient id="paint4_radial_14_148" cx="0" cy="0" r="1" gradientUnits="userSpaceOnUse" gradientTransform="translate(771.864 1466.94) rotate(16.1963) scale(1577.81 985.333)">
<stop stop-color="white" stop-opacity="0.19"/>
<stop offset="1" stop-color="white" stop-opacity="0.32"/>
</radialGradient>
</defs>
</svg>
