<svg width="2852" height="1530" viewBox="0 0 2852 1530" fill="none" xmlns="http://www.w3.org/2000/svg">
<rect width="2846" height="1530" transform="translate(6)" fill="#1E1E20"/>
<path d="M390.433 110V109.16L401.283 97.82C404.69 94.2733 406.883 91.38 407.863 89.14C408.843 86.8533 409.333 84.59 409.333 82.35C409.333 80.0633 408.68 78.1967 407.373 76.75C406.066 75.2567 404.27 74.51 401.983 74.51C399.696 74.51 397.876 75.21 396.523 76.61C395.216 78.01 394.143 79.55 393.303 81.23L390.853 80.11C391.74 77.3567 393.326 74.7433 395.613 72.27C397.946 69.7967 401.05 68.56 404.923 68.56C408.563 68.56 411.503 69.61 413.743 71.71C415.983 73.81 417.103 76.61 417.103 80.11C417.103 84.2167 415.493 87.95 412.273 91.31C409.1 94.67 404.946 98.73 399.813 103.49H415.843L416.543 97.82H419.273V110H390.433ZM436.75 110H430.17L446.48 76.47H428.14L427.51 82.28H424.71V69.26H452.99V69.96L436.75 110ZM467.826 63.8V107.06H471.466V110H456.346V107.06H459.916V66.74H455.436V63.8H467.826ZM480.986 110L469.226 92.92L480.566 82.91H476.226V79.97H490.296V82.91H485.116L476.296 90.68L488.196 107.06H492.256V110H480.986ZM513.677 110H494.357V106.71H498.977V72.55H494.357V69.26H511.297C515.591 69.26 519.277 70.1 522.357 71.78C525.437 73.46 526.977 76.12 526.977 79.76C526.977 81.9533 525.997 83.89 524.037 85.57C522.124 87.25 520.164 88.2533 518.157 88.58C521.051 89.14 523.664 90.2833 525.997 92.01C528.331 93.69 529.497 95.9533 529.497 98.8C529.497 102.44 527.934 105.217 524.807 107.13C521.681 109.043 517.971 110 513.677 110ZM509.827 72.55H507.237V87.88H509.827C512.301 87.88 514.447 87.32 516.267 86.2C518.134 85.0333 519.067 82.98 519.067 80.04C519.067 77.24 518.134 75.3033 516.267 74.23C514.447 73.11 512.301 72.55 509.827 72.55ZM512.137 91.03H507.237V106.71H512.137C514.564 106.71 516.687 106.15 518.507 105.03C520.374 103.863 521.307 101.833 521.307 98.94C521.307 96.14 520.374 94.1333 518.507 92.92C516.687 91.66 514.564 91.03 512.137 91.03Z" fill="white"/>
<g filter="url(#filter0_d_14_93)">
<rect x="39.2423" y="1194" width="842.182" height="128" rx="16" fill="url(#paint0_radial_14_93)" fill-opacity="0.96" shape-rendering="crispEdges"/>
</g>
<rect x="32" y="1185" width="856.667" height="142" rx="16" fill="url(#paint1_radial_14_93)" fill-opacity="0.96"/>
<rect x="17.5" y="11.5" width="885.667" height="1330" rx="30.5" stroke="white" stroke-opacity="0.23" stroke-width="3"/>
<path d="M367.76 1521.2H367.16L345.92 1476.56C344.72 1473.92 343.68 1472.24 342.8 1471.52C342 1470.72 340.48 1470.32 338.24 1470.32V1467.8H366.8V1470.32C364.88 1470.32 363.44 1470.44 362.48 1470.68C361.52 1470.92 361.04 1471.56 361.04 1472.6C361.04 1473.08 361.16 1473.68 361.4 1474.4C361.64 1475.04 361.96 1475.8 362.36 1476.68L373.04 1501.52L382.88 1477.4C383.2 1476.44 383.48 1475.64 383.72 1475C383.96 1474.28 384.08 1473.64 384.08 1473.08C384.08 1471.8 383.44 1471.04 382.16 1470.8C380.96 1470.48 379.16 1470.32 376.76 1470.32V1467.8H395.48V1470.32C393.08 1470.32 391.4 1470.72 390.44 1471.52C389.56 1472.32 388.4 1474.32 386.96 1477.52L367.76 1521.2ZM402.731 1451.48C402.731 1449.08 403.571 1447.08 405.251 1445.48C407.011 1443.8 409.131 1442.96 411.611 1442.96C414.011 1442.96 416.051 1443.8 417.731 1445.48C419.411 1447.08 420.251 1449.08 420.251 1451.48C420.251 1453.88 419.411 1455.88 417.731 1457.48C416.051 1459.08 414.011 1459.88 411.611 1459.88C409.131 1459.88 407.011 1459.08 405.251 1457.48C403.571 1455.88 402.731 1453.88 402.731 1451.48ZM404.051 1477.04C404.051 1474.08 403.651 1472.24 402.851 1471.52C402.131 1470.72 400.491 1470.32 397.931 1470.32V1467.8H419.531V1510.76C419.531 1513.72 419.891 1515.6 420.611 1516.4C421.411 1517.12 423.051 1517.48 425.531 1517.48V1520H397.931V1517.48C400.491 1517.48 402.131 1517.12 402.851 1516.4C403.651 1515.6 404.051 1513.72 404.051 1510.76V1477.04ZM453.594 1469.96C450.794 1469.96 448.434 1471.2 446.514 1473.68C444.674 1476.16 443.594 1479.8 443.274 1484.6H462.834C462.674 1480.36 461.834 1476.88 460.314 1474.16C458.794 1471.36 456.554 1469.96 453.594 1469.96ZM476.034 1508.48C473.554 1512.64 470.434 1515.8 466.674 1517.96C462.914 1520.12 458.994 1521.2 454.914 1521.2C447.714 1521.2 441.474 1518.76 436.194 1513.88C430.994 1509 428.394 1502.64 428.394 1494.8C428.394 1486.88 431.034 1480.2 436.314 1474.76C441.674 1469.32 447.634 1466.6 454.194 1466.6C461.074 1466.6 466.274 1468.88 469.794 1473.44C473.394 1478 475.234 1482.8 475.314 1487.84H443.154V1488.08C443.154 1495.52 444.994 1501.64 448.674 1506.44C452.354 1511.16 456.914 1513.52 462.354 1513.52C464.834 1513.52 467.034 1513 468.954 1511.96C470.954 1510.92 472.754 1509.32 474.354 1507.16L476.034 1508.48ZM507.21 1517.48V1520H479.61V1517.48C482.17 1517.48 483.81 1517.12 484.53 1516.4C485.33 1515.6 485.73 1513.72 485.73 1510.76V1477.04C485.73 1474.08 485.33 1472.24 484.53 1471.52C483.81 1470.72 482.17 1470.32 479.61 1470.32V1467.8H501.21V1477.16C502.41 1474.68 504.41 1472.32 507.21 1470.08C510.01 1467.76 513.41 1466.6 517.41 1466.6C521.65 1466.6 525.01 1467.68 527.49 1469.84C530.05 1471.92 531.73 1474.6 532.53 1477.88C533.73 1475.32 535.77 1472.8 538.65 1470.32C541.61 1467.84 545.25 1466.6 549.57 1466.6C555.01 1466.6 559.01 1468.32 561.57 1471.76C564.13 1475.2 565.41 1479.32 565.41 1484.12V1510.76C565.41 1513.72 565.77 1515.6 566.49 1516.4C567.29 1517.12 568.97 1517.48 571.53 1517.48V1520H543.93V1517.48C546.49 1517.48 548.13 1517.12 548.85 1516.4C549.57 1515.6 549.93 1513.72 549.93 1510.76V1486.28C549.93 1482.12 549.21 1479.08 547.77 1477.16C546.33 1475.16 544.25 1474.16 541.53 1474.16C539.77 1474.16 538.13 1474.72 536.61 1475.84C535.09 1476.88 533.93 1478.4 533.13 1480.4C533.21 1480.96 533.25 1481.56 533.25 1482.2C533.33 1482.84 533.37 1483.48 533.37 1484.12V1510.76C533.37 1513.72 533.73 1515.6 534.45 1516.4C535.17 1517.12 536.81 1517.48 539.37 1517.48V1520H511.77V1517.48C514.33 1517.48 515.97 1517.12 516.69 1516.4C517.41 1515.6 517.77 1513.72 517.77 1510.76V1486.28C517.77 1482.12 517.05 1479.08 515.61 1477.16C514.17 1475.16 512.09 1474.16 509.37 1474.16C507.69 1474.16 506.13 1474.68 504.69 1475.72C503.25 1476.68 502.09 1478.08 501.21 1479.92V1510.76C501.21 1513.72 501.57 1515.6 502.29 1516.4C503.09 1517.12 504.73 1517.48 507.21 1517.48Z" fill="white"/>
<path d="M1370.68 110H1346.04V106.5H1354.72V75.21L1345.76 77.31V73.95L1362.7 68.56V106.5H1370.68V110ZM1373.42 110V109.16L1384.27 97.82C1387.68 94.2733 1389.87 91.38 1390.85 89.14C1391.83 86.8533 1392.32 84.59 1392.32 82.35C1392.32 80.0633 1391.67 78.1967 1390.36 76.75C1389.05 75.2567 1387.26 74.51 1384.97 74.51C1382.68 74.51 1380.86 75.21 1379.51 76.61C1378.2 78.01 1377.13 79.55 1376.29 81.23L1373.84 80.11C1374.73 77.3567 1376.31 74.7433 1378.6 72.27C1380.93 69.7967 1384.04 68.56 1387.91 68.56C1391.55 68.56 1394.49 69.61 1396.73 71.71C1398.97 73.81 1400.09 76.61 1400.09 80.11C1400.09 84.2167 1398.48 87.95 1395.26 91.31C1392.09 94.67 1387.93 98.73 1382.8 103.49H1398.83L1399.53 97.82H1402.26V110H1373.42ZM1419.74 110H1413.16L1429.47 76.47H1411.13L1410.5 82.28H1407.7V69.26H1435.98V69.96L1419.74 110ZM1450.81 63.8V107.06H1454.45V110H1439.33V107.06H1442.9V66.74H1438.42V63.8H1450.81ZM1463.97 110L1452.21 92.92L1463.55 82.91H1459.21V79.97H1473.28V82.91H1468.1L1459.28 90.68L1471.18 107.06H1475.24V110H1463.97ZM1496.67 110H1477.35V106.71H1481.97V72.55H1477.35V69.26H1494.29C1498.58 69.26 1502.27 70.1 1505.35 71.78C1508.43 73.46 1509.97 76.12 1509.97 79.76C1509.97 81.9533 1508.99 83.89 1507.03 85.57C1505.11 87.25 1503.15 88.2533 1501.15 88.58C1504.04 89.14 1506.65 90.2833 1508.99 92.01C1511.32 93.69 1512.49 95.9533 1512.49 98.8C1512.49 102.44 1510.92 105.217 1507.8 107.13C1504.67 109.043 1500.96 110 1496.67 110ZM1492.82 72.55H1490.23V87.88H1492.82C1495.29 87.88 1497.44 87.32 1499.26 86.2C1501.12 85.0333 1502.06 82.98 1502.06 80.04C1502.06 77.24 1501.12 75.3033 1499.26 74.23C1497.44 73.11 1495.29 72.55 1492.82 72.55ZM1495.13 91.03H1490.23V106.71H1495.13C1497.55 106.71 1499.68 106.15 1501.5 105.03C1503.36 103.863 1504.3 101.833 1504.3 98.94C1504.3 96.14 1503.36 94.1333 1501.5 92.92C1499.68 91.66 1497.55 91.03 1495.13 91.03Z" fill="white"/>
<rect x="1016.5" y="252.203" width="825" height="1078" rx="14.5" fill="url(#paint2_radial_14_93)" fill-opacity="0.96" stroke="#787878" stroke-width="3"/>
<rect x="1000.5" y="11.5" width="857" height="1334.7" rx="30.5" stroke="white" stroke-opacity="0.23" stroke-width="3"/>
<path d="M1239.41 1469.96C1236.61 1469.96 1234.25 1471.2 1232.33 1473.68C1230.49 1476.16 1229.41 1479.8 1229.09 1484.6H1248.65C1248.49 1480.36 1247.65 1476.88 1246.13 1474.16C1244.61 1471.36 1242.37 1469.96 1239.41 1469.96ZM1261.85 1508.48C1259.37 1512.64 1256.25 1515.8 1252.49 1517.96C1248.73 1520.12 1244.81 1521.2 1240.73 1521.2C1233.53 1521.2 1227.29 1518.76 1222.01 1513.88C1216.81 1509 1214.21 1502.64 1214.21 1494.8C1214.21 1486.88 1216.85 1480.2 1222.13 1474.76C1227.49 1469.32 1233.45 1466.6 1240.01 1466.6C1246.89 1466.6 1252.09 1468.88 1255.61 1473.44C1259.21 1478 1261.05 1482.8 1261.13 1487.84H1228.97V1488.08C1228.97 1495.52 1230.81 1501.64 1234.49 1506.44C1238.17 1511.16 1242.73 1513.52 1248.17 1513.52C1250.65 1513.52 1252.85 1513 1254.77 1511.96C1256.77 1510.92 1258.57 1509.32 1260.17 1507.16L1261.85 1508.48ZM1264.82 1469.72C1268.42 1467.8 1272.14 1465.16 1275.98 1461.8C1279.82 1458.44 1282.78 1455.32 1284.86 1452.44H1285.82V1468.04C1287.74 1468.04 1290.42 1468 1293.86 1467.92C1297.3 1467.84 1299.9 1467.72 1301.66 1467.56L1300.94 1471.76H1285.82V1504.4C1285.82 1507.2 1286.46 1509.52 1287.74 1511.36C1289.02 1513.2 1290.9 1514.12 1293.38 1514.12C1295.14 1514.12 1296.66 1513.72 1297.94 1512.92C1299.22 1512.04 1300.5 1510.72 1301.78 1508.96L1303.46 1510.52C1301.54 1513.72 1299.06 1516.32 1296.02 1518.32C1293.06 1520.24 1289.66 1521.2 1285.82 1521.2C1281.42 1521.2 1277.7 1519.8 1274.66 1517C1271.7 1514.12 1270.22 1510.4 1270.22 1505.84L1270.58 1471.64H1264.82V1469.72ZM1331.45 1517.48V1520H1303.97V1517.48C1306.53 1517.48 1308.17 1517.12 1308.89 1516.4C1309.61 1515.6 1309.97 1513.72 1309.97 1510.76V1451C1309.97 1448.04 1309.49 1446.24 1308.53 1445.6C1307.57 1444.88 1305.65 1444.52 1302.77 1444.52V1442H1325.57V1477.16C1326.77 1474.6 1328.81 1472.2 1331.69 1469.96C1334.65 1467.72 1338.01 1466.6 1341.77 1466.6C1347.29 1466.6 1351.41 1468.32 1354.13 1471.76C1356.93 1475.2 1358.33 1479.32 1358.33 1484.12V1510.76C1358.33 1513.72 1358.69 1515.6 1359.41 1516.4C1360.13 1517.12 1361.77 1517.48 1364.33 1517.48V1520H1336.73V1517.48C1339.29 1517.48 1340.93 1517.12 1341.65 1516.4C1342.37 1515.6 1342.73 1513.72 1342.73 1510.76V1486.28C1342.73 1482.12 1341.93 1479.08 1340.33 1477.16C1338.73 1475.16 1336.57 1474.16 1333.85 1474.16C1332.17 1474.16 1330.57 1474.68 1329.05 1475.72C1327.61 1476.68 1326.45 1478.08 1325.57 1479.92V1510.76C1325.57 1513.72 1325.93 1515.6 1326.65 1516.4C1327.37 1517.12 1328.97 1517.48 1331.45 1517.48ZM1392.1 1469.96C1389.3 1469.96 1386.94 1471.2 1385.02 1473.68C1383.18 1476.16 1382.1 1479.8 1381.78 1484.6H1401.34C1401.18 1480.36 1400.34 1476.88 1398.82 1474.16C1397.3 1471.36 1395.06 1469.96 1392.1 1469.96ZM1414.54 1508.48C1412.06 1512.64 1408.94 1515.8 1405.18 1517.96C1401.42 1520.12 1397.5 1521.2 1393.42 1521.2C1386.22 1521.2 1379.98 1518.76 1374.7 1513.88C1369.5 1509 1366.9 1502.64 1366.9 1494.8C1366.9 1486.88 1369.54 1480.2 1374.82 1474.76C1380.18 1469.32 1386.14 1466.6 1392.7 1466.6C1399.58 1466.6 1404.78 1468.88 1408.3 1473.44C1411.9 1478 1413.74 1482.8 1413.82 1487.84H1381.66V1488.08C1381.66 1495.52 1383.5 1501.64 1387.18 1506.44C1390.86 1511.16 1395.42 1513.52 1400.86 1513.52C1403.34 1513.52 1405.54 1513 1407.46 1511.96C1409.46 1510.92 1411.26 1509.32 1412.86 1507.16L1414.54 1508.48ZM1448.12 1517.48V1520H1418.12V1517.48C1420.68 1517.48 1422.32 1517.12 1423.04 1516.4C1423.84 1515.6 1424.24 1513.72 1424.24 1510.76V1477.04C1424.24 1474.08 1423.84 1472.24 1423.04 1471.52C1422.32 1470.72 1420.68 1470.32 1418.12 1470.32V1467.8H1439.6V1480.04C1442.48 1475.48 1444.92 1472.12 1446.92 1469.96C1448.92 1467.72 1451.16 1466.6 1453.64 1466.6C1455.32 1466.6 1456.92 1467.08 1458.44 1468.04C1460.04 1469 1461.24 1470 1462.04 1471.04L1457.96 1484.72L1457.48 1484.84C1456.2 1482.6 1454.56 1480.8 1452.56 1479.44C1450.56 1478 1448.68 1477.28 1446.92 1477.28C1445.72 1477.28 1444.52 1477.76 1443.32 1478.72C1442.2 1479.68 1440.96 1481 1439.6 1482.68V1510.76C1439.6 1513.72 1440.12 1515.56 1441.16 1516.28C1442.2 1517 1444.52 1517.4 1448.12 1517.48ZM1482.9 1517.84C1485.54 1517.84 1487.66 1517.2 1489.26 1515.92C1490.86 1514.64 1491.66 1512.76 1491.66 1510.28C1491.66 1508.2 1490.94 1506.6 1489.5 1505.48C1488.14 1504.28 1486.3 1503.08 1483.98 1501.88L1474.86 1497.08C1471.98 1495.64 1469.66 1493.76 1467.9 1491.44C1466.14 1489.12 1465.26 1486.24 1465.26 1482.8C1465.26 1478 1467.1 1474.12 1470.78 1471.16C1474.46 1468.12 1478.74 1466.6 1483.62 1466.6C1486.74 1466.6 1489.26 1467.12 1491.18 1468.16C1493.1 1469.12 1494.54 1469.6 1495.5 1469.6C1496.22 1469.6 1496.74 1469.36 1497.06 1468.88C1497.38 1468.4 1497.62 1467.88 1497.78 1467.32H1499.46L1500.42 1483.04L1498.14 1483.16C1497.58 1479.24 1496.02 1476.04 1493.46 1473.56C1490.9 1471.08 1487.94 1469.84 1484.58 1469.84C1482.26 1469.84 1480.42 1470.48 1479.06 1471.76C1477.78 1473.04 1477.14 1474.68 1477.14 1476.68C1477.14 1478.6 1477.74 1480.12 1478.94 1481.24C1480.22 1482.28 1481.82 1483.28 1483.74 1484.24L1492.02 1488.68C1495.22 1490.36 1497.82 1492.44 1499.82 1494.92C1501.9 1497.32 1502.94 1500.36 1502.94 1504.04C1502.94 1509.16 1501.02 1513.32 1497.18 1516.52C1493.42 1519.64 1488.78 1521.2 1483.26 1521.2C1479.34 1521.2 1476.26 1520.52 1474.02 1519.16C1471.86 1517.8 1470.38 1517.12 1469.58 1517.12C1468.94 1517.12 1468.38 1517.48 1467.9 1518.2C1467.5 1518.84 1467.22 1519.52 1467.06 1520.24H1465.26L1464.3 1502.12L1466.7 1502C1467.26 1506.56 1469.06 1510.36 1472.1 1513.4C1475.22 1516.36 1478.82 1517.84 1482.9 1517.84ZM1555.88 1521.2H1555.28L1534.04 1476.56C1532.84 1473.92 1531.8 1472.24 1530.92 1471.52C1530.12 1470.72 1528.6 1470.32 1526.36 1470.32V1467.8H1554.92V1470.32C1553 1470.32 1551.56 1470.44 1550.6 1470.68C1549.64 1470.92 1549.16 1471.56 1549.16 1472.6C1549.16 1473.08 1549.28 1473.68 1549.52 1474.4C1549.76 1475.04 1550.08 1475.8 1550.48 1476.68L1561.16 1501.52L1571 1477.4C1571.32 1476.44 1571.6 1475.64 1571.84 1475C1572.08 1474.28 1572.2 1473.64 1572.2 1473.08C1572.2 1471.8 1571.56 1471.04 1570.28 1470.8C1569.08 1470.48 1567.28 1470.32 1564.88 1470.32V1467.8H1583.6V1470.32C1581.2 1470.32 1579.52 1470.72 1578.56 1471.52C1577.68 1472.32 1576.52 1474.32 1575.08 1477.52L1555.88 1521.2ZM1615.21 1521.2C1608.17 1521.2 1601.73 1518.32 1595.89 1512.56C1590.05 1506.72 1587.13 1499.08 1587.13 1489.64C1587.13 1477.96 1591.69 1467.88 1600.81 1459.4C1609.93 1450.92 1621.33 1446.68 1635.01 1446.68C1635.73 1446.68 1636.45 1446.72 1637.17 1446.8C1637.89 1446.8 1638.61 1446.84 1639.33 1446.92L1639.21 1449.44H1637.89C1627.41 1449.44 1619.29 1452.92 1613.53 1459.88C1607.77 1466.84 1604.45 1476.04 1603.57 1487.48C1605.49 1484.76 1607.97 1482.56 1611.01 1480.88C1614.05 1479.2 1617.29 1478.36 1620.73 1478.36C1626.49 1478.36 1631.33 1480.16 1635.25 1483.76C1639.25 1487.36 1641.25 1492.04 1641.25 1497.8C1641.25 1504.52 1638.65 1510.12 1633.45 1514.6C1628.25 1519 1622.17 1521.2 1615.21 1521.2ZM1616.17 1517.72C1619.05 1517.72 1621.53 1516.44 1623.61 1513.88C1625.69 1511.24 1626.73 1507.2 1626.73 1501.76C1626.73 1496.72 1625.49 1492.64 1623.01 1489.52C1620.53 1486.4 1617.33 1484.84 1613.41 1484.84C1611.65 1484.84 1609.81 1485.36 1607.89 1486.4C1606.05 1487.44 1604.53 1488.96 1603.33 1490.96C1603.33 1491.44 1603.33 1491.92 1603.33 1492.4C1603.33 1492.88 1603.33 1493.4 1603.33 1493.96C1603.33 1501.24 1604.57 1507.04 1607.05 1511.36C1609.53 1515.6 1612.57 1517.72 1616.17 1517.72Z" fill="white"/>
<path d="M2339.24 110H2314.6V106.5H2323.28V75.21L2314.32 77.31V73.95L2331.26 68.56V106.5H2339.24V110ZM2370.97 97.26C2370.97 101.46 2369.43 104.75 2366.35 107.13C2363.27 109.51 2359.91 110.7 2356.27 110.7C2352.67 110.7 2349.66 109.767 2347.24 107.9C2344.81 106.033 2343.13 103.747 2342.2 101.04L2344.86 99.43C2345.79 101.39 2347.1 103.023 2348.78 104.33C2350.46 105.59 2352.44 106.22 2354.73 106.22C2357.25 106.22 2359.25 105.427 2360.75 103.84C2362.29 102.253 2363.06 100.177 2363.06 97.61C2363.06 94.95 2362.24 92.8967 2360.61 91.45C2358.97 90.0033 2356.92 89.28 2354.45 89.28C2354.07 89.28 2353.68 89.3033 2353.26 89.35C2352.88 89.3967 2352.51 89.4433 2352.14 89.49L2351.65 88.72L2361.59 75.91H2348.43L2347.87 81.16H2345.07V69.26H2370.69V69.96L2357.67 86.06H2358.44C2361.56 86.06 2364.43 86.9933 2367.05 88.86C2369.66 90.68 2370.97 93.48 2370.97 97.26ZM2403.71 97.26C2403.71 101.46 2402.17 104.75 2399.09 107.13C2396.01 109.51 2392.65 110.7 2389.01 110.7C2385.42 110.7 2382.41 109.767 2379.98 107.9C2377.55 106.033 2375.87 103.747 2374.94 101.04L2377.6 99.43C2378.53 101.39 2379.84 103.023 2381.52 104.33C2383.2 105.59 2385.18 106.22 2387.47 106.22C2389.99 106.22 2392 105.427 2393.49 103.84C2395.03 102.253 2395.8 100.177 2395.8 97.61C2395.8 94.95 2394.98 92.8967 2393.35 91.45C2391.72 90.0033 2389.66 89.28 2387.19 89.28C2386.82 89.28 2386.42 89.3033 2386 89.35C2385.63 89.3967 2385.25 89.4433 2384.88 89.49L2384.39 88.72L2394.33 75.91H2381.17L2380.61 81.16H2377.81V69.26H2403.43V69.96L2390.41 86.06H2391.18C2394.31 86.06 2397.18 86.9933 2399.79 88.86C2402.4 90.68 2403.71 93.48 2403.71 97.26ZM2419.58 63.8V107.06H2423.22V110H2408.1V107.06H2411.67V66.74H2407.19V63.8H2419.58ZM2432.74 110L2420.98 92.92L2432.32 82.91H2427.98V79.97H2442.05V82.91H2436.87L2428.05 90.68L2439.95 107.06H2444.01V110H2432.74ZM2465.43 110H2446.11V106.71H2450.73V72.55H2446.11V69.26H2463.05C2467.35 69.26 2471.03 70.1 2474.11 71.78C2477.19 73.46 2478.73 76.12 2478.73 79.76C2478.73 81.9533 2477.75 83.89 2475.79 85.57C2473.88 87.25 2471.92 88.2533 2469.91 88.58C2472.81 89.14 2475.42 90.2833 2477.75 92.01C2480.09 93.69 2481.25 95.9533 2481.25 98.8C2481.25 102.44 2479.69 105.217 2476.56 107.13C2473.44 109.043 2469.73 110 2465.43 110ZM2461.58 72.55H2458.99V87.88H2461.58C2464.06 87.88 2466.2 87.32 2468.02 86.2C2469.89 85.0333 2470.82 82.98 2470.82 80.04C2470.82 77.24 2469.89 75.3033 2468.02 74.23C2466.2 73.11 2464.06 72.55 2461.58 72.55ZM2463.89 91.03H2458.99V106.71H2463.89C2466.32 106.71 2468.44 106.15 2470.26 105.03C2472.13 103.863 2473.06 101.833 2473.06 98.94C2473.06 96.14 2472.13 94.1333 2470.26 92.92C2468.44 91.66 2466.32 91.03 2463.89 91.03Z" fill="white"/>
<rect x="1985.17" y="195.5" width="825" height="1130" rx="14.5" fill="url(#paint3_radial_14_93)" fill-opacity="0.96" stroke="#787878" stroke-width="3"/>
<rect x="1969.17" y="11.5" width="857" height="1330" rx="30.5" stroke="white" stroke-opacity="0.23" stroke-width="3"/>
<path d="M2211.16 1469.96C2208.36 1469.96 2206 1471.2 2204.08 1473.68C2202.24 1476.16 2201.16 1479.8 2200.84 1484.6H2220.4C2220.24 1480.36 2219.4 1476.88 2217.88 1474.16C2216.36 1471.36 2214.12 1469.96 2211.16 1469.96ZM2233.6 1508.48C2231.12 1512.64 2228 1515.8 2224.24 1517.96C2220.48 1520.12 2216.56 1521.2 2212.48 1521.2C2205.28 1521.2 2199.04 1518.76 2193.76 1513.88C2188.56 1509 2185.96 1502.64 2185.96 1494.8C2185.96 1486.88 2188.6 1480.2 2193.88 1474.76C2199.24 1469.32 2205.2 1466.6 2211.76 1466.6C2218.64 1466.6 2223.84 1468.88 2227.36 1473.44C2230.96 1478 2232.8 1482.8 2232.88 1487.84H2200.72V1488.08C2200.72 1495.52 2202.56 1501.64 2206.24 1506.44C2209.92 1511.16 2214.48 1513.52 2219.92 1513.52C2222.4 1513.52 2224.6 1513 2226.52 1511.96C2228.52 1510.92 2230.32 1509.32 2231.92 1507.16L2233.6 1508.48ZM2236.58 1469.72C2240.18 1467.8 2243.9 1465.16 2247.74 1461.8C2251.58 1458.44 2254.54 1455.32 2256.62 1452.44H2257.58V1468.04C2259.5 1468.04 2262.18 1468 2265.62 1467.92C2269.06 1467.84 2271.66 1467.72 2273.42 1467.56L2272.7 1471.76H2257.58V1504.4C2257.58 1507.2 2258.22 1509.52 2259.5 1511.36C2260.78 1513.2 2262.66 1514.12 2265.14 1514.12C2266.9 1514.12 2268.42 1513.72 2269.7 1512.92C2270.98 1512.04 2272.26 1510.72 2273.54 1508.96L2275.22 1510.52C2273.3 1513.72 2270.82 1516.32 2267.78 1518.32C2264.82 1520.24 2261.42 1521.2 2257.58 1521.2C2253.18 1521.2 2249.46 1519.8 2246.42 1517C2243.46 1514.12 2241.98 1510.4 2241.98 1505.84L2242.34 1471.64H2236.58V1469.72ZM2303.2 1517.48V1520H2275.72V1517.48C2278.28 1517.48 2279.92 1517.12 2280.64 1516.4C2281.36 1515.6 2281.72 1513.72 2281.72 1510.76V1451C2281.72 1448.04 2281.24 1446.24 2280.28 1445.6C2279.32 1444.88 2277.4 1444.52 2274.52 1444.52V1442H2297.32V1477.16C2298.52 1474.6 2300.56 1472.2 2303.44 1469.96C2306.4 1467.72 2309.76 1466.6 2313.52 1466.6C2319.04 1466.6 2323.16 1468.32 2325.88 1471.76C2328.68 1475.2 2330.08 1479.32 2330.08 1484.12V1510.76C2330.08 1513.72 2330.44 1515.6 2331.16 1516.4C2331.88 1517.12 2333.52 1517.48 2336.08 1517.48V1520H2308.48V1517.48C2311.04 1517.48 2312.68 1517.12 2313.4 1516.4C2314.12 1515.6 2314.48 1513.72 2314.48 1510.76V1486.28C2314.48 1482.12 2313.68 1479.08 2312.08 1477.16C2310.48 1475.16 2308.32 1474.16 2305.6 1474.16C2303.92 1474.16 2302.32 1474.68 2300.8 1475.72C2299.36 1476.68 2298.2 1478.08 2297.32 1479.92V1510.76C2297.32 1513.72 2297.68 1515.6 2298.4 1516.4C2299.12 1517.12 2300.72 1517.48 2303.2 1517.48ZM2363.86 1469.96C2361.06 1469.96 2358.7 1471.2 2356.78 1473.68C2354.94 1476.16 2353.86 1479.8 2353.54 1484.6H2373.1C2372.94 1480.36 2372.1 1476.88 2370.58 1474.16C2369.06 1471.36 2366.82 1469.96 2363.86 1469.96ZM2386.3 1508.48C2383.82 1512.64 2380.7 1515.8 2376.94 1517.96C2373.18 1520.12 2369.26 1521.2 2365.18 1521.2C2357.98 1521.2 2351.74 1518.76 2346.46 1513.88C2341.26 1509 2338.66 1502.64 2338.66 1494.8C2338.66 1486.88 2341.3 1480.2 2346.58 1474.76C2351.94 1469.32 2357.9 1466.6 2364.46 1466.6C2371.34 1466.6 2376.54 1468.88 2380.06 1473.44C2383.66 1478 2385.5 1482.8 2385.58 1487.84H2353.42V1488.08C2353.42 1495.52 2355.26 1501.64 2358.94 1506.44C2362.62 1511.16 2367.18 1513.52 2372.62 1513.52C2375.1 1513.52 2377.3 1513 2379.22 1511.96C2381.22 1510.92 2383.02 1509.32 2384.62 1507.16L2386.3 1508.48ZM2419.87 1517.48V1520H2389.87V1517.48C2392.43 1517.48 2394.07 1517.12 2394.79 1516.4C2395.59 1515.6 2395.99 1513.72 2395.99 1510.76V1477.04C2395.99 1474.08 2395.59 1472.24 2394.79 1471.52C2394.07 1470.72 2392.43 1470.32 2389.87 1470.32V1467.8H2411.35V1480.04C2414.23 1475.48 2416.67 1472.12 2418.67 1469.96C2420.67 1467.72 2422.91 1466.6 2425.39 1466.6C2427.07 1466.6 2428.67 1467.08 2430.19 1468.04C2431.79 1469 2432.99 1470 2433.79 1471.04L2429.71 1484.72L2429.23 1484.84C2427.95 1482.6 2426.31 1480.8 2424.31 1479.44C2422.31 1478 2420.43 1477.28 2418.67 1477.28C2417.47 1477.28 2416.27 1477.76 2415.07 1478.72C2413.95 1479.68 2412.71 1481 2411.35 1482.68V1510.76C2411.35 1513.72 2411.87 1515.56 2412.91 1516.28C2413.95 1517 2416.27 1517.4 2419.87 1517.48ZM2454.65 1517.84C2457.29 1517.84 2459.41 1517.2 2461.01 1515.92C2462.61 1514.64 2463.41 1512.76 2463.41 1510.28C2463.41 1508.2 2462.69 1506.6 2461.25 1505.48C2459.89 1504.28 2458.05 1503.08 2455.73 1501.88L2446.61 1497.08C2443.73 1495.64 2441.41 1493.76 2439.65 1491.44C2437.89 1489.12 2437.01 1486.24 2437.01 1482.8C2437.01 1478 2438.85 1474.12 2442.53 1471.16C2446.21 1468.12 2450.49 1466.6 2455.37 1466.6C2458.49 1466.6 2461.01 1467.12 2462.93 1468.16C2464.85 1469.12 2466.29 1469.6 2467.25 1469.6C2467.97 1469.6 2468.49 1469.36 2468.81 1468.88C2469.13 1468.4 2469.37 1467.88 2469.53 1467.32H2471.21L2472.17 1483.04L2469.89 1483.16C2469.33 1479.24 2467.77 1476.04 2465.21 1473.56C2462.65 1471.08 2459.69 1469.84 2456.33 1469.84C2454.01 1469.84 2452.17 1470.48 2450.81 1471.76C2449.53 1473.04 2448.89 1474.68 2448.89 1476.68C2448.89 1478.6 2449.49 1480.12 2450.69 1481.24C2451.97 1482.28 2453.57 1483.28 2455.49 1484.24L2463.77 1488.68C2466.97 1490.36 2469.57 1492.44 2471.57 1494.92C2473.65 1497.32 2474.69 1500.36 2474.69 1504.04C2474.69 1509.16 2472.77 1513.32 2468.93 1516.52C2465.17 1519.64 2460.53 1521.2 2455.01 1521.2C2451.09 1521.2 2448.01 1520.52 2445.77 1519.16C2443.61 1517.8 2442.13 1517.12 2441.33 1517.12C2440.69 1517.12 2440.13 1517.48 2439.65 1518.2C2439.25 1518.84 2438.97 1519.52 2438.81 1520.24H2437.01L2436.05 1502.12L2438.45 1502C2439.01 1506.56 2440.81 1510.36 2443.85 1513.4C2446.97 1516.36 2450.57 1517.84 2454.65 1517.84ZM2527.63 1521.2H2527.03L2505.79 1476.56C2504.59 1473.92 2503.55 1472.24 2502.67 1471.52C2501.87 1470.72 2500.35 1470.32 2498.11 1470.32V1467.8H2526.67V1470.32C2524.75 1470.32 2523.31 1470.44 2522.35 1470.68C2521.39 1470.92 2520.91 1471.56 2520.91 1472.6C2520.91 1473.08 2521.03 1473.68 2521.27 1474.4C2521.51 1475.04 2521.83 1475.8 2522.23 1476.68L2532.91 1501.52L2542.75 1477.4C2543.07 1476.44 2543.35 1475.64 2543.59 1475C2543.83 1474.28 2543.95 1473.64 2543.95 1473.08C2543.95 1471.8 2543.31 1471.04 2542.03 1470.8C2540.83 1470.48 2539.03 1470.32 2536.63 1470.32V1467.8H2555.35V1470.32C2552.95 1470.32 2551.27 1470.72 2550.31 1471.52C2549.43 1472.32 2548.27 1474.32 2546.83 1477.52L2527.63 1521.2ZM2588.76 1448C2594.92 1448 2598.84 1447.76 2600.52 1447.28C2602.2 1446.8 2603.56 1445.44 2604.6 1443.2H2606.76L2602.44 1461.8H2571.12L2568.24 1480.64C2569.84 1479.2 2572.04 1477.96 2574.84 1476.92C2577.72 1475.8 2580.72 1475.24 2583.84 1475.24C2590.08 1475.24 2595.56 1477.16 2600.28 1481C2605 1484.84 2607.36 1490.12 2607.36 1496.84C2607.36 1504.04 2604.64 1509.92 2599.2 1514.48C2593.76 1518.96 2587.72 1521.2 2581.08 1521.2C2574.36 1521.2 2568.8 1519.36 2564.4 1515.68C2560.08 1511.92 2557.16 1507.6 2555.64 1502.72L2558.16 1501.4C2559.6 1505.48 2561.88 1508.68 2565 1511C2568.2 1513.32 2571.68 1514.48 2575.44 1514.48C2580.48 1514.48 2584.36 1512.84 2587.08 1509.56C2589.88 1506.28 2591.28 1502.24 2591.28 1497.44C2591.28 1492.56 2589.8 1488.76 2586.84 1486.04C2583.96 1483.32 2580.48 1481.96 2576.4 1481.96C2574.16 1481.96 2572.16 1482.36 2570.4 1483.16C2568.64 1483.96 2566.88 1484.88 2565.12 1485.92L2564.28 1485.68L2569.92 1448H2588.76Z" fill="white"/>
<defs>
<filter id="filter0_d_14_93" x="0.24234" y="1159" width="920.182" height="206" filterUnits="userSpaceOnUse" color-interpolation-filters="sRGB">
<feFlood flood-opacity="0" result="BackgroundImageFix"/>
<feColorMatrix in="SourceAlpha" type="matrix" values="0 0 0 0 0 0 0 0 0 0 0 0 0 0 0 0 0 0 127 0" result="hardAlpha"/>
<feMorphology radius="7" operator="dilate" in="SourceAlpha" result="effect1_dropShadow_14_93"/>
<feOffset dy="4"/>
<feGaussianBlur stdDeviation="16"/>
<feComposite in2="hardAlpha" operator="out"/>
<feColorMatrix type="matrix" values="0 0 0 0 1 0 0 0 0 0.6 0 0 0 0 0 0 0 0 0.98 0"/>
<feBlend mode="normal" in2="BackgroundImageFix" result="effect1_dropShadow_14_93"/>
<feBlend mode="normal" in="SourceGraphic" in2="effect1_dropShadow_14_93" result="shape"/>
</filter>
<radialGradient id="paint0_radial_14_93" cx="0" cy="0" r="1" gradientUnits="userSpaceOnUse" gradientTransform="translate(77.5233 1271.54) rotate(22.0734) scale(602.622 489.281)">
<stop stop-color="#FF8A00"/>
<stop offset="1" stop-color="#FFBA07"/>
</radialGradient>
<radialGradient id="paint1_radial_14_93" cx="0" cy="0" r="1" gradientUnits="userSpaceOnUse" gradientTransform="translate(70.9394 1271.02) rotate(23.858) scale(621.133 535.678)">
<stop stop-color="#FF8A00"/>
<stop offset="1" stop-color="#FFBA07"/>
</radialGradient>
<radialGradient id="paint2_radial_14_93" cx="0" cy="0" r="1" gradientUnits="userSpaceOnUse" gradientTransform="translate(1052.64 905.54) rotate(73.9824) scale(1989.79 1230.37)">
<stop stop-color="white" stop-opacity="0.19"/>
<stop offset="1" stop-color="white" stop-opacity="0.32"/>
</radialGradient>
<radialGradient id="paint3_radial_14_93" cx="0" cy="0" r="1" gradientUnits="userSpaceOnUse" gradientTransform="translate(2021.3 880.337) rotate(74.6822) scale(2078.37 1234.6)">
<stop stop-color="white" stop-opacity="0.19"/>
<stop offset="1" stop-color="white" stop-opacity="0.32"/>
</radialGradient>
</defs>
</svg>
