<svg width="3088" height="1126" viewBox="0 0 3088 1126" fill="none" xmlns="http://www.w3.org/2000/svg">
<rect width="3088" height="1126" fill="#1E1E20"/>
<path d="M217.679 132.633V128.433H236.679V132.633L231.079 133.833L214.679 176.733H208.779L190.679 133.533L185.479 132.633V128.433H211.779V132.633L204.079 133.833L215.079 162.833L224.979 133.933L217.679 132.633ZM240.641 176.333V172.233L247.241 170.933C247.308 168.466 247.341 165.8 247.341 162.933C247.341 160 247.341 157.466 247.341 155.333V150.633C247.341 147.9 247.308 145.633 247.241 143.833C247.241 141.966 247.175 140.033 247.041 138.033L239.941 137.133V133.333L257.941 127.033L259.541 128.033L259.241 142.133V155.333C259.241 157.466 259.241 160 259.241 162.933C259.241 165.8 259.275 168.5 259.341 171.033L265.441 172.233V176.333H240.641ZM253.241 117.733C251.108 117.733 249.308 117.066 247.841 115.733C246.375 114.4 245.641 112.7 245.641 110.633C245.641 108.5 246.375 106.766 247.841 105.433C249.308 104.1 251.108 103.433 253.241 103.433C255.375 103.433 257.141 104.1 258.541 105.433C260.008 106.766 260.741 108.5 260.741 110.633C260.741 112.7 260.008 114.4 258.541 115.733C257.141 117.066 255.375 117.733 253.241 117.733ZM295.405 131.833C293.805 131.833 292.205 132.366 290.605 133.433C289.072 134.433 287.739 136.1 286.605 138.433C285.539 140.766 284.872 143.933 284.605 147.933H298.305C300.705 147.933 302.305 147.433 303.105 146.433C303.905 145.433 304.305 144.033 304.305 142.233C304.305 139.166 303.439 136.666 301.705 134.733C299.972 132.8 297.872 131.833 295.405 131.833ZM295.405 177.733C290.739 177.733 286.639 176.733 283.105 174.733C279.572 172.733 276.805 169.866 274.805 166.133C272.805 162.333 271.805 157.833 271.805 152.633C271.805 147.3 272.939 142.733 275.205 138.933C277.539 135.066 280.539 132.133 284.205 130.133C287.939 128.066 291.905 127.033 296.105 127.033C300.039 127.033 303.472 127.866 306.405 129.533C309.339 131.2 311.605 133.533 313.205 136.533C314.872 139.533 315.705 143.066 315.705 147.133C315.705 149.266 315.505 151.1 315.105 152.633H284.505C284.772 158.366 286.272 162.666 289.005 165.533C291.805 168.4 295.305 169.833 299.505 169.833C302.439 169.833 304.905 169.266 306.905 168.133C308.972 166.933 310.839 165.4 312.505 163.533L315.405 166.133C313.472 169.8 310.805 172.666 307.405 174.733C304.072 176.733 300.072 177.733 295.405 177.733ZM322.97 176.333V172.233L329.47 170.933C329.537 168.466 329.57 165.8 329.57 162.933C329.57 160 329.57 157.466 329.57 155.333V150.033C329.57 147.3 329.537 145.133 329.47 143.533C329.47 141.866 329.404 140.033 329.27 138.033L322.27 137.133V133.333L338.97 127.033L340.57 128.033L341.27 135.833C343.67 133.1 346.27 130.966 349.07 129.433C351.937 127.833 354.904 127.033 357.97 127.033C364.437 127.033 368.604 130.066 370.47 136.133C373.137 132.933 375.904 130.633 378.77 129.233C381.637 127.766 384.604 127.033 387.67 127.033C392.204 127.033 395.604 128.433 397.87 131.233C400.137 134.033 401.27 138.5 401.27 144.633V155.333C401.27 157.6 401.27 160.166 401.27 163.033C401.27 165.833 401.304 168.5 401.37 171.033L407.47 172.233V176.333H383.07V172.233L389.27 170.933C389.337 168.466 389.37 165.833 389.37 163.033C389.37 160.166 389.37 157.6 389.37 155.333V146.133C389.37 141.933 388.804 139.1 387.67 137.633C386.604 136.166 384.804 135.433 382.27 135.433C378.737 135.433 375.07 137.133 371.27 140.533C371.337 141.2 371.37 141.9 371.37 142.633C371.437 143.366 371.47 144.133 371.47 144.933V155.333C371.47 157.6 371.47 160.166 371.47 163.033C371.47 165.833 371.504 168.5 371.57 171.033L377.57 172.233V176.333H353.07V172.233L359.47 170.933C359.537 168.466 359.57 165.833 359.57 163.033C359.57 160.166 359.57 157.6 359.57 155.333V146.333C359.57 142.266 359.037 139.433 357.97 137.833C356.97 136.233 355.17 135.433 352.57 135.433C350.704 135.433 348.837 135.9 346.97 136.833C345.17 137.7 343.404 138.9 341.67 140.433V155.333C341.67 157.533 341.67 160.066 341.67 162.933C341.67 165.8 341.704 168.5 341.77 171.033L347.67 172.233V176.333H322.97Z" fill="white"/>
<g filter="url(#filter0_d_424_195)">
<rect x="536.144" y="28.8398" width="15.7117" height="226.281" rx="7.85586" fill="url(#paint0_radial_424_195)" fill-opacity="0.96" shape-rendering="crispEdges"/>
</g>
<rect x="536" y="26" width="16" height="234" rx="8" fill="url(#paint1_radial_424_195)" fill-opacity="0.96"/>
<path d="M2870.97 140.46C2870.97 145.873 2871.35 150.05 2872.09 152.99C2872.89 155.93 2873.91 157.96 2875.17 159.08C2876.43 160.2 2877.79 160.76 2879.23 160.76C2880.63 160.76 2881.94 160.2 2883.15 159.08C2884.41 157.913 2885.42 155.86 2886.16 152.92C2886.96 149.98 2887.35 145.827 2887.35 140.46C2887.35 135 2886.96 130.8 2886.16 127.86C2885.42 124.92 2884.41 122.89 2883.15 121.77C2881.94 120.603 2880.63 120.02 2879.23 120.02C2878.16 120.02 2877.11 120.323 2876.08 120.93C2875.1 121.537 2874.22 122.587 2873.42 124.08C2872.68 125.573 2872.07 127.65 2871.6 130.31C2871.18 132.97 2870.97 136.353 2870.97 140.46ZM2879.23 116.87C2881.71 116.87 2884.04 117.64 2886.23 119.18C2888.47 120.673 2890.29 123.147 2891.69 126.6C2893.14 130.053 2893.86 134.673 2893.86 140.46C2893.86 146.2 2893.14 150.797 2891.69 154.25C2890.29 157.657 2888.47 160.13 2886.23 161.67C2884.04 163.163 2881.71 163.91 2879.23 163.91C2876.76 163.91 2874.38 163.163 2872.09 161.67C2869.85 160.13 2868.03 157.657 2866.63 154.25C2865.23 150.797 2864.53 146.2 2864.53 140.46C2864.53 134.673 2865.23 130.053 2866.63 126.6C2868.03 123.147 2869.85 120.673 2872.09 119.18C2874.38 117.64 2876.76 116.87 2879.23 116.87ZM2907.16 163.91C2905.76 163.91 2904.57 163.42 2903.59 162.44C2902.66 161.46 2902.19 160.293 2902.19 158.94C2902.19 157.54 2902.66 156.35 2903.59 155.37C2904.57 154.39 2905.76 153.9 2907.16 153.9C2908.56 153.9 2909.73 154.39 2910.66 155.37C2911.64 156.35 2912.13 157.54 2912.13 158.94C2912.13 160.293 2911.64 161.46 2910.66 162.44C2909.73 163.42 2908.56 163.91 2907.16 163.91ZM2926.96 140.46C2926.96 145.873 2927.33 150.05 2928.08 152.99C2928.87 155.93 2929.9 157.96 2931.16 159.08C2932.42 160.2 2933.77 160.76 2935.22 160.76C2936.62 160.76 2937.93 160.2 2939.14 159.08C2940.4 157.913 2941.4 155.86 2942.15 152.92C2942.94 149.98 2943.34 145.827 2943.34 140.46C2943.34 135 2942.94 130.8 2942.15 127.86C2941.4 124.92 2940.4 122.89 2939.14 121.77C2937.93 120.603 2936.62 120.02 2935.22 120.02C2934.15 120.02 2933.1 120.323 2932.07 120.93C2931.09 121.537 2930.2 122.587 2929.41 124.08C2928.66 125.573 2928.06 127.65 2927.59 130.31C2927.17 132.97 2926.96 136.353 2926.96 140.46ZM2935.22 116.87C2937.69 116.87 2940.03 117.64 2942.22 119.18C2944.46 120.673 2946.28 123.147 2947.68 126.6C2949.13 130.053 2949.85 134.673 2949.85 140.46C2949.85 146.2 2949.13 150.797 2947.68 154.25C2946.28 157.657 2944.46 160.13 2942.22 161.67C2940.03 163.163 2937.69 163.91 2935.22 163.91C2932.75 163.91 2930.37 163.163 2928.08 161.67C2925.84 160.13 2924.02 157.657 2922.62 154.25C2921.22 150.797 2920.52 146.2 2920.52 140.46C2920.52 134.673 2921.22 130.053 2922.62 126.6C2924.02 123.147 2925.84 120.673 2928.08 119.18C2930.37 117.64 2932.75 116.87 2935.22 116.87ZM2956.08 163V158.45C2957.95 156.63 2959.74 154.833 2961.47 153.06C2963.24 151.24 2964.88 149.537 2966.37 147.95C2969.87 144.263 2972.44 140.927 2974.07 137.94C2975.7 134.953 2976.52 132.107 2976.52 129.4C2976.52 126.507 2975.75 124.22 2974.21 122.54C2972.72 120.86 2970.69 120.02 2968.12 120.02C2967.65 120.02 2967.12 120.043 2966.51 120.09C2965.95 120.137 2965.34 120.23 2964.69 120.37L2963.36 125.2C2962.89 126.927 2962.33 128.163 2961.68 128.91C2961.07 129.61 2960.28 129.96 2959.3 129.96C2957.76 129.96 2956.57 129.213 2955.73 127.72C2956.01 125.247 2956.83 123.217 2958.18 121.63C2959.53 119.997 2961.24 118.807 2963.29 118.06C2965.34 117.267 2967.54 116.87 2969.87 116.87C2974.4 116.87 2977.69 117.99 2979.74 120.23C2981.79 122.423 2982.82 125.27 2982.82 128.77C2982.82 130.823 2982.4 132.83 2981.56 134.79C2980.77 136.703 2979.37 138.873 2977.36 141.3C2975.35 143.68 2972.55 146.597 2968.96 150.05C2968.03 150.983 2966.88 152.08 2965.53 153.34C2964.22 154.6 2962.85 155.907 2961.4 157.26H2984.85V163H2956.08ZM3001.65 163.91C2999.69 163.91 2997.89 163.677 2996.26 163.21C2994.63 162.79 2992.95 162.137 2991.22 161.25L2990.94 153.55H2994.79L2996.12 159.64C2997.75 160.387 2999.64 160.76 3001.79 160.76C3004.45 160.76 3006.41 160.27 3007.67 159.29C3008.98 158.31 3009.63 157.027 3009.63 155.44C3009.63 153.947 3009.09 152.757 3008.02 151.87C3006.95 150.937 3005.31 150.097 3003.12 149.35L2999.9 148.16C2997.33 147.227 2995.28 146.013 2993.74 144.52C2992.2 143.027 2991.43 141.09 2991.43 138.71C2991.43 136.983 2991.9 135.373 2992.83 133.88C2993.76 132.387 2995.14 131.173 2996.96 130.24C2998.78 129.307 3001 128.84 3003.61 128.84C3005.52 128.84 3007.25 129.097 3008.79 129.61C3010.38 130.077 3011.92 130.777 3013.41 131.71L3013.13 138.85H3009.49L3008.37 133.25C3006.78 132.457 3005.17 132.06 3003.54 132.06C3001.39 132.06 2999.76 132.503 2998.64 133.39C2997.57 134.23 2997.03 135.373 2997.03 136.82C2997.03 138.36 2997.5 139.527 2998.43 140.32C2999.41 141.113 3001.09 141.953 3003.47 142.84L3005.64 143.61C3009.14 144.917 3011.61 146.41 3013.06 148.09C3014.55 149.77 3015.3 151.707 3015.3 153.9C3015.3 155.673 3014.79 157.33 3013.76 158.87C3012.73 160.363 3011.22 161.577 3009.21 162.51C3007.2 163.443 3004.68 163.91 3001.65 163.91Z" fill="white"/>
<rect x="521.5" y="11.5" width="2555" height="263" rx="30.5" stroke="white" stroke-opacity="0.23" stroke-width="3"/>
<path d="M37.3 478C35.7 478 34.1 478.533 32.5 479.6C30.9667 480.6 29.6333 482.267 28.5 484.6C27.4333 486.933 26.7667 490.1 26.5 494.1H40.2C42.6 494.1 44.2 493.6 45 492.6C45.8 491.6 46.2 490.2 46.2 488.4C46.2 485.333 45.3333 482.833 43.6 480.9C41.8667 478.967 39.7667 478 37.3 478ZM37.3 523.9C32.6333 523.9 28.5333 522.9 25 520.9C21.4667 518.9 18.7 516.033 16.7 512.3C14.7 508.5 13.7 504 13.7 498.8C13.7 493.467 14.8333 488.9 17.1 485.1C19.4333 481.233 22.4333 478.3 26.1 476.3C29.8333 474.233 33.8 473.2 38 473.2C41.9333 473.2 45.3667 474.033 48.3 475.7C51.2333 477.367 53.5 479.7 55.1 482.7C56.7667 485.7 57.6 489.233 57.6 493.3C57.6 495.433 57.4 497.267 57 498.8H26.4C26.6667 504.533 28.1667 508.833 30.9 511.7C33.7 514.567 37.2 516 41.4 516C44.3333 516 46.8 515.433 48.8 514.3C50.8667 513.1 52.7333 511.567 54.4 509.7L57.3 512.3C55.3667 515.967 52.7 518.833 49.3 520.9C45.9667 522.9 41.9667 523.9 37.3 523.9ZM82.5648 523.9C78.5648 523.9 75.4315 522.9 73.1648 520.9C70.8982 518.9 69.7648 515.7 69.7648 511.3C69.7648 509.767 69.7648 508.333 69.7648 507C69.8315 505.6 69.8648 503.933 69.8648 502V480.7H62.4648V475.5L70.5648 474.5L74.3648 460.8H82.4648L82.0648 474.6H94.0648V480.7H81.9648V510.2C81.9648 512.667 82.4315 514.467 83.3648 515.6C84.3648 516.733 85.6648 517.3 87.2648 517.3C89.0648 517.3 91.0982 516.467 93.3648 514.8L95.7648 517.3C94.4982 519.367 92.7648 521 90.5648 522.2C88.3648 523.333 85.6982 523.9 82.5648 523.9ZM98.4469 522.5V518.4L105.047 517.1C105.114 514.633 105.147 511.967 105.147 509.1C105.147 506.167 105.147 503.633 105.147 501.5V458.6L97.8469 457.6V453.7L115.747 449.2L117.247 450.1L116.847 464.2V482.1C121.98 476.167 127.68 473.2 133.947 473.2C138.28 473.2 141.647 474.633 144.047 477.5C146.447 480.367 147.647 484.9 147.647 491.1V501.5C147.647 503.767 147.647 506.333 147.647 509.2C147.647 512.067 147.68 514.733 147.747 517.2L153.847 518.4V522.5H129.147V518.4L135.547 517.1C135.614 514.633 135.647 512 135.647 509.2C135.647 506.333 135.647 503.767 135.647 501.5V492C135.647 488.067 135.114 485.367 134.047 483.9C133.047 482.367 131.28 481.6 128.747 481.6C125.014 481.6 121.147 483.5 117.147 487.3V501.5C117.147 503.7 117.147 506.233 117.147 509.1C117.147 511.967 117.18 514.667 117.247 517.2L123.147 518.4V522.5H98.4469ZM183.784 478C182.184 478 180.584 478.533 178.984 479.6C177.451 480.6 176.118 482.267 174.984 484.6C173.918 486.933 173.251 490.1 172.984 494.1H186.684C189.084 494.1 190.684 493.6 191.484 492.6C192.284 491.6 192.684 490.2 192.684 488.4C192.684 485.333 191.818 482.833 190.084 480.9C188.351 478.967 186.251 478 183.784 478ZM183.784 523.9C179.118 523.9 175.018 522.9 171.484 520.9C167.951 518.9 165.184 516.033 163.184 512.3C161.184 508.5 160.184 504 160.184 498.8C160.184 493.467 161.318 488.9 163.584 485.1C165.918 481.233 168.918 478.3 172.584 476.3C176.318 474.233 180.284 473.2 184.484 473.2C188.418 473.2 191.851 474.033 194.784 475.7C197.718 477.367 199.984 479.7 201.584 482.7C203.251 485.7 204.084 489.233 204.084 493.3C204.084 495.433 203.884 497.267 203.484 498.8H172.884C173.151 504.533 174.651 508.833 177.384 511.7C180.184 514.567 183.684 516 187.884 516C190.818 516 193.284 515.433 195.284 514.3C197.351 513.1 199.218 511.567 200.884 509.7L203.784 512.3C201.851 515.967 199.184 518.833 195.784 520.9C192.451 522.9 188.451 523.9 183.784 523.9ZM211.449 522.5V518.4L217.849 517.2C217.916 514.667 217.949 511.967 217.949 509.1C217.949 506.167 217.949 503.633 217.949 501.5V496.2C217.949 493.467 217.916 491.3 217.849 489.7C217.849 488.033 217.783 486.2 217.649 484.2L210.649 483.3V479.5L227.349 473.2L228.949 474.2L229.949 486C231.483 481.867 233.549 478.7 236.149 476.5C238.749 474.3 241.349 473.2 243.949 473.2C245.749 473.2 247.383 473.667 248.849 474.6C250.383 475.533 251.383 476.867 251.849 478.6C251.783 481.067 251.183 483 250.049 484.4C248.916 485.733 247.349 486.4 245.349 486.4C242.949 486.4 240.683 485.2 238.549 482.8L237.649 481.8C234.116 484.733 231.583 488.867 230.049 494.2V501.5C230.049 503.567 230.049 506.033 230.049 508.9C230.049 511.7 230.083 514.333 230.149 516.8L238.349 518.4V522.5H211.449ZM271.509 523.9C268.442 523.9 265.609 523.533 263.009 522.8C260.475 522.133 257.942 521.1 255.409 519.7L255.309 508.1H262.009L263.809 517.4C266.209 518.4 268.809 518.9 271.609 518.9C275.009 518.9 277.542 518.3 279.209 517.1C280.875 515.9 281.709 514.233 281.709 512.1C281.709 510.233 281.042 508.733 279.709 507.6C278.375 506.4 276.109 505.267 272.909 504.2L267.909 502.5C264.175 501.3 261.209 499.533 259.009 497.2C256.875 494.867 255.809 491.933 255.809 488.4C255.809 485.6 256.542 483.067 258.009 480.8C259.475 478.467 261.609 476.633 264.409 475.3C267.275 473.9 270.742 473.2 274.809 473.2C277.675 473.2 280.275 473.567 282.609 474.3C285.009 474.967 287.375 475.967 289.709 477.3L289.209 487.8H282.609L280.809 479.4C278.942 478.6 276.875 478.2 274.609 478.2C271.942 478.2 269.875 478.767 268.409 479.9C266.942 481.033 266.209 482.567 266.209 484.5C266.209 486.3 266.809 487.767 268.009 488.9C269.275 489.967 271.609 491.067 275.009 492.2L279.009 493.4C283.875 495.067 287.342 497.133 289.409 499.6C291.475 502.067 292.509 505.033 292.509 508.5C292.509 512.967 290.675 516.667 287.009 519.6C283.409 522.467 278.242 523.9 271.509 523.9ZM349.905 478.8V474.6H368.905V478.8L363.305 480L346.905 522.9H341.005L322.905 479.7L317.705 478.8V474.6H344.005V478.8L336.305 480L347.305 509L357.205 480.1L349.905 478.8ZM418.168 502.8C418.168 507.2 417.101 511 414.968 514.2C412.835 517.333 409.901 519.733 406.168 521.4C402.501 523.067 398.235 523.9 393.368 523.9C387.635 523.9 383.068 522.567 379.668 519.9C376.335 517.233 374.301 513.467 373.568 508.6C374.101 507.267 374.868 506.3 375.868 505.7C376.868 505.033 378.001 504.7 379.268 504.7C381.068 504.7 382.468 505.267 383.468 506.4C384.468 507.467 385.235 509.433 385.768 512.3L386.868 518.4C388.468 518.8 390.068 519 391.668 519C396.001 519 399.368 517.667 401.768 515C404.235 512.333 405.468 508.733 405.468 504.2C405.468 499.333 404.201 495.633 401.668 493.1C399.201 490.567 395.801 489.3 391.468 489.3C389.935 489.3 388.368 489.4 386.768 489.6C385.235 489.8 383.701 490.067 382.168 490.4L379.368 489.1L381.468 458.6H416.068V468.8H386.368L385.368 483.7C388.235 483.033 391.401 482.7 394.868 482.7C401.935 482.7 407.568 484.433 411.768 487.9C416.035 491.3 418.168 496.267 418.168 502.8Z" fill="white"/>
<rect x="537.5" y="373.5" width="1213" height="231" rx="14.5" fill="url(#paint2_radial_424_195)" fill-opacity="0.96" stroke="#787878" stroke-width="3"/>
<path d="M2870.97 486.46C2870.97 491.873 2871.35 496.05 2872.09 498.99C2872.89 501.93 2873.91 503.96 2875.17 505.08C2876.43 506.2 2877.79 506.76 2879.23 506.76C2880.63 506.76 2881.94 506.2 2883.15 505.08C2884.41 503.913 2885.42 501.86 2886.16 498.92C2886.96 495.98 2887.35 491.827 2887.35 486.46C2887.35 481 2886.96 476.8 2886.16 473.86C2885.42 470.92 2884.41 468.89 2883.15 467.77C2881.94 466.603 2880.63 466.02 2879.23 466.02C2878.16 466.02 2877.11 466.323 2876.08 466.93C2875.1 467.537 2874.22 468.587 2873.42 470.08C2872.68 471.573 2872.07 473.65 2871.6 476.31C2871.18 478.97 2870.97 482.353 2870.97 486.46ZM2879.23 462.87C2881.71 462.87 2884.04 463.64 2886.23 465.18C2888.47 466.673 2890.29 469.147 2891.69 472.6C2893.14 476.053 2893.86 480.673 2893.86 486.46C2893.86 492.2 2893.14 496.797 2891.69 500.25C2890.29 503.657 2888.47 506.13 2886.23 507.67C2884.04 509.163 2881.71 509.91 2879.23 509.91C2876.76 509.91 2874.38 509.163 2872.09 507.67C2869.85 506.13 2868.03 503.657 2866.63 500.25C2865.23 496.797 2864.53 492.2 2864.53 486.46C2864.53 480.673 2865.23 476.053 2866.63 472.6C2868.03 469.147 2869.85 466.673 2872.09 465.18C2874.38 463.64 2876.76 462.87 2879.23 462.87ZM2907.16 509.91C2905.76 509.91 2904.57 509.42 2903.59 508.44C2902.66 507.46 2902.19 506.293 2902.19 504.94C2902.19 503.54 2902.66 502.35 2903.59 501.37C2904.57 500.39 2905.76 499.9 2907.16 499.9C2908.56 499.9 2909.73 500.39 2910.66 501.37C2911.64 502.35 2912.13 503.54 2912.13 504.94C2912.13 506.293 2911.64 507.46 2910.66 508.44C2909.73 509.42 2908.56 509.91 2907.16 509.91ZM2935.43 506.76C2937.76 506.76 2939.68 505.757 2941.17 503.75C2942.66 501.697 2943.41 498.85 2943.41 495.21C2943.41 491.943 2942.66 489.517 2941.17 487.93C2939.72 486.297 2937.79 485.48 2935.36 485.48C2933.96 485.48 2932.54 485.713 2931.09 486.18C2929.69 486.647 2928.31 487.44 2926.96 488.56C2926.91 489.027 2926.87 489.517 2926.82 490.03C2926.82 490.497 2926.82 490.987 2926.82 491.5C2926.82 496.82 2927.61 500.693 2929.2 503.12C2930.79 505.547 2932.86 506.76 2935.43 506.76ZM2949.64 495.07C2949.64 498.01 2948.96 500.6 2947.61 502.84C2946.26 505.08 2944.51 506.83 2942.36 508.09C2940.21 509.303 2937.95 509.91 2935.57 509.91C2930.9 509.91 2927.22 508.207 2924.51 504.8C2921.8 501.347 2920.45 496.633 2920.45 490.66C2920.45 485.993 2921.48 481.677 2923.53 477.71C2925.63 473.743 2928.69 470.453 2932.7 467.84C2936.71 465.18 2941.57 463.523 2947.26 462.87L2947.68 465.11C2941.33 466.743 2936.55 469.333 2933.33 472.88C2930.11 476.427 2928.1 480.65 2927.31 485.55C2930.3 482.657 2933.68 481.21 2937.46 481.21C2940.03 481.21 2942.2 481.817 2943.97 483.03C2945.79 484.243 2947.19 485.9 2948.17 488C2949.15 490.053 2949.64 492.41 2949.64 495.07ZM2956.08 509V504.45C2957.95 502.63 2959.74 500.833 2961.47 499.06C2963.24 497.24 2964.88 495.537 2966.37 493.95C2969.87 490.263 2972.44 486.927 2974.07 483.94C2975.7 480.953 2976.52 478.107 2976.52 475.4C2976.52 472.507 2975.75 470.22 2974.21 468.54C2972.72 466.86 2970.69 466.02 2968.12 466.02C2967.65 466.02 2967.12 466.043 2966.51 466.09C2965.95 466.137 2965.34 466.23 2964.69 466.37L2963.36 471.2C2962.89 472.927 2962.33 474.163 2961.68 474.91C2961.07 475.61 2960.28 475.96 2959.3 475.96C2957.76 475.96 2956.57 475.213 2955.73 473.72C2956.01 471.247 2956.83 469.217 2958.18 467.63C2959.53 465.997 2961.24 464.807 2963.29 464.06C2965.34 463.267 2967.54 462.87 2969.87 462.87C2974.4 462.87 2977.69 463.99 2979.74 466.23C2981.79 468.423 2982.82 471.27 2982.82 474.77C2982.82 476.823 2982.4 478.83 2981.56 480.79C2980.77 482.703 2979.37 484.873 2977.36 487.3C2975.35 489.68 2972.55 492.597 2968.96 496.05C2968.03 496.983 2966.88 498.08 2965.53 499.34C2964.22 500.6 2962.85 501.907 2961.4 503.26H2984.85V509H2956.08ZM3001.65 509.91C2999.69 509.91 2997.89 509.677 2996.26 509.21C2994.63 508.79 2992.95 508.137 2991.22 507.25L2990.94 499.55H2994.79L2996.12 505.64C2997.75 506.387 2999.64 506.76 3001.79 506.76C3004.45 506.76 3006.41 506.27 3007.67 505.29C3008.98 504.31 3009.63 503.027 3009.63 501.44C3009.63 499.947 3009.09 498.757 3008.02 497.87C3006.95 496.937 3005.31 496.097 3003.12 495.35L2999.9 494.16C2997.33 493.227 2995.28 492.013 2993.74 490.52C2992.2 489.027 2991.43 487.09 2991.43 484.71C2991.43 482.983 2991.9 481.373 2992.83 479.88C2993.76 478.387 2995.14 477.173 2996.96 476.24C2998.78 475.307 3001 474.84 3003.61 474.84C3005.52 474.84 3007.25 475.097 3008.79 475.61C3010.38 476.077 3011.92 476.777 3013.41 477.71L3013.13 484.85H3009.49L3008.37 479.25C3006.78 478.457 3005.17 478.06 3003.54 478.06C3001.39 478.06 2999.76 478.503 2998.64 479.39C2997.57 480.23 2997.03 481.373 2997.03 482.82C2997.03 484.36 2997.5 485.527 2998.43 486.32C2999.41 487.113 3001.09 487.953 3003.47 488.84L3005.64 489.61C3009.14 490.917 3011.61 492.41 3013.06 494.09C3014.55 495.77 3015.3 497.707 3015.3 499.9C3015.3 501.673 3014.79 503.33 3013.76 504.87C3012.73 506.363 3011.22 507.577 3009.21 508.51C3007.2 509.443 3004.68 509.91 3001.65 509.91Z" fill="white"/>
<rect x="521.5" y="357.5" width="2555" height="263" rx="30.5" stroke="white" stroke-opacity="0.23" stroke-width="3"/>
<path d="M37.3 824C35.7 824 34.1 824.533 32.5 825.6C30.9667 826.6 29.6333 828.267 28.5 830.6C27.4333 832.933 26.7667 836.1 26.5 840.1H40.2C42.6 840.1 44.2 839.6 45 838.6C45.8 837.6 46.2 836.2 46.2 834.4C46.2 831.333 45.3333 828.833 43.6 826.9C41.8667 824.967 39.7667 824 37.3 824ZM37.3 869.9C32.6333 869.9 28.5333 868.9 25 866.9C21.4667 864.9 18.7 862.033 16.7 858.3C14.7 854.5 13.7 850 13.7 844.8C13.7 839.467 14.8333 834.9 17.1 831.1C19.4333 827.233 22.4333 824.3 26.1 822.3C29.8333 820.233 33.8 819.2 38 819.2C41.9333 819.2 45.3667 820.033 48.3 821.7C51.2333 823.367 53.5 825.7 55.1 828.7C56.7667 831.7 57.6 835.233 57.6 839.3C57.6 841.433 57.4 843.267 57 844.8H26.4C26.6667 850.533 28.1667 854.833 30.9 857.7C33.7 860.567 37.2 862 41.4 862C44.3333 862 46.8 861.433 48.8 860.3C50.8667 859.1 52.7333 857.567 54.4 855.7L57.3 858.3C55.3667 861.967 52.7 864.833 49.3 866.9C45.9667 868.9 41.9667 869.9 37.3 869.9ZM82.5648 869.9C78.5648 869.9 75.4315 868.9 73.1648 866.9C70.8982 864.9 69.7648 861.7 69.7648 857.3C69.7648 855.767 69.7648 854.333 69.7648 853C69.8315 851.6 69.8648 849.933 69.8648 848V826.7H62.4648V821.5L70.5648 820.5L74.3648 806.8H82.4648L82.0648 820.6H94.0648V826.7H81.9648V856.2C81.9648 858.667 82.4315 860.467 83.3648 861.6C84.3648 862.733 85.6648 863.3 87.2648 863.3C89.0648 863.3 91.0982 862.467 93.3648 860.8L95.7648 863.3C94.4982 865.367 92.7648 867 90.5648 868.2C88.3648 869.333 85.6982 869.9 82.5648 869.9ZM98.4469 868.5V864.4L105.047 863.1C105.114 860.633 105.147 857.967 105.147 855.1C105.147 852.167 105.147 849.633 105.147 847.5V804.6L97.8469 803.6V799.7L115.747 795.2L117.247 796.1L116.847 810.2V828.1C121.98 822.167 127.68 819.2 133.947 819.2C138.28 819.2 141.647 820.633 144.047 823.5C146.447 826.367 147.647 830.9 147.647 837.1V847.5C147.647 849.767 147.647 852.333 147.647 855.2C147.647 858.067 147.68 860.733 147.747 863.2L153.847 864.4V868.5H129.147V864.4L135.547 863.1C135.614 860.633 135.647 858 135.647 855.2C135.647 852.333 135.647 849.767 135.647 847.5V838C135.647 834.067 135.114 831.367 134.047 829.9C133.047 828.367 131.28 827.6 128.747 827.6C125.014 827.6 121.147 829.5 117.147 833.3V847.5C117.147 849.7 117.147 852.233 117.147 855.1C117.147 857.967 117.18 860.667 117.247 863.2L123.147 864.4V868.5H98.4469ZM183.784 824C182.184 824 180.584 824.533 178.984 825.6C177.451 826.6 176.118 828.267 174.984 830.6C173.918 832.933 173.251 836.1 172.984 840.1H186.684C189.084 840.1 190.684 839.6 191.484 838.6C192.284 837.6 192.684 836.2 192.684 834.4C192.684 831.333 191.818 828.833 190.084 826.9C188.351 824.967 186.251 824 183.784 824ZM183.784 869.9C179.118 869.9 175.018 868.9 171.484 866.9C167.951 864.9 165.184 862.033 163.184 858.3C161.184 854.5 160.184 850 160.184 844.8C160.184 839.467 161.318 834.9 163.584 831.1C165.918 827.233 168.918 824.3 172.584 822.3C176.318 820.233 180.284 819.2 184.484 819.2C188.418 819.2 191.851 820.033 194.784 821.7C197.718 823.367 199.984 825.7 201.584 828.7C203.251 831.7 204.084 835.233 204.084 839.3C204.084 841.433 203.884 843.267 203.484 844.8H172.884C173.151 850.533 174.651 854.833 177.384 857.7C180.184 860.567 183.684 862 187.884 862C190.818 862 193.284 861.433 195.284 860.3C197.351 859.1 199.218 857.567 200.884 855.7L203.784 858.3C201.851 861.967 199.184 864.833 195.784 866.9C192.451 868.9 188.451 869.9 183.784 869.9ZM211.449 868.5V864.4L217.849 863.2C217.916 860.667 217.949 857.967 217.949 855.1C217.949 852.167 217.949 849.633 217.949 847.5V842.2C217.949 839.467 217.916 837.3 217.849 835.7C217.849 834.033 217.783 832.2 217.649 830.2L210.649 829.3V825.5L227.349 819.2L228.949 820.2L229.949 832C231.483 827.867 233.549 824.7 236.149 822.5C238.749 820.3 241.349 819.2 243.949 819.2C245.749 819.2 247.383 819.667 248.849 820.6C250.383 821.533 251.383 822.867 251.849 824.6C251.783 827.067 251.183 829 250.049 830.4C248.916 831.733 247.349 832.4 245.349 832.4C242.949 832.4 240.683 831.2 238.549 828.8L237.649 827.8C234.116 830.733 231.583 834.867 230.049 840.2V847.5C230.049 849.567 230.049 852.033 230.049 854.9C230.049 857.7 230.083 860.333 230.149 862.8L238.349 864.4V868.5H211.449ZM271.509 869.9C268.442 869.9 265.609 869.533 263.009 868.8C260.475 868.133 257.942 867.1 255.409 865.7L255.309 854.1H262.009L263.809 863.4C266.209 864.4 268.809 864.9 271.609 864.9C275.009 864.9 277.542 864.3 279.209 863.1C280.875 861.9 281.709 860.233 281.709 858.1C281.709 856.233 281.042 854.733 279.709 853.6C278.375 852.4 276.109 851.267 272.909 850.2L267.909 848.5C264.175 847.3 261.209 845.533 259.009 843.2C256.875 840.867 255.809 837.933 255.809 834.4C255.809 831.6 256.542 829.067 258.009 826.8C259.475 824.467 261.609 822.633 264.409 821.3C267.275 819.9 270.742 819.2 274.809 819.2C277.675 819.2 280.275 819.567 282.609 820.3C285.009 820.967 287.375 821.967 289.709 823.3L289.209 833.8H282.609L280.809 825.4C278.942 824.6 276.875 824.2 274.609 824.2C271.942 824.2 269.875 824.767 268.409 825.9C266.942 827.033 266.209 828.567 266.209 830.5C266.209 832.3 266.809 833.767 268.009 834.9C269.275 835.967 271.609 837.067 275.009 838.2L279.009 839.4C283.875 841.067 287.342 843.133 289.409 845.6C291.475 848.067 292.509 851.033 292.509 854.5C292.509 858.967 290.675 862.667 287.009 865.6C283.409 868.467 278.242 869.9 271.509 869.9ZM349.905 824.8V820.6H368.905V824.8L363.305 826L346.905 868.9H341.005L322.905 825.7L317.705 824.8V820.6H344.005V824.8L336.305 826L347.305 855L357.205 826.1L349.905 824.8ZM395.768 865C398.635 865 401.001 863.667 402.868 861C404.735 858.267 405.668 854.267 405.668 849C405.668 844.6 404.768 841.233 402.968 838.9C401.235 836.567 398.868 835.4 395.868 835.4C394.201 835.4 392.501 835.667 390.768 836.2C389.101 836.733 387.435 837.667 385.768 839C385.701 839.867 385.635 840.767 385.568 841.7C385.568 842.633 385.568 843.567 385.568 844.5C385.568 851.567 386.501 856.767 388.368 860.1C390.235 863.367 392.701 865 395.768 865ZM417.968 848.2C417.968 852.733 416.901 856.633 414.768 859.9C412.635 863.167 409.901 865.667 406.568 867.4C403.235 869.067 399.735 869.9 396.068 869.9C389.068 869.9 383.468 867.5 379.268 862.7C375.135 857.9 373.068 851.233 373.068 842.7C373.068 835.9 374.701 829.7 377.968 824.1C381.301 818.433 386.001 813.767 392.068 810.1C398.201 806.367 405.435 804.067 413.768 803.2L414.368 807.3C406.101 809.433 399.701 812.8 395.168 817.4C390.701 821.933 387.801 827.567 386.468 834.3C390.535 830.767 395.201 829 400.468 829C404.268 829 407.468 829.867 410.068 831.6C412.668 833.267 414.635 835.533 415.968 838.4C417.301 841.267 417.968 844.533 417.968 848.2Z" fill="white"/>
<rect x="537.5" y="719.5" width="2217" height="231" rx="14.5" fill="url(#paint3_radial_424_195)" fill-opacity="0.96" stroke="#787878" stroke-width="3"/>
<path d="M2867.61 812.93L2882.03 809.22L2883.01 809.92L2882.73 819.93V840.23C2882.73 841.957 2882.73 843.707 2882.73 845.48C2882.78 847.253 2882.83 849.027 2882.87 850.8L2892.81 852.48V855H2866.84V852.48L2876.71 850.8C2876.76 849.027 2876.78 847.253 2876.78 845.48C2876.83 843.707 2876.85 841.957 2876.85 840.23V815.03L2867.61 815.8V812.93ZM2907.16 855.91C2905.76 855.91 2904.57 855.42 2903.59 854.44C2902.66 853.46 2902.19 852.293 2902.19 850.94C2902.19 849.54 2902.66 848.35 2903.59 847.37C2904.57 846.39 2905.76 845.9 2907.16 845.9C2908.56 845.9 2909.73 846.39 2910.66 847.37C2911.64 848.35 2912.13 849.54 2912.13 850.94C2912.13 852.293 2911.64 853.46 2910.66 854.44C2909.73 855.42 2908.56 855.91 2907.16 855.91ZM2923.6 812.93L2938.02 809.22L2939 809.92L2938.72 819.93V840.23C2938.72 841.957 2938.72 843.707 2938.72 845.48C2938.77 847.253 2938.81 849.027 2938.86 850.8L2948.8 852.48V855H2922.83V852.48L2932.7 850.8C2932.75 849.027 2932.77 847.253 2932.77 845.48C2932.82 843.707 2932.84 841.957 2932.84 840.23V815.03L2923.6 815.8V812.93ZM2958.6 812.93L2973.02 809.22L2974 809.92L2973.72 819.93V840.23C2973.72 841.957 2973.72 843.707 2973.72 845.48C2973.77 847.253 2973.81 849.027 2973.86 850.8L2983.8 852.48V855H2957.83V852.48L2967.7 850.8C2967.75 849.027 2967.77 847.253 2967.77 845.48C2967.82 843.707 2967.84 841.957 2967.84 840.23V815.03L2958.6 815.8V812.93ZM3001.65 855.91C2999.69 855.91 2997.89 855.677 2996.26 855.21C2994.63 854.79 2992.95 854.137 2991.22 853.25L2990.94 845.55H2994.79L2996.12 851.64C2997.75 852.387 2999.64 852.76 3001.79 852.76C3004.45 852.76 3006.41 852.27 3007.67 851.29C3008.98 850.31 3009.63 849.027 3009.63 847.44C3009.63 845.947 3009.09 844.757 3008.02 843.87C3006.95 842.937 3005.31 842.097 3003.12 841.35L2999.9 840.16C2997.33 839.227 2995.28 838.013 2993.74 836.52C2992.2 835.027 2991.43 833.09 2991.43 830.71C2991.43 828.983 2991.9 827.373 2992.83 825.88C2993.76 824.387 2995.14 823.173 2996.96 822.24C2998.78 821.307 3001 820.84 3003.61 820.84C3005.52 820.84 3007.25 821.097 3008.79 821.61C3010.38 822.077 3011.92 822.777 3013.41 823.71L3013.13 830.85H3009.49L3008.37 825.25C3006.78 824.457 3005.17 824.06 3003.54 824.06C3001.39 824.06 2999.76 824.503 2998.64 825.39C2997.57 826.23 2997.03 827.373 2997.03 828.82C2997.03 830.36 2997.5 831.527 2998.43 832.32C2999.41 833.113 3001.09 833.953 3003.47 834.84L3005.64 835.61C3009.14 836.917 3011.61 838.41 3013.06 840.09C3014.55 841.77 3015.3 843.707 3015.3 845.9C3015.3 847.673 3014.79 849.33 3013.76 850.87C3012.73 852.363 3011.22 853.577 3009.21 854.51C3007.2 855.443 3004.68 855.91 3001.65 855.91Z" fill="white"/>
<rect x="521.5" y="703.5" width="2555" height="263" rx="30.5" stroke="white" stroke-opacity="0.23" stroke-width="3"/>
<path d="M2175.66 1102V1099.48L2180.91 1098.5C2180.96 1096.73 2180.98 1094.81 2180.98 1092.76C2181.03 1090.66 2181.05 1088.84 2181.05 1087.3V1084.01C2181.05 1082.1 2181.03 1080.51 2180.98 1079.25C2180.98 1077.94 2180.94 1076.59 2180.84 1075.19L2175.24 1074.56V1072.11L2186.02 1067.84L2187.07 1068.54L2186.86 1078.06V1087.3C2186.86 1088.84 2186.86 1090.66 2186.86 1092.76C2186.91 1094.81 2186.96 1096.73 2187 1098.5L2191.9 1099.48V1102H2175.66ZM2183.92 1060.14C2182.62 1060.14 2181.5 1059.72 2180.56 1058.88C2179.68 1058.04 2179.23 1056.97 2179.23 1055.66C2179.23 1054.31 2179.68 1053.23 2180.56 1052.44C2181.5 1051.6 2182.62 1051.18 2183.92 1051.18C2185.23 1051.18 2186.33 1051.6 2187.21 1052.44C2188.15 1053.23 2188.61 1054.31 2188.61 1055.66C2188.61 1056.97 2188.15 1058.04 2187.21 1058.88C2186.33 1059.72 2185.23 1060.14 2183.92 1060.14ZM2208.06 1102.91C2206.1 1102.91 2204.31 1102.68 2202.67 1102.21C2201.04 1101.79 2199.36 1101.14 2197.63 1100.25L2197.35 1092.55H2201.2L2202.53 1098.64C2204.17 1099.39 2206.06 1099.76 2208.2 1099.76C2210.86 1099.76 2212.82 1099.27 2214.08 1098.29C2215.39 1097.31 2216.04 1096.03 2216.04 1094.44C2216.04 1092.95 2215.51 1091.76 2214.43 1090.87C2213.36 1089.94 2211.73 1089.1 2209.53 1088.35L2206.31 1087.16C2203.75 1086.23 2201.69 1085.01 2200.15 1083.52C2198.61 1082.03 2197.84 1080.09 2197.84 1077.71C2197.84 1075.98 2198.31 1074.37 2199.24 1072.88C2200.18 1071.39 2201.55 1070.17 2203.37 1069.24C2205.19 1068.31 2207.41 1067.84 2210.02 1067.84C2211.94 1067.84 2213.66 1068.1 2215.2 1068.61C2216.79 1069.08 2218.33 1069.78 2219.82 1070.71L2219.54 1077.85H2215.9L2214.78 1072.25C2213.2 1071.46 2211.59 1071.06 2209.95 1071.06C2207.81 1071.06 2206.17 1071.5 2205.05 1072.39C2203.98 1073.23 2203.44 1074.37 2203.44 1075.82C2203.44 1077.36 2203.91 1078.53 2204.84 1079.32C2205.82 1080.11 2207.5 1080.95 2209.88 1081.84L2212.05 1082.61C2215.55 1083.92 2218.03 1085.41 2219.47 1087.09C2220.97 1088.77 2221.71 1090.71 2221.71 1092.9C2221.71 1094.67 2221.2 1096.33 2220.17 1097.87C2219.15 1099.36 2217.63 1100.58 2215.62 1101.51C2213.62 1102.44 2211.1 1102.91 2208.06 1102.91ZM2245.36 1062.66L2238.29 1083.52H2252.36L2245.36 1062.66ZM2224.08 1102V1099.13L2229.96 1098.22L2244.87 1054.82H2249.28L2264.19 1098.5L2269.44 1099.13V1102H2250.4V1099.13L2257.26 1098.29L2253.41 1086.81H2237.17L2233.25 1098.22L2240.11 1099.13V1102H2224.08ZM2278.3 1085.55C2278.3 1090.12 2279.21 1093.51 2281.03 1095.7C2282.9 1097.85 2285.23 1098.92 2288.03 1098.92C2289.57 1098.92 2290.92 1098.62 2292.09 1098.01C2293.3 1097.36 2294.56 1096.31 2295.87 1094.86V1075.47C2294.28 1074.07 2292.86 1073.11 2291.6 1072.6C2290.34 1072.09 2289.13 1071.83 2287.96 1071.83C2286.23 1071.83 2284.62 1072.32 2283.13 1073.3C2281.68 1074.23 2280.52 1075.73 2279.63 1077.78C2278.74 1079.79 2278.3 1082.38 2278.3 1085.55ZM2296.57 1102.7L2296.08 1097.87C2294.87 1099.46 2293.47 1100.69 2291.88 1101.58C2290.34 1102.47 2288.47 1102.91 2286.28 1102.91C2283.43 1102.91 2280.94 1102.19 2278.79 1100.74C2276.64 1099.29 2274.96 1097.29 2273.75 1094.72C2272.58 1092.11 2272 1089.1 2272 1085.69C2272 1082.1 2272.65 1078.97 2273.96 1076.31C2275.27 1073.65 2277.04 1071.57 2279.28 1070.08C2281.52 1068.59 2284.06 1067.84 2286.91 1067.84C2288.54 1067.84 2290.11 1068.17 2291.6 1068.82C2293.14 1069.47 2294.63 1070.66 2296.08 1072.39V1056.57L2290.13 1055.87V1053.42L2301.05 1050.27L2302.03 1050.83L2301.75 1060.77V1098.64L2307.42 1099.48V1102L2296.57 1102.7ZM2318.02 1085.55C2318.02 1090.12 2318.93 1093.51 2320.75 1095.7C2322.61 1097.85 2324.95 1098.92 2327.75 1098.92C2329.29 1098.92 2330.64 1098.62 2331.81 1098.01C2333.02 1097.36 2334.28 1096.31 2335.59 1094.86V1075.47C2334 1074.07 2332.58 1073.11 2331.32 1072.6C2330.06 1072.09 2328.84 1071.83 2327.68 1071.83C2325.95 1071.83 2324.34 1072.32 2322.85 1073.3C2321.4 1074.23 2320.23 1075.73 2319.35 1077.78C2318.46 1079.79 2318.02 1082.38 2318.02 1085.55ZM2336.29 1102.7L2335.8 1097.87C2334.58 1099.46 2333.18 1100.69 2331.6 1101.58C2330.06 1102.47 2328.19 1102.91 2326 1102.91C2323.15 1102.91 2320.65 1102.19 2318.51 1100.74C2316.36 1099.29 2314.68 1097.29 2313.47 1094.72C2312.3 1092.11 2311.72 1089.1 2311.72 1085.69C2311.72 1082.1 2312.37 1078.97 2313.68 1076.31C2314.98 1073.65 2316.76 1071.57 2319 1070.08C2321.24 1068.59 2323.78 1067.84 2326.63 1067.84C2328.26 1067.84 2329.82 1068.17 2331.32 1068.82C2332.86 1069.47 2334.35 1070.66 2335.8 1072.39V1056.57L2329.85 1055.87V1053.42L2340.77 1050.27L2341.75 1050.83L2341.47 1060.77V1098.64L2347.14 1099.48V1102L2336.29 1102.7ZM2351.22 1102V1099.48L2356.26 1098.57C2356.31 1096.8 2356.33 1094.88 2356.33 1092.83C2356.38 1090.73 2356.4 1088.89 2356.4 1087.3V1083.94C2356.4 1082.03 2356.38 1080.44 2356.33 1079.18C2356.33 1077.92 2356.29 1076.59 2356.19 1075.19L2350.66 1074.56V1072.11L2360.46 1067.84L2361.51 1068.54L2362.28 1076.8C2363.45 1074 2364.94 1071.81 2366.76 1070.22C2368.63 1068.63 2370.5 1067.84 2372.36 1067.84C2373.44 1067.84 2374.44 1068.07 2375.37 1068.54C2376.31 1069.01 2376.98 1069.64 2377.4 1070.43C2377.4 1073.84 2376.03 1075.54 2373.27 1075.54C2372.48 1075.54 2371.73 1075.4 2371.03 1075.12C2370.33 1074.79 2369.66 1074.35 2369 1073.79L2368.16 1073.02C2366.76 1074.05 2365.6 1075.31 2364.66 1076.8C2363.73 1078.29 2362.96 1080.04 2362.35 1082.05V1087.3C2362.35 1088.84 2362.35 1090.64 2362.35 1092.69C2362.4 1094.74 2362.45 1096.66 2362.49 1098.43L2368.23 1099.48V1102H2351.22ZM2396.03 1071.06C2394.72 1071.06 2393.39 1071.43 2392.04 1072.18C2390.73 1072.93 2389.59 1074.12 2388.61 1075.75C2387.68 1077.38 2387.07 1079.55 2386.79 1082.26H2399.53C2401.21 1082.26 2402.31 1081.91 2402.82 1081.21C2403.38 1080.51 2403.66 1079.65 2403.66 1078.62C2403.66 1077.27 2403.31 1076.03 2402.61 1074.91C2401.96 1073.74 2401.05 1072.81 2399.88 1072.11C2398.76 1071.41 2397.48 1071.06 2396.03 1071.06ZM2395.96 1102.91C2391.25 1102.91 2387.47 1101.39 2384.62 1098.36C2381.77 1095.28 2380.35 1091.06 2380.35 1085.69C2380.35 1082.1 2381.07 1078.97 2382.52 1076.31C2384.01 1073.65 2385.97 1071.57 2388.4 1070.08C2390.87 1068.59 2393.56 1067.84 2396.45 1067.84C2398.88 1067.84 2401.07 1068.38 2403.03 1069.45C2404.99 1070.52 2406.55 1072.06 2407.72 1074.07C2408.89 1076.03 2409.47 1078.43 2409.47 1081.28C2409.47 1082.07 2409.42 1082.82 2409.33 1083.52C2409.24 1084.17 2409.12 1084.73 2408.98 1085.2H2386.65C2386.74 1089.49 2387.82 1092.76 2389.87 1095C2391.92 1097.24 2394.63 1098.36 2397.99 1098.36C2400.23 1098.36 2402.1 1097.92 2403.59 1097.03C2405.08 1096.1 2406.46 1094.91 2407.72 1093.46L2409.4 1094.79C2408.09 1097.26 2406.32 1099.25 2404.08 1100.74C2401.84 1102.19 2399.13 1102.91 2395.96 1102.91ZM2426.88 1102.91C2424.92 1102.91 2423.13 1102.68 2421.49 1102.21C2419.86 1101.79 2418.18 1101.14 2416.45 1100.25L2416.17 1092.55H2420.02L2421.35 1098.64C2422.99 1099.39 2424.88 1099.76 2427.02 1099.76C2429.68 1099.76 2431.64 1099.27 2432.9 1098.29C2434.21 1097.31 2434.86 1096.03 2434.86 1094.44C2434.86 1092.95 2434.33 1091.76 2433.25 1090.87C2432.18 1089.94 2430.55 1089.1 2428.35 1088.35L2425.13 1087.16C2422.57 1086.23 2420.51 1085.01 2418.97 1083.52C2417.43 1082.03 2416.66 1080.09 2416.66 1077.71C2416.66 1075.98 2417.13 1074.37 2418.06 1072.88C2419 1071.39 2420.37 1070.17 2422.19 1069.24C2424.01 1068.31 2426.23 1067.84 2428.84 1067.84C2430.76 1067.84 2432.48 1068.1 2434.02 1068.61C2435.61 1069.08 2437.15 1069.78 2438.64 1070.71L2438.36 1077.85H2434.72L2433.6 1072.25C2432.02 1071.46 2430.41 1071.06 2428.77 1071.06C2426.63 1071.06 2424.99 1071.5 2423.87 1072.39C2422.8 1073.23 2422.26 1074.37 2422.26 1075.82C2422.26 1077.36 2422.73 1078.53 2423.66 1079.32C2424.64 1080.11 2426.32 1080.95 2428.7 1081.84L2430.87 1082.61C2434.37 1083.92 2436.85 1085.41 2438.29 1087.09C2439.79 1088.77 2440.53 1090.71 2440.53 1092.9C2440.53 1094.67 2440.02 1096.33 2438.99 1097.87C2437.97 1099.36 2436.45 1100.58 2434.44 1101.51C2432.44 1102.44 2429.92 1102.91 2426.88 1102.91ZM2457.23 1102.91C2455.27 1102.91 2453.48 1102.68 2451.84 1102.21C2450.21 1101.79 2448.53 1101.14 2446.8 1100.25L2446.52 1092.55H2450.37L2451.7 1098.64C2453.34 1099.39 2455.23 1099.76 2457.37 1099.76C2460.03 1099.76 2461.99 1099.27 2463.25 1098.29C2464.56 1097.31 2465.21 1096.03 2465.21 1094.44C2465.21 1092.95 2464.68 1091.76 2463.6 1090.87C2462.53 1089.94 2460.9 1089.1 2458.7 1088.35L2455.48 1087.16C2452.92 1086.23 2450.86 1085.01 2449.32 1083.52C2447.78 1082.03 2447.01 1080.09 2447.01 1077.71C2447.01 1075.98 2447.48 1074.37 2448.41 1072.88C2449.35 1071.39 2450.72 1070.17 2452.54 1069.24C2454.36 1068.31 2456.58 1067.84 2459.19 1067.84C2461.11 1067.84 2462.83 1068.1 2464.37 1068.61C2465.96 1069.08 2467.5 1069.78 2468.99 1070.71L2468.71 1077.85H2465.07L2463.95 1072.25C2462.37 1071.46 2460.76 1071.06 2459.12 1071.06C2456.98 1071.06 2455.34 1071.5 2454.22 1072.39C2453.15 1073.23 2452.61 1074.37 2452.61 1075.82C2452.61 1077.36 2453.08 1078.53 2454.01 1079.32C2454.99 1080.11 2456.67 1080.95 2459.05 1081.84L2461.22 1082.61C2464.72 1083.92 2467.2 1085.41 2468.64 1087.09C2470.14 1088.77 2470.88 1090.71 2470.88 1092.9C2470.88 1094.67 2470.37 1096.33 2469.34 1097.87C2468.32 1099.36 2466.8 1100.58 2464.79 1101.51C2462.79 1102.44 2460.27 1102.91 2457.23 1102.91ZM2492.72 1086.74V1082.12H2522.96V1086.74H2492.72ZM2548.03 1059.93L2562.45 1056.22L2563.43 1056.92L2563.15 1066.93V1087.23C2563.15 1088.96 2563.15 1090.71 2563.15 1092.48C2563.2 1094.25 2563.25 1096.03 2563.29 1097.8L2573.23 1099.48V1102H2547.26V1099.48L2557.13 1097.8C2557.18 1096.03 2557.2 1094.25 2557.2 1092.48C2557.25 1090.71 2557.27 1088.96 2557.27 1087.23V1062.03L2548.03 1062.8V1059.93ZM2586.39 1079.46C2586.39 1084.87 2586.77 1089.05 2587.51 1091.99C2588.31 1094.93 2589.33 1096.96 2590.59 1098.08C2591.85 1099.2 2593.21 1099.76 2594.65 1099.76C2596.05 1099.76 2597.36 1099.2 2598.57 1098.08C2599.83 1096.91 2600.84 1094.86 2601.58 1091.92C2602.38 1088.98 2602.77 1084.83 2602.77 1079.46C2602.77 1074 2602.38 1069.8 2601.58 1066.86C2600.84 1063.92 2599.83 1061.89 2598.57 1060.77C2597.36 1059.6 2596.05 1059.02 2594.65 1059.02C2593.58 1059.02 2592.53 1059.32 2591.5 1059.93C2590.52 1060.54 2589.64 1061.59 2588.84 1063.08C2588.1 1064.57 2587.49 1066.65 2587.02 1069.31C2586.6 1071.97 2586.39 1075.35 2586.39 1079.46ZM2594.65 1055.87C2597.13 1055.87 2599.46 1056.64 2601.65 1058.18C2603.89 1059.67 2605.71 1062.15 2607.11 1065.6C2608.56 1069.05 2609.28 1073.67 2609.28 1079.46C2609.28 1085.2 2608.56 1089.8 2607.11 1093.25C2605.71 1096.66 2603.89 1099.13 2601.65 1100.67C2599.46 1102.16 2597.13 1102.91 2594.65 1102.91C2592.18 1102.91 2589.8 1102.16 2587.51 1100.67C2585.27 1099.13 2583.45 1096.66 2582.05 1093.25C2580.65 1089.8 2579.95 1085.2 2579.95 1079.46C2579.95 1073.67 2580.65 1069.05 2582.05 1065.6C2583.45 1062.15 2585.27 1059.67 2587.51 1058.18C2589.8 1056.64 2592.18 1055.87 2594.65 1055.87ZM2621.39 1079.46C2621.39 1084.87 2621.77 1089.05 2622.51 1091.99C2623.31 1094.93 2624.33 1096.96 2625.59 1098.08C2626.85 1099.2 2628.21 1099.76 2629.65 1099.76C2631.05 1099.76 2632.36 1099.2 2633.57 1098.08C2634.83 1096.91 2635.84 1094.86 2636.58 1091.92C2637.38 1088.98 2637.77 1084.83 2637.77 1079.46C2637.77 1074 2637.38 1069.8 2636.58 1066.86C2635.84 1063.92 2634.83 1061.89 2633.57 1060.77C2632.36 1059.6 2631.05 1059.02 2629.65 1059.02C2628.58 1059.02 2627.53 1059.32 2626.5 1059.93C2625.52 1060.54 2624.64 1061.59 2623.84 1063.08C2623.1 1064.57 2622.49 1066.65 2622.02 1069.31C2621.6 1071.97 2621.39 1075.35 2621.39 1079.46ZM2629.65 1055.87C2632.13 1055.87 2634.46 1056.64 2636.65 1058.18C2638.89 1059.67 2640.71 1062.15 2642.11 1065.6C2643.56 1069.05 2644.28 1073.67 2644.28 1079.46C2644.28 1085.2 2643.56 1089.8 2642.11 1093.25C2640.71 1096.66 2638.89 1099.13 2636.65 1100.67C2634.46 1102.16 2632.13 1102.91 2629.65 1102.91C2627.18 1102.91 2624.8 1102.16 2622.51 1100.67C2620.27 1099.13 2618.45 1096.66 2617.05 1093.25C2615.65 1089.8 2614.95 1085.2 2614.95 1079.46C2614.95 1073.67 2615.65 1069.05 2617.05 1065.6C2618.45 1062.15 2620.27 1059.67 2622.51 1058.18C2624.8 1056.64 2627.18 1055.87 2629.65 1055.87ZM2661.99 1099.97C2661.99 1102.77 2661.32 1105.36 2659.96 1107.74C2658.66 1110.12 2656.98 1112.15 2654.92 1113.83C2652.87 1115.56 2650.72 1116.84 2648.48 1117.68L2647.5 1115.3C2649.88 1114.09 2651.98 1112.62 2653.8 1110.89C2655.62 1109.16 2656.95 1106.99 2657.79 1104.38L2655.2 1102.35C2654.27 1101.6 2653.59 1100.81 2653.17 1099.97C2652.75 1099.08 2652.54 1098.2 2652.54 1097.31C2652.54 1096.1 2652.89 1095.07 2653.59 1094.23C2654.34 1093.34 2655.44 1092.9 2656.88 1092.9C2657.54 1092.9 2658.19 1093.04 2658.84 1093.32C2659.54 1093.6 2660.34 1094.14 2661.22 1094.93C2661.5 1095.82 2661.69 1096.68 2661.78 1097.52C2661.92 1098.31 2661.99 1099.13 2661.99 1099.97ZM2677.38 1079.46C2677.38 1084.87 2677.75 1089.05 2678.5 1091.99C2679.29 1094.93 2680.32 1096.96 2681.58 1098.08C2682.84 1099.2 2684.19 1099.76 2685.64 1099.76C2687.04 1099.76 2688.35 1099.2 2689.56 1098.08C2690.82 1096.91 2691.82 1094.86 2692.57 1091.92C2693.36 1088.98 2693.76 1084.83 2693.76 1079.46C2693.76 1074 2693.36 1069.8 2692.57 1066.86C2691.82 1063.92 2690.82 1061.89 2689.56 1060.77C2688.35 1059.6 2687.04 1059.02 2685.64 1059.02C2684.57 1059.02 2683.52 1059.32 2682.49 1059.93C2681.51 1060.54 2680.62 1061.59 2679.83 1063.08C2679.08 1064.57 2678.48 1066.65 2678.01 1069.31C2677.59 1071.97 2677.38 1075.35 2677.38 1079.46ZM2685.64 1055.87C2688.11 1055.87 2690.45 1056.64 2692.64 1058.18C2694.88 1059.67 2696.7 1062.15 2698.1 1065.6C2699.55 1069.05 2700.27 1073.67 2700.27 1079.46C2700.27 1085.2 2699.55 1089.8 2698.1 1093.25C2696.7 1096.66 2694.88 1099.13 2692.64 1100.67C2690.45 1102.16 2688.11 1102.91 2685.64 1102.91C2683.17 1102.91 2680.79 1102.16 2678.5 1100.67C2676.26 1099.13 2674.44 1096.66 2673.04 1093.25C2671.64 1089.8 2670.94 1085.2 2670.94 1079.46C2670.94 1073.67 2671.64 1069.05 2673.04 1065.6C2674.44 1062.15 2676.26 1059.67 2678.5 1058.18C2680.79 1056.64 2683.17 1055.87 2685.64 1055.87ZM2712.38 1079.46C2712.38 1084.87 2712.75 1089.05 2713.5 1091.99C2714.29 1094.93 2715.32 1096.96 2716.58 1098.08C2717.84 1099.2 2719.19 1099.76 2720.64 1099.76C2722.04 1099.76 2723.35 1099.2 2724.56 1098.08C2725.82 1096.91 2726.82 1094.86 2727.57 1091.92C2728.36 1088.98 2728.76 1084.83 2728.76 1079.46C2728.76 1074 2728.36 1069.8 2727.57 1066.86C2726.82 1063.92 2725.82 1061.89 2724.56 1060.77C2723.35 1059.6 2722.04 1059.02 2720.64 1059.02C2719.57 1059.02 2718.52 1059.32 2717.49 1059.93C2716.51 1060.54 2715.62 1061.59 2714.83 1063.08C2714.08 1064.57 2713.48 1066.65 2713.01 1069.31C2712.59 1071.97 2712.38 1075.35 2712.38 1079.46ZM2720.64 1055.87C2723.11 1055.87 2725.45 1056.64 2727.64 1058.18C2729.88 1059.67 2731.7 1062.15 2733.1 1065.6C2734.55 1069.05 2735.27 1073.67 2735.27 1079.46C2735.27 1085.2 2734.55 1089.8 2733.1 1093.25C2731.7 1096.66 2729.88 1099.13 2727.64 1100.67C2725.45 1102.16 2723.11 1102.91 2720.64 1102.91C2718.17 1102.91 2715.79 1102.16 2713.5 1100.67C2711.26 1099.13 2709.44 1096.66 2708.04 1093.25C2706.64 1089.8 2705.94 1085.2 2705.94 1079.46C2705.94 1073.67 2706.64 1069.05 2708.04 1065.6C2709.44 1062.15 2711.26 1059.67 2713.5 1058.18C2715.79 1056.64 2718.17 1055.87 2720.64 1055.87ZM2747.38 1079.46C2747.38 1084.87 2747.75 1089.05 2748.5 1091.99C2749.29 1094.93 2750.32 1096.96 2751.58 1098.08C2752.84 1099.2 2754.19 1099.76 2755.64 1099.76C2757.04 1099.76 2758.35 1099.2 2759.56 1098.08C2760.82 1096.91 2761.82 1094.86 2762.57 1091.92C2763.36 1088.98 2763.76 1084.83 2763.76 1079.46C2763.76 1074 2763.36 1069.8 2762.57 1066.86C2761.82 1063.92 2760.82 1061.89 2759.56 1060.77C2758.35 1059.6 2757.04 1059.02 2755.64 1059.02C2754.57 1059.02 2753.52 1059.32 2752.49 1059.93C2751.51 1060.54 2750.62 1061.59 2749.83 1063.08C2749.08 1064.57 2748.48 1066.65 2748.01 1069.31C2747.59 1071.97 2747.38 1075.35 2747.38 1079.46ZM2755.64 1055.87C2758.11 1055.87 2760.45 1056.64 2762.64 1058.18C2764.88 1059.67 2766.7 1062.15 2768.1 1065.6C2769.55 1069.05 2770.27 1073.67 2770.27 1079.46C2770.27 1085.2 2769.55 1089.8 2768.1 1093.25C2766.7 1096.66 2764.88 1099.13 2762.64 1100.67C2760.45 1102.16 2758.11 1102.91 2755.64 1102.91C2753.17 1102.91 2750.79 1102.16 2748.5 1100.67C2746.26 1099.13 2744.44 1096.66 2743.04 1093.25C2741.64 1089.8 2740.94 1085.2 2740.94 1079.46C2740.94 1073.67 2741.64 1069.05 2743.04 1065.6C2744.44 1062.15 2746.26 1059.67 2748.5 1058.18C2750.79 1056.64 2753.17 1055.87 2755.64 1055.87ZM2791.86 1102V1099.48L2797.11 1098.5C2797.15 1096.73 2797.18 1094.81 2797.18 1092.76C2797.22 1090.66 2797.25 1088.84 2797.25 1087.3V1084.01C2797.25 1082.1 2797.22 1080.51 2797.18 1079.25C2797.18 1077.94 2797.13 1076.59 2797.04 1075.19L2791.44 1074.56V1072.11L2802.22 1067.84L2803.27 1068.54L2803.06 1078.06V1087.3C2803.06 1088.84 2803.06 1090.66 2803.06 1092.76C2803.1 1094.81 2803.15 1096.73 2803.2 1098.5L2808.1 1099.48V1102H2791.86ZM2800.12 1060.14C2798.81 1060.14 2797.69 1059.72 2796.76 1058.88C2795.87 1058.04 2795.43 1056.97 2795.43 1055.66C2795.43 1054.31 2795.87 1053.23 2796.76 1052.44C2797.69 1051.6 2798.81 1051.18 2800.12 1051.18C2801.42 1051.18 2802.52 1051.6 2803.41 1052.44C2804.34 1053.23 2804.81 1054.31 2804.81 1055.66C2804.81 1056.97 2804.34 1058.04 2803.41 1058.88C2802.52 1059.72 2801.42 1060.14 2800.12 1060.14ZM2824.61 1102.91C2822.18 1102.91 2820.24 1102.26 2818.8 1100.95C2817.35 1099.64 2816.63 1097.64 2816.63 1094.93C2816.63 1094.04 2816.63 1093.18 2816.63 1092.34C2816.67 1091.45 2816.7 1090.33 2816.7 1088.98V1072.46H2810.89V1069.38L2817.12 1068.61L2818.94 1059.23H2823.14L2822.72 1068.75H2832.17V1072.46H2822.65V1094.16C2822.65 1095.93 2823 1097.24 2823.7 1098.08C2824.4 1098.87 2825.33 1099.27 2826.5 1099.27C2827.29 1099.27 2828.04 1099.11 2828.74 1098.78C2829.48 1098.45 2830.3 1097.99 2831.19 1097.38L2832.87 1099.2C2830.95 1101.67 2828.2 1102.91 2824.61 1102.91ZM2851.85 1071.06C2850.54 1071.06 2849.21 1071.43 2847.86 1072.18C2846.55 1072.93 2845.41 1074.12 2844.43 1075.75C2843.5 1077.38 2842.89 1079.55 2842.61 1082.26H2855.35C2857.03 1082.26 2858.13 1081.91 2858.64 1081.21C2859.2 1080.51 2859.48 1079.65 2859.48 1078.62C2859.48 1077.27 2859.13 1076.03 2858.43 1074.91C2857.78 1073.74 2856.87 1072.81 2855.7 1072.11C2854.58 1071.41 2853.3 1071.06 2851.85 1071.06ZM2851.78 1102.91C2847.07 1102.91 2843.29 1101.39 2840.44 1098.36C2837.59 1095.28 2836.17 1091.06 2836.17 1085.69C2836.17 1082.1 2836.89 1078.97 2838.34 1076.31C2839.83 1073.65 2841.79 1071.57 2844.22 1070.08C2846.69 1068.59 2849.38 1067.84 2852.27 1067.84C2854.7 1067.84 2856.89 1068.38 2858.85 1069.45C2860.81 1070.52 2862.37 1072.06 2863.54 1074.07C2864.71 1076.03 2865.29 1078.43 2865.29 1081.28C2865.29 1082.07 2865.24 1082.82 2865.15 1083.52C2865.06 1084.17 2864.94 1084.73 2864.8 1085.2H2842.47C2842.56 1089.49 2843.64 1092.76 2845.69 1095C2847.74 1097.24 2850.45 1098.36 2853.81 1098.36C2856.05 1098.36 2857.92 1097.92 2859.41 1097.03C2860.9 1096.1 2862.28 1094.91 2863.54 1093.46L2865.22 1094.79C2863.91 1097.26 2862.14 1099.25 2859.9 1100.74C2857.66 1102.19 2854.95 1102.91 2851.78 1102.91ZM2871.64 1102V1099.48L2876.68 1098.57C2876.73 1096.8 2876.75 1094.88 2876.75 1092.83C2876.8 1090.73 2876.82 1088.89 2876.82 1087.3V1083.94C2876.82 1082.03 2876.8 1080.44 2876.75 1079.18C2876.75 1077.92 2876.71 1076.59 2876.61 1075.19L2871.08 1074.56V1072.11L2880.88 1067.84L2881.93 1068.54L2882.7 1076.8C2883.87 1074 2885.36 1071.81 2887.18 1070.22C2889.05 1068.63 2890.92 1067.84 2892.78 1067.84C2893.86 1067.84 2894.86 1068.07 2895.79 1068.54C2896.73 1069.01 2897.4 1069.64 2897.82 1070.43C2897.82 1073.84 2896.45 1075.54 2893.69 1075.54C2892.9 1075.54 2892.15 1075.4 2891.45 1075.12C2890.75 1074.79 2890.08 1074.35 2889.42 1073.79L2888.58 1073.02C2887.18 1074.05 2886.02 1075.31 2885.08 1076.8C2884.15 1078.29 2883.38 1080.04 2882.77 1082.05V1087.3C2882.77 1088.84 2882.77 1090.64 2882.77 1092.69C2882.82 1094.74 2882.87 1096.66 2882.91 1098.43L2888.65 1099.48V1102H2871.64ZM2926.67 1102.7C2924.99 1102.7 2923.59 1102.21 2922.47 1101.23C2921.35 1100.25 2920.65 1098.94 2920.37 1097.31C2918.46 1099.18 2916.78 1100.58 2915.33 1101.51C2913.88 1102.44 2912.13 1102.91 2910.08 1102.91C2907.51 1102.91 2905.3 1102.19 2903.43 1100.74C2901.61 1099.25 2900.7 1097.05 2900.7 1094.16C2900.7 1092.81 2901 1091.55 2901.61 1090.38C2902.26 1089.21 2903.43 1088.07 2905.11 1086.95C2906.79 1085.83 2909.19 1084.71 2912.32 1083.59C2913.39 1083.22 2914.63 1082.82 2916.03 1082.4C2917.43 1081.98 2918.83 1081.61 2920.23 1081.28V1079.53C2920.23 1076.12 2919.72 1073.86 2918.69 1072.74C2917.66 1071.62 2915.98 1071.06 2913.65 1071.06C2913.14 1071.06 2912.55 1071.08 2911.9 1071.13C2911.29 1071.18 2910.62 1071.29 2909.87 1071.48L2908.54 1076.03C2907.89 1078.27 2906.67 1079.39 2904.9 1079.39C2902.94 1079.39 2901.84 1078.43 2901.61 1076.52C2902.26 1073.86 2903.8 1071.76 2906.23 1070.22C2908.7 1068.63 2911.71 1067.84 2915.26 1067.84C2918.95 1067.84 2921.68 1068.77 2923.45 1070.64C2925.22 1072.46 2926.11 1075.59 2926.11 1080.02V1094.93C2926.11 1096.42 2926.34 1097.5 2926.81 1098.15C2927.28 1098.76 2927.88 1099.06 2928.63 1099.06C2929.24 1099.06 2929.75 1098.92 2930.17 1098.64C2930.59 1098.36 2930.99 1097.99 2931.36 1097.52L2932.76 1099.06C2931.92 1100.41 2930.99 1101.37 2929.96 1101.93C2928.98 1102.44 2927.88 1102.7 2926.67 1102.7ZM2906.93 1093.11C2906.93 1094.98 2907.47 1096.31 2908.54 1097.1C2909.61 1097.89 2910.94 1098.29 2912.53 1098.29C2913.23 1098.29 2913.88 1098.2 2914.49 1098.01C2915.14 1097.82 2915.91 1097.47 2916.8 1096.96C2917.69 1096.4 2918.83 1095.61 2920.23 1094.58V1083.87C2919.02 1084.2 2917.83 1084.57 2916.66 1084.99C2915.49 1085.36 2914.54 1085.69 2913.79 1085.97C2911.78 1086.76 2910.29 1087.58 2909.31 1088.42C2908.33 1089.26 2907.68 1090.08 2907.35 1090.87C2907.07 1091.66 2906.93 1092.41 2906.93 1093.11ZM2947.52 1102.91C2945.09 1102.91 2943.15 1102.26 2941.71 1100.95C2940.26 1099.64 2939.54 1097.64 2939.54 1094.93C2939.54 1094.04 2939.54 1093.18 2939.54 1092.34C2939.58 1091.45 2939.61 1090.33 2939.61 1088.98V1072.46H2933.8V1069.38L2940.03 1068.61L2941.85 1059.23H2946.05L2945.63 1068.75H2955.08V1072.46H2945.56V1094.16C2945.56 1095.93 2945.91 1097.24 2946.61 1098.08C2947.31 1098.87 2948.24 1099.27 2949.41 1099.27C2950.2 1099.27 2950.95 1099.11 2951.65 1098.78C2952.39 1098.45 2953.21 1097.99 2954.1 1097.38L2955.78 1099.2C2953.86 1101.67 2951.11 1102.91 2947.52 1102.91ZM2958.38 1102V1099.48L2963.63 1098.5C2963.68 1096.73 2963.7 1094.81 2963.7 1092.76C2963.75 1090.66 2963.77 1088.84 2963.77 1087.3V1084.01C2963.77 1082.1 2963.75 1080.51 2963.7 1079.25C2963.7 1077.94 2963.65 1076.59 2963.56 1075.19L2957.96 1074.56V1072.11L2968.74 1067.84L2969.79 1068.54L2969.58 1078.06V1087.3C2969.58 1088.84 2969.58 1090.66 2969.58 1092.76C2969.63 1094.81 2969.67 1096.73 2969.72 1098.5L2974.62 1099.48V1102H2958.38ZM2966.64 1060.14C2965.33 1060.14 2964.21 1059.72 2963.28 1058.88C2962.39 1058.04 2961.95 1056.97 2961.95 1055.66C2961.95 1054.31 2962.39 1053.23 2963.28 1052.44C2964.21 1051.6 2965.33 1051.18 2966.64 1051.18C2967.95 1051.18 2969.04 1051.6 2969.93 1052.44C2970.86 1053.23 2971.33 1054.31 2971.33 1055.66C2971.33 1056.97 2970.86 1058.04 2969.93 1058.88C2969.04 1059.72 2967.95 1060.14 2966.64 1060.14ZM2995.96 1102.91C2993.25 1102.91 2990.66 1102.28 2988.19 1101.02C2985.76 1099.71 2983.78 1097.78 2982.24 1095.21C2980.7 1092.6 2979.93 1089.38 2979.93 1085.55C2979.93 1081.68 2980.7 1078.43 2982.24 1075.82C2983.78 1073.16 2985.76 1071.18 2988.19 1069.87C2990.66 1068.52 2993.25 1067.84 2995.96 1067.84C2998.67 1067.84 3001.23 1068.52 3003.66 1069.87C3006.13 1071.18 3008.14 1073.16 3009.68 1075.82C3011.27 1078.43 3012.06 1081.68 3012.06 1085.55C3012.06 1089.38 3011.27 1092.6 3009.68 1095.21C3008.14 1097.78 3006.13 1099.71 3003.66 1101.02C3001.23 1102.28 2998.67 1102.91 2995.96 1102.91ZM2995.96 1099.76C2998.99 1099.76 3001.33 1098.57 3002.96 1096.19C3004.59 1093.76 3005.41 1090.22 3005.41 1085.55C3005.41 1080.84 3004.59 1077.24 3002.96 1074.77C3001.33 1072.3 2998.99 1071.06 2995.96 1071.06C2992.93 1071.06 2990.59 1072.3 2988.96 1074.77C2987.37 1077.24 2986.58 1080.84 2986.58 1085.55C2986.58 1090.22 2987.37 1093.76 2988.96 1096.19C2990.59 1098.57 2992.93 1099.76 2995.96 1099.76ZM3018 1102V1099.48L3023.18 1098.5C3023.22 1096.73 3023.25 1094.81 3023.25 1092.76C3023.29 1090.71 3023.32 1088.89 3023.32 1087.3V1083.94C3023.32 1082.03 3023.29 1080.44 3023.25 1079.18C3023.25 1077.92 3023.2 1076.59 3023.11 1075.19L3017.58 1074.56V1072.11L3027.38 1067.84L3028.43 1068.54L3028.99 1074.14C3030.71 1072.27 3032.7 1070.76 3034.94 1069.59C3037.18 1068.42 3039.37 1067.84 3041.52 1067.84C3044.55 1067.84 3046.79 1068.87 3048.24 1070.92C3049.73 1072.93 3050.48 1076.22 3050.48 1080.79V1087.3C3050.48 1088.89 3050.48 1090.71 3050.48 1092.76C3050.52 1094.81 3050.57 1096.73 3050.62 1098.5L3055.52 1099.48V1102H3039.28V1099.48L3044.46 1098.5C3044.5 1096.77 3044.53 1094.88 3044.53 1092.83C3044.57 1090.73 3044.6 1088.89 3044.6 1087.3V1081.35C3044.6 1078.13 3044.13 1075.91 3043.2 1074.7C3042.31 1073.49 3040.84 1072.88 3038.79 1072.88C3037.2 1072.88 3035.66 1073.21 3034.17 1073.86C3032.67 1074.51 3031.04 1075.59 3029.27 1077.08V1087.3C3029.27 1088.84 3029.27 1090.66 3029.27 1092.76C3029.31 1094.81 3029.36 1096.73 3029.41 1098.5L3034.24 1099.48V1102H3018ZM3071.65 1102.91C3069.69 1102.91 3067.89 1102.68 3066.26 1102.21C3064.63 1101.79 3062.95 1101.14 3061.22 1100.25L3060.94 1092.55H3064.79L3066.12 1098.64C3067.75 1099.39 3069.64 1099.76 3071.79 1099.76C3074.45 1099.76 3076.41 1099.27 3077.67 1098.29C3078.98 1097.31 3079.63 1096.03 3079.63 1094.44C3079.63 1092.95 3079.09 1091.76 3078.02 1090.87C3076.95 1089.94 3075.31 1089.1 3073.12 1088.35L3069.9 1087.16C3067.33 1086.23 3065.28 1085.01 3063.74 1083.52C3062.2 1082.03 3061.43 1080.09 3061.43 1077.71C3061.43 1075.98 3061.9 1074.37 3062.83 1072.88C3063.76 1071.39 3065.14 1070.17 3066.96 1069.24C3068.78 1068.31 3071 1067.84 3073.61 1067.84C3075.52 1067.84 3077.25 1068.1 3078.79 1068.61C3080.38 1069.08 3081.92 1069.78 3083.41 1070.71L3083.13 1077.85H3079.49L3078.37 1072.25C3076.78 1071.46 3075.17 1071.06 3073.54 1071.06C3071.39 1071.06 3069.76 1071.5 3068.64 1072.39C3067.57 1073.23 3067.03 1074.37 3067.03 1075.82C3067.03 1077.36 3067.5 1078.53 3068.43 1079.32C3069.41 1080.11 3071.09 1080.95 3073.47 1081.84L3075.64 1082.61C3079.14 1083.92 3081.61 1085.41 3083.06 1087.09C3084.55 1088.77 3085.3 1090.71 3085.3 1092.9C3085.3 1094.67 3084.79 1096.33 3083.76 1097.87C3082.73 1099.36 3081.22 1100.58 3079.21 1101.51C3077.2 1102.44 3074.68 1102.91 3071.65 1102.91Z" fill="white"/>
<defs>
<filter id="filter0_d_424_195" x="522.144" y="18.8398" width="43.7117" height="254.281" filterUnits="userSpaceOnUse" color-interpolation-filters="sRGB">
<feFlood flood-opacity="0" result="BackgroundImageFix"/>
<feColorMatrix in="SourceAlpha" type="matrix" values="0 0 0 0 0 0 0 0 0 0 0 0 0 0 0 0 0 0 127 0" result="hardAlpha"/>
<feMorphology radius="3" operator="dilate" in="SourceAlpha" result="effect1_dropShadow_424_195"/>
<feOffset dy="4"/>
<feGaussianBlur stdDeviation="5.5"/>
<feComposite in2="hardAlpha" operator="out"/>
<feColorMatrix type="matrix" values="0 0 0 0 1 0 0 0 0 0.6 0 0 0 0 0 0 0 0 0.98 0"/>
<feBlend mode="normal" in2="BackgroundImageFix" result="effect1_dropShadow_424_195"/>
<feBlend mode="normal" in="SourceGraphic" in2="effect1_dropShadow_424_195" result="shape"/>
</filter>
<radialGradient id="paint0_radial_424_195" cx="0" cy="0" r="1" gradientUnits="userSpaceOnUse" gradientTransform="translate(536.858 165.914) rotate(88.5093) scale(400.479 24.2817)">
<stop stop-color="#FF8A00"/>
<stop offset="1" stop-color="#FFBA07"/>
</radialGradient>
<radialGradient id="paint1_radial_424_195" cx="0" cy="0" r="1" gradientUnits="userSpaceOnUse" gradientTransform="translate(536.727 167.75) rotate(88.532) scale(414.136 24.7275)">
<stop stop-color="#FF8A00"/>
<stop offset="1" stop-color="#FFBA07"/>
</radialGradient>
<radialGradient id="paint2_radial_424_195" cx="0" cy="0" r="1" gradientUnits="userSpaceOnUse" gradientTransform="translate(591.273 513.75) rotate(27.1776) scale(906.403 858.649)">
<stop stop-color="white" stop-opacity="0.19"/>
<stop offset="1" stop-color="white" stop-opacity="0.32"/>
</radialGradient>
<radialGradient id="paint3_radial_424_195" cx="0" cy="0" r="1" gradientUnits="userSpaceOnUse" gradientTransform="translate(636.909 859.75) rotate(15.7078) scale(1529.19 929.168)">
<stop stop-color="white" stop-opacity="0.19"/>
<stop offset="1" stop-color="white" stop-opacity="0.32"/>
</radialGradient>
</defs>
</svg>
