<svg width="3088" height="1133" viewBox="0 0 3088 1133" fill="none" xmlns="http://www.w3.org/2000/svg">
<rect width="3088" height="1126" transform="translate(0 7)" fill="#1E1E20"/>
<path d="M229.502 179.367H228.902L207.662 134.727C206.462 132.087 205.422 130.407 204.542 129.687C203.742 128.887 202.222 128.486 199.982 128.486V125.967H228.542V128.486C226.622 128.486 225.182 128.607 224.222 128.847C223.262 129.087 222.782 129.727 222.782 130.767C222.782 131.247 222.902 131.847 223.142 132.567C223.382 133.207 223.702 133.967 224.102 134.847L234.782 159.687L244.622 135.567C244.942 134.607 245.222 133.807 245.462 133.167C245.702 132.447 245.822 131.807 245.822 131.247C245.822 129.967 245.182 129.207 243.902 128.967C242.702 128.647 240.902 128.486 238.502 128.486V125.967H257.222V128.486C254.822 128.486 253.142 128.887 252.182 129.687C251.302 130.487 250.142 132.487 248.702 135.687L229.502 179.367ZM264.473 109.646C264.473 107.247 265.313 105.247 266.993 103.646C268.753 101.967 270.873 101.127 273.353 101.127C275.753 101.127 277.793 101.967 279.473 103.646C281.153 105.247 281.993 107.247 281.993 109.646C281.993 112.047 281.153 114.047 279.473 115.647C277.793 117.246 275.753 118.046 273.353 118.046C270.873 118.046 268.753 117.246 266.993 115.647C265.313 114.047 264.473 112.047 264.473 109.646ZM265.793 135.207C265.793 132.247 265.393 130.407 264.593 129.687C263.873 128.887 262.233 128.486 259.673 128.486V125.967H281.273V168.927C281.273 171.887 281.633 173.767 282.353 174.567C283.153 175.287 284.793 175.647 287.273 175.647V178.167H259.673V175.647C262.233 175.647 263.873 175.287 264.593 174.567C265.393 173.767 265.793 171.887 265.793 168.927V135.207ZM315.336 128.127C312.536 128.127 310.176 129.367 308.256 131.847C306.416 134.327 305.336 137.967 305.016 142.767H324.576C324.416 138.527 323.576 135.047 322.056 132.327C320.536 129.527 318.296 128.127 315.336 128.127ZM337.776 166.647C335.296 170.807 332.176 173.967 328.416 176.127C324.656 178.287 320.736 179.367 316.656 179.367C309.456 179.367 303.216 176.927 297.936 172.047C292.736 167.167 290.136 160.807 290.136 152.967C290.136 145.047 292.776 138.367 298.056 132.927C303.416 127.487 309.376 124.767 315.936 124.767C322.816 124.767 328.016 127.047 331.536 131.607C335.136 136.167 336.976 140.967 337.056 146.007H304.896V146.247C304.896 153.687 306.736 159.807 310.416 164.607C314.096 169.327 318.656 171.687 324.096 171.687C326.576 171.687 328.776 171.167 330.696 170.127C332.696 169.087 334.496 167.487 336.096 165.327L337.776 166.647ZM368.953 175.647V178.167H341.353V175.647C343.913 175.647 345.553 175.287 346.273 174.567C347.073 173.767 347.473 171.887 347.473 168.927V135.207C347.473 132.247 347.073 130.407 346.273 129.687C345.553 128.887 343.913 128.486 341.353 128.486V125.967H362.953V135.327C364.153 132.847 366.153 130.487 368.953 128.247C371.753 125.927 375.153 124.767 379.153 124.767C383.393 124.767 386.753 125.847 389.233 128.007C391.793 130.087 393.473 132.767 394.273 136.047C395.473 133.487 397.513 130.967 400.393 128.486C403.353 126.007 406.993 124.767 411.313 124.767C416.753 124.767 420.753 126.487 423.313 129.927C425.873 133.367 427.153 137.487 427.153 142.287V168.927C427.153 171.887 427.513 173.767 428.233 174.567C429.033 175.287 430.713 175.647 433.273 175.647V178.167H405.673V175.647C408.233 175.647 409.873 175.287 410.593 174.567C411.313 173.767 411.673 171.887 411.673 168.927V144.447C411.673 140.287 410.953 137.247 409.513 135.327C408.073 133.327 405.993 132.327 403.273 132.327C401.513 132.327 399.873 132.887 398.353 134.007C396.833 135.047 395.673 136.567 394.873 138.567C394.953 139.127 394.993 139.727 394.993 140.367C395.073 141.007 395.113 141.647 395.113 142.287V168.927C395.113 171.887 395.473 173.767 396.193 174.567C396.913 175.287 398.553 175.647 401.113 175.647V178.167H373.513V175.647C376.073 175.647 377.713 175.287 378.433 174.567C379.153 173.767 379.513 171.887 379.513 168.927V144.447C379.513 140.287 378.793 137.247 377.353 135.327C375.913 133.327 373.833 132.327 371.113 132.327C369.433 132.327 367.873 132.847 366.433 133.887C364.993 134.847 363.833 136.247 362.953 138.087V168.927C362.953 171.887 363.313 173.767 364.033 174.567C364.833 175.287 366.473 175.647 368.953 175.647Z" fill="white"/>
<g filter="url(#filter0_d_12_3)">
<rect x="538" y="35.8481" width="218" height="226.926" rx="16" fill="url(#paint0_radial_12_3)" fill-opacity="0.96" shape-rendering="crispEdges"/>
</g>
<rect x="536" y="33" width="222" height="234.667" rx="16" fill="url(#paint1_radial_12_3)" fill-opacity="0.96"/>
<path d="M2857.53 150.053C2857.53 147.067 2857.98 144.133 2858.89 141.253C2859.85 138.32 2861.15 135.733 2862.81 133.493C2864.46 131.253 2866.41 129.44 2868.65 128.053C2870.94 126.667 2873.42 125.973 2876.09 125.973C2878.7 125.973 2881.13 126.667 2883.37 128.053C2885.66 129.44 2887.61 131.253 2889.21 133.493C2890.86 135.733 2892.14 138.32 2893.05 141.253C2894.01 144.133 2894.49 147.067 2894.49 150.053C2894.49 153.04 2894.01 156 2893.05 158.933C2892.14 161.813 2890.86 164.373 2889.21 166.613C2887.61 168.853 2885.66 170.667 2883.37 172.053C2881.13 173.44 2878.7 174.133 2876.09 174.133C2873.42 174.133 2870.94 173.44 2868.65 172.053C2866.41 170.667 2864.46 168.853 2862.81 166.613C2861.15 164.373 2859.85 161.813 2858.89 158.933C2857.98 156 2857.53 153.04 2857.53 150.053ZM2886.57 150.053C2886.57 147.493 2886.35 144.987 2885.93 142.533C2885.55 140.027 2884.94 137.813 2884.09 135.893C2883.29 133.973 2882.22 132.427 2880.89 131.253C2879.55 130.027 2877.95 129.413 2876.09 129.413C2874.22 129.413 2872.59 130.027 2871.21 131.253C2869.87 132.427 2868.75 133.973 2867.85 135.893C2866.99 137.813 2866.35 140.027 2865.93 142.533C2865.55 144.987 2865.37 147.493 2865.37 150.053C2865.37 152.613 2865.55 155.147 2865.93 157.653C2866.35 160.107 2866.99 162.293 2867.85 164.213C2868.75 166.133 2869.87 167.707 2871.21 168.933C2872.59 170.107 2874.22 170.693 2876.09 170.693C2877.95 170.693 2879.55 170.107 2880.89 168.933C2882.22 167.707 2883.29 166.133 2884.09 164.213C2884.94 162.293 2885.55 160.107 2885.93 157.653C2886.35 155.147 2886.57 152.613 2886.57 150.053ZM2898.5 168.933C2898.5 167.493 2899.01 166.267 2900.02 165.253C2901.04 164.24 2902.26 163.733 2903.7 163.733C2905.14 163.733 2906.37 164.24 2907.38 165.253C2908.4 166.267 2908.9 167.493 2908.9 168.933C2908.9 170.373 2908.4 171.6 2907.38 172.613C2906.37 173.627 2905.14 174.133 2903.7 174.133C2902.26 174.133 2901.04 173.627 2900.02 172.613C2899.01 171.6 2898.5 170.373 2898.5 168.933ZM2916.86 154.293H2931.66V134.773L2916.86 154.293ZM2946.06 169.973V173.333H2924.3V169.973H2931.66V157.973H2911.34V155.333L2934.22 125.973H2938.62V154.293H2949.9V157.973H2938.62V169.973H2946.06ZM2968.47 174.133C2964.57 174.133 2961.32 173.093 2958.71 171.013C2956.09 168.933 2954.28 166.427 2953.27 163.493L2956.07 161.653C2957.13 163.893 2958.63 165.813 2960.55 167.413C2962.47 169.013 2964.79 169.813 2967.51 169.813C2970.55 169.813 2972.97 168.853 2974.79 166.933C2976.65 164.96 2977.59 162.373 2977.59 159.173C2977.59 155.92 2976.68 153.467 2974.87 151.813C2973.05 150.107 2970.6 149.253 2967.51 149.253C2966.28 149.253 2965 149.467 2963.67 149.893C2962.39 150.267 2961.08 150.8 2959.75 151.493L2958.87 150.773L2962.07 126.773H2983.27V133.813H2964.71L2962.95 146.773C2963.8 146.4 2964.87 146.053 2966.15 145.733C2967.43 145.413 2968.87 145.253 2970.47 145.253C2972.01 145.253 2973.61 145.547 2975.27 146.133C2976.97 146.667 2978.52 147.493 2979.91 148.613C2981.29 149.733 2982.41 151.173 2983.27 152.933C2984.17 154.693 2984.63 156.773 2984.63 159.173C2984.63 161.467 2984.15 163.547 2983.19 165.413C2982.23 167.227 2980.97 168.8 2979.43 170.133C2977.93 171.413 2976.23 172.4 2974.31 173.093C2972.39 173.787 2970.44 174.133 2968.47 174.133ZM2991.84 148.133C2991.84 145.36 2992.86 143.067 2994.88 141.253C2996.96 139.387 2999.52 138.453 3002.56 138.453C3004.11 138.453 3005.52 138.72 3006.8 139.253C3008.08 139.733 3009.23 140.48 3010.24 141.493L3011.04 138.773H3013.36V149.813H3010.72C3010.19 147.04 3009.23 144.933 3007.84 143.493C3006.51 142.053 3004.8 141.333 3002.72 141.333C3001.12 141.333 2999.82 141.787 2998.8 142.693C2997.79 143.6 2997.28 144.773 2997.28 146.213C2997.28 147.227 2997.6 148.107 2998.24 148.853C2998.88 149.6 3000.24 150.507 3002.32 151.573L3008 154.453C3010.56 155.733 3012.38 157.093 3013.44 158.533C3014.51 159.92 3015.04 161.6 3015.04 163.573C3015.04 166.613 3013.87 169.147 3011.52 171.173C3009.18 173.147 3006.3 174.133 3002.88 174.133C3001.12 174.133 2999.47 173.787 2997.92 173.093C2996.38 172.4 2995.12 171.467 2994.16 170.293L2993.44 173.333H2991.04V160.933H2993.76C2994.14 164.187 2995.12 166.693 2996.72 168.453C2998.32 170.213 3000.32 171.093 3002.72 171.093C3004.7 171.093 3006.27 170.613 3007.44 169.653C3008.62 168.693 3009.2 167.44 3009.2 165.893C3009.2 164.72 3008.88 163.76 3008.24 163.013C3007.66 162.213 3006.62 161.44 3005.12 160.693L2998.64 157.493C2996.19 156.267 2994.43 154.933 2993.36 153.493C2992.35 152 2991.84 150.213 2991.84 148.133Z" fill="white"/>
<rect x="521.5" y="18.5" width="2555" height="263.667" rx="30.5" stroke="white" stroke-opacity="0.23" stroke-width="3"/>
<path d="M37 490.46C34.2 490.46 31.84 491.7 29.92 494.18C28.08 496.66 27 500.3 26.68 505.1H46.24C46.08 500.86 45.24 497.38 43.72 494.66C42.2 491.86 39.96 490.46 37 490.46ZM59.44 528.98C56.96 533.14 53.84 536.3 50.08 538.46C46.32 540.62 42.4 541.7 38.32 541.7C31.12 541.7 24.88 539.26 19.6 534.38C14.4 529.5 11.8 523.14 11.8 515.3C11.8 507.38 14.44 500.7 19.72 495.26C25.08 489.82 31.04 487.1 37.6 487.1C44.48 487.1 49.68 489.38 53.2 493.94C56.8 498.5 58.64 503.3 58.72 508.34H26.56V508.58C26.56 516.02 28.4 522.14 32.08 526.94C35.76 531.66 40.32 534.02 45.76 534.02C48.24 534.02 50.44 533.5 52.36 532.46C54.36 531.42 56.16 529.82 57.76 527.66L59.44 528.98ZM62.4166 490.22C66.0166 488.3 69.7366 485.66 73.5766 482.3C77.4166 478.94 80.3766 475.82 82.4566 472.94H83.4166V488.54C85.3366 488.54 88.0166 488.5 91.4566 488.42C94.8966 488.34 97.4966 488.22 99.2566 488.06L98.5366 492.26H83.4166V524.9C83.4166 527.7 84.0566 530.02 85.3366 531.86C86.6166 533.7 88.4966 534.62 90.9766 534.62C92.7366 534.62 94.2566 534.22 95.5366 533.42C96.8166 532.54 98.0966 531.22 99.3766 529.46L101.057 531.02C99.1366 534.22 96.6566 536.82 93.6166 538.82C90.6566 540.74 87.2566 541.7 83.4166 541.7C79.0166 541.7 75.2966 540.3 72.2566 537.5C69.2966 534.62 67.8166 530.9 67.8166 526.34L68.1766 492.14H62.4166V490.22ZM129.04 537.98V540.5H101.56V537.98C104.12 537.98 105.76 537.62 106.48 536.9C107.2 536.1 107.56 534.22 107.56 531.26V471.5C107.56 468.54 107.08 466.74 106.12 466.1C105.16 465.38 103.24 465.02 100.36 465.02V462.5H123.16V497.66C124.36 495.1 126.4 492.7 129.28 490.46C132.24 488.22 135.6 487.1 139.36 487.1C144.88 487.1 149 488.82 151.72 492.26C154.52 495.7 155.92 499.82 155.92 504.62V531.26C155.92 534.22 156.28 536.1 157 536.9C157.72 537.62 159.36 537.98 161.92 537.98V540.5H134.32V537.98C136.88 537.98 138.52 537.62 139.24 536.9C139.96 536.1 140.32 534.22 140.32 531.26V506.78C140.32 502.62 139.52 499.58 137.92 497.66C136.32 495.66 134.16 494.66 131.44 494.66C129.76 494.66 128.16 495.18 126.64 496.22C125.2 497.18 124.04 498.58 123.16 500.42V531.26C123.16 534.22 123.52 536.1 124.24 536.9C124.96 537.62 126.56 537.98 129.04 537.98ZM189.695 490.46C186.895 490.46 184.535 491.7 182.615 494.18C180.775 496.66 179.695 500.3 179.375 505.1H198.935C198.775 500.86 197.935 497.38 196.415 494.66C194.895 491.86 192.655 490.46 189.695 490.46ZM212.135 528.98C209.655 533.14 206.535 536.3 202.775 538.46C199.015 540.62 195.095 541.7 191.015 541.7C183.815 541.7 177.575 539.26 172.295 534.38C167.095 529.5 164.495 523.14 164.495 515.3C164.495 507.38 167.135 500.7 172.415 495.26C177.775 489.82 183.735 487.1 190.295 487.1C197.175 487.1 202.375 489.38 205.895 493.94C209.495 498.5 211.335 503.3 211.415 508.34H179.255V508.58C179.255 516.02 181.095 522.14 184.775 526.94C188.455 531.66 193.015 534.02 198.455 534.02C200.935 534.02 203.135 533.5 205.055 532.46C207.055 531.42 208.855 529.82 210.455 527.66L212.135 528.98ZM245.712 537.98V540.5H215.712V537.98C218.272 537.98 219.912 537.62 220.632 536.9C221.432 536.1 221.832 534.22 221.832 531.26V497.54C221.832 494.58 221.432 492.74 220.632 492.02C219.912 491.22 218.272 490.82 215.712 490.82V488.3H237.192V500.54C240.072 495.98 242.512 492.62 244.512 490.46C246.512 488.22 248.752 487.1 251.232 487.1C252.912 487.1 254.512 487.58 256.032 488.54C257.632 489.5 258.832 490.5 259.632 491.54L255.552 505.22L255.072 505.34C253.792 503.1 252.152 501.3 250.152 499.94C248.152 498.5 246.272 497.78 244.512 497.78C243.312 497.78 242.112 498.26 240.912 499.22C239.792 500.18 238.552 501.5 237.192 503.18V531.26C237.192 534.22 237.712 536.06 238.752 536.78C239.792 537.5 242.112 537.9 245.712 537.98ZM280.495 538.34C283.135 538.34 285.255 537.7 286.855 536.42C288.455 535.14 289.255 533.26 289.255 530.78C289.255 528.7 288.535 527.1 287.095 525.98C285.735 524.78 283.895 523.58 281.575 522.38L272.455 517.58C269.575 516.14 267.255 514.26 265.495 511.94C263.735 509.62 262.855 506.74 262.855 503.3C262.855 498.5 264.695 494.62 268.375 491.66C272.055 488.62 276.335 487.1 281.215 487.1C284.335 487.1 286.855 487.62 288.775 488.66C290.695 489.62 292.135 490.1 293.095 490.1C293.815 490.1 294.335 489.86 294.655 489.38C294.975 488.9 295.215 488.38 295.375 487.82H297.055L298.015 503.54L295.735 503.66C295.175 499.74 293.615 496.54 291.055 494.06C288.495 491.58 285.535 490.34 282.175 490.34C279.855 490.34 278.015 490.98 276.655 492.26C275.375 493.54 274.735 495.18 274.735 497.18C274.735 499.1 275.335 500.62 276.535 501.74C277.815 502.78 279.415 503.78 281.335 504.74L289.615 509.18C292.815 510.86 295.415 512.94 297.415 515.42C299.495 517.82 300.535 520.86 300.535 524.54C300.535 529.66 298.615 533.82 294.775 537.02C291.015 540.14 286.375 541.7 280.855 541.7C276.935 541.7 273.855 541.02 271.615 539.66C269.455 538.3 267.975 537.62 267.175 537.62C266.535 537.62 265.975 537.98 265.495 538.7C265.095 539.34 264.815 540.02 264.655 540.74H262.855L261.895 522.62L264.295 522.5C264.855 527.06 266.655 530.86 269.695 533.9C272.815 536.86 276.415 538.34 280.495 538.34ZM353.471 541.7H352.871L331.631 497.06C330.431 494.42 329.391 492.74 328.511 492.02C327.711 491.22 326.191 490.82 323.951 490.82V488.3H352.511V490.82C350.591 490.82 349.151 490.94 348.191 491.18C347.231 491.42 346.751 492.06 346.751 493.1C346.751 493.58 346.871 494.18 347.111 494.9C347.351 495.54 347.671 496.3 348.071 497.18L358.751 522.02L368.591 497.9C368.911 496.94 369.191 496.14 369.431 495.5C369.671 494.78 369.791 494.14 369.791 493.58C369.791 492.3 369.151 491.54 367.871 491.3C366.671 490.98 364.871 490.82 362.471 490.82V488.3H381.191V490.82C378.791 490.82 377.111 491.22 376.151 492.02C375.271 492.82 374.111 494.82 372.671 498.02L353.471 541.7ZM412.802 541.7C405.762 541.7 399.322 538.82 393.482 533.06C387.642 527.22 384.722 519.58 384.722 510.14C384.722 498.46 389.282 488.38 398.402 479.9C407.522 471.42 418.922 467.18 432.602 467.18C433.322 467.18 434.042 467.22 434.762 467.3C435.482 467.3 436.202 467.34 436.922 467.42L436.802 469.94H435.482C425.002 469.94 416.882 473.42 411.122 480.38C405.362 487.34 402.042 496.54 401.162 507.98C403.082 505.26 405.562 503.06 408.602 501.38C411.642 499.7 414.882 498.86 418.322 498.86C424.082 498.86 428.922 500.66 432.842 504.26C436.842 507.86 438.842 512.54 438.842 518.3C438.842 525.02 436.242 530.62 431.042 535.1C425.842 539.5 419.762 541.7 412.802 541.7ZM413.762 538.22C416.642 538.22 419.122 536.94 421.202 534.38C423.282 531.74 424.322 527.7 424.322 522.26C424.322 517.22 423.082 513.14 420.602 510.02C418.122 506.9 414.922 505.34 411.002 505.34C409.242 505.34 407.402 505.86 405.482 506.9C403.642 507.94 402.122 509.46 400.922 511.46C400.922 511.94 400.922 512.42 400.922 512.9C400.922 513.38 400.922 513.9 400.922 514.46C400.922 521.74 402.162 527.54 404.642 531.86C407.122 536.1 410.162 538.22 413.762 538.22Z" fill="white"/>
<rect x="537.5" y="381.167" width="2166" height="231.667" rx="14.5" fill="url(#paint2_radial_12_3)" fill-opacity="0.96" stroke="#787878" stroke-width="3"/>
<path d="M2898.8 505.52C2898.8 507.867 2898.32 510 2897.36 511.92C2896.45 513.84 2895.25 515.467 2893.76 516.8C2892.27 518.08 2890.53 519.067 2888.56 519.76C2886.64 520.453 2884.69 520.8 2882.72 520.8C2878.72 520.8 2875.39 519.733 2872.72 517.6C2870.05 515.467 2868.19 512.88 2867.12 509.84L2869.92 508.08C2871.04 510.373 2872.61 512.32 2874.64 513.92C2876.67 515.52 2879.04 516.32 2881.76 516.32C2884.91 516.32 2887.36 515.36 2889.12 513.44C2890.88 511.467 2891.76 508.96 2891.76 505.92C2891.76 502.72 2890.75 500.24 2888.72 498.48C2886.75 496.667 2884.19 495.76 2881.04 495.76C2880.61 495.76 2880.16 495.787 2879.68 495.84C2879.2 495.893 2878.72 495.947 2878.24 496L2877.76 495.2L2889.44 479.6H2874L2873.2 486.24H2870.24V473.44H2898.08V474.24L2883.76 492.88H2884.56C2888.08 492.88 2891.33 493.947 2894.32 496.08C2897.31 498.16 2898.8 501.307 2898.8 505.52ZM2905.07 515.6C2905.07 514.16 2905.57 512.933 2906.59 511.92C2907.6 510.907 2908.83 510.4 2910.27 510.4C2911.71 510.4 2912.93 510.907 2913.95 511.92C2914.96 512.933 2915.47 514.16 2915.47 515.6C2915.47 517.04 2914.96 518.267 2913.95 519.28C2912.93 520.293 2911.71 520.8 2910.27 520.8C2908.83 520.8 2907.6 520.293 2906.59 519.28C2905.57 518.267 2905.07 517.04 2905.07 515.6ZM2931.72 520H2925.32L2943.96 480H2922.84L2922.04 487.04H2919.08V473.44H2950.28V474.24L2931.72 520ZM2968.47 520.8C2964.57 520.8 2961.32 519.76 2958.71 517.68C2956.09 515.6 2954.28 513.093 2953.27 510.16L2956.07 508.32C2957.13 510.56 2958.63 512.48 2960.55 514.08C2962.47 515.68 2964.79 516.48 2967.51 516.48C2970.55 516.48 2972.97 515.52 2974.79 513.6C2976.65 511.627 2977.59 509.04 2977.59 505.84C2977.59 502.587 2976.68 500.133 2974.87 498.48C2973.05 496.773 2970.6 495.92 2967.51 495.92C2966.28 495.92 2965 496.133 2963.67 496.56C2962.39 496.933 2961.08 497.467 2959.75 498.16L2958.87 497.44L2962.07 473.44H2983.27V480.48H2964.71L2962.95 493.44C2963.8 493.067 2964.87 492.72 2966.15 492.4C2967.43 492.08 2968.87 491.92 2970.47 491.92C2972.01 491.92 2973.61 492.213 2975.27 492.8C2976.97 493.333 2978.52 494.16 2979.91 495.28C2981.29 496.4 2982.41 497.84 2983.27 499.6C2984.17 501.36 2984.63 503.44 2984.63 505.84C2984.63 508.133 2984.15 510.213 2983.19 512.08C2982.23 513.893 2980.97 515.467 2979.43 516.8C2977.93 518.08 2976.23 519.067 2974.31 519.76C2972.39 520.453 2970.44 520.8 2968.47 520.8ZM2991.84 494.8C2991.84 492.027 2992.86 489.733 2994.88 487.92C2996.96 486.053 2999.52 485.12 3002.56 485.12C3004.11 485.12 3005.52 485.387 3006.8 485.92C3008.08 486.4 3009.23 487.147 3010.24 488.16L3011.04 485.44H3013.36V496.48H3010.72C3010.19 493.707 3009.23 491.6 3007.84 490.16C3006.51 488.72 3004.8 488 3002.72 488C3001.12 488 2999.82 488.453 2998.8 489.36C2997.79 490.267 2997.28 491.44 2997.28 492.88C2997.28 493.893 2997.6 494.773 2998.24 495.52C2998.88 496.267 3000.24 497.173 3002.32 498.24L3008 501.12C3010.56 502.4 3012.38 503.76 3013.44 505.2C3014.51 506.587 3015.04 508.267 3015.04 510.24C3015.04 513.28 3013.87 515.813 3011.52 517.84C3009.18 519.813 3006.3 520.8 3002.88 520.8C3001.12 520.8 2999.47 520.453 2997.92 519.76C2996.38 519.067 2995.12 518.133 2994.16 516.96L2993.44 520H2991.04V507.6H2993.76C2994.14 510.853 2995.12 513.36 2996.72 515.12C2998.32 516.88 3000.32 517.76 3002.72 517.76C3004.7 517.76 3006.27 517.28 3007.44 516.32C3008.62 515.36 3009.2 514.107 3009.2 512.56C3009.2 511.387 3008.88 510.427 3008.24 509.68C3007.66 508.88 3006.62 508.107 3005.12 507.36L2998.64 504.16C2996.19 502.933 2994.43 501.6 2993.36 500.16C2992.35 498.667 2991.84 496.88 2991.84 494.8Z" fill="white"/>
<rect x="521.5" y="365.167" width="2555" height="263.667" rx="30.5" stroke="white" stroke-opacity="0.23" stroke-width="3"/>
<path d="M43 837.127C40.2 837.127 37.84 838.367 35.92 840.847C34.08 843.327 33 846.967 32.68 851.767H52.24C52.08 847.527 51.24 844.047 49.72 841.327C48.2 838.527 45.96 837.127 43 837.127ZM65.44 875.647C62.96 879.807 59.84 882.967 56.08 885.127C52.32 887.287 48.4 888.367 44.32 888.367C37.12 888.367 30.88 885.927 25.6 881.047C20.4 876.167 17.8 869.807 17.8 861.967C17.8 854.047 20.44 847.367 25.72 841.927C31.08 836.487 37.04 833.767 43.6 833.767C50.48 833.767 55.68 836.047 59.2 840.607C62.8 845.167 64.64 849.967 64.72 855.007H32.56V855.247C32.56 862.687 34.4 868.807 38.08 873.607C41.76 878.327 46.32 880.687 51.76 880.687C54.24 880.687 56.44 880.167 58.36 879.127C60.36 878.087 62.16 876.487 63.76 874.327L65.44 875.647ZM68.4166 836.887C72.0166 834.967 75.7366 832.327 79.5766 828.967C83.4166 825.607 86.3766 822.487 88.4566 819.607H89.4166V835.207C91.3366 835.207 94.0166 835.167 97.4566 835.087C100.897 835.007 103.497 834.887 105.257 834.727L104.537 838.927H89.4166V871.567C89.4166 874.367 90.0566 876.687 91.3366 878.527C92.6166 880.367 94.4966 881.287 96.9766 881.287C98.7366 881.287 100.257 880.887 101.537 880.087C102.817 879.207 104.097 877.887 105.377 876.127L107.057 877.687C105.137 880.887 102.657 883.487 99.6166 885.487C96.6566 887.407 93.2566 888.367 89.4166 888.367C85.0166 888.367 81.2966 886.967 78.2566 884.167C75.2966 881.287 73.8166 877.567 73.8166 873.007L74.1766 838.807H68.4166V836.887ZM135.04 884.647V887.167H107.56V884.647C110.12 884.647 111.76 884.287 112.48 883.567C113.2 882.767 113.56 880.887 113.56 877.927V818.167C113.56 815.207 113.08 813.407 112.12 812.767C111.16 812.047 109.24 811.687 106.36 811.687V809.167H129.16V844.327C130.36 841.767 132.4 839.367 135.28 837.127C138.24 834.887 141.6 833.767 145.36 833.767C150.88 833.767 155 835.487 157.72 838.927C160.52 842.367 161.92 846.487 161.92 851.287V877.927C161.92 880.887 162.28 882.767 163 883.567C163.72 884.287 165.36 884.647 167.92 884.647V887.167H140.32V884.647C142.88 884.647 144.52 884.287 145.24 883.567C145.96 882.767 146.32 880.887 146.32 877.927V853.447C146.32 849.287 145.52 846.247 143.92 844.327C142.32 842.327 140.16 841.327 137.44 841.327C135.76 841.327 134.16 841.847 132.64 842.887C131.2 843.847 130.04 845.247 129.16 847.087V877.927C129.16 880.887 129.52 882.767 130.24 883.567C130.96 884.287 132.56 884.647 135.04 884.647ZM195.695 837.127C192.895 837.127 190.535 838.367 188.615 840.847C186.775 843.327 185.695 846.967 185.375 851.767H204.935C204.775 847.527 203.935 844.047 202.415 841.327C200.895 838.527 198.655 837.127 195.695 837.127ZM218.135 875.647C215.655 879.807 212.535 882.967 208.775 885.127C205.015 887.287 201.095 888.367 197.015 888.367C189.815 888.367 183.575 885.927 178.295 881.047C173.095 876.167 170.495 869.807 170.495 861.967C170.495 854.047 173.135 847.367 178.415 841.927C183.775 836.487 189.735 833.767 196.295 833.767C203.175 833.767 208.375 836.047 211.895 840.607C215.495 845.167 217.335 849.967 217.415 855.007H185.255V855.247C185.255 862.687 187.095 868.807 190.775 873.607C194.455 878.327 199.015 880.687 204.455 880.687C206.935 880.687 209.135 880.167 211.055 879.127C213.055 878.087 214.855 876.487 216.455 874.327L218.135 875.647ZM251.712 884.647V887.167H221.712V884.647C224.272 884.647 225.912 884.287 226.632 883.567C227.432 882.767 227.832 880.887 227.832 877.927V844.207C227.832 841.247 227.432 839.407 226.632 838.687C225.912 837.887 224.272 837.487 221.712 837.487V834.967H243.192V847.207C246.072 842.647 248.512 839.287 250.512 837.127C252.512 834.887 254.752 833.767 257.232 833.767C258.912 833.767 260.512 834.247 262.032 835.207C263.632 836.167 264.832 837.167 265.632 838.207L261.552 851.887L261.072 852.007C259.792 849.767 258.152 847.967 256.152 846.607C254.152 845.167 252.272 844.447 250.512 844.447C249.312 844.447 248.112 844.927 246.912 845.887C245.792 846.847 244.552 848.167 243.192 849.847V877.927C243.192 880.887 243.712 882.727 244.752 883.447C245.792 884.167 248.112 884.567 251.712 884.647ZM286.495 885.007C289.135 885.007 291.255 884.367 292.855 883.087C294.455 881.807 295.255 879.927 295.255 877.447C295.255 875.367 294.535 873.767 293.095 872.647C291.735 871.447 289.895 870.247 287.575 869.047L278.455 864.247C275.575 862.807 273.255 860.927 271.495 858.607C269.735 856.287 268.855 853.407 268.855 849.967C268.855 845.167 270.695 841.287 274.375 838.327C278.055 835.287 282.335 833.767 287.215 833.767C290.335 833.767 292.855 834.287 294.775 835.327C296.695 836.287 298.135 836.767 299.095 836.767C299.815 836.767 300.335 836.527 300.655 836.047C300.975 835.567 301.215 835.047 301.375 834.487H303.055L304.015 850.207L301.735 850.327C301.175 846.407 299.615 843.207 297.055 840.727C294.495 838.247 291.535 837.007 288.175 837.007C285.855 837.007 284.015 837.647 282.655 838.927C281.375 840.207 280.735 841.847 280.735 843.847C280.735 845.767 281.335 847.287 282.535 848.407C283.815 849.447 285.415 850.447 287.335 851.407L295.615 855.847C298.815 857.527 301.415 859.607 303.415 862.087C305.495 864.487 306.535 867.527 306.535 871.207C306.535 876.327 304.615 880.487 300.775 883.687C297.015 886.807 292.375 888.367 286.855 888.367C282.935 888.367 279.855 887.687 277.615 886.327C275.455 884.967 273.975 884.287 273.175 884.287C272.535 884.287 271.975 884.647 271.495 885.367C271.095 886.007 270.815 886.687 270.655 887.407H268.855L267.895 869.287L270.295 869.167C270.855 873.727 272.655 877.527 275.695 880.567C278.815 883.527 282.415 885.007 286.495 885.007ZM359.471 888.367H358.871L337.631 843.727C336.431 841.087 335.391 839.407 334.511 838.687C333.711 837.887 332.191 837.487 329.951 837.487V834.967H358.511V837.487C356.591 837.487 355.151 837.607 354.191 837.847C353.231 838.087 352.751 838.727 352.751 839.767C352.751 840.247 352.871 840.847 353.111 841.567C353.351 842.207 353.671 842.967 354.071 843.847L364.751 868.687L374.591 844.567C374.911 843.607 375.191 842.807 375.431 842.167C375.671 841.447 375.791 840.807 375.791 840.247C375.791 838.967 375.151 838.207 373.871 837.967C372.671 837.647 370.871 837.487 368.471 837.487V834.967H387.191V837.487C384.791 837.487 383.111 837.887 382.151 838.687C381.271 839.487 380.111 841.487 378.671 844.687L359.471 888.367ZM420.602 815.167C426.762 815.167 430.682 814.927 432.362 814.447C434.042 813.967 435.402 812.607 436.442 810.367H438.602L434.282 828.967H402.962L400.082 847.807C401.682 846.367 403.882 845.127 406.682 844.087C409.562 842.967 412.562 842.407 415.682 842.407C421.922 842.407 427.402 844.327 432.122 848.167C436.842 852.007 439.202 857.287 439.202 864.007C439.202 871.207 436.482 877.087 431.042 881.647C425.602 886.127 419.562 888.367 412.922 888.367C406.202 888.367 400.642 886.527 396.242 882.847C391.922 879.087 389.002 874.767 387.482 869.887L390.002 868.567C391.442 872.647 393.722 875.847 396.842 878.167C400.042 880.487 403.522 881.647 407.282 881.647C412.322 881.647 416.202 880.007 418.922 876.727C421.722 873.447 423.122 869.407 423.122 864.607C423.122 859.727 421.642 855.927 418.682 853.207C415.802 850.487 412.322 849.127 408.242 849.127C406.002 849.127 404.002 849.527 402.242 850.327C400.482 851.127 398.722 852.047 396.962 853.087L396.122 852.847L401.762 815.167H420.602Z" fill="white"/>
<rect x="537.5" y="727.833" width="2227" height="231.667" rx="14.5" fill="url(#paint3_radial_12_3)" fill-opacity="0.96" stroke="#787878" stroke-width="3"/>
<path d="M2886.14 852.187C2886.14 854.534 2885.66 856.667 2884.7 858.587C2883.8 860.507 2882.6 862.134 2881.1 863.467C2879.61 864.747 2877.88 865.734 2875.9 866.427C2873.98 867.12 2872.04 867.467 2870.06 867.467C2866.06 867.467 2862.73 866.4 2860.06 864.267C2857.4 862.134 2855.53 859.547 2854.46 856.507L2857.26 854.747C2858.38 857.04 2859.96 858.987 2861.98 860.587C2864.01 862.187 2866.38 862.987 2869.1 862.987C2872.25 862.987 2874.7 862.027 2876.46 860.107C2878.22 858.134 2879.1 855.627 2879.1 852.587C2879.1 849.387 2878.09 846.907 2876.06 845.147C2874.09 843.334 2871.53 842.427 2868.38 842.427C2867.96 842.427 2867.5 842.454 2867.02 842.507C2866.54 842.56 2866.06 842.614 2865.58 842.667L2865.1 841.867L2876.78 826.267H2861.34L2860.54 832.907H2857.58V820.107H2885.42V820.907L2871.1 839.547H2871.9C2875.42 839.547 2878.68 840.614 2881.66 842.747C2884.65 844.827 2886.14 847.974 2886.14 852.187ZM2892.41 862.267C2892.41 860.827 2892.92 859.6 2893.93 858.587C2894.94 857.574 2896.17 857.067 2897.61 857.067C2899.05 857.067 2900.28 857.574 2901.29 858.587C2902.3 859.6 2902.81 860.827 2902.81 862.267C2902.81 863.707 2902.3 864.934 2901.29 865.947C2900.28 866.96 2899.05 867.467 2897.61 867.467C2896.17 867.467 2894.94 866.96 2893.93 865.947C2892.92 864.934 2892.41 863.707 2892.41 862.267ZM2925.17 867.467C2920.53 867.467 2916.71 866.24 2913.73 863.787C2910.74 861.334 2909.25 858.507 2909.25 855.307C2909.25 852.587 2910.26 850.24 2912.29 848.267C2914.31 846.294 2916.69 844.72 2919.41 843.547C2917.11 842.107 2915.11 840.48 2913.41 838.667C2911.75 836.854 2910.93 834.64 2910.93 832.027C2910.93 828.507 2912.29 825.52 2915.01 823.067C2917.78 820.56 2921.09 819.307 2924.93 819.307C2929.3 819.307 2932.77 820.427 2935.33 822.667C2937.94 824.854 2939.25 827.467 2939.25 830.507C2939.25 833.227 2938.23 835.494 2936.21 837.307C2934.23 839.12 2931.99 840.534 2929.49 841.547L2932.53 843.307C2934.98 844.694 2937.06 846.267 2938.77 848.027C2940.47 849.734 2941.33 851.787 2941.33 854.187C2941.33 857.814 2939.86 860.934 2936.93 863.547C2934.05 866.16 2930.13 867.467 2925.17 867.467ZM2923.41 838.107L2927.25 840.267C2928.9 839.414 2930.37 838.267 2931.65 836.827C2932.98 835.387 2933.65 833.36 2933.65 830.747C2933.65 828.774 2932.95 826.907 2931.57 825.147C2930.18 823.387 2927.97 822.507 2924.93 822.507C2922.85 822.507 2921.06 823.174 2919.57 824.507C2918.13 825.84 2917.41 827.654 2917.41 829.947C2917.41 831.6 2917.99 833.147 2919.17 834.587C2920.34 836.027 2921.75 837.2 2923.41 838.107ZM2925.17 864.267C2927.78 864.267 2930.02 863.627 2931.89 862.347C2933.75 861.014 2934.69 859.147 2934.69 856.747C2934.69 855.094 2934.15 853.68 2933.09 852.507C2932.07 851.334 2930.66 850.214 2928.85 849.147L2921.65 844.907C2919.73 846.027 2918.18 847.36 2917.01 848.907C2915.89 850.454 2915.33 852.294 2915.33 854.427C2915.33 857.414 2916.31 859.814 2918.29 861.627C2920.26 863.387 2922.55 864.267 2925.17 864.267ZM2947.76 843.387C2947.76 840.4 2948.22 837.467 2949.12 834.587C2950.08 831.654 2951.39 829.067 2953.04 826.827C2954.7 824.587 2956.64 822.774 2958.88 821.387C2961.18 820 2963.66 819.307 2966.32 819.307C2968.94 819.307 2971.36 820 2973.6 821.387C2975.9 822.774 2977.84 824.587 2979.44 826.827C2981.1 829.067 2982.38 831.654 2983.28 834.587C2984.24 837.467 2984.72 840.4 2984.72 843.387C2984.72 846.374 2984.24 849.334 2983.28 852.267C2982.38 855.147 2981.1 857.707 2979.44 859.947C2977.84 862.187 2975.9 864 2973.6 865.387C2971.36 866.774 2968.94 867.467 2966.32 867.467C2963.66 867.467 2961.18 866.774 2958.88 865.387C2956.64 864 2954.7 862.187 2953.04 859.947C2951.39 857.707 2950.08 855.147 2949.12 852.267C2948.22 849.334 2947.76 846.374 2947.76 843.387ZM2976.8 843.387C2976.8 840.827 2976.59 838.32 2976.16 835.867C2975.79 833.36 2975.18 831.147 2974.32 829.227C2973.52 827.307 2972.46 825.76 2971.12 824.587C2969.79 823.36 2968.19 822.747 2966.32 822.747C2964.46 822.747 2962.83 823.36 2961.44 824.587C2960.11 825.76 2958.99 827.307 2958.08 829.227C2957.23 831.147 2956.59 833.36 2956.16 835.867C2955.79 838.32 2955.6 840.827 2955.6 843.387C2955.6 845.947 2955.79 848.48 2956.16 850.987C2956.59 853.44 2957.23 855.627 2958.08 857.547C2958.99 859.467 2960.11 861.04 2961.44 862.267C2962.83 863.44 2964.46 864.027 2966.32 864.027C2968.19 864.027 2969.79 863.44 2971.12 862.267C2972.46 861.04 2973.52 859.467 2974.32 857.547C2975.18 855.627 2975.79 853.44 2976.16 850.987C2976.59 848.48 2976.8 845.947 2976.8 843.387ZM2991.84 841.467C2991.84 838.694 2992.86 836.4 2994.88 834.587C2996.96 832.72 2999.52 831.787 3002.56 831.787C3004.11 831.787 3005.52 832.054 3006.8 832.587C3008.08 833.067 3009.23 833.814 3010.24 834.827L3011.04 832.107H3013.36V843.147H3010.72C3010.19 840.374 3009.23 838.267 3007.84 836.827C3006.51 835.387 3004.8 834.667 3002.72 834.667C3001.12 834.667 2999.82 835.12 2998.8 836.027C2997.79 836.934 2997.28 838.107 2997.28 839.547C2997.28 840.56 2997.6 841.44 2998.24 842.187C2998.88 842.934 3000.24 843.84 3002.32 844.907L3008 847.787C3010.56 849.067 3012.38 850.427 3013.44 851.867C3014.51 853.254 3015.04 854.934 3015.04 856.907C3015.04 859.947 3013.87 862.48 3011.52 864.507C3009.18 866.48 3006.3 867.467 3002.88 867.467C3001.12 867.467 2999.47 867.12 2997.92 866.427C2996.38 865.734 2995.12 864.8 2994.16 863.627L2993.44 866.667H2991.04V854.267H2993.76C2994.14 857.52 2995.12 860.027 2996.72 861.787C2998.32 863.547 3000.32 864.427 3002.72 864.427C3004.7 864.427 3006.27 863.947 3007.44 862.987C3008.62 862.027 3009.2 860.774 3009.2 859.227C3009.2 858.054 3008.88 857.094 3008.24 856.347C3007.66 855.547 3006.62 854.774 3005.12 854.027L2998.64 850.827C2996.19 849.6 2994.43 848.267 2993.36 846.827C2992.35 845.334 2991.84 843.547 2991.84 841.467Z" fill="white"/>
<rect x="521.5" y="711.833" width="2555" height="263.667" rx="30.5" stroke="white" stroke-opacity="0.23" stroke-width="3"/>
<path d="M1785.06 1081.08C1783.3 1081.08 1781.54 1081.91 1779.78 1083.56C1778.02 1085.16 1776.93 1087.64 1776.5 1091H1792.34C1792.24 1088.17 1791.54 1085.83 1790.26 1083.96C1789.04 1082.04 1787.3 1081.08 1785.06 1081.08ZM1799.62 1107.48C1797.97 1109.72 1796 1111.35 1793.7 1112.36C1791.41 1113.32 1789.01 1113.8 1786.5 1113.8C1782.02 1113.8 1778.1 1112.25 1774.74 1109.16C1771.44 1106.07 1769.78 1101.96 1769.78 1096.84C1769.78 1091.61 1771.38 1087.19 1774.58 1083.56C1777.78 1079.93 1781.57 1078.12 1785.94 1078.12C1790.64 1078.12 1794.02 1079.72 1796.1 1082.92C1798.24 1086.07 1799.3 1089.72 1799.3 1093.88H1776.34C1776.4 1098.79 1777.76 1102.6 1780.42 1105.32C1783.14 1108.04 1786.16 1109.4 1789.46 1109.4C1790.85 1109.4 1792.32 1109.16 1793.86 1108.68C1795.41 1108.2 1796.85 1107.24 1798.18 1105.8L1799.62 1107.48ZM1821.1 1110.12V1113H1804.62V1110.12H1809.34V1081.8H1804.62V1078.92H1816.38V1083.8C1817.82 1082.47 1819.5 1081.19 1821.42 1079.96C1823.34 1078.73 1825.56 1078.12 1828.06 1078.12C1831.58 1078.12 1834.06 1079.29 1835.5 1081.64C1837 1083.93 1837.74 1086.68 1837.74 1089.88V1110.12H1842.46V1113H1825.98V1110.12H1830.7V1091.72C1830.7 1089.43 1830.33 1087.35 1829.58 1085.48C1828.89 1083.56 1827.26 1082.6 1824.7 1082.6C1823.21 1082.6 1821.77 1082.87 1820.38 1083.4C1819.05 1083.88 1817.72 1084.68 1816.38 1085.8V1110.12H1821.1ZM1863.77 1081.08C1860.99 1081.08 1858.65 1082.25 1856.73 1084.6C1854.81 1086.95 1853.85 1089.99 1853.85 1093.72C1853.85 1098.2 1855.07 1101.93 1857.53 1104.92C1859.98 1107.91 1862.99 1109.4 1866.57 1109.4C1868.17 1109.4 1869.63 1109.08 1870.97 1108.44C1872.3 1107.8 1873.55 1106.84 1874.73 1105.56L1876.33 1107.16C1874.73 1109.29 1872.83 1110.95 1870.65 1112.12C1868.51 1113.24 1866.19 1113.8 1863.69 1113.8C1859.05 1113.8 1855.13 1112.2 1851.93 1109C1848.73 1105.8 1847.13 1101.77 1847.13 1096.92C1847.13 1091.69 1848.75 1087.27 1852.01 1083.64C1855.31 1079.96 1859.34 1078.12 1864.09 1078.12C1865.63 1078.12 1867.1 1078.39 1868.49 1078.92C1869.87 1079.45 1871.02 1080.17 1871.93 1081.08L1872.73 1078.44H1875.05V1090.44H1872.41C1871.82 1087.29 1870.81 1084.95 1869.37 1083.4C1867.93 1081.85 1866.06 1081.08 1863.77 1081.08ZM1896.73 1113.8C1894.7 1113.8 1892.7 1113.4 1890.73 1112.6C1888.76 1111.75 1887 1110.55 1885.45 1109C1883.96 1107.45 1882.73 1105.59 1881.77 1103.4C1880.86 1101.16 1880.41 1098.68 1880.41 1095.96C1880.41 1093.24 1880.86 1090.79 1881.77 1088.6C1882.73 1086.36 1883.96 1084.47 1885.45 1082.92C1887 1081.37 1888.76 1080.2 1890.73 1079.4C1892.7 1078.55 1894.7 1078.12 1896.73 1078.12C1898.76 1078.12 1900.76 1078.55 1902.73 1079.4C1904.7 1080.2 1906.44 1081.37 1907.93 1082.92C1909.48 1084.47 1910.7 1086.36 1911.61 1088.6C1912.57 1090.79 1913.05 1093.24 1913.05 1095.96C1913.05 1098.68 1912.57 1101.16 1911.61 1103.4C1910.7 1105.59 1909.48 1107.45 1907.93 1109C1906.44 1110.55 1904.7 1111.75 1902.73 1112.6C1900.76 1113.4 1898.76 1113.8 1896.73 1113.8ZM1896.73 1081.16C1894.12 1081.16 1891.96 1082.44 1890.25 1085C1888.6 1087.51 1887.77 1091.16 1887.77 1095.96C1887.77 1100.76 1888.6 1104.44 1890.25 1107C1891.96 1109.51 1894.12 1110.76 1896.73 1110.76C1899.34 1110.76 1901.48 1109.51 1903.13 1107C1904.84 1104.44 1905.69 1100.76 1905.69 1095.96C1905.69 1091.16 1904.84 1087.51 1903.13 1085C1901.48 1082.44 1899.34 1081.16 1896.73 1081.16ZM1935.73 1109.64C1937.12 1109.64 1938.4 1109.45 1939.57 1109.08C1940.75 1108.71 1941.81 1107.93 1942.77 1106.76V1082.68C1941.92 1082.15 1940.96 1081.77 1939.89 1081.56C1938.88 1081.35 1937.84 1081.24 1936.77 1081.24C1933.95 1081.24 1931.41 1082.44 1929.17 1084.84C1926.93 1087.24 1925.81 1090.84 1925.81 1095.64C1925.81 1099.27 1926.64 1102.52 1928.29 1105.4C1929.95 1108.23 1932.43 1109.64 1935.73 1109.64ZM1942.77 1113V1108.76C1941.6 1109.99 1940.16 1111.13 1938.45 1112.2C1936.8 1113.27 1934.91 1113.8 1932.77 1113.8C1928.93 1113.8 1925.6 1112.31 1922.77 1109.32C1920 1106.28 1918.61 1102.31 1918.61 1097.4C1918.61 1094.41 1919.12 1091.75 1920.13 1089.4C1921.15 1087 1922.45 1084.97 1924.05 1083.32C1925.65 1081.67 1927.49 1080.39 1929.57 1079.48C1931.71 1078.57 1933.84 1078.12 1935.97 1078.12C1937.25 1078.12 1938.45 1078.25 1939.57 1078.52C1940.75 1078.79 1941.81 1079.19 1942.77 1079.72V1063.08H1935.65V1060.2H1949.81V1110.12H1954.53V1113H1942.77ZM1974.99 1081.08C1973.23 1081.08 1971.47 1081.91 1969.71 1083.56C1967.95 1085.16 1966.85 1087.64 1966.43 1091H1982.27C1982.16 1088.17 1981.47 1085.83 1980.19 1083.96C1978.96 1082.04 1977.23 1081.08 1974.99 1081.08ZM1989.55 1107.48C1987.89 1109.72 1985.92 1111.35 1983.63 1112.36C1981.33 1113.32 1978.93 1113.8 1976.43 1113.8C1971.95 1113.8 1968.03 1112.25 1964.67 1109.16C1961.36 1106.07 1959.71 1101.96 1959.71 1096.84C1959.71 1091.61 1961.31 1087.19 1964.51 1083.56C1967.71 1079.93 1971.49 1078.12 1975.87 1078.12C1980.56 1078.12 1983.95 1079.72 1986.03 1082.92C1988.16 1086.07 1989.23 1089.72 1989.23 1093.88H1966.27C1966.32 1098.79 1967.68 1102.6 1970.35 1105.32C1973.07 1108.04 1976.08 1109.4 1979.39 1109.4C1980.77 1109.4 1982.24 1109.16 1983.79 1108.68C1985.33 1108.2 1986.77 1107.24 1988.11 1105.8L1989.55 1107.48ZM2015.34 1073.08L2009.02 1091.24H2021.82L2015.34 1073.08ZM2009.26 1109.64V1113H1993.1V1109.64H1998.22L2013.98 1066.44H2020.14L2036.38 1109.64H2041.34V1113H2022.62V1109.64H2028.46L2023.02 1094.52H2007.82L2002.54 1109.64H2009.26ZM2059.45 1113.8C2057.42 1113.8 2055.42 1113.67 2053.45 1113.4C2051.53 1113.13 2049.48 1112.65 2047.29 1111.96V1063.08H2041.77V1060.2H2054.33V1083.16C2055.5 1081.93 2056.97 1080.79 2058.73 1079.72C2060.49 1078.65 2062.44 1078.12 2064.57 1078.12C2068.41 1078.12 2071.69 1079.67 2074.41 1082.76C2077.13 1085.8 2078.49 1089.77 2078.49 1094.68C2078.49 1097.67 2077.96 1100.36 2076.89 1102.76C2075.82 1105.11 2074.41 1107.11 2072.65 1108.76C2070.89 1110.36 2068.86 1111.61 2066.57 1112.52C2064.28 1113.37 2061.9 1113.8 2059.45 1113.8ZM2059.45 1110.6C2062.28 1110.6 2064.94 1109.43 2067.45 1107.08C2070.01 1104.73 2071.29 1101.13 2071.29 1096.28C2071.29 1092.65 2070.49 1089.43 2068.89 1086.6C2067.34 1083.72 2064.92 1082.28 2061.61 1082.28C2060.22 1082.28 2058.89 1082.47 2057.61 1082.84C2056.38 1083.21 2055.29 1083.99 2054.33 1085.16V1109.8C2055.13 1110.07 2055.93 1110.28 2056.73 1110.44C2057.58 1110.55 2058.49 1110.6 2059.45 1110.6ZM2086.96 1067.16C2086.96 1065.83 2087.39 1064.73 2088.24 1063.88C2089.15 1062.97 2090.24 1062.52 2091.52 1062.52C2092.85 1062.52 2093.97 1062.97 2094.88 1063.88C2095.79 1064.73 2096.24 1065.83 2096.24 1067.16C2096.24 1068.44 2095.79 1069.53 2094.88 1070.44C2093.97 1071.29 2092.85 1071.72 2091.52 1071.72C2090.24 1071.72 2089.15 1071.29 2088.24 1070.44C2087.39 1069.53 2086.96 1068.44 2086.96 1067.16ZM2095.6 1078.92V1110.12H2100.32V1113H2083.84V1110.12H2088.56V1081.8H2083.84V1078.92H2095.6ZM2125.89 1113H2105.41V1109.64H2111.17V1069.8H2105.41V1066.44H2124.21C2129.12 1066.44 2133.36 1067.53 2136.93 1069.72C2140.5 1071.85 2142.29 1075 2142.29 1079.16C2142.29 1083.32 2140.5 1086.49 2136.93 1088.68C2133.36 1090.81 2129.12 1091.88 2124.21 1091.88H2118.53V1109.64H2125.89V1113ZM2123.25 1069.8H2118.53V1088.84H2123.25C2126.29 1088.84 2128.96 1088.09 2131.25 1086.6C2133.54 1085.11 2134.69 1082.63 2134.69 1079.16C2134.69 1075.75 2133.54 1073.35 2131.25 1071.96C2128.96 1070.52 2126.29 1069.8 2123.25 1069.8ZM2165.16 1092.76V1090.28C2165.16 1087.93 2164.54 1086.09 2163.32 1084.76C2162.09 1083.43 2160.33 1082.76 2158.04 1082.76C2156.28 1082.76 2154.65 1083.37 2153.16 1084.6C2151.72 1085.77 2150.54 1087.43 2149.64 1089.56L2146.68 1088.36C2147.9 1085.16 2149.72 1082.65 2152.12 1080.84C2154.57 1079.03 2157.34 1078.12 2160.44 1078.12C2164.01 1078.12 2166.86 1079.19 2169 1081.32C2171.13 1083.45 2172.2 1086.33 2172.2 1089.96V1106.92C2172.2 1107.83 2172.38 1108.52 2172.76 1109C2173.18 1109.48 2173.77 1109.72 2174.52 1109.72C2175.1 1109.72 2175.66 1109.61 2176.2 1109.4C2176.73 1109.13 2177.26 1108.76 2177.8 1108.28L2179.32 1110.28C2178.3 1111.4 2177.24 1112.28 2176.12 1112.92C2175 1113.51 2173.88 1113.8 2172.76 1113.8C2170.84 1113.8 2169.24 1113.32 2167.96 1112.36C2166.68 1111.35 2165.77 1109.91 2165.24 1108.04C2163.85 1109.75 2162.22 1111.13 2160.36 1112.2C2158.49 1113.21 2156.62 1113.72 2154.76 1113.72C2152.25 1113.72 2150.17 1112.97 2148.52 1111.48C2146.92 1109.93 2146.12 1107.96 2146.12 1105.56C2146.12 1103.53 2146.84 1101.77 2148.28 1100.28C2149.72 1098.79 2152.06 1097.45 2155.32 1096.28L2165.16 1092.76ZM2165.16 1105.8V1095.56L2158.44 1098.12C2156.57 1098.87 2155.21 1099.72 2154.36 1100.68C2153.5 1101.64 2153.08 1102.81 2153.08 1104.2C2153.08 1105.85 2153.48 1107.16 2154.28 1108.12C2155.13 1109.08 2156.28 1109.56 2157.72 1109.56C2159 1109.56 2160.28 1109.24 2161.56 1108.6C2162.84 1107.91 2164.04 1106.97 2165.16 1105.8ZM2199.89 1110.12V1113H2181.81V1110.12H2186.53V1081.8H2181.81V1078.92H2193.57V1084.84C2195.12 1083.35 2196.74 1081.85 2198.45 1080.36C2200.16 1078.87 2201.7 1078.12 2203.09 1078.12C2204.42 1078.12 2205.62 1078.47 2206.69 1079.16C2207.81 1079.85 2208.69 1080.57 2209.33 1081.32L2205.57 1087.16C2204.4 1086.31 2203.28 1085.56 2202.21 1084.92C2201.2 1084.28 2200.16 1083.96 2199.09 1083.96C2198.56 1083.96 2197.78 1084.15 2196.77 1084.52C2195.81 1084.84 2194.74 1085.53 2193.57 1086.6V1110.12H2199.89ZM2230.31 1092.76V1090.28C2230.31 1087.93 2229.7 1086.09 2228.47 1084.76C2227.25 1083.43 2225.49 1082.76 2223.19 1082.76C2221.43 1082.76 2219.81 1083.37 2218.31 1084.6C2216.87 1085.77 2215.7 1087.43 2214.79 1089.56L2211.83 1088.36C2213.06 1085.16 2214.87 1082.65 2217.27 1080.84C2219.73 1079.03 2222.5 1078.12 2225.59 1078.12C2229.17 1078.12 2232.02 1079.19 2234.15 1081.32C2236.29 1083.45 2237.35 1086.33 2237.35 1089.96V1106.92C2237.35 1107.83 2237.54 1108.52 2237.91 1109C2238.34 1109.48 2238.93 1109.72 2239.67 1109.72C2240.26 1109.72 2240.82 1109.61 2241.35 1109.4C2241.89 1109.13 2242.42 1108.76 2242.95 1108.28L2244.47 1110.28C2243.46 1111.4 2242.39 1112.28 2241.27 1112.92C2240.15 1113.51 2239.03 1113.8 2237.91 1113.8C2235.99 1113.8 2234.39 1113.32 2233.11 1112.36C2231.83 1111.35 2230.93 1109.91 2230.39 1108.04C2229.01 1109.75 2227.38 1111.13 2225.51 1112.2C2223.65 1113.21 2221.78 1113.72 2219.91 1113.72C2217.41 1113.72 2215.33 1112.97 2213.67 1111.48C2212.07 1109.93 2211.27 1107.96 2211.27 1105.56C2211.27 1103.53 2211.99 1101.77 2213.43 1100.28C2214.87 1098.79 2217.22 1097.45 2220.47 1096.28L2230.31 1092.76ZM2230.31 1105.8V1095.56L2223.59 1098.12C2221.73 1098.87 2220.37 1099.72 2219.51 1100.68C2218.66 1101.64 2218.23 1102.81 2218.23 1104.2C2218.23 1105.85 2218.63 1107.16 2219.43 1108.12C2220.29 1109.08 2221.43 1109.56 2222.87 1109.56C2224.15 1109.56 2225.43 1109.24 2226.71 1108.6C2227.99 1107.91 2229.19 1106.97 2230.31 1105.8ZM2263.45 1110.12V1113H2246.97V1110.12H2251.69V1081.8H2246.97V1078.92H2258.73V1083.8C2260.17 1082.47 2261.85 1081.19 2263.77 1079.96C2265.69 1078.73 2267.9 1078.12 2270.41 1078.12C2272.86 1078.12 2274.81 1078.71 2276.25 1079.88C2277.69 1081.05 2278.7 1082.57 2279.29 1084.44C2280.94 1082.79 2282.83 1081.32 2284.97 1080.04C2287.1 1078.76 2289.42 1078.12 2291.93 1078.12C2295.45 1078.12 2297.93 1079.29 2299.37 1081.64C2300.86 1083.93 2301.61 1086.68 2301.61 1089.88V1110.12H2306.33V1113H2289.85V1110.12H2294.57V1091.4C2294.57 1089.11 2294.19 1087.08 2293.45 1085.32C2292.75 1083.51 2291.13 1082.6 2288.57 1082.6C2287.13 1082.6 2285.69 1082.87 2284.25 1083.4C2282.81 1083.93 2281.31 1084.95 2279.77 1086.44C2279.87 1086.97 2279.95 1087.53 2280.01 1088.12C2280.06 1088.71 2280.09 1089.29 2280.09 1089.88V1110.12H2284.81V1113H2268.33V1110.12H2273.05V1091.4C2273.05 1089.11 2272.67 1087.08 2271.93 1085.32C2271.23 1083.51 2269.61 1082.6 2267.05 1082.6C2265.55 1082.6 2264.11 1082.87 2262.73 1083.4C2261.39 1083.88 2260.06 1084.73 2258.73 1085.96V1110.12H2263.45ZM2326.24 1081.08C2324.48 1081.08 2322.72 1081.91 2320.96 1083.56C2319.2 1085.16 2318.1 1087.64 2317.68 1091H2333.52C2333.41 1088.17 2332.72 1085.83 2331.44 1083.96C2330.21 1082.04 2328.48 1081.08 2326.24 1081.08ZM2340.8 1107.48C2339.14 1109.72 2337.17 1111.35 2334.88 1112.36C2332.58 1113.32 2330.18 1113.8 2327.68 1113.8C2323.2 1113.8 2319.28 1112.25 2315.92 1109.16C2312.61 1106.07 2310.96 1101.96 2310.96 1096.84C2310.96 1091.61 2312.56 1087.19 2315.76 1083.56C2318.96 1079.93 2322.74 1078.12 2327.12 1078.12C2331.81 1078.12 2335.2 1079.72 2337.28 1082.92C2339.41 1086.07 2340.48 1089.72 2340.48 1093.88H2317.52C2317.57 1098.79 2318.93 1102.6 2321.6 1105.32C2324.32 1108.04 2327.33 1109.4 2330.64 1109.4C2332.02 1109.4 2333.49 1109.16 2335.04 1108.68C2336.58 1108.2 2338.02 1107.24 2339.36 1105.8L2340.8 1107.48ZM2344.03 1078.92H2349.23V1071.56L2356.19 1068.52V1078.92H2366.35V1081.8H2356.19V1104.44C2356.19 1105.93 2356.62 1107.16 2357.47 1108.12C2358.33 1109.08 2359.58 1109.56 2361.23 1109.56C2362.41 1109.56 2363.5 1109.21 2364.51 1108.52C2365.53 1107.83 2366.57 1106.89 2367.63 1105.72L2369.39 1107.48C2367.95 1109.51 2366.25 1111.08 2364.27 1112.2C2362.3 1113.27 2360.3 1113.8 2358.27 1113.8C2355.66 1113.8 2353.5 1113.08 2351.79 1111.64C2350.09 1110.15 2349.23 1108.04 2349.23 1105.32V1081.8H2344.03V1078.92ZM2387.25 1081.08C2385.49 1081.08 2383.73 1081.91 2381.97 1083.56C2380.21 1085.16 2379.12 1087.64 2378.69 1091H2394.53C2394.43 1088.17 2393.73 1085.83 2392.45 1083.96C2391.23 1082.04 2389.49 1081.08 2387.25 1081.08ZM2401.81 1107.48C2400.16 1109.72 2398.19 1111.35 2395.89 1112.36C2393.6 1113.32 2391.2 1113.8 2388.69 1113.8C2384.21 1113.8 2380.29 1112.25 2376.93 1109.16C2373.63 1106.07 2371.97 1101.96 2371.97 1096.84C2371.97 1091.61 2373.57 1087.19 2376.77 1083.56C2379.97 1079.93 2383.76 1078.12 2388.13 1078.12C2392.83 1078.12 2396.21 1079.72 2398.29 1082.92C2400.43 1086.07 2401.49 1089.72 2401.49 1093.88H2378.53C2378.59 1098.79 2379.95 1102.6 2382.61 1105.32C2385.33 1108.04 2388.35 1109.4 2391.65 1109.4C2393.04 1109.4 2394.51 1109.16 2396.05 1108.68C2397.6 1108.2 2399.04 1107.24 2400.37 1105.8L2401.81 1107.48ZM2424.89 1110.12V1113H2406.81V1110.12H2411.53V1081.8H2406.81V1078.92H2418.57V1084.84C2420.12 1083.35 2421.74 1081.85 2423.45 1080.36C2425.16 1078.87 2426.7 1078.12 2428.09 1078.12C2429.42 1078.12 2430.62 1078.47 2431.69 1079.16C2432.81 1079.85 2433.69 1080.57 2434.33 1081.32L2430.57 1087.16C2429.4 1086.31 2428.28 1085.56 2427.21 1084.92C2426.2 1084.28 2425.16 1083.96 2424.09 1083.96C2423.56 1083.96 2422.78 1084.15 2421.77 1084.52C2420.81 1084.84 2419.74 1085.53 2418.57 1086.6V1110.12H2424.89ZM2438.72 1087.8C2438.72 1085.03 2439.73 1082.73 2441.76 1080.92C2443.84 1079.05 2446.4 1078.12 2449.44 1078.12C2450.98 1078.12 2452.4 1078.39 2453.68 1078.92C2454.96 1079.4 2456.1 1080.15 2457.12 1081.16L2457.92 1078.44H2460.24V1089.48H2457.6C2457.06 1086.71 2456.1 1084.6 2454.72 1083.16C2453.38 1081.72 2451.68 1081 2449.6 1081C2448 1081 2446.69 1081.45 2445.68 1082.36C2444.66 1083.27 2444.16 1084.44 2444.16 1085.88C2444.16 1086.89 2444.48 1087.77 2445.12 1088.52C2445.76 1089.27 2447.12 1090.17 2449.2 1091.24L2454.88 1094.12C2457.44 1095.4 2459.25 1096.76 2460.32 1098.2C2461.38 1099.59 2461.92 1101.27 2461.92 1103.24C2461.92 1106.28 2460.74 1108.81 2458.4 1110.84C2456.05 1112.81 2453.17 1113.8 2449.76 1113.8C2448 1113.8 2446.34 1113.45 2444.8 1112.76C2443.25 1112.07 2442 1111.13 2441.04 1109.96L2440.32 1113H2437.92V1100.6H2440.64C2441.01 1103.85 2442 1106.36 2443.6 1108.12C2445.2 1109.88 2447.2 1110.76 2449.6 1110.76C2451.57 1110.76 2453.14 1110.28 2454.32 1109.32C2455.49 1108.36 2456.08 1107.11 2456.08 1105.56C2456.08 1104.39 2455.76 1103.43 2455.12 1102.68C2454.53 1101.88 2453.49 1101.11 2452 1100.36L2445.52 1097.16C2443.06 1095.93 2441.3 1094.6 2440.24 1093.16C2439.22 1091.67 2438.72 1089.88 2438.72 1087.8ZM2486.51 1094.68V1088.44H2520.11V1094.68H2486.51ZM2575.91 1098.52C2575.91 1100.87 2575.43 1103 2574.47 1104.92C2573.56 1106.84 2572.36 1108.47 2570.87 1109.8C2569.38 1111.08 2567.64 1112.07 2565.67 1112.76C2563.75 1113.45 2561.8 1113.8 2559.83 1113.8C2555.83 1113.8 2552.5 1112.73 2549.83 1110.6C2547.16 1108.47 2545.3 1105.88 2544.23 1102.84L2547.03 1101.08C2548.15 1103.37 2549.72 1105.32 2551.75 1106.92C2553.78 1108.52 2556.15 1109.32 2558.87 1109.32C2562.02 1109.32 2564.47 1108.36 2566.23 1106.44C2567.99 1104.47 2568.87 1101.96 2568.87 1098.92C2568.87 1095.72 2567.86 1093.24 2565.83 1091.48C2563.86 1089.67 2561.3 1088.76 2558.15 1088.76C2557.72 1088.76 2557.27 1088.79 2556.79 1088.84C2556.31 1088.89 2555.83 1088.95 2555.35 1089L2554.87 1088.2L2566.55 1072.6H2551.11L2550.31 1079.24H2547.35V1066.44H2575.19V1067.24L2560.87 1085.88H2561.67C2565.19 1085.88 2568.44 1086.95 2571.43 1089.08C2574.42 1091.16 2575.91 1094.31 2575.91 1098.52ZM2582.14 1089.72C2582.14 1086.73 2582.59 1083.8 2583.5 1080.92C2584.46 1077.99 2585.76 1075.4 2587.42 1073.16C2589.07 1070.92 2591.02 1069.11 2593.26 1067.72C2595.55 1066.33 2598.03 1065.64 2600.7 1065.64C2603.31 1065.64 2605.74 1066.33 2607.98 1067.72C2610.27 1069.11 2612.22 1070.92 2613.82 1073.16C2615.47 1075.4 2616.75 1077.99 2617.66 1080.92C2618.62 1083.8 2619.1 1086.73 2619.1 1089.72C2619.1 1092.71 2618.62 1095.67 2617.66 1098.6C2616.75 1101.48 2615.47 1104.04 2613.82 1106.28C2612.22 1108.52 2610.27 1110.33 2607.98 1111.72C2605.74 1113.11 2603.31 1113.8 2600.7 1113.8C2598.03 1113.8 2595.55 1113.11 2593.26 1111.72C2591.02 1110.33 2589.07 1108.52 2587.42 1106.28C2585.76 1104.04 2584.46 1101.48 2583.5 1098.6C2582.59 1095.67 2582.14 1092.71 2582.14 1089.72ZM2611.18 1089.72C2611.18 1087.16 2610.96 1084.65 2610.54 1082.2C2610.16 1079.69 2609.55 1077.48 2608.7 1075.56C2607.9 1073.64 2606.83 1072.09 2605.5 1070.92C2604.16 1069.69 2602.56 1069.08 2600.7 1069.08C2598.83 1069.08 2597.2 1069.69 2595.82 1070.92C2594.48 1072.09 2593.36 1073.64 2592.46 1075.56C2591.6 1077.48 2590.96 1079.69 2590.54 1082.2C2590.16 1084.65 2589.98 1087.16 2589.98 1089.72C2589.98 1092.28 2590.16 1094.81 2590.54 1097.32C2590.96 1099.77 2591.6 1101.96 2592.46 1103.88C2593.36 1105.8 2594.48 1107.37 2595.82 1108.6C2597.2 1109.77 2598.83 1110.36 2600.7 1110.36C2602.56 1110.36 2604.16 1109.77 2605.5 1108.6C2606.83 1107.37 2607.9 1105.8 2608.7 1103.88C2609.55 1101.96 2610.16 1099.77 2610.54 1097.32C2610.96 1094.81 2611.18 1092.28 2611.18 1089.72ZM2628.87 1113C2627.54 1113.16 2626.26 1112.84 2625.03 1112.04C2623.86 1111.24 2623.27 1109.96 2623.27 1108.2C2623.27 1106.87 2623.75 1105.75 2624.71 1104.84C2625.67 1103.88 2626.77 1103.4 2627.99 1103.4C2629.59 1103.4 2630.93 1103.96 2631.99 1105.08C2633.06 1106.15 2633.59 1107.8 2633.59 1110.04C2633.59 1113.93 2632.37 1117.11 2629.91 1119.56C2627.51 1122.01 2624.71 1123.53 2621.51 1124.12L2620.71 1121.72C2623.17 1120.97 2625.14 1119.88 2626.63 1118.44C2628.13 1117.05 2628.87 1115.24 2628.87 1113ZM2637.53 1089.72C2637.53 1086.73 2637.98 1083.8 2638.89 1080.92C2639.85 1077.99 2641.15 1075.4 2642.81 1073.16C2644.46 1070.92 2646.41 1069.11 2648.65 1067.72C2650.94 1066.33 2653.42 1065.64 2656.09 1065.64C2658.7 1065.64 2661.13 1066.33 2663.37 1067.72C2665.66 1069.11 2667.61 1070.92 2669.21 1073.16C2670.86 1075.4 2672.14 1077.99 2673.05 1080.92C2674.01 1083.8 2674.49 1086.73 2674.49 1089.72C2674.49 1092.71 2674.01 1095.67 2673.05 1098.6C2672.14 1101.48 2670.86 1104.04 2669.21 1106.28C2667.61 1108.52 2665.66 1110.33 2663.37 1111.72C2661.13 1113.11 2658.7 1113.8 2656.09 1113.8C2653.42 1113.8 2650.94 1113.11 2648.65 1111.72C2646.41 1110.33 2644.46 1108.52 2642.81 1106.28C2641.15 1104.04 2639.85 1101.48 2638.89 1098.6C2637.98 1095.67 2637.53 1092.71 2637.53 1089.72ZM2666.57 1089.72C2666.57 1087.16 2666.35 1084.65 2665.93 1082.2C2665.55 1079.69 2664.94 1077.48 2664.09 1075.56C2663.29 1073.64 2662.22 1072.09 2660.89 1070.92C2659.55 1069.69 2657.95 1069.08 2656.09 1069.08C2654.22 1069.08 2652.59 1069.69 2651.21 1070.92C2649.87 1072.09 2648.75 1073.64 2647.85 1075.56C2646.99 1077.48 2646.35 1079.69 2645.93 1082.2C2645.55 1084.65 2645.37 1087.16 2645.37 1089.72C2645.37 1092.28 2645.55 1094.81 2645.93 1097.32C2646.35 1099.77 2646.99 1101.96 2647.85 1103.88C2648.75 1105.8 2649.87 1107.37 2651.21 1108.6C2652.59 1109.77 2654.22 1110.36 2656.09 1110.36C2657.95 1110.36 2659.55 1109.77 2660.89 1108.6C2662.22 1107.37 2663.29 1105.8 2664.09 1103.88C2664.94 1101.96 2665.55 1099.77 2665.93 1097.32C2666.35 1094.81 2666.57 1092.28 2666.57 1089.72ZM2680.89 1089.72C2680.89 1086.73 2681.34 1083.8 2682.25 1080.92C2683.21 1077.99 2684.51 1075.4 2686.17 1073.16C2687.82 1070.92 2689.77 1069.11 2692.01 1067.72C2694.3 1066.33 2696.78 1065.64 2699.45 1065.64C2702.06 1065.64 2704.49 1066.33 2706.73 1067.72C2709.02 1069.11 2710.97 1070.92 2712.57 1073.16C2714.22 1075.4 2715.5 1077.99 2716.41 1080.92C2717.37 1083.8 2717.85 1086.73 2717.85 1089.72C2717.85 1092.71 2717.37 1095.67 2716.41 1098.6C2715.5 1101.48 2714.22 1104.04 2712.57 1106.28C2710.97 1108.52 2709.02 1110.33 2706.73 1111.72C2704.49 1113.11 2702.06 1113.8 2699.45 1113.8C2696.78 1113.8 2694.3 1113.11 2692.01 1111.72C2689.77 1110.33 2687.82 1108.52 2686.17 1106.28C2684.51 1104.04 2683.21 1101.48 2682.25 1098.6C2681.34 1095.67 2680.89 1092.71 2680.89 1089.72ZM2709.93 1089.72C2709.93 1087.16 2709.71 1084.65 2709.29 1082.2C2708.91 1079.69 2708.3 1077.48 2707.45 1075.56C2706.65 1073.64 2705.58 1072.09 2704.25 1070.92C2702.91 1069.69 2701.31 1069.08 2699.45 1069.08C2697.58 1069.08 2695.95 1069.69 2694.57 1070.92C2693.23 1072.09 2692.11 1073.64 2691.21 1075.56C2690.35 1077.48 2689.71 1079.69 2689.29 1082.2C2688.91 1084.65 2688.73 1087.16 2688.73 1089.72C2688.73 1092.28 2688.91 1094.81 2689.29 1097.32C2689.71 1099.77 2690.35 1101.96 2691.21 1103.88C2692.11 1105.8 2693.23 1107.37 2694.57 1108.6C2695.95 1109.77 2697.58 1110.36 2699.45 1110.36C2701.31 1110.36 2702.91 1109.77 2704.25 1108.6C2705.58 1107.37 2706.65 1105.8 2707.45 1103.88C2708.3 1101.96 2708.91 1099.77 2709.29 1097.32C2709.71 1094.81 2709.93 1092.28 2709.93 1089.72ZM2724.25 1089.72C2724.25 1086.73 2724.7 1083.8 2725.61 1080.92C2726.57 1077.99 2727.87 1075.4 2729.53 1073.16C2731.18 1070.92 2733.13 1069.11 2735.37 1067.72C2737.66 1066.33 2740.14 1065.64 2742.81 1065.64C2745.42 1065.64 2747.85 1066.33 2750.09 1067.72C2752.38 1069.11 2754.33 1070.92 2755.93 1073.16C2757.58 1075.4 2758.86 1077.99 2759.77 1080.92C2760.73 1083.8 2761.21 1086.73 2761.21 1089.72C2761.21 1092.71 2760.73 1095.67 2759.77 1098.6C2758.86 1101.48 2757.58 1104.04 2755.93 1106.28C2754.33 1108.52 2752.38 1110.33 2750.09 1111.72C2747.85 1113.11 2745.42 1113.8 2742.81 1113.8C2740.14 1113.8 2737.66 1113.11 2735.37 1111.72C2733.13 1110.33 2731.18 1108.52 2729.53 1106.28C2727.87 1104.04 2726.57 1101.48 2725.61 1098.6C2724.7 1095.67 2724.25 1092.71 2724.25 1089.72ZM2753.29 1089.72C2753.29 1087.16 2753.07 1084.65 2752.65 1082.2C2752.27 1079.69 2751.66 1077.48 2750.81 1075.56C2750.01 1073.64 2748.94 1072.09 2747.61 1070.92C2746.27 1069.69 2744.67 1069.08 2742.81 1069.08C2740.94 1069.08 2739.31 1069.69 2737.93 1070.92C2736.59 1072.09 2735.47 1073.64 2734.57 1075.56C2733.71 1077.48 2733.07 1079.69 2732.65 1082.2C2732.27 1084.65 2732.09 1087.16 2732.09 1089.72C2732.09 1092.28 2732.27 1094.81 2732.65 1097.32C2733.07 1099.77 2733.71 1101.96 2734.57 1103.88C2735.47 1105.8 2736.59 1107.37 2737.93 1108.6C2739.31 1109.77 2740.94 1110.36 2742.81 1110.36C2744.67 1110.36 2746.27 1109.77 2747.61 1108.6C2748.94 1107.37 2750.01 1105.8 2750.81 1103.88C2751.66 1101.96 2752.27 1099.77 2752.65 1097.32C2753.07 1094.81 2753.29 1092.28 2753.29 1089.72ZM2788.52 1067.16C2788.52 1065.83 2788.95 1064.73 2789.8 1063.88C2790.71 1062.97 2791.8 1062.52 2793.08 1062.52C2794.42 1062.52 2795.54 1062.97 2796.44 1063.88C2797.35 1064.73 2797.8 1065.83 2797.8 1067.16C2797.8 1068.44 2797.35 1069.53 2796.44 1070.44C2795.54 1071.29 2794.42 1071.72 2793.08 1071.72C2791.8 1071.72 2790.71 1071.29 2789.8 1070.44C2788.95 1069.53 2788.52 1068.44 2788.52 1067.16ZM2797.16 1078.92V1110.12H2801.88V1113H2785.4V1110.12H2790.12V1081.8H2785.4V1078.92H2797.16ZM2804.89 1078.92H2810.09V1071.56L2817.05 1068.52V1078.92H2827.21V1081.8H2817.05V1104.44C2817.05 1105.93 2817.48 1107.16 2818.33 1108.12C2819.19 1109.08 2820.44 1109.56 2822.09 1109.56C2823.27 1109.56 2824.36 1109.21 2825.37 1108.52C2826.39 1107.83 2827.43 1106.89 2828.49 1105.72L2830.25 1107.48C2828.81 1109.51 2827.11 1111.08 2825.13 1112.2C2823.16 1113.27 2821.16 1113.8 2819.13 1113.8C2816.52 1113.8 2814.36 1113.08 2812.65 1111.64C2810.95 1110.15 2810.09 1108.04 2810.09 1105.32V1081.8H2804.89V1078.92ZM2848.11 1081.08C2846.35 1081.08 2844.59 1081.91 2842.83 1083.56C2841.07 1085.16 2839.98 1087.64 2839.55 1091H2855.39C2855.28 1088.17 2854.59 1085.83 2853.31 1083.96C2852.08 1082.04 2850.35 1081.08 2848.11 1081.08ZM2862.67 1107.48C2861.02 1109.72 2859.04 1111.35 2856.75 1112.36C2854.46 1113.32 2852.06 1113.8 2849.55 1113.8C2845.07 1113.8 2841.15 1112.25 2837.79 1109.16C2834.48 1106.07 2832.83 1101.96 2832.83 1096.84C2832.83 1091.61 2834.43 1087.19 2837.63 1083.56C2840.83 1079.93 2844.62 1078.12 2848.99 1078.12C2853.68 1078.12 2857.07 1079.72 2859.15 1082.92C2861.28 1086.07 2862.35 1089.72 2862.35 1093.88H2839.39C2839.44 1098.79 2840.8 1102.6 2843.47 1105.32C2846.19 1108.04 2849.2 1109.4 2852.51 1109.4C2853.9 1109.4 2855.36 1109.16 2856.91 1108.68C2858.46 1108.2 2859.9 1107.24 2861.23 1105.8L2862.67 1107.48ZM2885.75 1110.12V1113H2867.67V1110.12H2872.39V1081.8H2867.67V1078.92H2879.43V1084.84C2880.98 1083.35 2882.6 1081.85 2884.31 1080.36C2886.02 1078.87 2887.56 1078.12 2888.95 1078.12C2890.28 1078.12 2891.48 1078.47 2892.55 1079.16C2893.67 1079.85 2894.55 1080.57 2895.19 1081.32L2891.43 1087.16C2890.26 1086.31 2889.14 1085.56 2888.07 1084.92C2887.06 1084.28 2886.02 1083.96 2884.95 1083.96C2884.42 1083.96 2883.64 1084.15 2882.63 1084.52C2881.67 1084.84 2880.6 1085.53 2879.43 1086.6V1110.12H2885.75ZM2916.17 1092.76V1090.28C2916.17 1087.93 2915.56 1086.09 2914.33 1084.76C2913.11 1083.43 2911.35 1082.76 2909.05 1082.76C2907.29 1082.76 2905.67 1083.37 2904.17 1084.6C2902.73 1085.77 2901.56 1087.43 2900.65 1089.56L2897.69 1088.36C2898.92 1085.16 2900.73 1082.65 2903.13 1080.84C2905.59 1079.03 2908.36 1078.12 2911.45 1078.12C2915.03 1078.12 2917.88 1079.19 2920.01 1081.32C2922.15 1083.45 2923.21 1086.33 2923.21 1089.96V1106.92C2923.21 1107.83 2923.4 1108.52 2923.77 1109C2924.2 1109.48 2924.79 1109.72 2925.53 1109.72C2926.12 1109.72 2926.68 1109.61 2927.21 1109.4C2927.75 1109.13 2928.28 1108.76 2928.81 1108.28L2930.33 1110.28C2929.32 1111.4 2928.25 1112.28 2927.13 1112.92C2926.01 1113.51 2924.89 1113.8 2923.77 1113.8C2921.85 1113.8 2920.25 1113.32 2918.97 1112.36C2917.69 1111.35 2916.79 1109.91 2916.25 1108.04C2914.87 1109.75 2913.24 1111.13 2911.37 1112.2C2909.51 1113.21 2907.64 1113.72 2905.77 1113.72C2903.27 1113.72 2901.19 1112.97 2899.53 1111.48C2897.93 1109.93 2897.13 1107.96 2897.13 1105.56C2897.13 1103.53 2897.85 1101.77 2899.29 1100.28C2900.73 1098.79 2903.08 1097.45 2906.33 1096.28L2916.17 1092.76ZM2916.17 1105.8V1095.56L2909.45 1098.12C2907.59 1098.87 2906.23 1099.72 2905.37 1100.68C2904.52 1101.64 2904.09 1102.81 2904.09 1104.2C2904.09 1105.85 2904.49 1107.16 2905.29 1108.12C2906.15 1109.08 2907.29 1109.56 2908.73 1109.56C2910.01 1109.56 2911.29 1109.24 2912.57 1108.6C2913.85 1107.91 2915.05 1106.97 2916.17 1105.8ZM2931.07 1078.92H2936.27V1071.56L2943.23 1068.52V1078.92H2953.39V1081.8H2943.23V1104.44C2943.23 1105.93 2943.65 1107.16 2944.51 1108.12C2945.36 1109.08 2946.61 1109.56 2948.27 1109.56C2949.44 1109.56 2950.53 1109.21 2951.55 1108.52C2952.56 1107.83 2953.6 1106.89 2954.67 1105.72L2956.43 1107.48C2954.99 1109.51 2953.28 1111.08 2951.31 1112.2C2949.33 1113.27 2947.33 1113.8 2945.31 1113.8C2942.69 1113.8 2940.53 1113.08 2938.83 1111.64C2937.12 1110.15 2936.27 1108.04 2936.27 1105.32V1081.8H2931.07V1078.92ZM2961.88 1067.16C2961.88 1065.83 2962.31 1064.73 2963.16 1063.88C2964.07 1062.97 2965.16 1062.52 2966.44 1062.52C2967.78 1062.52 2968.9 1062.97 2969.8 1063.88C2970.71 1064.73 2971.16 1065.83 2971.16 1067.16C2971.16 1068.44 2970.71 1069.53 2969.8 1070.44C2968.9 1071.29 2967.78 1071.72 2966.44 1071.72C2965.16 1071.72 2964.07 1071.29 2963.16 1070.44C2962.31 1069.53 2961.88 1068.44 2961.88 1067.16ZM2970.52 1078.92V1110.12H2975.24V1113H2958.76V1110.12H2963.48V1081.8H2958.76V1078.92H2970.52ZM2996.57 1113.8C2994.55 1113.8 2992.55 1113.4 2990.57 1112.6C2988.6 1111.75 2986.84 1110.55 2985.29 1109C2983.8 1107.45 2982.57 1105.59 2981.61 1103.4C2980.71 1101.16 2980.25 1098.68 2980.25 1095.96C2980.25 1093.24 2980.71 1090.79 2981.61 1088.6C2982.57 1086.36 2983.8 1084.47 2985.29 1082.92C2986.84 1081.37 2988.6 1080.2 2990.57 1079.4C2992.55 1078.55 2994.55 1078.12 2996.57 1078.12C2998.6 1078.12 3000.6 1078.55 3002.57 1079.4C3004.55 1080.2 3006.28 1081.37 3007.77 1082.92C3009.32 1084.47 3010.55 1086.36 3011.45 1088.6C3012.41 1090.79 3012.89 1093.24 3012.89 1095.96C3012.89 1098.68 3012.41 1101.16 3011.45 1103.4C3010.55 1105.59 3009.32 1107.45 3007.77 1109C3006.28 1110.55 3004.55 1111.75 3002.57 1112.6C3000.6 1113.4 2998.6 1113.8 2996.57 1113.8ZM2996.57 1081.16C2993.96 1081.16 2991.8 1082.44 2990.09 1085C2988.44 1087.51 2987.61 1091.16 2987.61 1095.96C2987.61 1100.76 2988.44 1104.44 2990.09 1107C2991.8 1109.51 2993.96 1110.76 2996.57 1110.76C2999.19 1110.76 3001.32 1109.51 3002.97 1107C3004.68 1104.44 3005.53 1100.76 3005.53 1095.96C3005.53 1091.16 3004.68 1087.51 3002.97 1085C3001.32 1082.44 2999.19 1081.16 2996.57 1081.16ZM3034.7 1110.12V1113H3018.22V1110.12H3022.94V1081.8H3018.22V1078.92H3029.98V1083.8C3031.42 1082.47 3033.1 1081.19 3035.02 1079.96C3036.94 1078.73 3039.15 1078.12 3041.66 1078.12C3045.18 1078.12 3047.66 1079.29 3049.1 1081.64C3050.59 1083.93 3051.34 1086.68 3051.34 1089.88V1110.12H3056.06V1113H3039.58V1110.12H3044.3V1091.72C3044.3 1089.43 3043.92 1087.35 3043.18 1085.48C3042.48 1083.56 3040.86 1082.6 3038.3 1082.6C3036.8 1082.6 3035.36 1082.87 3033.98 1083.4C3032.64 1083.88 3031.31 1084.68 3029.98 1085.8V1110.12H3034.7ZM3061.84 1087.8C3061.84 1085.03 3062.86 1082.73 3064.88 1080.92C3066.96 1079.05 3069.52 1078.12 3072.56 1078.12C3074.11 1078.12 3075.52 1078.39 3076.8 1078.92C3078.08 1079.4 3079.23 1080.15 3080.24 1081.16L3081.04 1078.44H3083.36V1089.48H3080.72C3080.19 1086.71 3079.23 1084.6 3077.84 1083.16C3076.51 1081.72 3074.8 1081 3072.72 1081C3071.12 1081 3069.82 1081.45 3068.8 1082.36C3067.79 1083.27 3067.28 1084.44 3067.28 1085.88C3067.28 1086.89 3067.6 1087.77 3068.24 1088.52C3068.88 1089.27 3070.24 1090.17 3072.32 1091.24L3078 1094.12C3080.56 1095.4 3082.38 1096.76 3083.44 1098.2C3084.51 1099.59 3085.04 1101.27 3085.04 1103.24C3085.04 1106.28 3083.87 1108.81 3081.52 1110.84C3079.18 1112.81 3076.3 1113.8 3072.88 1113.8C3071.12 1113.8 3069.47 1113.45 3067.92 1112.76C3066.38 1112.07 3065.12 1111.13 3064.16 1109.96L3063.44 1113H3061.04V1100.6H3063.76C3064.14 1103.85 3065.12 1106.36 3066.72 1108.12C3068.32 1109.88 3070.32 1110.76 3072.72 1110.76C3074.7 1110.76 3076.27 1110.28 3077.44 1109.32C3078.62 1108.36 3079.2 1107.11 3079.2 1105.56C3079.2 1104.39 3078.88 1103.43 3078.24 1102.68C3077.66 1101.88 3076.62 1101.11 3075.12 1100.36L3068.64 1097.16C3066.19 1095.93 3064.43 1094.6 3063.36 1093.16C3062.35 1091.67 3061.84 1089.88 3061.84 1087.8Z" fill="white"/>
<defs>
<filter id="filter0_d_12_3" x="499" y="0.848145" width="296" height="304.926" filterUnits="userSpaceOnUse" color-interpolation-filters="sRGB">
<feFlood flood-opacity="0" result="BackgroundImageFix"/>
<feColorMatrix in="SourceAlpha" type="matrix" values="0 0 0 0 0 0 0 0 0 0 0 0 0 0 0 0 0 0 127 0" result="hardAlpha"/>
<feMorphology radius="7" operator="dilate" in="SourceAlpha" result="effect1_dropShadow_12_3"/>
<feOffset dy="4"/>
<feGaussianBlur stdDeviation="16"/>
<feComposite in2="hardAlpha" operator="out"/>
<feColorMatrix type="matrix" values="0 0 0 0 1 0 0 0 0 0.6 0 0 0 0 0 0 0 0 0.98 0"/>
<feBlend mode="normal" in2="BackgroundImageFix" result="effect1_dropShadow_12_3"/>
<feBlend mode="normal" in="SourceGraphic" in2="effect1_dropShadow_12_3" result="shape"/>
</filter>
<radialGradient id="paint0_radial_12_3" cx="0" cy="0" r="1" gradientUnits="userSpaceOnUse" gradientTransform="translate(547.909 173.313) rotate(70.1984) scale(426.716 317.095)">
<stop stop-color="#FF8A00"/>
<stop offset="1" stop-color="#FFBA07"/>
</radialGradient>
<radialGradient id="paint1_radial_12_3" cx="0" cy="0" r="1" gradientUnits="userSpaceOnUse" gradientTransform="translate(546.091 175.154) rotate(70.4772) scale(440.505 323.476)">
<stop stop-color="#FF8A00"/>
<stop offset="1" stop-color="#FFBA07"/>
</radialGradient>
<radialGradient id="paint2_radial_12_3" cx="0" cy="0" r="1" gradientUnits="userSpaceOnUse" gradientTransform="translate(634.591 521.82) rotate(16.1017) scale(1496.99 929.992)">
<stop stop-color="white" stop-opacity="0.19"/>
<stop offset="1" stop-color="white" stop-opacity="0.32"/>
</radialGradient>
<radialGradient id="paint3_radial_12_3" cx="0" cy="0" r="1" gradientUnits="userSpaceOnUse" gradientTransform="translate(637.364 868.487) rotate(15.6832) scale(1535.9 931.928)">
<stop stop-color="white" stop-opacity="0.19"/>
<stop offset="1" stop-color="white" stop-opacity="0.32"/>
</radialGradient>
</defs>
</svg>
