<svg width="3088" height="1133" viewBox="0 0 3088 1133" fill="none" xmlns="http://www.w3.org/2000/svg">
<rect width="3088" height="1126" transform="translate(0 7)" fill="#1E1E20"/>
<path d="M217.679 139.633V135.433H236.679V139.633L231.079 140.833L214.679 183.733H208.779L190.679 140.533L185.479 139.633V135.433H211.779V139.633L204.079 140.833L215.079 169.833L224.979 140.933L217.679 139.633ZM240.641 183.333V179.233L247.241 177.933C247.308 175.466 247.341 172.8 247.341 169.933C247.341 167 247.341 164.466 247.341 162.333V157.633C247.341 154.9 247.308 152.633 247.241 150.833C247.241 148.966 247.175 147.033 247.041 145.033L239.941 144.133V140.333L257.941 134.033L259.541 135.033L259.241 149.133V162.333C259.241 164.466 259.241 167 259.241 169.933C259.241 172.8 259.275 175.5 259.341 178.033L265.441 179.233V183.333H240.641ZM253.241 124.733C251.108 124.733 249.308 124.066 247.841 122.733C246.375 121.4 245.641 119.7 245.641 117.633C245.641 115.5 246.375 113.766 247.841 112.433C249.308 111.1 251.108 110.433 253.241 110.433C255.375 110.433 257.141 111.1 258.541 112.433C260.008 113.766 260.741 115.5 260.741 117.633C260.741 119.7 260.008 121.4 258.541 122.733C257.141 124.066 255.375 124.733 253.241 124.733ZM295.405 138.833C293.805 138.833 292.205 139.366 290.605 140.433C289.072 141.433 287.739 143.1 286.605 145.433C285.539 147.766 284.872 150.933 284.605 154.933H298.305C300.705 154.933 302.305 154.433 303.105 153.433C303.905 152.433 304.305 151.033 304.305 149.233C304.305 146.166 303.439 143.666 301.705 141.733C299.972 139.8 297.872 138.833 295.405 138.833ZM295.405 184.733C290.739 184.733 286.639 183.733 283.105 181.733C279.572 179.733 276.805 176.866 274.805 173.133C272.805 169.333 271.805 164.833 271.805 159.633C271.805 154.3 272.939 149.733 275.205 145.933C277.539 142.066 280.539 139.133 284.205 137.133C287.939 135.066 291.905 134.033 296.105 134.033C300.039 134.033 303.472 134.866 306.405 136.533C309.339 138.2 311.605 140.533 313.205 143.533C314.872 146.533 315.705 150.066 315.705 154.133C315.705 156.266 315.505 158.1 315.105 159.633H284.505C284.772 165.366 286.272 169.666 289.005 172.533C291.805 175.4 295.305 176.833 299.505 176.833C302.439 176.833 304.905 176.266 306.905 175.133C308.972 173.933 310.839 172.4 312.505 170.533L315.405 173.133C313.472 176.8 310.805 179.666 307.405 181.733C304.072 183.733 300.072 184.733 295.405 184.733ZM322.97 183.333V179.233L329.47 177.933C329.537 175.466 329.57 172.8 329.57 169.933C329.57 167 329.57 164.466 329.57 162.333V157.033C329.57 154.3 329.537 152.133 329.47 150.533C329.47 148.866 329.404 147.033 329.27 145.033L322.27 144.133V140.333L338.97 134.033L340.57 135.033L341.27 142.833C343.67 140.1 346.27 137.966 349.07 136.433C351.937 134.833 354.904 134.033 357.97 134.033C364.437 134.033 368.604 137.066 370.47 143.133C373.137 139.933 375.904 137.633 378.77 136.233C381.637 134.766 384.604 134.033 387.67 134.033C392.204 134.033 395.604 135.433 397.87 138.233C400.137 141.033 401.27 145.5 401.27 151.633V162.333C401.27 164.6 401.27 167.166 401.27 170.033C401.27 172.833 401.304 175.5 401.37 178.033L407.47 179.233V183.333H383.07V179.233L389.27 177.933C389.337 175.466 389.37 172.833 389.37 170.033C389.37 167.166 389.37 164.6 389.37 162.333V153.133C389.37 148.933 388.804 146.1 387.67 144.633C386.604 143.166 384.804 142.433 382.27 142.433C378.737 142.433 375.07 144.133 371.27 147.533C371.337 148.2 371.37 148.9 371.37 149.633C371.437 150.366 371.47 151.133 371.47 151.933V162.333C371.47 164.6 371.47 167.166 371.47 170.033C371.47 172.833 371.504 175.5 371.57 178.033L377.57 179.233V183.333H353.07V179.233L359.47 177.933C359.537 175.466 359.57 172.833 359.57 170.033C359.57 167.166 359.57 164.6 359.57 162.333V153.333C359.57 149.266 359.037 146.433 357.97 144.833C356.97 143.233 355.17 142.433 352.57 142.433C350.704 142.433 348.837 142.9 346.97 143.833C345.17 144.7 343.404 145.9 341.67 147.433V162.333C341.67 164.533 341.67 167.066 341.67 169.933C341.67 172.8 341.704 175.5 341.77 178.033L347.67 179.233V183.333H322.97Z" fill="white"/>
<g filter="url(#filter0_d_422_76)">
<rect x="538" y="35.8398" width="218" height="226.281" rx="16" fill="url(#paint0_radial_422_76)" fill-opacity="0.96" shape-rendering="crispEdges"/>
</g>
<rect x="536" y="33" width="222" height="234" rx="16" fill="url(#paint1_radial_422_76)" fill-opacity="0.96"/>
<path d="M2870.97 147.46C2870.97 152.873 2871.35 157.05 2872.09 159.99C2872.89 162.93 2873.91 164.96 2875.17 166.08C2876.43 167.2 2877.79 167.76 2879.23 167.76C2880.63 167.76 2881.94 167.2 2883.15 166.08C2884.41 164.913 2885.42 162.86 2886.16 159.92C2886.96 156.98 2887.35 152.827 2887.35 147.46C2887.35 142 2886.96 137.8 2886.16 134.86C2885.42 131.92 2884.41 129.89 2883.15 128.77C2881.94 127.603 2880.63 127.02 2879.23 127.02C2878.16 127.02 2877.11 127.323 2876.08 127.93C2875.1 128.537 2874.22 129.587 2873.42 131.08C2872.68 132.573 2872.07 134.65 2871.6 137.31C2871.18 139.97 2870.97 143.353 2870.97 147.46ZM2879.23 123.87C2881.71 123.87 2884.04 124.64 2886.23 126.18C2888.47 127.673 2890.29 130.147 2891.69 133.6C2893.14 137.053 2893.86 141.673 2893.86 147.46C2893.86 153.2 2893.14 157.797 2891.69 161.25C2890.29 164.657 2888.47 167.13 2886.23 168.67C2884.04 170.163 2881.71 170.91 2879.23 170.91C2876.76 170.91 2874.38 170.163 2872.09 168.67C2869.85 167.13 2868.03 164.657 2866.63 161.25C2865.23 157.797 2864.53 153.2 2864.53 147.46C2864.53 141.673 2865.23 137.053 2866.63 133.6C2868.03 130.147 2869.85 127.673 2872.09 126.18C2874.38 124.64 2876.76 123.87 2879.23 123.87ZM2907.16 170.91C2905.76 170.91 2904.57 170.42 2903.59 169.44C2902.66 168.46 2902.19 167.293 2902.19 165.94C2902.19 164.54 2902.66 163.35 2903.59 162.37C2904.57 161.39 2905.76 160.9 2907.16 160.9C2908.56 160.9 2909.73 161.39 2910.66 162.37C2911.64 163.35 2912.13 164.54 2912.13 165.94C2912.13 167.293 2911.64 168.46 2910.66 169.44C2909.73 170.42 2908.56 170.91 2907.16 170.91ZM2951.53 156.49H2944.18V170H2938.37V156.49H2919.33V152.78L2940.12 124.15H2944.18V152.08H2951.53V156.49ZM2923.53 152.08H2938.37V131.43L2923.53 152.08ZM2984.71 155.93C2984.71 158.917 2984.03 161.53 2982.68 163.77C2981.33 166.01 2979.41 167.76 2976.94 169.02C2974.51 170.28 2971.67 170.91 2968.4 170.91C2961.17 170.91 2956.8 167.62 2955.31 161.04C2955.92 159.453 2957.11 158.66 2958.88 158.66C2959.95 158.66 2960.77 158.987 2961.33 159.64C2961.94 160.293 2962.47 161.553 2962.94 163.42L2963.92 167.2C2964.62 167.387 2965.3 167.527 2965.95 167.62C2966.65 167.713 2967.3 167.76 2967.91 167.76C2971.36 167.76 2973.98 166.757 2975.75 164.75C2977.52 162.697 2978.41 159.99 2978.41 156.63C2978.41 153.13 2977.43 150.47 2975.47 148.65C2973.51 146.783 2970.85 145.85 2967.49 145.85C2965.48 145.85 2963.34 146.107 2961.05 146.62L2959.09 146.06L2960.56 124.78H2983.45V130.52H2963.64L2962.8 142.42C2964.9 141.86 2967.09 141.58 2969.38 141.58C2973.95 141.58 2977.64 142.817 2980.44 145.29C2983.29 147.717 2984.71 151.263 2984.71 155.93ZM3001.65 170.91C2999.69 170.91 2997.89 170.677 2996.26 170.21C2994.63 169.79 2992.95 169.137 2991.22 168.25L2990.94 160.55H2994.79L2996.12 166.64C2997.75 167.387 2999.64 167.76 3001.79 167.76C3004.45 167.76 3006.41 167.27 3007.67 166.29C3008.98 165.31 3009.63 164.027 3009.63 162.44C3009.63 160.947 3009.09 159.757 3008.02 158.87C3006.95 157.937 3005.31 157.097 3003.12 156.35L2999.9 155.16C2997.33 154.227 2995.28 153.013 2993.74 151.52C2992.2 150.027 2991.43 148.09 2991.43 145.71C2991.43 143.983 2991.9 142.373 2992.83 140.88C2993.76 139.387 2995.14 138.173 2996.96 137.24C2998.78 136.307 3001 135.84 3003.61 135.84C3005.52 135.84 3007.25 136.097 3008.79 136.61C3010.38 137.077 3011.92 137.777 3013.41 138.71L3013.13 145.85H3009.49L3008.37 140.25C3006.78 139.457 3005.17 139.06 3003.54 139.06C3001.39 139.06 2999.76 139.503 2998.64 140.39C2997.57 141.23 2997.03 142.373 2997.03 143.82C2997.03 145.36 2997.5 146.527 2998.43 147.32C2999.41 148.113 3001.09 148.953 3003.47 149.84L3005.64 150.61C3009.14 151.917 3011.61 153.41 3013.06 155.09C3014.55 156.77 3015.3 158.707 3015.3 160.9C3015.3 162.673 3014.79 164.33 3013.76 165.87C3012.73 167.363 3011.22 168.577 3009.21 169.51C3007.2 170.443 3004.68 170.91 3001.65 170.91Z" fill="white"/>
<rect x="521.5" y="18.5" width="2555" height="263" rx="30.5" stroke="white" stroke-opacity="0.23" stroke-width="3"/>
<path d="M37.3 485C35.7 485 34.1 485.533 32.5 486.6C30.9667 487.6 29.6333 489.267 28.5 491.6C27.4333 493.933 26.7667 497.1 26.5 501.1H40.2C42.6 501.1 44.2 500.6 45 499.6C45.8 498.6 46.2 497.2 46.2 495.4C46.2 492.333 45.3333 489.833 43.6 487.9C41.8667 485.967 39.7667 485 37.3 485ZM37.3 530.9C32.6333 530.9 28.5333 529.9 25 527.9C21.4667 525.9 18.7 523.033 16.7 519.3C14.7 515.5 13.7 511 13.7 505.8C13.7 500.467 14.8333 495.9 17.1 492.1C19.4333 488.233 22.4333 485.3 26.1 483.3C29.8333 481.233 33.8 480.2 38 480.2C41.9333 480.2 45.3667 481.033 48.3 482.7C51.2333 484.367 53.5 486.7 55.1 489.7C56.7667 492.7 57.6 496.233 57.6 500.3C57.6 502.433 57.4 504.267 57 505.8H26.4C26.6667 511.533 28.1667 515.833 30.9 518.7C33.7 521.567 37.2 523 41.4 523C44.3333 523 46.8 522.433 48.8 521.3C50.8667 520.1 52.7333 518.567 54.4 516.7L57.3 519.3C55.3667 522.967 52.7 525.833 49.3 527.9C45.9667 529.9 41.9667 530.9 37.3 530.9ZM82.5648 530.9C78.5648 530.9 75.4315 529.9 73.1648 527.9C70.8982 525.9 69.7648 522.7 69.7648 518.3C69.7648 516.767 69.7648 515.333 69.7648 514C69.8315 512.6 69.8648 510.933 69.8648 509V487.7H62.4648V482.5L70.5648 481.5L74.3648 467.8H82.4648L82.0648 481.6H94.0648V487.7H81.9648V517.2C81.9648 519.667 82.4315 521.467 83.3648 522.6C84.3648 523.733 85.6648 524.3 87.2648 524.3C89.0648 524.3 91.0982 523.467 93.3648 521.8L95.7648 524.3C94.4982 526.367 92.7648 528 90.5648 529.2C88.3648 530.333 85.6982 530.9 82.5648 530.9ZM98.4469 529.5V525.4L105.047 524.1C105.114 521.633 105.147 518.967 105.147 516.1C105.147 513.167 105.147 510.633 105.147 508.5V465.6L97.8469 464.6V460.7L115.747 456.2L117.247 457.1L116.847 471.2V489.1C121.98 483.167 127.68 480.2 133.947 480.2C138.28 480.2 141.647 481.633 144.047 484.5C146.447 487.367 147.647 491.9 147.647 498.1V508.5C147.647 510.767 147.647 513.333 147.647 516.2C147.647 519.067 147.68 521.733 147.747 524.2L153.847 525.4V529.5H129.147V525.4L135.547 524.1C135.614 521.633 135.647 519 135.647 516.2C135.647 513.333 135.647 510.767 135.647 508.5V499C135.647 495.067 135.114 492.367 134.047 490.9C133.047 489.367 131.28 488.6 128.747 488.6C125.014 488.6 121.147 490.5 117.147 494.3V508.5C117.147 510.7 117.147 513.233 117.147 516.1C117.147 518.967 117.18 521.667 117.247 524.2L123.147 525.4V529.5H98.4469ZM183.784 485C182.184 485 180.584 485.533 178.984 486.6C177.451 487.6 176.118 489.267 174.984 491.6C173.918 493.933 173.251 497.1 172.984 501.1H186.684C189.084 501.1 190.684 500.6 191.484 499.6C192.284 498.6 192.684 497.2 192.684 495.4C192.684 492.333 191.818 489.833 190.084 487.9C188.351 485.967 186.251 485 183.784 485ZM183.784 530.9C179.118 530.9 175.018 529.9 171.484 527.9C167.951 525.9 165.184 523.033 163.184 519.3C161.184 515.5 160.184 511 160.184 505.8C160.184 500.467 161.318 495.9 163.584 492.1C165.918 488.233 168.918 485.3 172.584 483.3C176.318 481.233 180.284 480.2 184.484 480.2C188.418 480.2 191.851 481.033 194.784 482.7C197.718 484.367 199.984 486.7 201.584 489.7C203.251 492.7 204.084 496.233 204.084 500.3C204.084 502.433 203.884 504.267 203.484 505.8H172.884C173.151 511.533 174.651 515.833 177.384 518.7C180.184 521.567 183.684 523 187.884 523C190.818 523 193.284 522.433 195.284 521.3C197.351 520.1 199.218 518.567 200.884 516.7L203.784 519.3C201.851 522.967 199.184 525.833 195.784 527.9C192.451 529.9 188.451 530.9 183.784 530.9ZM211.449 529.5V525.4L217.849 524.2C217.916 521.667 217.949 518.967 217.949 516.1C217.949 513.167 217.949 510.633 217.949 508.5V503.2C217.949 500.467 217.916 498.3 217.849 496.7C217.849 495.033 217.783 493.2 217.649 491.2L210.649 490.3V486.5L227.349 480.2L228.949 481.2L229.949 493C231.483 488.867 233.549 485.7 236.149 483.5C238.749 481.3 241.349 480.2 243.949 480.2C245.749 480.2 247.383 480.667 248.849 481.6C250.383 482.533 251.383 483.867 251.849 485.6C251.783 488.067 251.183 490 250.049 491.4C248.916 492.733 247.349 493.4 245.349 493.4C242.949 493.4 240.683 492.2 238.549 489.8L237.649 488.8C234.116 491.733 231.583 495.867 230.049 501.2V508.5C230.049 510.567 230.049 513.033 230.049 515.9C230.049 518.7 230.083 521.333 230.149 523.8L238.349 525.4V529.5H211.449ZM271.509 530.9C268.442 530.9 265.609 530.533 263.009 529.8C260.475 529.133 257.942 528.1 255.409 526.7L255.309 515.1H262.009L263.809 524.4C266.209 525.4 268.809 525.9 271.609 525.9C275.009 525.9 277.542 525.3 279.209 524.1C280.875 522.9 281.709 521.233 281.709 519.1C281.709 517.233 281.042 515.733 279.709 514.6C278.375 513.4 276.109 512.267 272.909 511.2L267.909 509.5C264.175 508.3 261.209 506.533 259.009 504.2C256.875 501.867 255.809 498.933 255.809 495.4C255.809 492.6 256.542 490.067 258.009 487.8C259.475 485.467 261.609 483.633 264.409 482.3C267.275 480.9 270.742 480.2 274.809 480.2C277.675 480.2 280.275 480.567 282.609 481.3C285.009 481.967 287.375 482.967 289.709 484.3L289.209 494.8H282.609L280.809 486.4C278.942 485.6 276.875 485.2 274.609 485.2C271.942 485.2 269.875 485.767 268.409 486.9C266.942 488.033 266.209 489.567 266.209 491.5C266.209 493.3 266.809 494.767 268.009 495.9C269.275 496.967 271.609 498.067 275.009 499.2L279.009 500.4C283.875 502.067 287.342 504.133 289.409 506.6C291.475 509.067 292.509 512.033 292.509 515.5C292.509 519.967 290.675 523.667 287.009 526.6C283.409 529.467 278.242 530.9 271.509 530.9ZM349.905 485.8V481.6H368.905V485.8L363.305 487L346.905 529.9H341.005L322.905 486.7L317.705 485.8V481.6H344.005V485.8L336.305 487L347.305 516L357.205 487.1L349.905 485.8ZM395.768 526C398.635 526 401.001 524.667 402.868 522C404.735 519.267 405.668 515.267 405.668 510C405.668 505.6 404.768 502.233 402.968 499.9C401.235 497.567 398.868 496.4 395.868 496.4C394.201 496.4 392.501 496.667 390.768 497.2C389.101 497.733 387.435 498.667 385.768 500C385.701 500.867 385.635 501.767 385.568 502.7C385.568 503.633 385.568 504.567 385.568 505.5C385.568 512.567 386.501 517.767 388.368 521.1C390.235 524.367 392.701 526 395.768 526ZM417.968 509.2C417.968 513.733 416.901 517.633 414.768 520.9C412.635 524.167 409.901 526.667 406.568 528.4C403.235 530.067 399.735 530.9 396.068 530.9C389.068 530.9 383.468 528.5 379.268 523.7C375.135 518.9 373.068 512.233 373.068 503.7C373.068 496.9 374.701 490.7 377.968 485.1C381.301 479.433 386.001 474.767 392.068 471.1C398.201 467.367 405.435 465.067 413.768 464.2L414.368 468.3C406.101 470.433 399.701 473.8 395.168 478.4C390.701 482.933 387.801 488.567 386.468 495.3C390.535 491.767 395.201 490 400.468 490C404.268 490 407.468 490.867 410.068 492.6C412.668 494.267 414.635 496.533 415.968 499.4C417.301 502.267 417.968 505.533 417.968 509.2Z" fill="white"/>
<rect x="537.5" y="380.5" width="2166" height="231" rx="14.5" fill="url(#paint2_radial_422_76)" fill-opacity="0.96" stroke="#787878" stroke-width="3"/>
<path d="M2873.56 490.45H2876.36C2879.54 490.45 2881.99 489.633 2883.71 488C2885.49 486.367 2886.37 484.057 2886.37 481.07C2886.37 478.503 2885.63 476.52 2884.13 475.12C2882.69 473.72 2880.59 473.02 2877.83 473.02C2877.37 473.02 2876.88 473.043 2876.36 473.09C2875.85 473.137 2875.27 473.207 2874.61 473.3L2873.7 476.8C2873.33 478.247 2872.86 479.343 2872.3 480.09C2871.74 480.79 2870.86 481.14 2869.64 481.14C2868.9 481.14 2868.22 480.953 2867.61 480.58C2867.01 480.207 2866.56 479.577 2866.28 478.69C2866.89 475.75 2868.36 473.557 2870.69 472.11C2873.03 470.617 2875.8 469.87 2879.02 469.87C2883.13 469.87 2886.4 470.897 2888.82 472.95C2891.25 474.957 2892.46 477.593 2892.46 480.86C2892.46 483.38 2891.65 485.643 2890.01 487.65C2888.43 489.61 2886.19 491.103 2883.29 492.13C2886.89 492.83 2889.55 494.183 2891.27 496.19C2893 498.197 2893.86 500.647 2893.86 503.54C2893.86 506.06 2893.21 508.323 2891.9 510.33C2890.6 512.337 2888.78 513.947 2886.44 515.16C2884.11 516.327 2881.36 516.91 2878.18 516.91C2874.78 516.91 2871.84 516.14 2869.36 514.6C2866.94 513.013 2865.4 510.47 2864.74 506.97C2865.54 505.43 2866.73 504.66 2868.31 504.66C2869.53 504.66 2870.39 505.057 2870.9 505.85C2871.46 506.643 2871.98 507.927 2872.44 509.7L2873.35 513.34C2874.15 513.527 2874.87 513.643 2875.52 513.69C2876.18 513.737 2876.76 513.76 2877.27 513.76C2880.73 513.76 2883.32 512.873 2885.04 511.1C2886.77 509.28 2887.63 506.807 2887.63 503.68C2887.63 500.647 2886.75 498.267 2884.97 496.54C2883.2 494.813 2880.52 493.95 2876.92 493.95H2873.56V490.45ZM2907.16 516.91C2905.76 516.91 2904.57 516.42 2903.59 515.44C2902.66 514.46 2902.19 513.293 2902.19 511.94C2902.19 510.54 2902.66 509.35 2903.59 508.37C2904.57 507.39 2905.76 506.9 2907.16 506.9C2908.56 506.9 2909.73 507.39 2910.66 508.37C2911.64 509.35 2912.13 510.54 2912.13 511.94C2912.13 513.293 2911.64 514.46 2910.66 515.44C2909.73 516.42 2908.56 516.91 2907.16 516.91ZM2926.96 515.3L2945.44 476.52H2921.22V470.78H2950.13V474.35L2933.47 516H2927.66L2926.96 515.3ZM2984.71 501.93C2984.71 504.917 2984.03 507.53 2982.68 509.77C2981.33 512.01 2979.41 513.76 2976.94 515.02C2974.51 516.28 2971.67 516.91 2968.4 516.91C2961.17 516.91 2956.8 513.62 2955.31 507.04C2955.92 505.453 2957.11 504.66 2958.88 504.66C2959.95 504.66 2960.77 504.987 2961.33 505.64C2961.94 506.293 2962.47 507.553 2962.94 509.42L2963.92 513.2C2964.62 513.387 2965.3 513.527 2965.95 513.62C2966.65 513.713 2967.3 513.76 2967.91 513.76C2971.36 513.76 2973.98 512.757 2975.75 510.75C2977.52 508.697 2978.41 505.99 2978.41 502.63C2978.41 499.13 2977.43 496.47 2975.47 494.65C2973.51 492.783 2970.85 491.85 2967.49 491.85C2965.48 491.85 2963.34 492.107 2961.05 492.62L2959.09 492.06L2960.56 470.78H2983.45V476.52H2963.64L2962.8 488.42C2964.9 487.86 2967.09 487.58 2969.38 487.58C2973.95 487.58 2977.64 488.817 2980.44 491.29C2983.29 493.717 2984.71 497.263 2984.71 501.93ZM3001.65 516.91C2999.69 516.91 2997.89 516.677 2996.26 516.21C2994.63 515.79 2992.95 515.137 2991.22 514.25L2990.94 506.55H2994.79L2996.12 512.64C2997.75 513.387 2999.64 513.76 3001.79 513.76C3004.45 513.76 3006.41 513.27 3007.67 512.29C3008.98 511.31 3009.63 510.027 3009.63 508.44C3009.63 506.947 3009.09 505.757 3008.02 504.87C3006.95 503.937 3005.31 503.097 3003.12 502.35L2999.9 501.16C2997.33 500.227 2995.28 499.013 2993.74 497.52C2992.2 496.027 2991.43 494.09 2991.43 491.71C2991.43 489.983 2991.9 488.373 2992.83 486.88C2993.76 485.387 2995.14 484.173 2996.96 483.24C2998.78 482.307 3001 481.84 3003.61 481.84C3005.52 481.84 3007.25 482.097 3008.79 482.61C3010.38 483.077 3011.92 483.777 3013.41 484.71L3013.13 491.85H3009.49L3008.37 486.25C3006.78 485.457 3005.17 485.06 3003.54 485.06C3001.39 485.06 2999.76 485.503 2998.64 486.39C2997.57 487.23 2997.03 488.373 2997.03 489.82C2997.03 491.36 2997.5 492.527 2998.43 493.32C2999.41 494.113 3001.09 494.953 3003.47 495.84L3005.64 496.61C3009.14 497.917 3011.61 499.41 3013.06 501.09C3014.55 502.77 3015.3 504.707 3015.3 506.9C3015.3 508.673 3014.79 510.33 3013.76 511.87C3012.73 513.363 3011.22 514.577 3009.21 515.51C3007.2 516.443 3004.68 516.91 3001.65 516.91Z" fill="white"/>
<rect x="521.5" y="364.5" width="2555" height="263" rx="30.5" stroke="white" stroke-opacity="0.23" stroke-width="3"/>
<path d="M37.3 831C35.7 831 34.1 831.533 32.5 832.6C30.9667 833.6 29.6333 835.267 28.5 837.6C27.4333 839.933 26.7667 843.1 26.5 847.1H40.2C42.6 847.1 44.2 846.6 45 845.6C45.8 844.6 46.2 843.2 46.2 841.4C46.2 838.333 45.3333 835.833 43.6 833.9C41.8667 831.967 39.7667 831 37.3 831ZM37.3 876.9C32.6333 876.9 28.5333 875.9 25 873.9C21.4667 871.9 18.7 869.033 16.7 865.3C14.7 861.5 13.7 857 13.7 851.8C13.7 846.467 14.8333 841.9 17.1 838.1C19.4333 834.233 22.4333 831.3 26.1 829.3C29.8333 827.233 33.8 826.2 38 826.2C41.9333 826.2 45.3667 827.033 48.3 828.7C51.2333 830.367 53.5 832.7 55.1 835.7C56.7667 838.7 57.6 842.233 57.6 846.3C57.6 848.433 57.4 850.267 57 851.8H26.4C26.6667 857.533 28.1667 861.833 30.9 864.7C33.7 867.567 37.2 869 41.4 869C44.3333 869 46.8 868.433 48.8 867.3C50.8667 866.1 52.7333 864.567 54.4 862.7L57.3 865.3C55.3667 868.967 52.7 871.833 49.3 873.9C45.9667 875.9 41.9667 876.9 37.3 876.9ZM82.5648 876.9C78.5648 876.9 75.4315 875.9 73.1648 873.9C70.8982 871.9 69.7648 868.7 69.7648 864.3C69.7648 862.767 69.7648 861.333 69.7648 860C69.8315 858.6 69.8648 856.933 69.8648 855V833.7H62.4648V828.5L70.5648 827.5L74.3648 813.8H82.4648L82.0648 827.6H94.0648V833.7H81.9648V863.2C81.9648 865.667 82.4315 867.467 83.3648 868.6C84.3648 869.733 85.6648 870.3 87.2648 870.3C89.0648 870.3 91.0982 869.467 93.3648 867.8L95.7648 870.3C94.4982 872.367 92.7648 874 90.5648 875.2C88.3648 876.333 85.6982 876.9 82.5648 876.9ZM98.4469 875.5V871.4L105.047 870.1C105.114 867.633 105.147 864.967 105.147 862.1C105.147 859.167 105.147 856.633 105.147 854.5V811.6L97.8469 810.6V806.7L115.747 802.2L117.247 803.1L116.847 817.2V835.1C121.98 829.167 127.68 826.2 133.947 826.2C138.28 826.2 141.647 827.633 144.047 830.5C146.447 833.367 147.647 837.9 147.647 844.1V854.5C147.647 856.767 147.647 859.333 147.647 862.2C147.647 865.067 147.68 867.733 147.747 870.2L153.847 871.4V875.5H129.147V871.4L135.547 870.1C135.614 867.633 135.647 865 135.647 862.2C135.647 859.333 135.647 856.767 135.647 854.5V845C135.647 841.067 135.114 838.367 134.047 836.9C133.047 835.367 131.28 834.6 128.747 834.6C125.014 834.6 121.147 836.5 117.147 840.3V854.5C117.147 856.7 117.147 859.233 117.147 862.1C117.147 864.967 117.18 867.667 117.247 870.2L123.147 871.4V875.5H98.4469ZM183.784 831C182.184 831 180.584 831.533 178.984 832.6C177.451 833.6 176.118 835.267 174.984 837.6C173.918 839.933 173.251 843.1 172.984 847.1H186.684C189.084 847.1 190.684 846.6 191.484 845.6C192.284 844.6 192.684 843.2 192.684 841.4C192.684 838.333 191.818 835.833 190.084 833.9C188.351 831.967 186.251 831 183.784 831ZM183.784 876.9C179.118 876.9 175.018 875.9 171.484 873.9C167.951 871.9 165.184 869.033 163.184 865.3C161.184 861.5 160.184 857 160.184 851.8C160.184 846.467 161.318 841.9 163.584 838.1C165.918 834.233 168.918 831.3 172.584 829.3C176.318 827.233 180.284 826.2 184.484 826.2C188.418 826.2 191.851 827.033 194.784 828.7C197.718 830.367 199.984 832.7 201.584 835.7C203.251 838.7 204.084 842.233 204.084 846.3C204.084 848.433 203.884 850.267 203.484 851.8H172.884C173.151 857.533 174.651 861.833 177.384 864.7C180.184 867.567 183.684 869 187.884 869C190.818 869 193.284 868.433 195.284 867.3C197.351 866.1 199.218 864.567 200.884 862.7L203.784 865.3C201.851 868.967 199.184 871.833 195.784 873.9C192.451 875.9 188.451 876.9 183.784 876.9ZM211.449 875.5V871.4L217.849 870.2C217.916 867.667 217.949 864.967 217.949 862.1C217.949 859.167 217.949 856.633 217.949 854.5V849.2C217.949 846.467 217.916 844.3 217.849 842.7C217.849 841.033 217.783 839.2 217.649 837.2L210.649 836.3V832.5L227.349 826.2L228.949 827.2L229.949 839C231.483 834.867 233.549 831.7 236.149 829.5C238.749 827.3 241.349 826.2 243.949 826.2C245.749 826.2 247.383 826.667 248.849 827.6C250.383 828.533 251.383 829.867 251.849 831.6C251.783 834.067 251.183 836 250.049 837.4C248.916 838.733 247.349 839.4 245.349 839.4C242.949 839.4 240.683 838.2 238.549 835.8L237.649 834.8C234.116 837.733 231.583 841.867 230.049 847.2V854.5C230.049 856.567 230.049 859.033 230.049 861.9C230.049 864.7 230.083 867.333 230.149 869.8L238.349 871.4V875.5H211.449ZM271.509 876.9C268.442 876.9 265.609 876.533 263.009 875.8C260.475 875.133 257.942 874.1 255.409 872.7L255.309 861.1H262.009L263.809 870.4C266.209 871.4 268.809 871.9 271.609 871.9C275.009 871.9 277.542 871.3 279.209 870.1C280.875 868.9 281.709 867.233 281.709 865.1C281.709 863.233 281.042 861.733 279.709 860.6C278.375 859.4 276.109 858.267 272.909 857.2L267.909 855.5C264.175 854.3 261.209 852.533 259.009 850.2C256.875 847.867 255.809 844.933 255.809 841.4C255.809 838.6 256.542 836.067 258.009 833.8C259.475 831.467 261.609 829.633 264.409 828.3C267.275 826.9 270.742 826.2 274.809 826.2C277.675 826.2 280.275 826.567 282.609 827.3C285.009 827.967 287.375 828.967 289.709 830.3L289.209 840.8H282.609L280.809 832.4C278.942 831.6 276.875 831.2 274.609 831.2C271.942 831.2 269.875 831.767 268.409 832.9C266.942 834.033 266.209 835.567 266.209 837.5C266.209 839.3 266.809 840.767 268.009 841.9C269.275 842.967 271.609 844.067 275.009 845.2L279.009 846.4C283.875 848.067 287.342 850.133 289.409 852.6C291.475 855.067 292.509 858.033 292.509 861.5C292.509 865.967 290.675 869.667 287.009 872.6C283.409 875.467 278.242 876.9 271.509 876.9ZM349.905 831.8V827.6H368.905V831.8L363.305 833L346.905 875.9H341.005L322.905 832.7L317.705 831.8V827.6H344.005V831.8L336.305 833L347.305 862L357.205 833.1L349.905 831.8ZM418.168 855.8C418.168 860.2 417.101 864 414.968 867.2C412.835 870.333 409.901 872.733 406.168 874.4C402.501 876.067 398.235 876.9 393.368 876.9C387.635 876.9 383.068 875.567 379.668 872.9C376.335 870.233 374.301 866.467 373.568 861.6C374.101 860.267 374.868 859.3 375.868 858.7C376.868 858.033 378.001 857.7 379.268 857.7C381.068 857.7 382.468 858.267 383.468 859.4C384.468 860.467 385.235 862.433 385.768 865.3L386.868 871.4C388.468 871.8 390.068 872 391.668 872C396.001 872 399.368 870.667 401.768 868C404.235 865.333 405.468 861.733 405.468 857.2C405.468 852.333 404.201 848.633 401.668 846.1C399.201 843.567 395.801 842.3 391.468 842.3C389.935 842.3 388.368 842.4 386.768 842.6C385.235 842.8 383.701 843.067 382.168 843.4L379.368 842.1L381.468 811.6H416.068V821.8H386.368L385.368 836.7C388.235 836.033 391.401 835.7 394.868 835.7C401.935 835.7 407.568 837.433 411.768 840.9C416.035 844.3 418.168 849.267 418.168 855.8Z" fill="white"/>
<rect x="537.5" y="726.5" width="2227" height="231" rx="14.5" fill="url(#paint3_radial_422_76)" fill-opacity="0.96" stroke="#787878" stroke-width="3"/>
<path d="M2873.56 836.45H2876.36C2879.54 836.45 2881.99 835.633 2883.71 834C2885.49 832.367 2886.37 830.057 2886.37 827.07C2886.37 824.503 2885.63 822.52 2884.13 821.12C2882.69 819.72 2880.59 819.02 2877.83 819.02C2877.37 819.02 2876.88 819.043 2876.36 819.09C2875.85 819.137 2875.27 819.207 2874.61 819.3L2873.7 822.8C2873.33 824.247 2872.86 825.343 2872.3 826.09C2871.74 826.79 2870.86 827.14 2869.64 827.14C2868.9 827.14 2868.22 826.953 2867.61 826.58C2867.01 826.207 2866.56 825.577 2866.28 824.69C2866.89 821.75 2868.36 819.557 2870.69 818.11C2873.03 816.617 2875.8 815.87 2879.02 815.87C2883.13 815.87 2886.4 816.897 2888.82 818.95C2891.25 820.957 2892.46 823.593 2892.46 826.86C2892.46 829.38 2891.65 831.643 2890.01 833.65C2888.43 835.61 2886.19 837.103 2883.29 838.13C2886.89 838.83 2889.55 840.183 2891.27 842.19C2893 844.197 2893.86 846.647 2893.86 849.54C2893.86 852.06 2893.21 854.323 2891.9 856.33C2890.6 858.337 2888.78 859.947 2886.44 861.16C2884.11 862.327 2881.36 862.91 2878.18 862.91C2874.78 862.91 2871.84 862.14 2869.36 860.6C2866.94 859.013 2865.4 856.47 2864.74 852.97C2865.54 851.43 2866.73 850.66 2868.31 850.66C2869.53 850.66 2870.39 851.057 2870.9 851.85C2871.46 852.643 2871.98 853.927 2872.44 855.7L2873.35 859.34C2874.15 859.527 2874.87 859.643 2875.52 859.69C2876.18 859.737 2876.76 859.76 2877.27 859.76C2880.73 859.76 2883.32 858.873 2885.04 857.1C2886.77 855.28 2887.63 852.807 2887.63 849.68C2887.63 846.647 2886.75 844.267 2884.97 842.54C2883.2 840.813 2880.52 839.95 2876.92 839.95H2873.56V836.45ZM2907.16 862.91C2905.76 862.91 2904.57 862.42 2903.59 861.44C2902.66 860.46 2902.19 859.293 2902.19 857.94C2902.19 856.54 2902.66 855.35 2903.59 854.37C2904.57 853.39 2905.76 852.9 2907.16 852.9C2908.56 852.9 2909.73 853.39 2910.66 854.37C2911.64 855.35 2912.13 856.54 2912.13 857.94C2912.13 859.293 2911.64 860.46 2910.66 861.44C2909.73 862.42 2908.56 862.91 2907.16 862.91ZM2927.8 826.02C2927.8 827.84 2928.38 829.59 2929.55 831.27C2930.72 832.95 2933.03 834.677 2936.48 836.45C2938.58 834.817 2940.05 833.277 2940.89 831.83C2941.73 830.383 2942.15 828.703 2942.15 826.79C2942.15 824.69 2941.54 822.87 2940.33 821.33C2939.12 819.79 2937.41 819.02 2935.22 819.02C2933.21 819.02 2931.46 819.65 2929.97 820.91C2928.52 822.17 2927.8 823.873 2927.8 826.02ZM2920.73 851.57C2920.73 849.05 2921.57 846.857 2923.25 844.99C2924.93 843.123 2927.38 841.397 2930.6 839.81C2927.66 838.177 2925.54 836.333 2924.23 834.28C2922.92 832.227 2922.27 829.987 2922.27 827.56C2922.27 825.087 2922.85 822.987 2924.02 821.26C2925.19 819.533 2926.75 818.203 2928.71 817.27C2930.72 816.337 2932.93 815.87 2935.36 815.87C2939.05 815.87 2941.96 816.873 2944.11 818.88C2946.3 820.887 2947.4 823.477 2947.4 826.65C2947.4 828.283 2946.82 830.08 2945.65 832.04C2944.48 833.953 2942.31 835.843 2939.14 837.71C2942.59 839.437 2945.18 841.303 2946.91 843.31C2948.64 845.317 2949.5 847.86 2949.5 850.94C2949.5 853.273 2948.87 855.35 2947.61 857.17C2946.35 858.99 2944.65 860.413 2942.5 861.44C2940.35 862.42 2937.93 862.91 2935.22 862.91C2930.97 862.91 2927.5 861.953 2924.79 860.04C2922.08 858.127 2920.73 855.303 2920.73 851.57ZM2926.54 851.15C2926.54 853.623 2927.36 855.7 2928.99 857.38C2930.67 859.013 2932.79 859.83 2935.36 859.83C2937.83 859.83 2939.82 859.013 2941.31 857.38C2942.85 855.747 2943.62 853.763 2943.62 851.43C2943.62 849.377 2942.85 847.603 2941.31 846.11C2939.82 844.617 2937.11 842.96 2933.19 841.14C2931 842.493 2929.34 843.917 2928.22 845.41C2927.1 846.903 2926.54 848.817 2926.54 851.15ZM2961.96 839.46C2961.96 844.873 2962.33 849.05 2963.08 851.99C2963.87 854.93 2964.9 856.96 2966.16 858.08C2967.42 859.2 2968.77 859.76 2970.22 859.76C2971.62 859.76 2972.93 859.2 2974.14 858.08C2975.4 856.913 2976.4 854.86 2977.15 851.92C2977.94 848.98 2978.34 844.827 2978.34 839.46C2978.34 834 2977.94 829.8 2977.15 826.86C2976.4 823.92 2975.4 821.89 2974.14 820.77C2972.93 819.603 2971.62 819.02 2970.22 819.02C2969.15 819.02 2968.1 819.323 2967.07 819.93C2966.09 820.537 2965.2 821.587 2964.41 823.08C2963.66 824.573 2963.06 826.65 2962.59 829.31C2962.17 831.97 2961.96 835.353 2961.96 839.46ZM2970.22 815.87C2972.69 815.87 2975.03 816.64 2977.22 818.18C2979.46 819.673 2981.28 822.147 2982.68 825.6C2984.13 829.053 2984.85 833.673 2984.85 839.46C2984.85 845.2 2984.13 849.797 2982.68 853.25C2981.28 856.657 2979.46 859.13 2977.22 860.67C2975.03 862.163 2972.69 862.91 2970.22 862.91C2967.75 862.91 2965.37 862.163 2963.08 860.67C2960.84 859.13 2959.02 856.657 2957.62 853.25C2956.22 849.797 2955.52 845.2 2955.52 839.46C2955.52 833.673 2956.22 829.053 2957.62 825.6C2959.02 822.147 2960.84 819.673 2963.08 818.18C2965.37 816.64 2967.75 815.87 2970.22 815.87ZM3001.65 862.91C2999.69 862.91 2997.89 862.677 2996.26 862.21C2994.63 861.79 2992.95 861.137 2991.22 860.25L2990.94 852.55H2994.79L2996.12 858.64C2997.75 859.387 2999.64 859.76 3001.79 859.76C3004.45 859.76 3006.41 859.27 3007.67 858.29C3008.98 857.31 3009.63 856.027 3009.63 854.44C3009.63 852.947 3009.09 851.757 3008.02 850.87C3006.95 849.937 3005.31 849.097 3003.12 848.35L2999.9 847.16C2997.33 846.227 2995.28 845.013 2993.74 843.52C2992.2 842.027 2991.43 840.09 2991.43 837.71C2991.43 835.983 2991.9 834.373 2992.83 832.88C2993.76 831.387 2995.14 830.173 2996.96 829.24C2998.78 828.307 3001 827.84 3003.61 827.84C3005.52 827.84 3007.25 828.097 3008.79 828.61C3010.38 829.077 3011.92 829.777 3013.41 830.71L3013.13 837.85H3009.49L3008.37 832.25C3006.78 831.457 3005.17 831.06 3003.54 831.06C3001.39 831.06 2999.76 831.503 2998.64 832.39C2997.57 833.23 2997.03 834.373 2997.03 835.82C2997.03 837.36 2997.5 838.527 2998.43 839.32C2999.41 840.113 3001.09 840.953 3003.47 841.84L3005.64 842.61C3009.14 843.917 3011.61 845.41 3013.06 847.09C3014.55 848.77 3015.3 850.707 3015.3 852.9C3015.3 854.673 3014.79 856.33 3013.76 857.87C3012.73 859.363 3011.22 860.577 3009.21 861.51C3007.2 862.443 3004.68 862.91 3001.65 862.91Z" fill="white"/>
<rect x="521.5" y="710.5" width="2555" height="263" rx="30.5" stroke="white" stroke-opacity="0.23" stroke-width="3"/>
<path d="M2194.92 1078.06C2193.61 1078.06 2192.28 1078.43 2190.93 1079.18C2189.62 1079.93 2188.48 1081.12 2187.5 1082.75C2186.56 1084.38 2185.96 1086.55 2185.68 1089.26H2198.42C2200.1 1089.26 2201.19 1088.91 2201.71 1088.21C2202.27 1087.51 2202.55 1086.65 2202.55 1085.62C2202.55 1084.27 2202.2 1083.03 2201.5 1081.91C2200.84 1080.74 2199.93 1079.81 2198.77 1079.11C2197.65 1078.41 2196.36 1078.06 2194.92 1078.06ZM2194.85 1109.91C2190.13 1109.91 2186.35 1108.39 2183.51 1105.36C2180.66 1102.28 2179.24 1098.06 2179.24 1092.69C2179.24 1089.1 2179.96 1085.97 2181.41 1083.31C2182.9 1080.65 2184.86 1078.57 2187.29 1077.08C2189.76 1075.59 2192.44 1074.84 2195.34 1074.84C2197.76 1074.84 2199.96 1075.38 2201.92 1076.45C2203.88 1077.52 2205.44 1079.06 2206.61 1081.07C2207.77 1083.03 2208.36 1085.43 2208.36 1088.28C2208.36 1089.07 2208.31 1089.82 2208.22 1090.52C2208.12 1091.17 2208.01 1091.73 2207.87 1092.2H2185.54C2185.63 1096.49 2186.7 1099.76 2188.76 1102C2190.81 1104.24 2193.52 1105.36 2196.88 1105.36C2199.12 1105.36 2200.98 1104.92 2202.48 1104.03C2203.97 1103.1 2205.35 1101.91 2206.61 1100.46L2208.29 1101.79C2206.98 1104.26 2205.21 1106.25 2202.97 1107.74C2200.73 1109.19 2198.02 1109.91 2194.85 1109.91ZM2214.57 1109V1106.48L2219.75 1105.5C2219.8 1103.73 2219.82 1101.81 2219.82 1099.76C2219.87 1097.71 2219.89 1095.89 2219.89 1094.3V1090.94C2219.89 1089.03 2219.87 1087.44 2219.82 1086.18C2219.82 1084.92 2219.77 1083.59 2219.68 1082.19L2214.15 1081.56V1079.11L2223.95 1074.84L2225 1075.54L2225.56 1081.14C2227.29 1079.27 2229.27 1077.76 2231.51 1076.59C2233.75 1075.42 2235.94 1074.84 2238.09 1074.84C2241.12 1074.84 2243.36 1075.87 2244.81 1077.92C2246.3 1079.93 2247.05 1083.22 2247.05 1087.79V1094.3C2247.05 1095.89 2247.05 1097.71 2247.05 1099.76C2247.1 1101.81 2247.14 1103.73 2247.19 1105.5L2252.09 1106.48V1109H2235.85V1106.48L2241.03 1105.5C2241.08 1103.77 2241.1 1101.88 2241.1 1099.83C2241.15 1097.73 2241.17 1095.89 2241.17 1094.3V1088.35C2241.17 1085.13 2240.7 1082.91 2239.77 1081.7C2238.88 1080.49 2237.41 1079.88 2235.36 1079.88C2233.77 1079.88 2232.23 1080.21 2230.74 1080.86C2229.25 1081.51 2227.61 1082.59 2225.84 1084.08V1094.3C2225.84 1095.84 2225.84 1097.66 2225.84 1099.76C2225.89 1101.81 2225.93 1103.73 2225.98 1105.5L2230.81 1106.48V1109H2214.57ZM2272.91 1109.91C2268.1 1109.91 2264.28 1108.35 2261.43 1105.22C2258.58 1102.09 2257.16 1097.85 2257.16 1092.48C2257.16 1088.79 2257.91 1085.64 2259.4 1083.03C2260.94 1080.37 2262.95 1078.34 2265.42 1076.94C2267.89 1075.54 2270.53 1074.84 2273.33 1074.84C2275.43 1074.84 2277.37 1075.24 2279.14 1076.03C2280.91 1076.82 2282.38 1077.92 2283.55 1079.32C2284.72 1080.67 2285.44 1082.21 2285.72 1083.94C2285.39 1085.71 2284.32 1086.6 2282.5 1086.6C2281.33 1086.6 2280.45 1086.3 2279.84 1085.69C2279.28 1085.04 2278.88 1084.22 2278.65 1083.24L2277.39 1078.62C2276.74 1078.39 2276.08 1078.25 2275.43 1078.2C2274.82 1078.11 2274.22 1078.06 2273.61 1078.06C2270.62 1078.06 2268.15 1079.23 2266.19 1081.56C2264.28 1083.89 2263.32 1087.3 2263.32 1091.78C2263.32 1096.17 2264.37 1099.53 2266.47 1101.86C2268.57 1104.19 2271.25 1105.36 2274.52 1105.36C2276.53 1105.36 2278.37 1104.92 2280.05 1104.03C2281.73 1103.1 2283.11 1101.77 2284.18 1100.04L2285.93 1100.95C2284.95 1103.84 2283.36 1106.06 2281.17 1107.6C2278.98 1109.14 2276.22 1109.91 2272.91 1109.91ZM2307.58 1109.91C2304.87 1109.91 2302.28 1109.28 2299.81 1108.02C2297.38 1106.71 2295.4 1104.78 2293.86 1102.21C2292.32 1099.6 2291.55 1096.38 2291.55 1092.55C2291.55 1088.68 2292.32 1085.43 2293.86 1082.82C2295.4 1080.16 2297.38 1078.18 2299.81 1076.87C2302.28 1075.52 2304.87 1074.84 2307.58 1074.84C2310.29 1074.84 2312.85 1075.52 2315.28 1076.87C2317.75 1078.18 2319.76 1080.16 2321.3 1082.82C2322.89 1085.43 2323.68 1088.68 2323.68 1092.55C2323.68 1096.38 2322.89 1099.6 2321.3 1102.21C2319.76 1104.78 2317.75 1106.71 2315.28 1108.02C2312.85 1109.28 2310.29 1109.91 2307.58 1109.91ZM2307.58 1106.76C2310.61 1106.76 2312.95 1105.57 2314.58 1103.19C2316.21 1100.76 2317.03 1097.22 2317.03 1092.55C2317.03 1087.84 2316.21 1084.24 2314.58 1081.77C2312.95 1079.3 2310.61 1078.06 2307.58 1078.06C2304.55 1078.06 2302.21 1079.3 2300.58 1081.77C2298.99 1084.24 2298.2 1087.84 2298.2 1092.55C2298.2 1097.22 2298.99 1100.76 2300.58 1103.19C2302.21 1105.57 2304.55 1106.76 2307.58 1106.76ZM2336.27 1092.55C2336.27 1097.12 2337.18 1100.51 2339 1102.7C2340.87 1104.85 2343.2 1105.92 2346 1105.92C2347.54 1105.92 2348.89 1105.62 2350.06 1105.01C2351.27 1104.36 2352.53 1103.31 2353.84 1101.86V1082.47C2352.25 1081.07 2350.83 1080.11 2349.57 1079.6C2348.31 1079.09 2347.1 1078.83 2345.93 1078.83C2344.2 1078.83 2342.59 1079.32 2341.1 1080.3C2339.65 1081.23 2338.49 1082.73 2337.6 1084.78C2336.71 1086.79 2336.27 1089.38 2336.27 1092.55ZM2354.54 1109.7L2354.05 1104.87C2352.84 1106.46 2351.44 1107.69 2349.85 1108.58C2348.31 1109.47 2346.44 1109.91 2344.25 1109.91C2341.4 1109.91 2338.91 1109.19 2336.76 1107.74C2334.61 1106.29 2332.93 1104.29 2331.72 1101.72C2330.55 1099.11 2329.97 1096.1 2329.97 1092.69C2329.97 1089.1 2330.62 1085.97 2331.93 1083.31C2333.24 1080.65 2335.01 1078.57 2337.25 1077.08C2339.49 1075.59 2342.03 1074.84 2344.88 1074.84C2346.51 1074.84 2348.08 1075.17 2349.57 1075.82C2351.11 1076.47 2352.6 1077.66 2354.05 1079.39V1063.57L2348.1 1062.87V1060.42L2359.02 1057.27L2360 1057.83L2359.72 1067.77V1105.64L2365.39 1106.48V1109L2354.54 1109.7ZM2385.37 1078.06C2384.06 1078.06 2382.73 1078.43 2381.38 1079.18C2380.07 1079.93 2378.93 1081.12 2377.95 1082.75C2377.01 1084.38 2376.41 1086.55 2376.13 1089.26H2388.87C2390.55 1089.26 2391.64 1088.91 2392.16 1088.21C2392.72 1087.51 2393 1086.65 2393 1085.62C2393 1084.27 2392.65 1083.03 2391.95 1081.91C2391.29 1080.74 2390.38 1079.81 2389.22 1079.11C2388.1 1078.41 2386.81 1078.06 2385.37 1078.06ZM2385.3 1109.91C2380.58 1109.91 2376.8 1108.39 2373.96 1105.36C2371.11 1102.28 2369.69 1098.06 2369.69 1092.69C2369.69 1089.1 2370.41 1085.97 2371.86 1083.31C2373.35 1080.65 2375.31 1078.57 2377.74 1077.08C2380.21 1075.59 2382.89 1074.84 2385.79 1074.84C2388.21 1074.84 2390.41 1075.38 2392.37 1076.45C2394.33 1077.52 2395.89 1079.06 2397.06 1081.07C2398.22 1083.03 2398.81 1085.43 2398.81 1088.28C2398.81 1089.07 2398.76 1089.82 2398.67 1090.52C2398.57 1091.17 2398.46 1091.73 2398.32 1092.2H2375.99C2376.08 1096.49 2377.15 1099.76 2379.21 1102C2381.26 1104.24 2383.97 1105.36 2387.33 1105.36C2389.57 1105.36 2391.43 1104.92 2392.93 1104.03C2394.42 1103.1 2395.8 1101.91 2397.06 1100.46L2398.74 1101.79C2397.43 1104.26 2395.66 1106.25 2393.42 1107.74C2391.18 1109.19 2388.47 1109.91 2385.3 1109.91ZM2422.48 1069.66L2415.41 1090.52H2429.48L2422.48 1069.66ZM2401.2 1109V1106.13L2407.08 1105.22L2421.99 1061.82H2426.4L2441.31 1105.5L2446.56 1106.13V1109H2427.52V1106.13L2434.38 1105.29L2430.53 1093.81H2414.29L2410.37 1105.22L2417.23 1106.13V1109H2401.2ZM2449.44 1109V1106.48L2454.69 1105.57C2454.73 1103.8 2454.76 1101.88 2454.76 1099.83C2454.8 1097.73 2454.83 1095.89 2454.83 1094.3V1063.57L2449.09 1062.87V1060.42L2459.8 1057.27L2460.78 1057.83L2460.5 1067.77V1080.23C2462.18 1078.36 2463.9 1077.01 2465.68 1076.17C2467.5 1075.28 2469.36 1074.84 2471.28 1074.84C2473.75 1074.84 2475.99 1075.52 2478 1076.87C2480 1078.22 2481.59 1080.18 2482.76 1082.75C2483.97 1085.32 2484.58 1088.42 2484.58 1092.06C2484.58 1095.65 2483.95 1098.8 2482.69 1101.51C2481.43 1104.17 2479.7 1106.25 2477.51 1107.74C2475.36 1109.19 2472.91 1109.91 2470.16 1109.91C2468.52 1109.91 2466.89 1109.56 2465.26 1108.86C2463.62 1108.16 2462.04 1106.85 2460.5 1104.94L2459.94 1109.7L2449.44 1109ZM2469.39 1078.83C2468.31 1078.83 2467.08 1079.11 2465.68 1079.67C2464.28 1080.23 2462.62 1081.3 2460.71 1082.89V1102.07C2462.15 1103.42 2463.58 1104.4 2464.98 1105.01C2466.38 1105.62 2467.73 1105.92 2469.04 1105.92C2471.51 1105.92 2473.66 1104.85 2475.48 1102.7C2477.34 1100.51 2478.28 1097.15 2478.28 1092.62C2478.28 1088.14 2477.44 1084.73 2475.76 1082.4C2474.12 1080.02 2472 1078.83 2469.39 1078.83ZM2490.19 1109V1106.48L2495.44 1105.5C2495.48 1103.73 2495.51 1101.81 2495.51 1099.76C2495.55 1097.66 2495.58 1095.84 2495.58 1094.3V1091.01C2495.58 1089.1 2495.55 1087.51 2495.51 1086.25C2495.51 1084.94 2495.46 1083.59 2495.37 1082.19L2489.77 1081.56V1079.11L2500.55 1074.84L2501.6 1075.54L2501.39 1085.06V1094.3C2501.39 1095.84 2501.39 1097.66 2501.39 1099.76C2501.43 1101.81 2501.48 1103.73 2501.53 1105.5L2506.43 1106.48V1109H2490.19ZM2498.45 1067.14C2497.14 1067.14 2496.02 1066.72 2495.09 1065.88C2494.2 1065.04 2493.76 1063.97 2493.76 1062.66C2493.76 1061.31 2494.2 1060.23 2495.09 1059.44C2496.02 1058.6 2497.14 1058.18 2498.45 1058.18C2499.75 1058.18 2500.85 1058.6 2501.74 1059.44C2502.67 1060.23 2503.14 1061.31 2503.14 1062.66C2503.14 1063.97 2502.67 1065.04 2501.74 1065.88C2500.85 1066.72 2499.75 1067.14 2498.45 1067.14ZM2527.72 1093.74V1089.12H2557.96V1093.74H2527.72ZM2588.98 1083.45H2591.78C2594.96 1083.45 2597.41 1082.63 2599.13 1081C2600.91 1079.37 2601.79 1077.06 2601.79 1074.07C2601.79 1071.5 2601.05 1069.52 2599.55 1068.12C2598.11 1066.72 2596.01 1066.02 2593.25 1066.02C2592.79 1066.02 2592.3 1066.04 2591.78 1066.09C2591.27 1066.14 2590.69 1066.21 2590.03 1066.3L2589.12 1069.8C2588.75 1071.25 2588.28 1072.34 2587.72 1073.09C2587.16 1073.79 2586.28 1074.14 2585.06 1074.14C2584.32 1074.14 2583.64 1073.95 2583.03 1073.58C2582.43 1073.21 2581.98 1072.58 2581.7 1071.69C2582.31 1068.75 2583.78 1066.56 2586.11 1065.11C2588.45 1063.62 2591.22 1062.87 2594.44 1062.87C2598.55 1062.87 2601.82 1063.9 2604.24 1065.95C2606.67 1067.96 2607.88 1070.59 2607.88 1073.86C2607.88 1076.38 2607.07 1078.64 2605.43 1080.65C2603.85 1082.61 2601.61 1084.1 2598.71 1085.13C2602.31 1085.83 2604.97 1087.18 2606.69 1089.19C2608.42 1091.2 2609.28 1093.65 2609.28 1096.54C2609.28 1099.06 2608.63 1101.32 2607.32 1103.33C2606.02 1105.34 2604.2 1106.95 2601.86 1108.16C2599.53 1109.33 2596.78 1109.91 2593.6 1109.91C2590.2 1109.91 2587.26 1109.14 2584.78 1107.6C2582.36 1106.01 2580.82 1103.47 2580.16 1099.97C2580.96 1098.43 2582.15 1097.66 2583.73 1097.66C2584.95 1097.66 2585.81 1098.06 2586.32 1098.85C2586.88 1099.64 2587.4 1100.93 2587.86 1102.7L2588.77 1106.34C2589.57 1106.53 2590.29 1106.64 2590.94 1106.69C2591.6 1106.74 2592.18 1106.76 2592.69 1106.76C2596.15 1106.76 2598.74 1105.87 2600.46 1104.1C2602.19 1102.28 2603.05 1099.81 2603.05 1096.68C2603.05 1093.65 2602.17 1091.27 2600.39 1089.54C2598.62 1087.81 2595.94 1086.95 2592.34 1086.95H2588.98V1083.45ZM2621.39 1086.46C2621.39 1091.87 2621.77 1096.05 2622.51 1098.99C2623.31 1101.93 2624.33 1103.96 2625.59 1105.08C2626.85 1106.2 2628.21 1106.76 2629.65 1106.76C2631.05 1106.76 2632.36 1106.2 2633.57 1105.08C2634.83 1103.91 2635.84 1101.86 2636.58 1098.92C2637.38 1095.98 2637.77 1091.83 2637.77 1086.46C2637.77 1081 2637.38 1076.8 2636.58 1073.86C2635.84 1070.92 2634.83 1068.89 2633.57 1067.77C2632.36 1066.6 2631.05 1066.02 2629.65 1066.02C2628.58 1066.02 2627.53 1066.32 2626.5 1066.93C2625.52 1067.54 2624.64 1068.59 2623.84 1070.08C2623.1 1071.57 2622.49 1073.65 2622.02 1076.31C2621.6 1078.97 2621.39 1082.35 2621.39 1086.46ZM2629.65 1062.87C2632.13 1062.87 2634.46 1063.64 2636.65 1065.18C2638.89 1066.67 2640.71 1069.15 2642.11 1072.6C2643.56 1076.05 2644.28 1080.67 2644.28 1086.46C2644.28 1092.2 2643.56 1096.8 2642.11 1100.25C2640.71 1103.66 2638.89 1106.13 2636.65 1107.67C2634.46 1109.16 2632.13 1109.91 2629.65 1109.91C2627.18 1109.91 2624.8 1109.16 2622.51 1107.67C2620.27 1106.13 2618.45 1103.66 2617.05 1100.25C2615.65 1096.8 2614.95 1092.2 2614.95 1086.46C2614.95 1080.67 2615.65 1076.05 2617.05 1072.6C2618.45 1069.15 2620.27 1066.67 2622.51 1065.18C2624.8 1063.64 2627.18 1062.87 2629.65 1062.87ZM2661.99 1106.97C2661.99 1109.77 2661.32 1112.36 2659.96 1114.74C2658.66 1117.12 2656.98 1119.15 2654.92 1120.83C2652.87 1122.56 2650.72 1123.84 2648.48 1124.68L2647.5 1122.3C2649.88 1121.09 2651.98 1119.62 2653.8 1117.89C2655.62 1116.16 2656.95 1113.99 2657.79 1111.38L2655.2 1109.35C2654.27 1108.6 2653.59 1107.81 2653.17 1106.97C2652.75 1106.08 2652.54 1105.2 2652.54 1104.31C2652.54 1103.1 2652.89 1102.07 2653.59 1101.23C2654.34 1100.34 2655.44 1099.9 2656.88 1099.9C2657.54 1099.9 2658.19 1100.04 2658.84 1100.32C2659.54 1100.6 2660.34 1101.14 2661.22 1101.93C2661.5 1102.82 2661.69 1103.68 2661.78 1104.52C2661.92 1105.31 2661.99 1106.13 2661.99 1106.97ZM2677.38 1086.46C2677.38 1091.87 2677.75 1096.05 2678.5 1098.99C2679.29 1101.93 2680.32 1103.96 2681.58 1105.08C2682.84 1106.2 2684.19 1106.76 2685.64 1106.76C2687.04 1106.76 2688.35 1106.2 2689.56 1105.08C2690.82 1103.91 2691.82 1101.86 2692.57 1098.92C2693.36 1095.98 2693.76 1091.83 2693.76 1086.46C2693.76 1081 2693.36 1076.8 2692.57 1073.86C2691.82 1070.92 2690.82 1068.89 2689.56 1067.77C2688.35 1066.6 2687.04 1066.02 2685.64 1066.02C2684.57 1066.02 2683.52 1066.32 2682.49 1066.93C2681.51 1067.54 2680.62 1068.59 2679.83 1070.08C2679.08 1071.57 2678.48 1073.65 2678.01 1076.31C2677.59 1078.97 2677.38 1082.35 2677.38 1086.46ZM2685.64 1062.87C2688.11 1062.87 2690.45 1063.64 2692.64 1065.18C2694.88 1066.67 2696.7 1069.15 2698.1 1072.6C2699.55 1076.05 2700.27 1080.67 2700.27 1086.46C2700.27 1092.2 2699.55 1096.8 2698.1 1100.25C2696.7 1103.66 2694.88 1106.13 2692.64 1107.67C2690.45 1109.16 2688.11 1109.91 2685.64 1109.91C2683.17 1109.91 2680.79 1109.16 2678.5 1107.67C2676.26 1106.13 2674.44 1103.66 2673.04 1100.25C2671.64 1096.8 2670.94 1092.2 2670.94 1086.46C2670.94 1080.67 2671.64 1076.05 2673.04 1072.6C2674.44 1069.15 2676.26 1066.67 2678.5 1065.18C2680.79 1063.64 2683.17 1062.87 2685.64 1062.87ZM2712.38 1086.46C2712.38 1091.87 2712.75 1096.05 2713.5 1098.99C2714.29 1101.93 2715.32 1103.96 2716.58 1105.08C2717.84 1106.2 2719.19 1106.76 2720.64 1106.76C2722.04 1106.76 2723.35 1106.2 2724.56 1105.08C2725.82 1103.91 2726.82 1101.86 2727.57 1098.92C2728.36 1095.98 2728.76 1091.83 2728.76 1086.46C2728.76 1081 2728.36 1076.8 2727.57 1073.86C2726.82 1070.92 2725.82 1068.89 2724.56 1067.77C2723.35 1066.6 2722.04 1066.02 2720.64 1066.02C2719.57 1066.02 2718.52 1066.32 2717.49 1066.93C2716.51 1067.54 2715.62 1068.59 2714.83 1070.08C2714.08 1071.57 2713.48 1073.65 2713.01 1076.31C2712.59 1078.97 2712.38 1082.35 2712.38 1086.46ZM2720.64 1062.87C2723.11 1062.87 2725.45 1063.64 2727.64 1065.18C2729.88 1066.67 2731.7 1069.15 2733.1 1072.6C2734.55 1076.05 2735.27 1080.67 2735.27 1086.46C2735.27 1092.2 2734.55 1096.8 2733.1 1100.25C2731.7 1103.66 2729.88 1106.13 2727.64 1107.67C2725.45 1109.16 2723.11 1109.91 2720.64 1109.91C2718.17 1109.91 2715.79 1109.16 2713.5 1107.67C2711.26 1106.13 2709.44 1103.66 2708.04 1100.25C2706.64 1096.8 2705.94 1092.2 2705.94 1086.46C2705.94 1080.67 2706.64 1076.05 2708.04 1072.6C2709.44 1069.15 2711.26 1066.67 2713.5 1065.18C2715.79 1063.64 2718.17 1062.87 2720.64 1062.87ZM2747.38 1086.46C2747.38 1091.87 2747.75 1096.05 2748.5 1098.99C2749.29 1101.93 2750.32 1103.96 2751.58 1105.08C2752.84 1106.2 2754.19 1106.76 2755.64 1106.76C2757.04 1106.76 2758.35 1106.2 2759.56 1105.08C2760.82 1103.91 2761.82 1101.86 2762.57 1098.92C2763.36 1095.98 2763.76 1091.83 2763.76 1086.46C2763.76 1081 2763.36 1076.8 2762.57 1073.86C2761.82 1070.92 2760.82 1068.89 2759.56 1067.77C2758.35 1066.6 2757.04 1066.02 2755.64 1066.02C2754.57 1066.02 2753.52 1066.32 2752.49 1066.93C2751.51 1067.54 2750.62 1068.59 2749.83 1070.08C2749.08 1071.57 2748.48 1073.65 2748.01 1076.31C2747.59 1078.97 2747.38 1082.35 2747.38 1086.46ZM2755.64 1062.87C2758.11 1062.87 2760.45 1063.64 2762.64 1065.18C2764.88 1066.67 2766.7 1069.15 2768.1 1072.6C2769.55 1076.05 2770.27 1080.67 2770.27 1086.46C2770.27 1092.2 2769.55 1096.8 2768.1 1100.25C2766.7 1103.66 2764.88 1106.13 2762.64 1107.67C2760.45 1109.16 2758.11 1109.91 2755.64 1109.91C2753.17 1109.91 2750.79 1109.16 2748.5 1107.67C2746.26 1106.13 2744.44 1103.66 2743.04 1100.25C2741.64 1096.8 2740.94 1092.2 2740.94 1086.46C2740.94 1080.67 2741.64 1076.05 2743.04 1072.6C2744.44 1069.15 2746.26 1066.67 2748.5 1065.18C2750.79 1063.64 2753.17 1062.87 2755.64 1062.87ZM2791.86 1109V1106.48L2797.11 1105.5C2797.15 1103.73 2797.18 1101.81 2797.18 1099.76C2797.22 1097.66 2797.25 1095.84 2797.25 1094.3V1091.01C2797.25 1089.1 2797.22 1087.51 2797.18 1086.25C2797.18 1084.94 2797.13 1083.59 2797.04 1082.19L2791.44 1081.56V1079.11L2802.22 1074.84L2803.27 1075.54L2803.06 1085.06V1094.3C2803.06 1095.84 2803.06 1097.66 2803.06 1099.76C2803.1 1101.81 2803.15 1103.73 2803.2 1105.5L2808.1 1106.48V1109H2791.86ZM2800.12 1067.14C2798.81 1067.14 2797.69 1066.72 2796.76 1065.88C2795.87 1065.04 2795.43 1063.97 2795.43 1062.66C2795.43 1061.31 2795.87 1060.23 2796.76 1059.44C2797.69 1058.6 2798.81 1058.18 2800.12 1058.18C2801.42 1058.18 2802.52 1058.6 2803.41 1059.44C2804.34 1060.23 2804.81 1061.31 2804.81 1062.66C2804.81 1063.97 2804.34 1065.04 2803.41 1065.88C2802.52 1066.72 2801.42 1067.14 2800.12 1067.14ZM2824.61 1109.91C2822.18 1109.91 2820.24 1109.26 2818.8 1107.95C2817.35 1106.64 2816.63 1104.64 2816.63 1101.93C2816.63 1101.04 2816.63 1100.18 2816.63 1099.34C2816.67 1098.45 2816.7 1097.33 2816.7 1095.98V1079.46H2810.89V1076.38L2817.12 1075.61L2818.94 1066.23H2823.14L2822.72 1075.75H2832.17V1079.46H2822.65V1101.16C2822.65 1102.93 2823 1104.24 2823.7 1105.08C2824.4 1105.87 2825.33 1106.27 2826.5 1106.27C2827.29 1106.27 2828.04 1106.11 2828.74 1105.78C2829.48 1105.45 2830.3 1104.99 2831.19 1104.38L2832.87 1106.2C2830.95 1108.67 2828.2 1109.91 2824.61 1109.91ZM2851.85 1078.06C2850.54 1078.06 2849.21 1078.43 2847.86 1079.18C2846.55 1079.93 2845.41 1081.12 2844.43 1082.75C2843.5 1084.38 2842.89 1086.55 2842.61 1089.26H2855.35C2857.03 1089.26 2858.13 1088.91 2858.64 1088.21C2859.2 1087.51 2859.48 1086.65 2859.48 1085.62C2859.48 1084.27 2859.13 1083.03 2858.43 1081.91C2857.78 1080.74 2856.87 1079.81 2855.7 1079.11C2854.58 1078.41 2853.3 1078.06 2851.85 1078.06ZM2851.78 1109.91C2847.07 1109.91 2843.29 1108.39 2840.44 1105.36C2837.59 1102.28 2836.17 1098.06 2836.17 1092.69C2836.17 1089.1 2836.89 1085.97 2838.34 1083.31C2839.83 1080.65 2841.79 1078.57 2844.22 1077.08C2846.69 1075.59 2849.38 1074.84 2852.27 1074.84C2854.7 1074.84 2856.89 1075.38 2858.85 1076.45C2860.81 1077.52 2862.37 1079.06 2863.54 1081.07C2864.71 1083.03 2865.29 1085.43 2865.29 1088.28C2865.29 1089.07 2865.24 1089.82 2865.15 1090.52C2865.06 1091.17 2864.94 1091.73 2864.8 1092.2H2842.47C2842.56 1096.49 2843.64 1099.76 2845.69 1102C2847.74 1104.24 2850.45 1105.36 2853.81 1105.36C2856.05 1105.36 2857.92 1104.92 2859.41 1104.03C2860.9 1103.1 2862.28 1101.91 2863.54 1100.46L2865.22 1101.79C2863.91 1104.26 2862.14 1106.25 2859.9 1107.74C2857.66 1109.19 2854.95 1109.91 2851.78 1109.91ZM2871.64 1109V1106.48L2876.68 1105.57C2876.73 1103.8 2876.75 1101.88 2876.75 1099.83C2876.8 1097.73 2876.82 1095.89 2876.82 1094.3V1090.94C2876.82 1089.03 2876.8 1087.44 2876.75 1086.18C2876.75 1084.92 2876.71 1083.59 2876.61 1082.19L2871.08 1081.56V1079.11L2880.88 1074.84L2881.93 1075.54L2882.7 1083.8C2883.87 1081 2885.36 1078.81 2887.18 1077.22C2889.05 1075.63 2890.92 1074.84 2892.78 1074.84C2893.86 1074.84 2894.86 1075.07 2895.79 1075.54C2896.73 1076.01 2897.4 1076.64 2897.82 1077.43C2897.82 1080.84 2896.45 1082.54 2893.69 1082.54C2892.9 1082.54 2892.15 1082.4 2891.45 1082.12C2890.75 1081.79 2890.08 1081.35 2889.42 1080.79L2888.58 1080.02C2887.18 1081.05 2886.02 1082.31 2885.08 1083.8C2884.15 1085.29 2883.38 1087.04 2882.77 1089.05V1094.3C2882.77 1095.84 2882.77 1097.64 2882.77 1099.69C2882.82 1101.74 2882.87 1103.66 2882.91 1105.43L2888.65 1106.48V1109H2871.64ZM2926.67 1109.7C2924.99 1109.7 2923.59 1109.21 2922.47 1108.23C2921.35 1107.25 2920.65 1105.94 2920.37 1104.31C2918.46 1106.18 2916.78 1107.58 2915.33 1108.51C2913.88 1109.44 2912.13 1109.91 2910.08 1109.91C2907.51 1109.91 2905.3 1109.19 2903.43 1107.74C2901.61 1106.25 2900.7 1104.05 2900.7 1101.16C2900.7 1099.81 2901 1098.55 2901.61 1097.38C2902.26 1096.21 2903.43 1095.07 2905.11 1093.95C2906.79 1092.83 2909.19 1091.71 2912.32 1090.59C2913.39 1090.22 2914.63 1089.82 2916.03 1089.4C2917.43 1088.98 2918.83 1088.61 2920.23 1088.28V1086.53C2920.23 1083.12 2919.72 1080.86 2918.69 1079.74C2917.66 1078.62 2915.98 1078.06 2913.65 1078.06C2913.14 1078.06 2912.55 1078.08 2911.9 1078.13C2911.29 1078.18 2910.62 1078.29 2909.87 1078.48L2908.54 1083.03C2907.89 1085.27 2906.67 1086.39 2904.9 1086.39C2902.94 1086.39 2901.84 1085.43 2901.61 1083.52C2902.26 1080.86 2903.8 1078.76 2906.23 1077.22C2908.7 1075.63 2911.71 1074.84 2915.26 1074.84C2918.95 1074.84 2921.68 1075.77 2923.45 1077.64C2925.22 1079.46 2926.11 1082.59 2926.11 1087.02V1101.93C2926.11 1103.42 2926.34 1104.5 2926.81 1105.15C2927.28 1105.76 2927.88 1106.06 2928.63 1106.06C2929.24 1106.06 2929.75 1105.92 2930.17 1105.64C2930.59 1105.36 2930.99 1104.99 2931.36 1104.52L2932.76 1106.06C2931.92 1107.41 2930.99 1108.37 2929.96 1108.93C2928.98 1109.44 2927.88 1109.7 2926.67 1109.7ZM2906.93 1100.11C2906.93 1101.98 2907.47 1103.31 2908.54 1104.1C2909.61 1104.89 2910.94 1105.29 2912.53 1105.29C2913.23 1105.29 2913.88 1105.2 2914.49 1105.01C2915.14 1104.82 2915.91 1104.47 2916.8 1103.96C2917.69 1103.4 2918.83 1102.61 2920.23 1101.58V1090.87C2919.02 1091.2 2917.83 1091.57 2916.66 1091.99C2915.49 1092.36 2914.54 1092.69 2913.79 1092.97C2911.78 1093.76 2910.29 1094.58 2909.31 1095.42C2908.33 1096.26 2907.68 1097.08 2907.35 1097.87C2907.07 1098.66 2906.93 1099.41 2906.93 1100.11ZM2947.52 1109.91C2945.09 1109.91 2943.15 1109.26 2941.71 1107.95C2940.26 1106.64 2939.54 1104.64 2939.54 1101.93C2939.54 1101.04 2939.54 1100.18 2939.54 1099.34C2939.58 1098.45 2939.61 1097.33 2939.61 1095.98V1079.46H2933.8V1076.38L2940.03 1075.61L2941.85 1066.23H2946.05L2945.63 1075.75H2955.08V1079.46H2945.56V1101.16C2945.56 1102.93 2945.91 1104.24 2946.61 1105.08C2947.31 1105.87 2948.24 1106.27 2949.41 1106.27C2950.2 1106.27 2950.95 1106.11 2951.65 1105.78C2952.39 1105.45 2953.21 1104.99 2954.1 1104.38L2955.78 1106.2C2953.86 1108.67 2951.11 1109.91 2947.52 1109.91ZM2958.38 1109V1106.48L2963.63 1105.5C2963.68 1103.73 2963.7 1101.81 2963.7 1099.76C2963.75 1097.66 2963.77 1095.84 2963.77 1094.3V1091.01C2963.77 1089.1 2963.75 1087.51 2963.7 1086.25C2963.7 1084.94 2963.65 1083.59 2963.56 1082.19L2957.96 1081.56V1079.11L2968.74 1074.84L2969.79 1075.54L2969.58 1085.06V1094.3C2969.58 1095.84 2969.58 1097.66 2969.58 1099.76C2969.63 1101.81 2969.67 1103.73 2969.72 1105.5L2974.62 1106.48V1109H2958.38ZM2966.64 1067.14C2965.33 1067.14 2964.21 1066.72 2963.28 1065.88C2962.39 1065.04 2961.95 1063.97 2961.95 1062.66C2961.95 1061.31 2962.39 1060.23 2963.28 1059.44C2964.21 1058.6 2965.33 1058.18 2966.64 1058.18C2967.95 1058.18 2969.04 1058.6 2969.93 1059.44C2970.86 1060.23 2971.33 1061.31 2971.33 1062.66C2971.33 1063.97 2970.86 1065.04 2969.93 1065.88C2969.04 1066.72 2967.95 1067.14 2966.64 1067.14ZM2995.96 1109.91C2993.25 1109.91 2990.66 1109.28 2988.19 1108.02C2985.76 1106.71 2983.78 1104.78 2982.24 1102.21C2980.7 1099.6 2979.93 1096.38 2979.93 1092.55C2979.93 1088.68 2980.7 1085.43 2982.24 1082.82C2983.78 1080.16 2985.76 1078.18 2988.19 1076.87C2990.66 1075.52 2993.25 1074.84 2995.96 1074.84C2998.67 1074.84 3001.23 1075.52 3003.66 1076.87C3006.13 1078.18 3008.14 1080.16 3009.68 1082.82C3011.27 1085.43 3012.06 1088.68 3012.06 1092.55C3012.06 1096.38 3011.27 1099.6 3009.68 1102.21C3008.14 1104.78 3006.13 1106.71 3003.66 1108.02C3001.23 1109.28 2998.67 1109.91 2995.96 1109.91ZM2995.96 1106.76C2998.99 1106.76 3001.33 1105.57 3002.96 1103.19C3004.59 1100.76 3005.41 1097.22 3005.41 1092.55C3005.41 1087.84 3004.59 1084.24 3002.96 1081.77C3001.33 1079.3 2998.99 1078.06 2995.96 1078.06C2992.93 1078.06 2990.59 1079.3 2988.96 1081.77C2987.37 1084.24 2986.58 1087.84 2986.58 1092.55C2986.58 1097.22 2987.37 1100.76 2988.96 1103.19C2990.59 1105.57 2992.93 1106.76 2995.96 1106.76ZM3018 1109V1106.48L3023.18 1105.5C3023.22 1103.73 3023.25 1101.81 3023.25 1099.76C3023.29 1097.71 3023.32 1095.89 3023.32 1094.3V1090.94C3023.32 1089.03 3023.29 1087.44 3023.25 1086.18C3023.25 1084.92 3023.2 1083.59 3023.11 1082.19L3017.58 1081.56V1079.11L3027.38 1074.84L3028.43 1075.54L3028.99 1081.14C3030.71 1079.27 3032.7 1077.76 3034.94 1076.59C3037.18 1075.42 3039.37 1074.84 3041.52 1074.84C3044.55 1074.84 3046.79 1075.87 3048.24 1077.92C3049.73 1079.93 3050.48 1083.22 3050.48 1087.79V1094.3C3050.48 1095.89 3050.48 1097.71 3050.48 1099.76C3050.52 1101.81 3050.57 1103.73 3050.62 1105.5L3055.52 1106.48V1109H3039.28V1106.48L3044.46 1105.5C3044.5 1103.77 3044.53 1101.88 3044.53 1099.83C3044.57 1097.73 3044.6 1095.89 3044.6 1094.3V1088.35C3044.6 1085.13 3044.13 1082.91 3043.2 1081.7C3042.31 1080.49 3040.84 1079.88 3038.79 1079.88C3037.2 1079.88 3035.66 1080.21 3034.17 1080.86C3032.67 1081.51 3031.04 1082.59 3029.27 1084.08V1094.3C3029.27 1095.84 3029.27 1097.66 3029.27 1099.76C3029.31 1101.81 3029.36 1103.73 3029.41 1105.5L3034.24 1106.48V1109H3018ZM3071.65 1109.91C3069.69 1109.91 3067.89 1109.68 3066.26 1109.21C3064.63 1108.79 3062.95 1108.14 3061.22 1107.25L3060.94 1099.55H3064.79L3066.12 1105.64C3067.75 1106.39 3069.64 1106.76 3071.79 1106.76C3074.45 1106.76 3076.41 1106.27 3077.67 1105.29C3078.98 1104.31 3079.63 1103.03 3079.63 1101.44C3079.63 1099.95 3079.09 1098.76 3078.02 1097.87C3076.95 1096.94 3075.31 1096.1 3073.12 1095.35L3069.9 1094.16C3067.33 1093.23 3065.28 1092.01 3063.74 1090.52C3062.2 1089.03 3061.43 1087.09 3061.43 1084.71C3061.43 1082.98 3061.9 1081.37 3062.83 1079.88C3063.76 1078.39 3065.14 1077.17 3066.96 1076.24C3068.78 1075.31 3071 1074.84 3073.61 1074.84C3075.52 1074.84 3077.25 1075.1 3078.79 1075.61C3080.38 1076.08 3081.92 1076.78 3083.41 1077.71L3083.13 1084.85H3079.49L3078.37 1079.25C3076.78 1078.46 3075.17 1078.06 3073.54 1078.06C3071.39 1078.06 3069.76 1078.5 3068.64 1079.39C3067.57 1080.23 3067.03 1081.37 3067.03 1082.82C3067.03 1084.36 3067.5 1085.53 3068.43 1086.32C3069.41 1087.11 3071.09 1087.95 3073.47 1088.84L3075.64 1089.61C3079.14 1090.92 3081.61 1092.41 3083.06 1094.09C3084.55 1095.77 3085.3 1097.71 3085.3 1099.9C3085.3 1101.67 3084.79 1103.33 3083.76 1104.87C3082.73 1106.36 3081.22 1107.58 3079.21 1108.51C3077.2 1109.44 3074.68 1109.91 3071.65 1109.91Z" fill="white"/>
<defs>
<filter id="filter0_d_422_76" x="499" y="0.839844" width="296" height="304.281" filterUnits="userSpaceOnUse" color-interpolation-filters="sRGB">
<feFlood flood-opacity="0" result="BackgroundImageFix"/>
<feColorMatrix in="SourceAlpha" type="matrix" values="0 0 0 0 0 0 0 0 0 0 0 0 0 0 0 0 0 0 127 0" result="hardAlpha"/>
<feMorphology radius="7" operator="dilate" in="SourceAlpha" result="effect1_dropShadow_422_76"/>
<feOffset dy="4"/>
<feGaussianBlur stdDeviation="16"/>
<feComposite in2="hardAlpha" operator="out"/>
<feColorMatrix type="matrix" values="0 0 0 0 1 0 0 0 0 0.6 0 0 0 0 0 0 0 0 0.98 0"/>
<feBlend mode="normal" in2="BackgroundImageFix" result="effect1_dropShadow_422_76"/>
<feBlend mode="normal" in="SourceGraphic" in2="effect1_dropShadow_422_76" result="shape"/>
</filter>
<radialGradient id="paint0_radial_422_76" cx="0" cy="0" r="1" gradientUnits="userSpaceOnUse" gradientTransform="translate(547.909 172.914) rotate(70.1464) scale(425.643 316.992)">
<stop stop-color="#FF8A00"/>
<stop offset="1" stop-color="#FFBA07"/>
</radialGradient>
<radialGradient id="paint1_radial_422_76" cx="0" cy="0" r="1" gradientUnits="userSpaceOnUse" gradientTransform="translate(546.091 174.75) rotate(70.4258) scale(439.393 323.373)">
<stop stop-color="#FF8A00"/>
<stop offset="1" stop-color="#FFBA07"/>
</radialGradient>
<radialGradient id="paint2_radial_422_76" cx="0" cy="0" r="1" gradientUnits="userSpaceOnUse" gradientTransform="translate(634.591 520.75) rotate(16.0583) scale(1496.67 927.552)">
<stop stop-color="white" stop-opacity="0.19"/>
<stop offset="1" stop-color="white" stop-opacity="0.32"/>
</radialGradient>
<radialGradient id="paint3_radial_422_76" cx="0" cy="0" r="1" gradientUnits="userSpaceOnUse" gradientTransform="translate(637.364 866.75) rotate(15.6408) scale(1535.58 929.473)">
<stop stop-color="white" stop-opacity="0.19"/>
<stop offset="1" stop-color="white" stop-opacity="0.32"/>
</radialGradient>
</defs>
</svg>
