<svg width="3088" height="1126" viewBox="0 0 3088 1126" fill="none" xmlns="http://www.w3.org/2000/svg">
<rect width="3088" height="1126" fill="#1E1E20"/>
<path d="M224.502 187.867H223.902L202.662 143.227C201.462 140.587 200.422 138.907 199.542 138.187C198.742 137.387 197.222 136.986 194.982 136.986V134.467H223.542V136.986C221.622 136.986 220.182 137.107 219.222 137.347C218.262 137.587 217.782 138.227 217.782 139.267C217.782 139.747 217.902 140.347 218.142 141.067C218.382 141.707 218.702 142.467 219.102 143.347L229.782 168.187L239.622 144.067C239.942 143.107 240.222 142.307 240.462 141.667C240.702 140.947 240.822 140.307 240.822 139.747C240.822 138.467 240.182 137.707 238.902 137.467C237.702 137.147 235.902 136.986 233.502 136.986V134.467H252.222V136.986C249.822 136.986 248.142 137.387 247.182 138.187C246.302 138.987 245.142 140.987 243.702 144.187L224.502 187.867ZM259.473 118.146C259.473 115.747 260.313 113.747 261.993 112.146C263.753 110.467 265.873 109.627 268.353 109.627C270.753 109.627 272.793 110.467 274.473 112.146C276.153 113.747 276.993 115.747 276.993 118.146C276.993 120.547 276.153 122.547 274.473 124.147C272.793 125.746 270.753 126.546 268.353 126.546C265.873 126.546 263.753 125.746 261.993 124.147C260.313 122.547 259.473 120.547 259.473 118.146ZM260.793 143.707C260.793 140.747 260.393 138.907 259.593 138.187C258.873 137.387 257.233 136.986 254.673 136.986V134.467H276.273V177.427C276.273 180.387 276.633 182.267 277.353 183.067C278.153 183.787 279.793 184.147 282.273 184.147V186.667H254.673V184.147C257.233 184.147 258.873 183.787 259.593 183.067C260.393 182.267 260.793 180.387 260.793 177.427V143.707ZM310.336 136.627C307.536 136.627 305.176 137.867 303.256 140.347C301.416 142.827 300.336 146.467 300.016 151.267H319.576C319.416 147.027 318.576 143.547 317.056 140.827C315.536 138.027 313.296 136.627 310.336 136.627ZM332.776 175.147C330.296 179.307 327.176 182.467 323.416 184.627C319.656 186.787 315.736 187.867 311.656 187.867C304.456 187.867 298.216 185.427 292.936 180.547C287.736 175.667 285.136 169.307 285.136 161.467C285.136 153.547 287.776 146.867 293.056 141.427C298.416 135.987 304.376 133.267 310.936 133.267C317.816 133.267 323.016 135.547 326.536 140.107C330.136 144.667 331.976 149.467 332.056 154.507H299.896V154.747C299.896 162.187 301.736 168.307 305.416 173.107C309.096 177.827 313.656 180.187 319.096 180.187C321.576 180.187 323.776 179.667 325.696 178.627C327.696 177.587 329.496 175.987 331.096 173.827L332.776 175.147ZM363.953 184.147V186.667H336.353V184.147C338.913 184.147 340.553 183.787 341.273 183.067C342.073 182.267 342.473 180.387 342.473 177.427V143.707C342.473 140.747 342.073 138.907 341.273 138.187C340.553 137.387 338.913 136.986 336.353 136.986V134.467H357.953V143.827C359.153 141.347 361.153 138.987 363.953 136.747C366.753 134.427 370.153 133.267 374.153 133.267C378.393 133.267 381.753 134.347 384.233 136.507C386.793 138.587 388.473 141.267 389.273 144.547C390.473 141.987 392.513 139.467 395.393 136.986C398.353 134.507 401.993 133.267 406.313 133.267C411.753 133.267 415.753 134.987 418.313 138.427C420.873 141.867 422.153 145.987 422.153 150.787V177.427C422.153 180.387 422.513 182.267 423.233 183.067C424.033 183.787 425.713 184.147 428.273 184.147V186.667H400.673V184.147C403.233 184.147 404.873 183.787 405.593 183.067C406.313 182.267 406.673 180.387 406.673 177.427V152.947C406.673 148.787 405.953 145.747 404.513 143.827C403.073 141.827 400.993 140.827 398.273 140.827C396.513 140.827 394.873 141.387 393.353 142.507C391.833 143.547 390.673 145.067 389.873 147.067C389.953 147.627 389.993 148.227 389.993 148.867C390.073 149.507 390.113 150.147 390.113 150.787V177.427C390.113 180.387 390.473 182.267 391.193 183.067C391.913 183.787 393.553 184.147 396.113 184.147V186.667H368.513V184.147C371.073 184.147 372.713 183.787 373.433 183.067C374.153 182.267 374.513 180.387 374.513 177.427V152.947C374.513 148.787 373.793 145.747 372.353 143.827C370.913 141.827 368.833 140.827 366.113 140.827C364.433 140.827 362.873 141.347 361.433 142.387C359.993 143.347 358.833 144.747 357.953 146.587V177.427C357.953 180.387 358.313 182.267 359.033 183.067C359.833 183.787 361.473 184.147 363.953 184.147Z" fill="white"/>
<g filter="url(#filter0_d_12_63)">
<rect x="536.144" y="28.8481" width="15.7117" height="226.926" rx="7.85586" fill="url(#paint0_radial_12_63)" fill-opacity="0.96" shape-rendering="crispEdges"/>
</g>
<rect x="536" y="26" width="16" height="234.667" rx="8" fill="url(#paint1_radial_12_63)" fill-opacity="0.96"/>
<path d="M2854.72 143.053C2854.72 140.067 2855.17 137.133 2856.08 134.253C2857.04 131.32 2858.34 128.733 2860 126.493C2861.65 124.253 2863.6 122.44 2865.84 121.053C2868.13 119.667 2870.61 118.973 2873.28 118.973C2875.89 118.973 2878.32 119.667 2880.56 121.053C2882.85 122.44 2884.8 124.253 2886.4 126.493C2888.05 128.733 2889.33 131.32 2890.24 134.253C2891.2 137.133 2891.68 140.067 2891.68 143.053C2891.68 146.04 2891.2 149 2890.24 151.933C2889.33 154.813 2888.05 157.373 2886.4 159.613C2884.8 161.853 2882.85 163.667 2880.56 165.053C2878.32 166.44 2875.89 167.133 2873.28 167.133C2870.61 167.133 2868.13 166.44 2865.84 165.053C2863.6 163.667 2861.65 161.853 2860 159.613C2858.34 157.373 2857.04 154.813 2856.08 151.933C2855.17 149 2854.72 146.04 2854.72 143.053ZM2883.76 143.053C2883.76 140.493 2883.54 137.987 2883.12 135.533C2882.74 133.027 2882.13 130.813 2881.28 128.893C2880.48 126.973 2879.41 125.427 2878.08 124.253C2876.74 123.027 2875.14 122.413 2873.28 122.413C2871.41 122.413 2869.78 123.027 2868.4 124.253C2867.06 125.427 2865.94 126.973 2865.04 128.893C2864.18 130.813 2863.54 133.027 2863.12 135.533C2862.74 137.987 2862.56 140.493 2862.56 143.053C2862.56 145.613 2862.74 148.147 2863.12 150.653C2863.54 153.107 2864.18 155.293 2865.04 157.213C2865.94 159.133 2867.06 160.707 2868.4 161.933C2869.78 163.107 2871.41 163.693 2873.28 163.693C2875.14 163.693 2876.74 163.107 2878.08 161.933C2879.41 160.707 2880.48 159.133 2881.28 157.213C2882.13 155.293 2882.74 153.107 2883.12 150.653C2883.54 148.147 2883.76 145.613 2883.76 143.053ZM2895.69 161.933C2895.69 160.493 2896.2 159.267 2897.21 158.253C2898.22 157.24 2899.45 156.733 2900.89 156.733C2902.33 156.733 2903.56 157.24 2904.57 158.253C2905.58 159.267 2906.09 160.493 2906.09 161.933C2906.09 163.373 2905.58 164.6 2904.57 165.613C2903.56 166.627 2902.33 167.133 2900.89 167.133C2899.45 167.133 2898.22 166.627 2897.21 165.613C2896.2 164.6 2895.69 163.373 2895.69 161.933ZM2910.11 143.053C2910.11 140.067 2910.56 137.133 2911.47 134.253C2912.43 131.32 2913.73 128.733 2915.39 126.493C2917.04 124.253 2918.99 122.44 2921.23 121.053C2923.52 119.667 2926 118.973 2928.67 118.973C2931.28 118.973 2933.71 119.667 2935.95 121.053C2938.24 122.44 2940.19 124.253 2941.79 126.493C2943.44 128.733 2944.72 131.32 2945.63 134.253C2946.59 137.133 2947.07 140.067 2947.07 143.053C2947.07 146.04 2946.59 149 2945.63 151.933C2944.72 154.813 2943.44 157.373 2941.79 159.613C2940.19 161.853 2938.24 163.667 2935.95 165.053C2933.71 166.44 2931.28 167.133 2928.67 167.133C2926 167.133 2923.52 166.44 2921.23 165.053C2918.99 163.667 2917.04 161.853 2915.39 159.613C2913.73 157.373 2912.43 154.813 2911.47 151.933C2910.56 149 2910.11 146.04 2910.11 143.053ZM2939.15 143.053C2939.15 140.493 2938.93 137.987 2938.51 135.533C2938.13 133.027 2937.52 130.813 2936.67 128.893C2935.87 126.973 2934.8 125.427 2933.47 124.253C2932.13 123.027 2930.53 122.413 2928.67 122.413C2926.8 122.413 2925.17 123.027 2923.79 124.253C2922.45 125.427 2921.33 126.973 2920.43 128.893C2919.57 130.813 2918.93 133.027 2918.51 135.533C2918.13 137.987 2917.95 140.493 2917.95 143.053C2917.95 145.613 2918.13 148.147 2918.51 150.653C2918.93 153.107 2919.57 155.293 2920.43 157.213C2921.33 159.133 2922.45 160.707 2923.79 161.933C2925.17 163.107 2926.8 163.693 2928.67 163.693C2930.53 163.693 2932.13 163.107 2933.47 161.933C2934.8 160.707 2935.87 159.133 2936.67 157.213C2937.52 155.293 2938.13 153.107 2938.51 150.653C2938.93 148.147 2939.15 145.613 2939.15 143.053ZM2951.71 166.333V165.373L2963.87 152.573C2968.24 147.987 2971.01 144.36 2972.19 141.693C2973.36 138.973 2973.95 136.253 2973.95 133.533C2973.95 130.813 2973.17 128.627 2971.63 126.973C2970.08 125.267 2967.95 124.413 2965.23 124.413C2962.4 124.413 2960.21 125.293 2958.67 127.053C2957.17 128.76 2955.95 130.6 2954.99 132.573L2952.27 131.373C2953.28 128.333 2955.04 125.507 2957.55 122.893C2960.11 120.28 2963.49 118.973 2967.71 118.973C2971.76 118.973 2975.04 120.173 2977.55 122.573C2980.05 124.92 2981.31 128.093 2981.31 132.093C2981.31 137.053 2979.33 141.587 2975.39 145.693C2971.44 149.8 2966.53 154.707 2960.67 160.413H2980.03L2980.91 153.293H2983.79V166.333H2951.71ZM2991.84 141.133C2991.84 138.36 2992.86 136.067 2994.88 134.253C2996.96 132.387 2999.52 131.453 3002.56 131.453C3004.11 131.453 3005.52 131.72 3006.8 132.253C3008.08 132.733 3009.23 133.48 3010.24 134.493L3011.04 131.773H3013.36V142.813H3010.72C3010.19 140.04 3009.23 137.933 3007.84 136.493C3006.51 135.053 3004.8 134.333 3002.72 134.333C3001.12 134.333 2999.82 134.787 2998.8 135.693C2997.79 136.6 2997.28 137.773 2997.28 139.213C2997.28 140.227 2997.6 141.107 2998.24 141.853C2998.88 142.6 3000.24 143.507 3002.32 144.573L3008 147.453C3010.56 148.733 3012.38 150.093 3013.44 151.533C3014.51 152.92 3015.04 154.6 3015.04 156.573C3015.04 159.613 3013.87 162.147 3011.52 164.173C3009.18 166.147 3006.3 167.133 3002.88 167.133C3001.12 167.133 2999.47 166.787 2997.92 166.093C2996.38 165.4 2995.12 164.467 2994.16 163.293L2993.44 166.333H2991.04V153.933H2993.76C2994.14 157.187 2995.12 159.693 2996.72 161.453C2998.32 163.213 3000.32 164.093 3002.72 164.093C3004.7 164.093 3006.27 163.613 3007.44 162.653C3008.62 161.693 3009.2 160.44 3009.2 158.893C3009.2 157.72 3008.88 156.76 3008.24 156.013C3007.66 155.213 3006.62 154.44 3005.12 153.693L2998.64 150.493C2996.19 149.267 2994.43 147.933 2993.36 146.493C2992.35 145 2991.84 143.213 2991.84 141.133Z" fill="white"/>
<rect x="521.5" y="11.5" width="2555" height="263.667" rx="30.5" stroke="white" stroke-opacity="0.23" stroke-width="3"/>
<path d="M37 483.46C34.2 483.46 31.84 484.7 29.92 487.18C28.08 489.66 27 493.3 26.68 498.1H46.24C46.08 493.86 45.24 490.38 43.72 487.66C42.2 484.86 39.96 483.46 37 483.46ZM59.44 521.98C56.96 526.14 53.84 529.3 50.08 531.46C46.32 533.62 42.4 534.7 38.32 534.7C31.12 534.7 24.88 532.26 19.6 527.38C14.4 522.5 11.8 516.14 11.8 508.3C11.8 500.38 14.44 493.7 19.72 488.26C25.08 482.82 31.04 480.1 37.6 480.1C44.48 480.1 49.68 482.38 53.2 486.94C56.8 491.5 58.64 496.3 58.72 501.34H26.56V501.58C26.56 509.02 28.4 515.14 32.08 519.94C35.76 524.66 40.32 527.02 45.76 527.02C48.24 527.02 50.44 526.5 52.36 525.46C54.36 524.42 56.16 522.82 57.76 520.66L59.44 521.98ZM62.4166 483.22C66.0166 481.3 69.7366 478.66 73.5766 475.3C77.4166 471.94 80.3766 468.82 82.4566 465.94H83.4166V481.54C85.3366 481.54 88.0166 481.5 91.4566 481.42C94.8966 481.34 97.4966 481.22 99.2566 481.06L98.5366 485.26H83.4166V517.9C83.4166 520.7 84.0566 523.02 85.3366 524.86C86.6166 526.7 88.4966 527.62 90.9766 527.62C92.7366 527.62 94.2566 527.22 95.5366 526.42C96.8166 525.54 98.0966 524.22 99.3766 522.46L101.057 524.02C99.1366 527.22 96.6566 529.82 93.6166 531.82C90.6566 533.74 87.2566 534.7 83.4166 534.7C79.0166 534.7 75.2966 533.3 72.2566 530.5C69.2966 527.62 67.8166 523.9 67.8166 519.34L68.1766 485.14H62.4166V483.22ZM129.04 530.98V533.5H101.56V530.98C104.12 530.98 105.76 530.62 106.48 529.9C107.2 529.1 107.56 527.22 107.56 524.26V464.5C107.56 461.54 107.08 459.74 106.12 459.1C105.16 458.38 103.24 458.02 100.36 458.02V455.5H123.16V490.66C124.36 488.1 126.4 485.7 129.28 483.46C132.24 481.22 135.6 480.1 139.36 480.1C144.88 480.1 149 481.82 151.72 485.26C154.52 488.7 155.92 492.82 155.92 497.62V524.26C155.92 527.22 156.28 529.1 157 529.9C157.72 530.62 159.36 530.98 161.92 530.98V533.5H134.32V530.98C136.88 530.98 138.52 530.62 139.24 529.9C139.96 529.1 140.32 527.22 140.32 524.26V499.78C140.32 495.62 139.52 492.58 137.92 490.66C136.32 488.66 134.16 487.66 131.44 487.66C129.76 487.66 128.16 488.18 126.64 489.22C125.2 490.18 124.04 491.58 123.16 493.42V524.26C123.16 527.22 123.52 529.1 124.24 529.9C124.96 530.62 126.56 530.98 129.04 530.98ZM189.695 483.46C186.895 483.46 184.535 484.7 182.615 487.18C180.775 489.66 179.695 493.3 179.375 498.1H198.935C198.775 493.86 197.935 490.38 196.415 487.66C194.895 484.86 192.655 483.46 189.695 483.46ZM212.135 521.98C209.655 526.14 206.535 529.3 202.775 531.46C199.015 533.62 195.095 534.7 191.015 534.7C183.815 534.7 177.575 532.26 172.295 527.38C167.095 522.5 164.495 516.14 164.495 508.3C164.495 500.38 167.135 493.7 172.415 488.26C177.775 482.82 183.735 480.1 190.295 480.1C197.175 480.1 202.375 482.38 205.895 486.94C209.495 491.5 211.335 496.3 211.415 501.34H179.255V501.58C179.255 509.02 181.095 515.14 184.775 519.94C188.455 524.66 193.015 527.02 198.455 527.02C200.935 527.02 203.135 526.5 205.055 525.46C207.055 524.42 208.855 522.82 210.455 520.66L212.135 521.98ZM245.712 530.98V533.5H215.712V530.98C218.272 530.98 219.912 530.62 220.632 529.9C221.432 529.1 221.832 527.22 221.832 524.26V490.54C221.832 487.58 221.432 485.74 220.632 485.02C219.912 484.22 218.272 483.82 215.712 483.82V481.3H237.192V493.54C240.072 488.98 242.512 485.62 244.512 483.46C246.512 481.22 248.752 480.1 251.232 480.1C252.912 480.1 254.512 480.58 256.032 481.54C257.632 482.5 258.832 483.5 259.632 484.54L255.552 498.22L255.072 498.34C253.792 496.1 252.152 494.3 250.152 492.94C248.152 491.5 246.272 490.78 244.512 490.78C243.312 490.78 242.112 491.26 240.912 492.22C239.792 493.18 238.552 494.5 237.192 496.18V524.26C237.192 527.22 237.712 529.06 238.752 529.78C239.792 530.5 242.112 530.9 245.712 530.98ZM280.495 531.34C283.135 531.34 285.255 530.7 286.855 529.42C288.455 528.14 289.255 526.26 289.255 523.78C289.255 521.7 288.535 520.1 287.095 518.98C285.735 517.78 283.895 516.58 281.575 515.38L272.455 510.58C269.575 509.14 267.255 507.26 265.495 504.94C263.735 502.62 262.855 499.74 262.855 496.3C262.855 491.5 264.695 487.62 268.375 484.66C272.055 481.62 276.335 480.1 281.215 480.1C284.335 480.1 286.855 480.62 288.775 481.66C290.695 482.62 292.135 483.1 293.095 483.1C293.815 483.1 294.335 482.86 294.655 482.38C294.975 481.9 295.215 481.38 295.375 480.82H297.055L298.015 496.54L295.735 496.66C295.175 492.74 293.615 489.54 291.055 487.06C288.495 484.58 285.535 483.34 282.175 483.34C279.855 483.34 278.015 483.98 276.655 485.26C275.375 486.54 274.735 488.18 274.735 490.18C274.735 492.1 275.335 493.62 276.535 494.74C277.815 495.78 279.415 496.78 281.335 497.74L289.615 502.18C292.815 503.86 295.415 505.94 297.415 508.42C299.495 510.82 300.535 513.86 300.535 517.54C300.535 522.66 298.615 526.82 294.775 530.02C291.015 533.14 286.375 534.7 280.855 534.7C276.935 534.7 273.855 534.02 271.615 532.66C269.455 531.3 267.975 530.62 267.175 530.62C266.535 530.62 265.975 530.98 265.495 531.7C265.095 532.34 264.815 533.02 264.655 533.74H262.855L261.895 515.62L264.295 515.5C264.855 520.06 266.655 523.86 269.695 526.9C272.815 529.86 276.415 531.34 280.495 531.34ZM353.471 534.7H352.871L331.631 490.06C330.431 487.42 329.391 485.74 328.511 485.02C327.711 484.22 326.191 483.82 323.951 483.82V481.3H352.511V483.82C350.591 483.82 349.151 483.94 348.191 484.18C347.231 484.42 346.751 485.06 346.751 486.1C346.751 486.58 346.871 487.18 347.111 487.9C347.351 488.54 347.671 489.3 348.071 490.18L358.751 515.02L368.591 490.9C368.911 489.94 369.191 489.14 369.431 488.5C369.671 487.78 369.791 487.14 369.791 486.58C369.791 485.3 369.151 484.54 367.871 484.3C366.671 483.98 364.871 483.82 362.471 483.82V481.3H381.191V483.82C378.791 483.82 377.111 484.22 376.151 485.02C375.271 485.82 374.111 487.82 372.671 491.02L353.471 534.7ZM414.602 461.5C420.762 461.5 424.682 461.26 426.362 460.78C428.042 460.3 429.402 458.94 430.442 456.7H432.602L428.282 475.3H396.962L394.082 494.14C395.682 492.7 397.882 491.46 400.682 490.42C403.562 489.3 406.562 488.74 409.682 488.74C415.922 488.74 421.402 490.66 426.122 494.5C430.842 498.34 433.202 503.62 433.202 510.34C433.202 517.54 430.482 523.42 425.042 527.98C419.602 532.46 413.562 534.7 406.922 534.7C400.202 534.7 394.642 532.86 390.242 529.18C385.922 525.42 383.002 521.1 381.482 516.22L384.002 514.9C385.442 518.98 387.722 522.18 390.842 524.5C394.042 526.82 397.522 527.98 401.282 527.98C406.322 527.98 410.202 526.34 412.922 523.06C415.722 519.78 417.122 515.74 417.122 510.94C417.122 506.06 415.642 502.26 412.682 499.54C409.802 496.82 406.322 495.46 402.242 495.46C400.002 495.46 398.002 495.86 396.242 496.66C394.482 497.46 392.722 498.38 390.962 499.42L390.122 499.18L395.762 461.5H414.602Z" fill="white"/>
<rect x="537.5" y="374.167" width="1213" height="231.667" rx="14.5" fill="url(#paint2_radial_12_63)" fill-opacity="0.96" stroke="#787878" stroke-width="3"/>
<path d="M2858.54 489.72C2858.54 486.733 2859 483.8 2859.9 480.92C2860.86 477.987 2862.17 475.4 2863.82 473.16C2865.48 470.92 2867.42 469.107 2869.66 467.72C2871.96 466.333 2874.44 465.64 2877.1 465.64C2879.72 465.64 2882.14 466.333 2884.38 467.72C2886.68 469.107 2888.62 470.92 2890.22 473.16C2891.88 475.4 2893.16 477.987 2894.06 480.92C2895.02 483.8 2895.5 486.733 2895.5 489.72C2895.5 492.707 2895.02 495.667 2894.06 498.6C2893.16 501.48 2891.88 504.04 2890.22 506.28C2888.62 508.52 2886.68 510.333 2884.38 511.72C2882.14 513.107 2879.72 513.8 2877.1 513.8C2874.44 513.8 2871.96 513.107 2869.66 511.72C2867.42 510.333 2865.48 508.52 2863.82 506.28C2862.17 504.04 2860.86 501.48 2859.9 498.6C2859 495.667 2858.54 492.707 2858.54 489.72ZM2887.58 489.72C2887.58 487.16 2887.37 484.653 2886.94 482.2C2886.57 479.693 2885.96 477.48 2885.1 475.56C2884.3 473.64 2883.24 472.093 2881.9 470.92C2880.57 469.693 2878.97 469.08 2877.1 469.08C2875.24 469.08 2873.61 469.693 2872.22 470.92C2870.89 472.093 2869.77 473.64 2868.86 475.56C2868.01 477.48 2867.37 479.693 2866.94 482.2C2866.57 484.653 2866.38 487.16 2866.38 489.72C2866.38 492.28 2866.57 494.813 2866.94 497.32C2867.37 499.773 2868.01 501.96 2868.86 503.88C2869.77 505.8 2870.89 507.373 2872.22 508.6C2873.61 509.773 2875.24 510.36 2877.1 510.36C2878.97 510.36 2880.57 509.773 2881.9 508.6C2883.24 507.373 2884.3 505.8 2885.1 503.88C2885.96 501.96 2886.57 499.773 2886.94 497.32C2887.37 494.813 2887.58 492.28 2887.58 489.72ZM2899.52 508.6C2899.52 507.16 2900.03 505.933 2901.04 504.92C2902.05 503.907 2903.28 503.4 2904.72 503.4C2906.16 503.4 2907.39 503.907 2908.4 504.92C2909.41 505.933 2909.92 507.16 2909.92 508.6C2909.92 510.04 2909.41 511.267 2908.4 512.28C2907.39 513.293 2906.16 513.8 2904.72 513.8C2903.28 513.8 2902.05 513.293 2901.04 512.28C2900.03 511.267 2899.52 510.04 2899.52 508.6ZM2931.76 513.8C2929.57 513.8 2927.44 513.32 2925.36 512.36C2923.33 511.4 2921.52 510.067 2919.92 508.36C2918.37 506.6 2917.12 504.493 2916.16 502.04C2915.2 499.587 2914.72 496.867 2914.72 493.88C2914.72 490.093 2915.41 486.52 2916.8 483.16C2918.18 479.747 2920.1 476.787 2922.56 474.28C2925.06 471.72 2928.02 469.693 2931.44 468.2C2934.9 466.707 2938.69 465.96 2942.8 465.96C2943.38 465.96 2943.97 465.987 2944.56 466.04C2945.2 466.093 2945.81 466.147 2946.4 466.2V469.4H2945.04C2938.05 469.4 2932.64 471.373 2928.8 475.32C2925.01 479.267 2922.85 484.867 2922.32 492.12C2923.7 489.827 2925.41 488.147 2927.44 487.08C2929.52 486.013 2931.62 485.48 2933.76 485.48C2937.38 485.48 2940.56 486.653 2943.28 489C2946.05 491.347 2947.44 494.493 2947.44 498.44C2947.44 502.92 2945.89 506.6 2942.8 509.48C2939.7 512.36 2936.02 513.8 2931.76 513.8ZM2932.08 510.28C2934.48 510.28 2936.5 509.4 2938.16 507.64C2939.81 505.88 2940.64 503.4 2940.64 500.2C2940.64 497 2939.7 494.52 2937.84 492.76C2936.02 490.947 2933.68 490.04 2930.8 490.04C2929.14 490.04 2927.52 490.493 2925.92 491.4C2924.37 492.253 2923.14 493.533 2922.24 495.24V495.56C2922.24 500.04 2923.2 503.613 2925.12 506.28C2927.09 508.947 2929.41 510.28 2932.08 510.28ZM2951.71 513V512.04L2963.87 499.24C2968.24 494.653 2971.01 491.027 2972.19 488.36C2973.36 485.64 2973.95 482.92 2973.95 480.2C2973.95 477.48 2973.17 475.293 2971.63 473.64C2970.08 471.933 2967.95 471.08 2965.23 471.08C2962.4 471.08 2960.21 471.96 2958.67 473.72C2957.17 475.427 2955.95 477.267 2954.99 479.24L2952.27 478.04C2953.28 475 2955.04 472.173 2957.55 469.56C2960.11 466.947 2963.49 465.64 2967.71 465.64C2971.76 465.64 2975.04 466.84 2977.55 469.24C2980.05 471.587 2981.31 474.76 2981.31 478.76C2981.31 483.72 2979.33 488.253 2975.39 492.36C2971.44 496.467 2966.53 501.373 2960.67 507.08H2980.03L2980.91 499.96H2983.79V513H2951.71ZM2991.84 487.8C2991.84 485.027 2992.86 482.733 2994.88 480.92C2996.96 479.053 2999.52 478.12 3002.56 478.12C3004.11 478.12 3005.52 478.387 3006.8 478.92C3008.08 479.4 3009.23 480.147 3010.24 481.16L3011.04 478.44H3013.36V489.48H3010.72C3010.19 486.707 3009.23 484.6 3007.84 483.16C3006.51 481.72 3004.8 481 3002.72 481C3001.12 481 2999.82 481.453 2998.8 482.36C2997.79 483.267 2997.28 484.44 2997.28 485.88C2997.28 486.893 2997.6 487.773 2998.24 488.52C2998.88 489.267 3000.24 490.173 3002.32 491.24L3008 494.12C3010.56 495.4 3012.38 496.76 3013.44 498.2C3014.51 499.587 3015.04 501.267 3015.04 503.24C3015.04 506.28 3013.87 508.813 3011.52 510.84C3009.18 512.813 3006.3 513.8 3002.88 513.8C3001.12 513.8 2999.47 513.453 2997.92 512.76C2996.38 512.067 2995.12 511.133 2994.16 509.96L2993.44 513H2991.04V500.6H2993.76C2994.14 503.853 2995.12 506.36 2996.72 508.12C2998.32 509.88 3000.32 510.76 3002.72 510.76C3004.7 510.76 3006.27 510.28 3007.44 509.32C3008.62 508.36 3009.2 507.107 3009.2 505.56C3009.2 504.387 3008.88 503.427 3008.24 502.68C3007.66 501.88 3006.62 501.107 3005.12 500.36L2998.64 497.16C2996.19 495.933 2994.43 494.6 2993.36 493.16C2992.35 491.667 2991.84 489.88 2991.84 487.8Z" fill="white"/>
<rect x="521.5" y="358.167" width="2555" height="263.667" rx="30.5" stroke="white" stroke-opacity="0.23" stroke-width="3"/>
<path d="M37 830.126C34.2 830.126 31.84 831.366 29.92 833.846C28.08 836.326 27 839.966 26.68 844.766H46.24C46.08 840.526 45.24 837.046 43.72 834.326C42.2 831.526 39.96 830.126 37 830.126ZM59.44 868.646C56.96 872.806 53.84 875.966 50.08 878.126C46.32 880.286 42.4 881.366 38.32 881.366C31.12 881.366 24.88 878.926 19.6 874.046C14.4 869.166 11.8 862.806 11.8 854.966C11.8 847.046 14.44 840.366 19.72 834.926C25.08 829.486 31.04 826.766 37.6 826.766C44.48 826.766 49.68 829.046 53.2 833.606C56.8 838.166 58.64 842.966 58.72 848.006H26.56V848.246C26.56 855.686 28.4 861.806 32.08 866.606C35.76 871.326 40.32 873.686 45.76 873.686C48.24 873.686 50.44 873.166 52.36 872.126C54.36 871.086 56.16 869.486 57.76 867.326L59.44 868.646ZM62.4166 829.886C66.0166 827.966 69.7366 825.326 73.5766 821.966C77.4166 818.606 80.3766 815.486 82.4566 812.606H83.4166V828.206C85.3366 828.206 88.0166 828.166 91.4566 828.086C94.8966 828.006 97.4966 827.886 99.2566 827.726L98.5366 831.926H83.4166V864.566C83.4166 867.366 84.0566 869.686 85.3366 871.526C86.6166 873.366 88.4966 874.286 90.9766 874.286C92.7366 874.286 94.2566 873.886 95.5366 873.086C96.8166 872.206 98.0966 870.886 99.3766 869.126L101.057 870.686C99.1366 873.886 96.6566 876.486 93.6166 878.486C90.6566 880.406 87.2566 881.366 83.4166 881.366C79.0166 881.366 75.2966 879.966 72.2566 877.166C69.2966 874.286 67.8166 870.566 67.8166 866.006L68.1766 831.806H62.4166V829.886ZM129.04 877.646V880.166H101.56V877.646C104.12 877.646 105.76 877.286 106.48 876.566C107.2 875.766 107.56 873.886 107.56 870.926V811.166C107.56 808.206 107.08 806.406 106.12 805.766C105.16 805.046 103.24 804.686 100.36 804.686V802.166H123.16V837.326C124.36 834.766 126.4 832.366 129.28 830.126C132.24 827.886 135.6 826.766 139.36 826.766C144.88 826.766 149 828.486 151.72 831.926C154.52 835.366 155.92 839.486 155.92 844.286V870.926C155.92 873.886 156.28 875.766 157 876.566C157.72 877.286 159.36 877.646 161.92 877.646V880.166H134.32V877.646C136.88 877.646 138.52 877.286 139.24 876.566C139.96 875.766 140.32 873.886 140.32 870.926V846.446C140.32 842.286 139.52 839.246 137.92 837.326C136.32 835.326 134.16 834.326 131.44 834.326C129.76 834.326 128.16 834.846 126.64 835.886C125.2 836.846 124.04 838.246 123.16 840.086V870.926C123.16 873.886 123.52 875.766 124.24 876.566C124.96 877.286 126.56 877.646 129.04 877.646ZM189.695 830.126C186.895 830.126 184.535 831.366 182.615 833.846C180.775 836.326 179.695 839.966 179.375 844.766H198.935C198.775 840.526 197.935 837.046 196.415 834.326C194.895 831.526 192.655 830.126 189.695 830.126ZM212.135 868.646C209.655 872.806 206.535 875.966 202.775 878.126C199.015 880.286 195.095 881.366 191.015 881.366C183.815 881.366 177.575 878.926 172.295 874.046C167.095 869.166 164.495 862.806 164.495 854.966C164.495 847.046 167.135 840.366 172.415 834.926C177.775 829.486 183.735 826.766 190.295 826.766C197.175 826.766 202.375 829.046 205.895 833.606C209.495 838.166 211.335 842.966 211.415 848.006H179.255V848.246C179.255 855.686 181.095 861.806 184.775 866.606C188.455 871.326 193.015 873.686 198.455 873.686C200.935 873.686 203.135 873.166 205.055 872.126C207.055 871.086 208.855 869.486 210.455 867.326L212.135 868.646ZM245.712 877.646V880.166H215.712V877.646C218.272 877.646 219.912 877.286 220.632 876.566C221.432 875.766 221.832 873.886 221.832 870.926V837.206C221.832 834.246 221.432 832.406 220.632 831.686C219.912 830.886 218.272 830.486 215.712 830.486V827.966H237.192V840.206C240.072 835.646 242.512 832.286 244.512 830.126C246.512 827.886 248.752 826.766 251.232 826.766C252.912 826.766 254.512 827.246 256.032 828.206C257.632 829.166 258.832 830.166 259.632 831.206L255.552 844.886L255.072 845.006C253.792 842.766 252.152 840.966 250.152 839.606C248.152 838.166 246.272 837.446 244.512 837.446C243.312 837.446 242.112 837.926 240.912 838.886C239.792 839.846 238.552 841.166 237.192 842.846V870.926C237.192 873.886 237.712 875.726 238.752 876.446C239.792 877.166 242.112 877.566 245.712 877.646ZM280.495 878.006C283.135 878.006 285.255 877.366 286.855 876.086C288.455 874.806 289.255 872.926 289.255 870.446C289.255 868.366 288.535 866.766 287.095 865.646C285.735 864.446 283.895 863.246 281.575 862.046L272.455 857.246C269.575 855.806 267.255 853.926 265.495 851.606C263.735 849.286 262.855 846.406 262.855 842.966C262.855 838.166 264.695 834.286 268.375 831.326C272.055 828.286 276.335 826.766 281.215 826.766C284.335 826.766 286.855 827.286 288.775 828.326C290.695 829.286 292.135 829.766 293.095 829.766C293.815 829.766 294.335 829.526 294.655 829.046C294.975 828.566 295.215 828.046 295.375 827.486H297.055L298.015 843.206L295.735 843.326C295.175 839.406 293.615 836.206 291.055 833.726C288.495 831.246 285.535 830.006 282.175 830.006C279.855 830.006 278.015 830.646 276.655 831.926C275.375 833.206 274.735 834.846 274.735 836.846C274.735 838.766 275.335 840.286 276.535 841.406C277.815 842.446 279.415 843.446 281.335 844.406L289.615 848.846C292.815 850.526 295.415 852.606 297.415 855.086C299.495 857.486 300.535 860.526 300.535 864.206C300.535 869.326 298.615 873.486 294.775 876.686C291.015 879.806 286.375 881.366 280.855 881.366C276.935 881.366 273.855 880.686 271.615 879.326C269.455 877.966 267.975 877.286 267.175 877.286C266.535 877.286 265.975 877.646 265.495 878.366C265.095 879.006 264.815 879.686 264.655 880.406H262.855L261.895 862.286L264.295 862.166C264.855 866.726 266.655 870.526 269.695 873.566C272.815 876.526 276.415 878.006 280.495 878.006ZM353.471 881.366H352.871L331.631 836.726C330.431 834.086 329.391 832.406 328.511 831.686C327.711 830.886 326.191 830.486 323.951 830.486V827.966H352.511V830.486C350.591 830.486 349.151 830.606 348.191 830.846C347.231 831.086 346.751 831.726 346.751 832.766C346.751 833.246 346.871 833.846 347.111 834.566C347.351 835.206 347.671 835.966 348.071 836.846L358.751 861.686L368.591 837.566C368.911 836.606 369.191 835.806 369.431 835.166C369.671 834.446 369.791 833.806 369.791 833.246C369.791 831.966 369.151 831.206 367.871 830.966C366.671 830.646 364.871 830.486 362.471 830.486V827.966H381.191V830.486C378.791 830.486 377.111 830.886 376.151 831.686C375.271 832.486 374.111 834.486 372.671 837.686L353.471 881.366ZM412.802 881.366C405.762 881.366 399.322 878.486 393.482 872.726C387.642 866.886 384.722 859.246 384.722 849.806C384.722 838.126 389.282 828.046 398.402 819.566C407.522 811.086 418.922 806.846 432.602 806.846C433.322 806.846 434.042 806.886 434.762 806.966C435.482 806.966 436.202 807.006 436.922 807.086L436.802 809.606H435.482C425.002 809.606 416.882 813.086 411.122 820.046C405.362 827.006 402.042 836.206 401.162 847.646C403.082 844.926 405.562 842.726 408.602 841.046C411.642 839.366 414.882 838.526 418.322 838.526C424.082 838.526 428.922 840.326 432.842 843.926C436.842 847.526 438.842 852.206 438.842 857.966C438.842 864.686 436.242 870.286 431.042 874.766C425.842 879.166 419.762 881.366 412.802 881.366ZM413.762 877.886C416.642 877.886 419.122 876.606 421.202 874.046C423.282 871.406 424.322 867.366 424.322 861.926C424.322 856.886 423.082 852.806 420.602 849.686C418.122 846.566 414.922 845.006 411.002 845.006C409.242 845.006 407.402 845.526 405.482 846.566C403.642 847.606 402.122 849.126 400.922 851.126C400.922 851.606 400.922 852.086 400.922 852.566C400.922 853.046 400.922 853.566 400.922 854.126C400.922 861.406 402.162 867.206 404.642 871.526C407.122 875.766 410.162 877.886 413.762 877.886Z" fill="white"/>
<rect x="537.5" y="720.833" width="2217" height="231.667" rx="14.5" fill="url(#paint3_radial_12_63)" fill-opacity="0.96" stroke="#787878" stroke-width="3"/>
<path d="M2900.91 859.666H2873.31V856.066H2884.03V819.106L2872.99 821.746V818.226L2891.07 812.306V856.066H2900.91V859.666ZM2907.57 855.266C2907.57 853.826 2908.07 852.599 2909.09 851.586C2910.1 850.573 2911.33 850.066 2912.77 850.066C2914.21 850.066 2915.43 850.573 2916.45 851.586C2917.46 852.599 2917.97 853.826 2917.97 855.266C2917.97 856.706 2917.46 857.933 2916.45 858.946C2915.43 859.959 2914.21 860.466 2912.77 860.466C2911.33 860.466 2910.1 859.959 2909.09 858.946C2908.07 857.933 2907.57 856.706 2907.57 855.266ZM2953.49 859.666H2925.89V856.066H2936.61V819.106L2925.57 821.746V818.226L2943.65 812.306V856.066H2953.49V859.666ZM2986.06 859.666H2958.46V856.066H2969.18V819.106L2958.14 821.746V818.226L2976.22 812.306V856.066H2986.06V859.666ZM2991.84 834.466C2991.84 831.693 2992.86 829.399 2994.88 827.586C2996.96 825.719 2999.52 824.786 3002.56 824.786C3004.11 824.786 3005.52 825.053 3006.8 825.586C3008.08 826.066 3009.23 826.813 3010.24 827.826L3011.04 825.106H3013.36V836.146H3010.72C3010.19 833.373 3009.23 831.266 3007.84 829.826C3006.51 828.386 3004.8 827.666 3002.72 827.666C3001.12 827.666 2999.82 828.119 2998.8 829.026C2997.79 829.933 2997.28 831.106 2997.28 832.546C2997.28 833.559 2997.6 834.439 2998.24 835.186C2998.88 835.933 3000.24 836.839 3002.32 837.906L3008 840.786C3010.56 842.066 3012.38 843.426 3013.44 844.866C3014.51 846.253 3015.04 847.933 3015.04 849.906C3015.04 852.946 3013.87 855.479 3011.52 857.506C3009.18 859.479 3006.3 860.466 3002.88 860.466C3001.12 860.466 2999.47 860.119 2997.92 859.426C2996.38 858.733 2995.12 857.799 2994.16 856.626L2993.44 859.666H2991.04V847.266H2993.76C2994.14 850.519 2995.12 853.026 2996.72 854.786C2998.32 856.546 3000.32 857.426 3002.72 857.426C3004.7 857.426 3006.27 856.946 3007.44 855.986C3008.62 855.026 3009.2 853.773 3009.2 852.226C3009.2 851.053 3008.88 850.093 3008.24 849.346C3007.66 848.546 3006.62 847.773 3005.12 847.026L2998.64 843.826C2996.19 842.599 2994.43 841.266 2993.36 839.826C2992.35 838.333 2991.84 836.546 2991.84 834.466Z" fill="white"/>
<rect x="521.5" y="704.833" width="2555" height="263.667" rx="30.5" stroke="white" stroke-opacity="0.23" stroke-width="3"/>
<path d="M2123.6 1060.16C2123.6 1058.83 2124.03 1057.73 2124.88 1056.88C2125.79 1055.97 2126.88 1055.52 2128.16 1055.52C2129.5 1055.52 2130.62 1055.97 2131.52 1056.88C2132.43 1057.73 2132.88 1058.83 2132.88 1060.16C2132.88 1061.44 2132.43 1062.53 2131.52 1063.44C2130.62 1064.29 2129.5 1064.72 2128.16 1064.72C2126.88 1064.72 2125.79 1064.29 2124.88 1063.44C2124.03 1062.53 2123.6 1061.44 2123.6 1060.16ZM2132.24 1071.92V1103.12H2136.96V1106H2120.48V1103.12H2125.2V1074.8H2120.48V1071.92H2132.24ZM2143.09 1080.8C2143.09 1078.03 2144.11 1075.73 2146.13 1073.92C2148.21 1072.05 2150.77 1071.12 2153.81 1071.12C2155.36 1071.12 2156.77 1071.39 2158.05 1071.92C2159.33 1072.4 2160.48 1073.15 2161.49 1074.16L2162.29 1071.44H2164.61V1082.48H2161.97C2161.44 1079.71 2160.48 1077.6 2159.09 1076.16C2157.76 1074.72 2156.05 1074 2153.97 1074C2152.37 1074 2151.07 1074.45 2150.05 1075.36C2149.04 1076.27 2148.53 1077.44 2148.53 1078.88C2148.53 1079.89 2148.85 1080.77 2149.49 1081.52C2150.13 1082.27 2151.49 1083.17 2153.57 1084.24L2159.25 1087.12C2161.81 1088.4 2163.63 1089.76 2164.69 1091.2C2165.76 1092.59 2166.29 1094.27 2166.29 1096.24C2166.29 1099.28 2165.12 1101.81 2162.77 1103.84C2160.43 1105.81 2157.55 1106.8 2154.13 1106.8C2152.37 1106.8 2150.72 1106.45 2149.17 1105.76C2147.63 1105.07 2146.37 1104.13 2145.41 1102.96L2144.69 1106H2142.29V1093.6H2145.01C2145.39 1096.85 2146.37 1099.36 2147.97 1101.12C2149.57 1102.88 2151.57 1103.76 2153.97 1103.76C2155.95 1103.76 2157.52 1103.28 2158.69 1102.32C2159.87 1101.36 2160.45 1100.11 2160.45 1098.56C2160.45 1097.39 2160.13 1096.43 2159.49 1095.68C2158.91 1094.88 2157.87 1094.11 2156.37 1093.36L2149.89 1090.16C2147.44 1088.93 2145.68 1087.6 2144.61 1086.16C2143.6 1084.67 2143.09 1082.88 2143.09 1080.8ZM2192.61 1066.08L2186.29 1084.24H2199.09L2192.61 1066.08ZM2186.53 1102.64V1106H2170.37V1102.64H2175.49L2191.25 1059.44H2197.41L2213.65 1102.64H2218.61V1106H2199.89V1102.64H2205.73L2200.29 1087.52H2185.09L2179.81 1102.64H2186.53ZM2238.08 1102.64C2239.46 1102.64 2240.74 1102.45 2241.92 1102.08C2243.09 1101.71 2244.16 1100.93 2245.12 1099.76V1075.68C2244.26 1075.15 2243.3 1074.77 2242.24 1074.56C2241.22 1074.35 2240.18 1074.24 2239.12 1074.24C2236.29 1074.24 2233.76 1075.44 2231.52 1077.84C2229.28 1080.24 2228.16 1083.84 2228.16 1088.64C2228.16 1092.27 2228.98 1095.52 2230.64 1098.4C2232.29 1101.23 2234.77 1102.64 2238.08 1102.64ZM2245.12 1106V1101.76C2243.94 1102.99 2242.5 1104.13 2240.8 1105.2C2239.14 1106.27 2237.25 1106.8 2235.12 1106.8C2231.28 1106.8 2227.94 1105.31 2225.12 1102.32C2222.34 1099.28 2220.96 1095.31 2220.96 1090.4C2220.96 1087.41 2221.46 1084.75 2222.48 1082.4C2223.49 1080 2224.8 1077.97 2226.4 1076.32C2228 1074.67 2229.84 1073.39 2231.92 1072.48C2234.05 1071.57 2236.18 1071.12 2238.32 1071.12C2239.6 1071.12 2240.8 1071.25 2241.92 1071.52C2243.09 1071.79 2244.16 1072.19 2245.12 1072.72V1056.08H2238V1053.2H2252.16V1103.12H2256.88V1106H2245.12ZM2279.17 1102.64C2280.56 1102.64 2281.84 1102.45 2283.01 1102.08C2284.18 1101.71 2285.25 1100.93 2286.21 1099.76V1075.68C2285.36 1075.15 2284.4 1074.77 2283.33 1074.56C2282.32 1074.35 2281.28 1074.24 2280.21 1074.24C2277.38 1074.24 2274.85 1075.44 2272.61 1077.84C2270.37 1080.24 2269.25 1083.84 2269.25 1088.64C2269.25 1092.27 2270.08 1095.52 2271.73 1098.4C2273.38 1101.23 2275.86 1102.64 2279.17 1102.64ZM2286.21 1106V1101.76C2285.04 1102.99 2283.6 1104.13 2281.89 1105.2C2280.24 1106.27 2278.34 1106.8 2276.21 1106.8C2272.37 1106.8 2269.04 1105.31 2266.21 1102.32C2263.44 1099.28 2262.05 1095.31 2262.05 1090.4C2262.05 1087.41 2262.56 1084.75 2263.57 1082.4C2264.58 1080 2265.89 1077.97 2267.49 1076.32C2269.09 1074.67 2270.93 1073.39 2273.01 1072.48C2275.14 1071.57 2277.28 1071.12 2279.41 1071.12C2280.69 1071.12 2281.89 1071.25 2283.01 1071.52C2284.18 1071.79 2285.25 1072.19 2286.21 1072.72V1056.08H2279.09V1053.2H2293.25V1103.12H2297.97V1106H2286.21ZM2320.98 1103.12V1106H2302.9V1103.12H2307.62V1074.8H2302.9V1071.92H2314.66V1077.84C2316.21 1076.35 2317.84 1074.85 2319.54 1073.36C2321.25 1071.87 2322.8 1071.12 2324.18 1071.12C2325.52 1071.12 2326.72 1071.47 2327.78 1072.16C2328.9 1072.85 2329.78 1073.57 2330.42 1074.32L2326.66 1080.16C2325.49 1079.31 2324.37 1078.56 2323.3 1077.92C2322.29 1077.28 2321.25 1076.96 2320.18 1076.96C2319.65 1076.96 2318.88 1077.15 2317.86 1077.52C2316.9 1077.84 2315.84 1078.53 2314.66 1079.6V1103.12H2320.98ZM2348.97 1074.08C2347.21 1074.08 2345.45 1074.91 2343.69 1076.56C2341.93 1078.16 2340.84 1080.64 2340.41 1084H2356.25C2356.14 1081.17 2355.45 1078.83 2354.17 1076.96C2352.94 1075.04 2351.21 1074.08 2348.97 1074.08ZM2363.53 1100.48C2361.88 1102.72 2359.9 1104.35 2357.61 1105.36C2355.32 1106.32 2352.92 1106.8 2350.41 1106.8C2345.93 1106.8 2342.01 1105.25 2338.65 1102.16C2335.34 1099.07 2333.69 1094.96 2333.69 1089.84C2333.69 1084.61 2335.29 1080.19 2338.49 1076.56C2341.69 1072.93 2345.48 1071.12 2349.85 1071.12C2354.54 1071.12 2357.93 1072.72 2360.01 1075.92C2362.14 1079.07 2363.21 1082.72 2363.21 1086.88H2340.25C2340.3 1091.79 2341.66 1095.6 2344.33 1098.32C2347.05 1101.04 2350.06 1102.4 2353.37 1102.4C2354.76 1102.4 2356.22 1102.16 2357.77 1101.68C2359.32 1101.2 2360.76 1100.24 2362.09 1098.8L2363.53 1100.48ZM2369.89 1080.8C2369.89 1078.03 2370.9 1075.73 2372.93 1073.92C2375.01 1072.05 2377.57 1071.12 2380.61 1071.12C2382.16 1071.12 2383.57 1071.39 2384.85 1071.92C2386.13 1072.4 2387.28 1073.15 2388.29 1074.16L2389.09 1071.44H2391.41V1082.48H2388.77C2388.24 1079.71 2387.28 1077.6 2385.89 1076.16C2384.56 1074.72 2382.85 1074 2380.77 1074C2379.17 1074 2377.86 1074.45 2376.85 1075.36C2375.84 1076.27 2375.33 1077.44 2375.33 1078.88C2375.33 1079.89 2375.65 1080.77 2376.29 1081.52C2376.93 1082.27 2378.29 1083.17 2380.37 1084.24L2386.05 1087.12C2388.61 1088.4 2390.42 1089.76 2391.49 1091.2C2392.56 1092.59 2393.09 1094.27 2393.09 1096.24C2393.09 1099.28 2391.92 1101.81 2389.57 1103.84C2387.22 1105.81 2384.34 1106.8 2380.93 1106.8C2379.17 1106.8 2377.52 1106.45 2375.97 1105.76C2374.42 1105.07 2373.17 1104.13 2372.21 1102.96L2371.49 1106H2369.09V1093.6H2371.81C2372.18 1096.85 2373.17 1099.36 2374.77 1101.12C2376.37 1102.88 2378.37 1103.76 2380.77 1103.76C2382.74 1103.76 2384.32 1103.28 2385.49 1102.32C2386.66 1101.36 2387.25 1100.11 2387.25 1098.56C2387.25 1097.39 2386.93 1096.43 2386.29 1095.68C2385.7 1094.88 2384.66 1094.11 2383.17 1093.36L2376.69 1090.16C2374.24 1088.93 2372.48 1087.6 2371.41 1086.16C2370.4 1084.67 2369.89 1082.88 2369.89 1080.8ZM2399.97 1080.8C2399.97 1078.03 2400.98 1075.73 2403.01 1073.92C2405.09 1072.05 2407.65 1071.12 2410.69 1071.12C2412.23 1071.12 2413.65 1071.39 2414.93 1071.92C2416.21 1072.4 2417.35 1073.15 2418.37 1074.16L2419.17 1071.44H2421.49V1082.48H2418.85C2418.31 1079.71 2417.35 1077.6 2415.97 1076.16C2414.63 1074.72 2412.93 1074 2410.85 1074C2409.25 1074 2407.94 1074.45 2406.93 1075.36C2405.91 1076.27 2405.41 1077.44 2405.41 1078.88C2405.41 1079.89 2405.73 1080.77 2406.37 1081.52C2407.01 1082.27 2408.37 1083.17 2410.45 1084.24L2416.13 1087.12C2418.69 1088.4 2420.5 1089.76 2421.57 1091.2C2422.63 1092.59 2423.17 1094.27 2423.17 1096.24C2423.17 1099.28 2421.99 1101.81 2419.65 1103.84C2417.3 1105.81 2414.42 1106.8 2411.01 1106.8C2409.25 1106.8 2407.59 1106.45 2406.05 1105.76C2404.5 1105.07 2403.25 1104.13 2402.29 1102.96L2401.57 1106H2399.17V1093.6H2401.89C2402.26 1096.85 2403.25 1099.36 2404.85 1101.12C2406.45 1102.88 2408.45 1103.76 2410.85 1103.76C2412.82 1103.76 2414.39 1103.28 2415.57 1102.32C2416.74 1101.36 2417.33 1100.11 2417.33 1098.56C2417.33 1097.39 2417.01 1096.43 2416.37 1095.68C2415.78 1094.88 2414.74 1094.11 2413.25 1093.36L2406.77 1090.16C2404.31 1088.93 2402.55 1087.6 2401.49 1086.16C2400.47 1084.67 2399.97 1082.88 2399.97 1080.8ZM2447.76 1087.68V1081.44H2481.36V1087.68H2447.76ZM2533.72 1106H2506.12V1102.4H2516.84V1065.44L2505.8 1068.08V1064.56L2523.88 1058.64V1102.4H2533.72V1106ZM2538.78 1082.72C2538.78 1079.73 2539.23 1076.8 2540.14 1073.92C2541.1 1070.99 2542.4 1068.4 2544.06 1066.16C2545.71 1063.92 2547.66 1062.11 2549.9 1060.72C2552.19 1059.33 2554.67 1058.64 2557.34 1058.64C2559.95 1058.64 2562.38 1059.33 2564.62 1060.72C2566.91 1062.11 2568.86 1063.92 2570.46 1066.16C2572.11 1068.4 2573.39 1070.99 2574.3 1073.92C2575.26 1076.8 2575.74 1079.73 2575.74 1082.72C2575.74 1085.71 2575.26 1088.67 2574.3 1091.6C2573.39 1094.48 2572.11 1097.04 2570.46 1099.28C2568.86 1101.52 2566.91 1103.33 2564.62 1104.72C2562.38 1106.11 2559.95 1106.8 2557.34 1106.8C2554.67 1106.8 2552.19 1106.11 2549.9 1104.72C2547.66 1103.33 2545.71 1101.52 2544.06 1099.28C2542.4 1097.04 2541.1 1094.48 2540.14 1091.6C2539.23 1088.67 2538.78 1085.71 2538.78 1082.72ZM2567.82 1082.72C2567.82 1080.16 2567.6 1077.65 2567.18 1075.2C2566.8 1072.69 2566.19 1070.48 2565.34 1068.56C2564.54 1066.64 2563.47 1065.09 2562.14 1063.92C2560.8 1062.69 2559.2 1062.08 2557.34 1062.08C2555.47 1062.08 2553.84 1062.69 2552.46 1063.92C2551.12 1065.09 2550 1066.64 2549.1 1068.56C2548.24 1070.48 2547.6 1072.69 2547.18 1075.2C2546.8 1077.65 2546.62 1080.16 2546.62 1082.72C2546.62 1085.28 2546.8 1087.81 2547.18 1090.32C2547.6 1092.77 2548.24 1094.96 2549.1 1096.88C2550 1098.8 2551.12 1100.37 2552.46 1101.6C2553.84 1102.77 2555.47 1103.36 2557.34 1103.36C2559.2 1103.36 2560.8 1102.77 2562.14 1101.6C2563.47 1100.37 2564.54 1098.8 2565.34 1096.88C2566.19 1094.96 2566.8 1092.77 2567.18 1090.32C2567.6 1087.81 2567.82 1085.28 2567.82 1082.72ZM2582.14 1082.72C2582.14 1079.73 2582.59 1076.8 2583.5 1073.92C2584.46 1070.99 2585.76 1068.4 2587.42 1066.16C2589.07 1063.92 2591.02 1062.11 2593.26 1060.72C2595.55 1059.33 2598.03 1058.64 2600.7 1058.64C2603.31 1058.64 2605.74 1059.33 2607.98 1060.72C2610.27 1062.11 2612.22 1063.92 2613.82 1066.16C2615.47 1068.4 2616.75 1070.99 2617.66 1073.92C2618.62 1076.8 2619.1 1079.73 2619.1 1082.72C2619.1 1085.71 2618.62 1088.67 2617.66 1091.6C2616.75 1094.48 2615.47 1097.04 2613.82 1099.28C2612.22 1101.52 2610.27 1103.33 2607.98 1104.72C2605.74 1106.11 2603.31 1106.8 2600.7 1106.8C2598.03 1106.8 2595.55 1106.11 2593.26 1104.72C2591.02 1103.33 2589.07 1101.52 2587.42 1099.28C2585.76 1097.04 2584.46 1094.48 2583.5 1091.6C2582.59 1088.67 2582.14 1085.71 2582.14 1082.72ZM2611.18 1082.72C2611.18 1080.16 2610.96 1077.65 2610.54 1075.2C2610.16 1072.69 2609.55 1070.48 2608.7 1068.56C2607.9 1066.64 2606.83 1065.09 2605.5 1063.92C2604.16 1062.69 2602.56 1062.08 2600.7 1062.08C2598.83 1062.08 2597.2 1062.69 2595.82 1063.92C2594.48 1065.09 2593.36 1066.64 2592.46 1068.56C2591.6 1070.48 2590.96 1072.69 2590.54 1075.2C2590.16 1077.65 2589.98 1080.16 2589.98 1082.72C2589.98 1085.28 2590.16 1087.81 2590.54 1090.32C2590.96 1092.77 2591.6 1094.96 2592.46 1096.88C2593.36 1098.8 2594.48 1100.37 2595.82 1101.6C2597.2 1102.77 2598.83 1103.36 2600.7 1103.36C2602.56 1103.36 2604.16 1102.77 2605.5 1101.6C2606.83 1100.37 2607.9 1098.8 2608.7 1096.88C2609.55 1094.96 2610.16 1092.77 2610.54 1090.32C2610.96 1087.81 2611.18 1085.28 2611.18 1082.72ZM2628.87 1106C2627.54 1106.16 2626.26 1105.84 2625.03 1105.04C2623.86 1104.24 2623.27 1102.96 2623.27 1101.2C2623.27 1099.87 2623.75 1098.75 2624.71 1097.84C2625.67 1096.88 2626.77 1096.4 2627.99 1096.4C2629.59 1096.4 2630.93 1096.96 2631.99 1098.08C2633.06 1099.15 2633.59 1100.8 2633.59 1103.04C2633.59 1106.93 2632.37 1110.11 2629.91 1112.56C2627.51 1115.01 2624.71 1116.53 2621.51 1117.12L2620.71 1114.72C2623.17 1113.97 2625.14 1112.88 2626.63 1111.44C2628.13 1110.05 2628.87 1108.24 2628.87 1106ZM2637.53 1082.72C2637.53 1079.73 2637.98 1076.8 2638.89 1073.92C2639.85 1070.99 2641.15 1068.4 2642.81 1066.16C2644.46 1063.92 2646.41 1062.11 2648.65 1060.72C2650.94 1059.33 2653.42 1058.64 2656.09 1058.64C2658.7 1058.64 2661.13 1059.33 2663.37 1060.72C2665.66 1062.11 2667.61 1063.92 2669.21 1066.16C2670.86 1068.4 2672.14 1070.99 2673.05 1073.92C2674.01 1076.8 2674.49 1079.73 2674.49 1082.72C2674.49 1085.71 2674.01 1088.67 2673.05 1091.6C2672.14 1094.48 2670.86 1097.04 2669.21 1099.28C2667.61 1101.52 2665.66 1103.33 2663.37 1104.72C2661.13 1106.11 2658.7 1106.8 2656.09 1106.8C2653.42 1106.8 2650.94 1106.11 2648.65 1104.72C2646.41 1103.33 2644.46 1101.52 2642.81 1099.28C2641.15 1097.04 2639.85 1094.48 2638.89 1091.6C2637.98 1088.67 2637.53 1085.71 2637.53 1082.72ZM2666.57 1082.72C2666.57 1080.16 2666.35 1077.65 2665.93 1075.2C2665.55 1072.69 2664.94 1070.48 2664.09 1068.56C2663.29 1066.64 2662.22 1065.09 2660.89 1063.92C2659.55 1062.69 2657.95 1062.08 2656.09 1062.08C2654.22 1062.08 2652.59 1062.69 2651.21 1063.92C2649.87 1065.09 2648.75 1066.64 2647.85 1068.56C2646.99 1070.48 2646.35 1072.69 2645.93 1075.2C2645.55 1077.65 2645.37 1080.16 2645.37 1082.72C2645.37 1085.28 2645.55 1087.81 2645.93 1090.32C2646.35 1092.77 2646.99 1094.96 2647.85 1096.88C2648.75 1098.8 2649.87 1100.37 2651.21 1101.6C2652.59 1102.77 2654.22 1103.36 2656.09 1103.36C2657.95 1103.36 2659.55 1102.77 2660.89 1101.6C2662.22 1100.37 2663.29 1098.8 2664.09 1096.88C2664.94 1094.96 2665.55 1092.77 2665.93 1090.32C2666.35 1087.81 2666.57 1085.28 2666.57 1082.72ZM2680.89 1082.72C2680.89 1079.73 2681.34 1076.8 2682.25 1073.92C2683.21 1070.99 2684.51 1068.4 2686.17 1066.16C2687.82 1063.92 2689.77 1062.11 2692.01 1060.72C2694.3 1059.33 2696.78 1058.64 2699.45 1058.64C2702.06 1058.64 2704.49 1059.33 2706.73 1060.72C2709.02 1062.11 2710.97 1063.92 2712.57 1066.16C2714.22 1068.4 2715.5 1070.99 2716.41 1073.92C2717.37 1076.8 2717.85 1079.73 2717.85 1082.72C2717.85 1085.71 2717.37 1088.67 2716.41 1091.6C2715.5 1094.48 2714.22 1097.04 2712.57 1099.28C2710.97 1101.52 2709.02 1103.33 2706.73 1104.72C2704.49 1106.11 2702.06 1106.8 2699.45 1106.8C2696.78 1106.8 2694.3 1106.11 2692.01 1104.72C2689.77 1103.33 2687.82 1101.52 2686.17 1099.28C2684.51 1097.04 2683.21 1094.48 2682.25 1091.6C2681.34 1088.67 2680.89 1085.71 2680.89 1082.72ZM2709.93 1082.72C2709.93 1080.16 2709.71 1077.65 2709.29 1075.2C2708.91 1072.69 2708.3 1070.48 2707.45 1068.56C2706.65 1066.64 2705.58 1065.09 2704.25 1063.92C2702.91 1062.69 2701.31 1062.08 2699.45 1062.08C2697.58 1062.08 2695.95 1062.69 2694.57 1063.92C2693.23 1065.09 2692.11 1066.64 2691.21 1068.56C2690.35 1070.48 2689.71 1072.69 2689.29 1075.2C2688.91 1077.65 2688.73 1080.16 2688.73 1082.72C2688.73 1085.28 2688.91 1087.81 2689.29 1090.32C2689.71 1092.77 2690.35 1094.96 2691.21 1096.88C2692.11 1098.8 2693.23 1100.37 2694.57 1101.6C2695.95 1102.77 2697.58 1103.36 2699.45 1103.36C2701.31 1103.36 2702.91 1102.77 2704.25 1101.6C2705.58 1100.37 2706.65 1098.8 2707.45 1096.88C2708.3 1094.96 2708.91 1092.77 2709.29 1090.32C2709.71 1087.81 2709.93 1085.28 2709.93 1082.72ZM2724.25 1082.72C2724.25 1079.73 2724.7 1076.8 2725.61 1073.92C2726.57 1070.99 2727.87 1068.4 2729.53 1066.16C2731.18 1063.92 2733.13 1062.11 2735.37 1060.72C2737.66 1059.33 2740.14 1058.64 2742.81 1058.64C2745.42 1058.64 2747.85 1059.33 2750.09 1060.72C2752.38 1062.11 2754.33 1063.92 2755.93 1066.16C2757.58 1068.4 2758.86 1070.99 2759.77 1073.92C2760.73 1076.8 2761.21 1079.73 2761.21 1082.72C2761.21 1085.71 2760.73 1088.67 2759.77 1091.6C2758.86 1094.48 2757.58 1097.04 2755.93 1099.28C2754.33 1101.52 2752.38 1103.33 2750.09 1104.72C2747.85 1106.11 2745.42 1106.8 2742.81 1106.8C2740.14 1106.8 2737.66 1106.11 2735.37 1104.72C2733.13 1103.33 2731.18 1101.52 2729.53 1099.28C2727.87 1097.04 2726.57 1094.48 2725.61 1091.6C2724.7 1088.67 2724.25 1085.71 2724.25 1082.72ZM2753.29 1082.72C2753.29 1080.16 2753.07 1077.65 2752.65 1075.2C2752.27 1072.69 2751.66 1070.48 2750.81 1068.56C2750.01 1066.64 2748.94 1065.09 2747.61 1063.92C2746.27 1062.69 2744.67 1062.08 2742.81 1062.08C2740.94 1062.08 2739.31 1062.69 2737.93 1063.92C2736.59 1065.09 2735.47 1066.64 2734.57 1068.56C2733.71 1070.48 2733.07 1072.69 2732.65 1075.2C2732.27 1077.65 2732.09 1080.16 2732.09 1082.72C2732.09 1085.28 2732.27 1087.81 2732.65 1090.32C2733.07 1092.77 2733.71 1094.96 2734.57 1096.88C2735.47 1098.8 2736.59 1100.37 2737.93 1101.6C2739.31 1102.77 2740.94 1103.36 2742.81 1103.36C2744.67 1103.36 2746.27 1102.77 2747.61 1101.6C2748.94 1100.37 2750.01 1098.8 2750.81 1096.88C2751.66 1094.96 2752.27 1092.77 2752.65 1090.32C2753.07 1087.81 2753.29 1085.28 2753.29 1082.72ZM2788.52 1060.16C2788.52 1058.83 2788.95 1057.73 2789.8 1056.88C2790.71 1055.97 2791.8 1055.52 2793.08 1055.52C2794.42 1055.52 2795.54 1055.97 2796.44 1056.88C2797.35 1057.73 2797.8 1058.83 2797.8 1060.16C2797.8 1061.44 2797.35 1062.53 2796.44 1063.44C2795.54 1064.29 2794.42 1064.72 2793.08 1064.72C2791.8 1064.72 2790.71 1064.29 2789.8 1063.44C2788.95 1062.53 2788.52 1061.44 2788.52 1060.16ZM2797.16 1071.92V1103.12H2801.88V1106H2785.4V1103.12H2790.12V1074.8H2785.4V1071.92H2797.16ZM2804.89 1071.92H2810.09V1064.56L2817.05 1061.52V1071.92H2827.21V1074.8H2817.05V1097.44C2817.05 1098.93 2817.48 1100.16 2818.33 1101.12C2819.19 1102.08 2820.44 1102.56 2822.09 1102.56C2823.27 1102.56 2824.36 1102.21 2825.37 1101.52C2826.39 1100.83 2827.43 1099.89 2828.49 1098.72L2830.25 1100.48C2828.81 1102.51 2827.11 1104.08 2825.13 1105.2C2823.16 1106.27 2821.16 1106.8 2819.13 1106.8C2816.52 1106.8 2814.36 1106.08 2812.65 1104.64C2810.95 1103.15 2810.09 1101.04 2810.09 1098.32V1074.8H2804.89V1071.92ZM2848.11 1074.08C2846.35 1074.08 2844.59 1074.91 2842.83 1076.56C2841.07 1078.16 2839.98 1080.64 2839.55 1084H2855.39C2855.28 1081.17 2854.59 1078.83 2853.31 1076.96C2852.08 1075.04 2850.35 1074.08 2848.11 1074.08ZM2862.67 1100.48C2861.02 1102.72 2859.04 1104.35 2856.75 1105.36C2854.46 1106.32 2852.06 1106.8 2849.55 1106.8C2845.07 1106.8 2841.15 1105.25 2837.79 1102.16C2834.48 1099.07 2832.83 1094.96 2832.83 1089.84C2832.83 1084.61 2834.43 1080.19 2837.63 1076.56C2840.83 1072.93 2844.62 1071.12 2848.99 1071.12C2853.68 1071.12 2857.07 1072.72 2859.15 1075.92C2861.28 1079.07 2862.35 1082.72 2862.35 1086.88H2839.39C2839.44 1091.79 2840.8 1095.6 2843.47 1098.32C2846.19 1101.04 2849.2 1102.4 2852.51 1102.4C2853.9 1102.4 2855.36 1102.16 2856.91 1101.68C2858.46 1101.2 2859.9 1100.24 2861.23 1098.8L2862.67 1100.48ZM2885.75 1103.12V1106H2867.67V1103.12H2872.39V1074.8H2867.67V1071.92H2879.43V1077.84C2880.98 1076.35 2882.6 1074.85 2884.31 1073.36C2886.02 1071.87 2887.56 1071.12 2888.95 1071.12C2890.28 1071.12 2891.48 1071.47 2892.55 1072.16C2893.67 1072.85 2894.55 1073.57 2895.19 1074.32L2891.43 1080.16C2890.26 1079.31 2889.14 1078.56 2888.07 1077.92C2887.06 1077.28 2886.02 1076.96 2884.95 1076.96C2884.42 1076.96 2883.64 1077.15 2882.63 1077.52C2881.67 1077.84 2880.6 1078.53 2879.43 1079.6V1103.12H2885.75ZM2916.17 1085.76V1083.28C2916.17 1080.93 2915.56 1079.09 2914.33 1077.76C2913.11 1076.43 2911.35 1075.76 2909.05 1075.76C2907.29 1075.76 2905.67 1076.37 2904.17 1077.6C2902.73 1078.77 2901.56 1080.43 2900.65 1082.56L2897.69 1081.36C2898.92 1078.16 2900.73 1075.65 2903.13 1073.84C2905.59 1072.03 2908.36 1071.12 2911.45 1071.12C2915.03 1071.12 2917.88 1072.19 2920.01 1074.32C2922.15 1076.45 2923.21 1079.33 2923.21 1082.96V1099.92C2923.21 1100.83 2923.4 1101.52 2923.77 1102C2924.2 1102.48 2924.79 1102.72 2925.53 1102.72C2926.12 1102.72 2926.68 1102.61 2927.21 1102.4C2927.75 1102.13 2928.28 1101.76 2928.81 1101.28L2930.33 1103.28C2929.32 1104.4 2928.25 1105.28 2927.13 1105.92C2926.01 1106.51 2924.89 1106.8 2923.77 1106.8C2921.85 1106.8 2920.25 1106.32 2918.97 1105.36C2917.69 1104.35 2916.79 1102.91 2916.25 1101.04C2914.87 1102.75 2913.24 1104.13 2911.37 1105.2C2909.51 1106.21 2907.64 1106.72 2905.77 1106.72C2903.27 1106.72 2901.19 1105.97 2899.53 1104.48C2897.93 1102.93 2897.13 1100.96 2897.13 1098.56C2897.13 1096.53 2897.85 1094.77 2899.29 1093.28C2900.73 1091.79 2903.08 1090.45 2906.33 1089.28L2916.17 1085.76ZM2916.17 1098.8V1088.56L2909.45 1091.12C2907.59 1091.87 2906.23 1092.72 2905.37 1093.68C2904.52 1094.64 2904.09 1095.81 2904.09 1097.2C2904.09 1098.85 2904.49 1100.16 2905.29 1101.12C2906.15 1102.08 2907.29 1102.56 2908.73 1102.56C2910.01 1102.56 2911.29 1102.24 2912.57 1101.6C2913.85 1100.91 2915.05 1099.97 2916.17 1098.8ZM2931.07 1071.92H2936.27V1064.56L2943.23 1061.52V1071.92H2953.39V1074.8H2943.23V1097.44C2943.23 1098.93 2943.65 1100.16 2944.51 1101.12C2945.36 1102.08 2946.61 1102.56 2948.27 1102.56C2949.44 1102.56 2950.53 1102.21 2951.55 1101.52C2952.56 1100.83 2953.6 1099.89 2954.67 1098.72L2956.43 1100.48C2954.99 1102.51 2953.28 1104.08 2951.31 1105.2C2949.33 1106.27 2947.33 1106.8 2945.31 1106.8C2942.69 1106.8 2940.53 1106.08 2938.83 1104.64C2937.12 1103.15 2936.27 1101.04 2936.27 1098.32V1074.8H2931.07V1071.92ZM2961.88 1060.16C2961.88 1058.83 2962.31 1057.73 2963.16 1056.88C2964.07 1055.97 2965.16 1055.52 2966.44 1055.52C2967.78 1055.52 2968.9 1055.97 2969.8 1056.88C2970.71 1057.73 2971.16 1058.83 2971.16 1060.16C2971.16 1061.44 2970.71 1062.53 2969.8 1063.44C2968.9 1064.29 2967.78 1064.72 2966.44 1064.72C2965.16 1064.72 2964.07 1064.29 2963.16 1063.44C2962.31 1062.53 2961.88 1061.44 2961.88 1060.16ZM2970.52 1071.92V1103.12H2975.24V1106H2958.76V1103.12H2963.48V1074.8H2958.76V1071.92H2970.52ZM2996.57 1106.8C2994.55 1106.8 2992.55 1106.4 2990.57 1105.6C2988.6 1104.75 2986.84 1103.55 2985.29 1102C2983.8 1100.45 2982.57 1098.59 2981.61 1096.4C2980.71 1094.16 2980.25 1091.68 2980.25 1088.96C2980.25 1086.24 2980.71 1083.79 2981.61 1081.6C2982.57 1079.36 2983.8 1077.47 2985.29 1075.92C2986.84 1074.37 2988.6 1073.2 2990.57 1072.4C2992.55 1071.55 2994.55 1071.12 2996.57 1071.12C2998.6 1071.12 3000.6 1071.55 3002.57 1072.4C3004.55 1073.2 3006.28 1074.37 3007.77 1075.92C3009.32 1077.47 3010.55 1079.36 3011.45 1081.6C3012.41 1083.79 3012.89 1086.24 3012.89 1088.96C3012.89 1091.68 3012.41 1094.16 3011.45 1096.4C3010.55 1098.59 3009.32 1100.45 3007.77 1102C3006.28 1103.55 3004.55 1104.75 3002.57 1105.6C3000.6 1106.4 2998.6 1106.8 2996.57 1106.8ZM2996.57 1074.16C2993.96 1074.16 2991.8 1075.44 2990.09 1078C2988.44 1080.51 2987.61 1084.16 2987.61 1088.96C2987.61 1093.76 2988.44 1097.44 2990.09 1100C2991.8 1102.51 2993.96 1103.76 2996.57 1103.76C2999.19 1103.76 3001.32 1102.51 3002.97 1100C3004.68 1097.44 3005.53 1093.76 3005.53 1088.96C3005.53 1084.16 3004.68 1080.51 3002.97 1078C3001.32 1075.44 2999.19 1074.16 2996.57 1074.16ZM3034.7 1103.12V1106H3018.22V1103.12H3022.94V1074.8H3018.22V1071.92H3029.98V1076.8C3031.42 1075.47 3033.1 1074.19 3035.02 1072.96C3036.94 1071.73 3039.15 1071.12 3041.66 1071.12C3045.18 1071.12 3047.66 1072.29 3049.1 1074.64C3050.59 1076.93 3051.34 1079.68 3051.34 1082.88V1103.12H3056.06V1106H3039.58V1103.12H3044.3V1084.72C3044.3 1082.43 3043.92 1080.35 3043.18 1078.48C3042.48 1076.56 3040.86 1075.6 3038.3 1075.6C3036.8 1075.6 3035.36 1075.87 3033.98 1076.4C3032.64 1076.88 3031.31 1077.68 3029.98 1078.8V1103.12H3034.7ZM3061.84 1080.8C3061.84 1078.03 3062.86 1075.73 3064.88 1073.92C3066.96 1072.05 3069.52 1071.12 3072.56 1071.12C3074.11 1071.12 3075.52 1071.39 3076.8 1071.92C3078.08 1072.4 3079.23 1073.15 3080.24 1074.16L3081.04 1071.44H3083.36V1082.48H3080.72C3080.19 1079.71 3079.23 1077.6 3077.84 1076.16C3076.51 1074.72 3074.8 1074 3072.72 1074C3071.12 1074 3069.82 1074.45 3068.8 1075.36C3067.79 1076.27 3067.28 1077.44 3067.28 1078.88C3067.28 1079.89 3067.6 1080.77 3068.24 1081.52C3068.88 1082.27 3070.24 1083.17 3072.32 1084.24L3078 1087.12C3080.56 1088.4 3082.38 1089.76 3083.44 1091.2C3084.51 1092.59 3085.04 1094.27 3085.04 1096.24C3085.04 1099.28 3083.87 1101.81 3081.52 1103.84C3079.18 1105.81 3076.3 1106.8 3072.88 1106.8C3071.12 1106.8 3069.47 1106.45 3067.92 1105.76C3066.38 1105.07 3065.12 1104.13 3064.16 1102.96L3063.44 1106H3061.04V1093.6H3063.76C3064.14 1096.85 3065.12 1099.36 3066.72 1101.12C3068.32 1102.88 3070.32 1103.76 3072.72 1103.76C3074.7 1103.76 3076.27 1103.28 3077.44 1102.32C3078.62 1101.36 3079.2 1100.11 3079.2 1098.56C3079.2 1097.39 3078.88 1096.43 3078.24 1095.68C3077.66 1094.88 3076.62 1094.11 3075.12 1093.36L3068.64 1090.16C3066.19 1088.93 3064.43 1087.6 3063.36 1086.16C3062.35 1084.67 3061.84 1082.88 3061.84 1080.8Z" fill="white"/>
<defs>
<filter id="filter0_d_12_63" x="522.144" y="18.8481" width="43.7117" height="254.926" filterUnits="userSpaceOnUse" color-interpolation-filters="sRGB">
<feFlood flood-opacity="0" result="BackgroundImageFix"/>
<feColorMatrix in="SourceAlpha" type="matrix" values="0 0 0 0 0 0 0 0 0 0 0 0 0 0 0 0 0 0 127 0" result="hardAlpha"/>
<feMorphology radius="3" operator="dilate" in="SourceAlpha" result="effect1_dropShadow_12_63"/>
<feOffset dy="4"/>
<feGaussianBlur stdDeviation="5.5"/>
<feComposite in2="hardAlpha" operator="out"/>
<feColorMatrix type="matrix" values="0 0 0 0 1 0 0 0 0 0.6 0 0 0 0 0 0 0 0 0.98 0"/>
<feBlend mode="normal" in2="BackgroundImageFix" result="effect1_dropShadow_12_63"/>
<feBlend mode="normal" in="SourceGraphic" in2="effect1_dropShadow_12_63" result="shape"/>
</filter>
<radialGradient id="paint0_radial_12_63" cx="0" cy="0" r="1" gradientUnits="userSpaceOnUse" gradientTransform="translate(536.858 166.313) rotate(88.5135) scale(401.619 24.2818)">
<stop stop-color="#FF8A00"/>
<stop offset="1" stop-color="#FFBA07"/>
</radialGradient>
<radialGradient id="paint1_radial_12_63" cx="0" cy="0" r="1" gradientUnits="userSpaceOnUse" gradientTransform="translate(536.727 168.154) rotate(88.5362) scale(415.315 24.7276)">
<stop stop-color="#FF8A00"/>
<stop offset="1" stop-color="#FFBA07"/>
</radialGradient>
<radialGradient id="paint2_radial_12_63" cx="0" cy="0" r="1" gradientUnits="userSpaceOnUse" gradientTransform="translate(591.273 514.821) rotate(27.2439) scale(906.942 860.584)">
<stop stop-color="white" stop-opacity="0.19"/>
<stop offset="1" stop-color="white" stop-opacity="0.32"/>
</radialGradient>
<radialGradient id="paint3_radial_12_63" cx="0" cy="0" r="1" gradientUnits="userSpaceOnUse" gradientTransform="translate(636.909 861.487) rotate(15.7503) scale(1529.51 931.621)">
<stop stop-color="white" stop-opacity="0.19"/>
<stop offset="1" stop-color="white" stop-opacity="0.32"/>
</radialGradient>
</defs>
</svg>
