<svg width="3088" height="1133" viewBox="0 0 3088 1133" fill="none" xmlns="http://www.w3.org/2000/svg">
<rect width="3088" height="1126" transform="translate(0 7)" fill="#1E1E20"/>
<path d="M226.502 194.867H225.902L204.662 150.227C203.462 147.587 202.422 145.907 201.542 145.187C200.742 144.387 199.222 143.986 196.982 143.986V141.467H225.542V143.986C223.622 143.986 222.182 144.107 221.222 144.347C220.262 144.587 219.782 145.227 219.782 146.267C219.782 146.747 219.902 147.347 220.142 148.067C220.382 148.707 220.702 149.467 221.102 150.347L231.782 175.187L241.622 151.067C241.942 150.107 242.222 149.307 242.462 148.667C242.702 147.947 242.822 147.307 242.822 146.747C242.822 145.467 242.182 144.707 240.902 144.467C239.702 144.147 237.902 143.986 235.502 143.986V141.467H254.222V143.986C251.822 143.986 250.142 144.387 249.182 145.187C248.302 145.987 247.142 147.987 245.702 151.187L226.502 194.867ZM261.473 125.146C261.473 122.747 262.313 120.747 263.993 119.146C265.753 117.467 267.873 116.627 270.353 116.627C272.753 116.627 274.793 117.467 276.473 119.146C278.153 120.747 278.993 122.747 278.993 125.146C278.993 127.547 278.153 129.547 276.473 131.147C274.793 132.746 272.753 133.546 270.353 133.546C267.873 133.546 265.753 132.746 263.993 131.147C262.313 129.547 261.473 127.547 261.473 125.146ZM262.793 150.707C262.793 147.747 262.393 145.907 261.593 145.187C260.873 144.387 259.233 143.986 256.673 143.986V141.467H278.273V184.427C278.273 187.387 278.633 189.267 279.353 190.067C280.153 190.787 281.793 191.147 284.273 191.147V193.667H256.673V191.147C259.233 191.147 260.873 190.787 261.593 190.067C262.393 189.267 262.793 187.387 262.793 184.427V150.707ZM312.336 143.627C309.536 143.627 307.176 144.867 305.256 147.347C303.416 149.827 302.336 153.467 302.016 158.267H321.576C321.416 154.027 320.576 150.547 319.056 147.827C317.536 145.027 315.296 143.627 312.336 143.627ZM334.776 182.147C332.296 186.307 329.176 189.467 325.416 191.627C321.656 193.787 317.736 194.867 313.656 194.867C306.456 194.867 300.216 192.427 294.936 187.547C289.736 182.667 287.136 176.307 287.136 168.467C287.136 160.547 289.776 153.867 295.056 148.427C300.416 142.987 306.376 140.267 312.936 140.267C319.816 140.267 325.016 142.547 328.536 147.107C332.136 151.667 333.976 156.467 334.056 161.507H301.896V161.747C301.896 169.187 303.736 175.307 307.416 180.107C311.096 184.827 315.656 187.187 321.096 187.187C323.576 187.187 325.776 186.667 327.696 185.627C329.696 184.587 331.496 182.987 333.096 180.827L334.776 182.147ZM365.953 191.147V193.667H338.353V191.147C340.913 191.147 342.553 190.787 343.273 190.067C344.073 189.267 344.473 187.387 344.473 184.427V150.707C344.473 147.747 344.073 145.907 343.273 145.187C342.553 144.387 340.913 143.986 338.353 143.986V141.467H359.953V150.827C361.153 148.347 363.153 145.987 365.953 143.747C368.753 141.427 372.153 140.267 376.153 140.267C380.393 140.267 383.753 141.347 386.233 143.507C388.793 145.587 390.473 148.267 391.273 151.547C392.473 148.987 394.513 146.467 397.393 143.986C400.353 141.507 403.993 140.267 408.313 140.267C413.753 140.267 417.753 141.987 420.313 145.427C422.873 148.867 424.153 152.987 424.153 157.787V184.427C424.153 187.387 424.513 189.267 425.233 190.067C426.033 190.787 427.713 191.147 430.273 191.147V193.667H402.673V191.147C405.233 191.147 406.873 190.787 407.593 190.067C408.313 189.267 408.673 187.387 408.673 184.427V159.947C408.673 155.787 407.953 152.747 406.513 150.827C405.073 148.827 402.993 147.827 400.273 147.827C398.513 147.827 396.873 148.387 395.353 149.507C393.833 150.547 392.673 152.067 391.873 154.067C391.953 154.627 391.993 155.227 391.993 155.867C392.073 156.507 392.113 157.147 392.113 157.787V184.427C392.113 187.387 392.473 189.267 393.193 190.067C393.913 190.787 395.553 191.147 398.113 191.147V193.667H370.513V191.147C373.073 191.147 374.713 190.787 375.433 190.067C376.153 189.267 376.513 187.387 376.513 184.427V159.947C376.513 155.787 375.793 152.747 374.353 150.827C372.913 148.827 370.833 147.827 368.113 147.827C366.433 147.827 364.873 148.347 363.433 149.387C361.993 150.347 360.833 151.747 359.953 153.587V184.427C359.953 187.387 360.313 189.267 361.033 190.067C361.833 190.787 363.473 191.147 365.953 191.147Z" fill="white"/>
<g filter="url(#filter0_d_12_33)">
<rect x="536.73" y="35.8481" width="79.5405" height="226.926" rx="16" fill="url(#paint0_radial_12_33)" fill-opacity="0.96" shape-rendering="crispEdges"/>
</g>
<rect x="536" y="33" width="81" height="234.667" rx="16" fill="url(#paint1_radial_12_33)" fill-opacity="0.96"/>
<path d="M2863.15 150.053C2863.15 147.067 2863.61 144.133 2864.51 141.253C2865.47 138.32 2866.78 135.733 2868.43 133.493C2870.09 131.253 2872.03 129.44 2874.27 128.053C2876.57 126.667 2879.05 125.973 2881.71 125.973C2884.33 125.973 2886.75 126.667 2888.99 128.053C2891.29 129.44 2893.23 131.253 2894.83 133.493C2896.49 135.733 2897.77 138.32 2898.67 141.253C2899.63 144.133 2900.11 147.067 2900.11 150.053C2900.11 153.04 2899.63 156 2898.67 158.933C2897.77 161.813 2896.49 164.373 2894.83 166.613C2893.23 168.853 2891.29 170.667 2888.99 172.053C2886.75 173.44 2884.33 174.133 2881.71 174.133C2879.05 174.133 2876.57 173.44 2874.27 172.053C2872.03 170.667 2870.09 168.853 2868.43 166.613C2866.78 164.373 2865.47 161.813 2864.51 158.933C2863.61 156 2863.15 153.04 2863.15 150.053ZM2892.19 150.053C2892.19 147.493 2891.98 144.987 2891.55 142.533C2891.18 140.027 2890.57 137.813 2889.71 135.893C2888.91 133.973 2887.85 132.427 2886.51 131.253C2885.18 130.027 2883.58 129.413 2881.71 129.413C2879.85 129.413 2878.22 130.027 2876.83 131.253C2875.5 132.427 2874.38 133.973 2873.47 135.893C2872.62 137.813 2871.98 140.027 2871.55 142.533C2871.18 144.987 2870.99 147.493 2870.99 150.053C2870.99 152.613 2871.18 155.147 2871.55 157.653C2871.98 160.107 2872.62 162.293 2873.47 164.213C2874.38 166.133 2875.5 167.707 2876.83 168.933C2878.22 170.107 2879.85 170.693 2881.71 170.693C2883.58 170.693 2885.18 170.107 2886.51 168.933C2887.85 167.707 2888.91 166.133 2889.71 164.213C2890.57 162.293 2891.18 160.107 2891.55 157.653C2891.98 155.147 2892.19 152.613 2892.19 150.053ZM2904.13 168.933C2904.13 167.493 2904.63 166.267 2905.65 165.253C2906.66 164.24 2907.89 163.733 2909.33 163.733C2910.77 163.733 2911.99 164.24 2913.01 165.253C2914.02 166.267 2914.53 167.493 2914.53 168.933C2914.53 170.373 2914.02 171.6 2913.01 172.613C2911.99 173.627 2910.77 174.133 2909.33 174.133C2907.89 174.133 2906.66 173.627 2905.65 172.613C2904.63 171.6 2904.13 170.373 2904.13 168.933ZM2950.05 173.333H2922.45V169.733H2933.17V132.773L2922.13 135.413V131.893L2940.21 125.973V169.733H2950.05V173.333ZM2968.47 174.133C2964.57 174.133 2961.32 173.093 2958.71 171.013C2956.09 168.933 2954.28 166.427 2953.27 163.493L2956.07 161.653C2957.13 163.893 2958.63 165.813 2960.55 167.413C2962.47 169.013 2964.79 169.813 2967.51 169.813C2970.55 169.813 2972.97 168.853 2974.79 166.933C2976.65 164.96 2977.59 162.373 2977.59 159.173C2977.59 155.92 2976.68 153.467 2974.87 151.813C2973.05 150.107 2970.6 149.253 2967.51 149.253C2966.28 149.253 2965 149.467 2963.67 149.893C2962.39 150.267 2961.08 150.8 2959.75 151.493L2958.87 150.773L2962.07 126.773H2983.27V133.813H2964.71L2962.95 146.773C2963.8 146.4 2964.87 146.053 2966.15 145.733C2967.43 145.413 2968.87 145.253 2970.47 145.253C2972.01 145.253 2973.61 145.547 2975.27 146.133C2976.97 146.667 2978.52 147.493 2979.91 148.613C2981.29 149.733 2982.41 151.173 2983.27 152.933C2984.17 154.693 2984.63 156.773 2984.63 159.173C2984.63 161.467 2984.15 163.547 2983.19 165.413C2982.23 167.227 2980.97 168.8 2979.43 170.133C2977.93 171.413 2976.23 172.4 2974.31 173.093C2972.39 173.787 2970.44 174.133 2968.47 174.133ZM2991.84 148.133C2991.84 145.36 2992.86 143.067 2994.88 141.253C2996.96 139.387 2999.52 138.453 3002.56 138.453C3004.11 138.453 3005.52 138.72 3006.8 139.253C3008.08 139.733 3009.23 140.48 3010.24 141.493L3011.04 138.773H3013.36V149.813H3010.72C3010.19 147.04 3009.23 144.933 3007.84 143.493C3006.51 142.053 3004.8 141.333 3002.72 141.333C3001.12 141.333 2999.82 141.787 2998.8 142.693C2997.79 143.6 2997.28 144.773 2997.28 146.213C2997.28 147.227 2997.6 148.107 2998.24 148.853C2998.88 149.6 3000.24 150.507 3002.32 151.573L3008 154.453C3010.56 155.733 3012.38 157.093 3013.44 158.533C3014.51 159.92 3015.04 161.6 3015.04 163.573C3015.04 166.613 3013.87 169.147 3011.52 171.173C3009.18 173.147 3006.3 174.133 3002.88 174.133C3001.12 174.133 2999.47 173.787 2997.92 173.093C2996.38 172.4 2995.12 171.467 2994.16 170.293L2993.44 173.333H2991.04V160.933H2993.76C2994.14 164.187 2995.12 166.693 2996.72 168.453C2998.32 170.213 3000.32 171.093 3002.72 171.093C3004.7 171.093 3006.27 170.613 3007.44 169.653C3008.62 168.693 3009.2 167.44 3009.2 165.893C3009.2 164.72 3008.88 163.76 3008.24 163.013C3007.66 162.213 3006.62 161.44 3005.12 160.693L2998.64 157.493C2996.19 156.267 2994.43 154.933 2993.36 153.493C2992.35 152 2991.84 150.213 2991.84 148.133Z" fill="white"/>
<rect x="521.5" y="18.5" width="2555" height="263.667" rx="30.5" stroke="white" stroke-opacity="0.23" stroke-width="3"/>
<path d="M39 490.46C36.2 490.46 33.84 491.7 31.92 494.18C30.08 496.66 29 500.3 28.68 505.1H48.24C48.08 500.86 47.24 497.38 45.72 494.66C44.2 491.86 41.96 490.46 39 490.46ZM61.44 528.98C58.96 533.14 55.84 536.3 52.08 538.46C48.32 540.62 44.4 541.7 40.32 541.7C33.12 541.7 26.88 539.26 21.6 534.38C16.4 529.5 13.8 523.14 13.8 515.3C13.8 507.38 16.44 500.7 21.72 495.26C27.08 489.82 33.04 487.1 39.6 487.1C46.48 487.1 51.68 489.38 55.2 493.94C58.8 498.5 60.64 503.3 60.72 508.34H28.56V508.58C28.56 516.02 30.4 522.14 34.08 526.94C37.76 531.66 42.32 534.02 47.76 534.02C50.24 534.02 52.44 533.5 54.36 532.46C56.36 531.42 58.16 529.82 59.76 527.66L61.44 528.98ZM64.4166 490.22C68.0166 488.3 71.7366 485.66 75.5766 482.3C79.4166 478.94 82.3766 475.82 84.4566 472.94H85.4166V488.54C87.3366 488.54 90.0166 488.5 93.4566 488.42C96.8966 488.34 99.4966 488.22 101.257 488.06L100.537 492.26H85.4166V524.9C85.4166 527.7 86.0566 530.02 87.3366 531.86C88.6166 533.7 90.4966 534.62 92.9766 534.62C94.7366 534.62 96.2566 534.22 97.5366 533.42C98.8166 532.54 100.097 531.22 101.377 529.46L103.057 531.02C101.137 534.22 98.6566 536.82 95.6166 538.82C92.6566 540.74 89.2566 541.7 85.4166 541.7C81.0166 541.7 77.2966 540.3 74.2566 537.5C71.2966 534.62 69.8166 530.9 69.8166 526.34L70.1766 492.14H64.4166V490.22ZM131.04 537.98V540.5H103.56V537.98C106.12 537.98 107.76 537.62 108.48 536.9C109.2 536.1 109.56 534.22 109.56 531.26V471.5C109.56 468.54 109.08 466.74 108.12 466.1C107.16 465.38 105.24 465.02 102.36 465.02V462.5H125.16V497.66C126.36 495.1 128.4 492.7 131.28 490.46C134.24 488.22 137.6 487.1 141.36 487.1C146.88 487.1 151 488.82 153.72 492.26C156.52 495.7 157.92 499.82 157.92 504.62V531.26C157.92 534.22 158.28 536.1 159 536.9C159.72 537.62 161.36 537.98 163.92 537.98V540.5H136.32V537.98C138.88 537.98 140.52 537.62 141.24 536.9C141.96 536.1 142.32 534.22 142.32 531.26V506.78C142.32 502.62 141.52 499.58 139.92 497.66C138.32 495.66 136.16 494.66 133.44 494.66C131.76 494.66 130.16 495.18 128.64 496.22C127.2 497.18 126.04 498.58 125.16 500.42V531.26C125.16 534.22 125.52 536.1 126.24 536.9C126.96 537.62 128.56 537.98 131.04 537.98ZM191.695 490.46C188.895 490.46 186.535 491.7 184.615 494.18C182.775 496.66 181.695 500.3 181.375 505.1H200.935C200.775 500.86 199.935 497.38 198.415 494.66C196.895 491.86 194.655 490.46 191.695 490.46ZM214.135 528.98C211.655 533.14 208.535 536.3 204.775 538.46C201.015 540.62 197.095 541.7 193.015 541.7C185.815 541.7 179.575 539.26 174.295 534.38C169.095 529.5 166.495 523.14 166.495 515.3C166.495 507.38 169.135 500.7 174.415 495.26C179.775 489.82 185.735 487.1 192.295 487.1C199.175 487.1 204.375 489.38 207.895 493.94C211.495 498.5 213.335 503.3 213.415 508.34H181.255V508.58C181.255 516.02 183.095 522.14 186.775 526.94C190.455 531.66 195.015 534.02 200.455 534.02C202.935 534.02 205.135 533.5 207.055 532.46C209.055 531.42 210.855 529.82 212.455 527.66L214.135 528.98ZM247.712 537.98V540.5H217.712V537.98C220.272 537.98 221.912 537.62 222.632 536.9C223.432 536.1 223.832 534.22 223.832 531.26V497.54C223.832 494.58 223.432 492.74 222.632 492.02C221.912 491.22 220.272 490.82 217.712 490.82V488.3H239.192V500.54C242.072 495.98 244.512 492.62 246.512 490.46C248.512 488.22 250.752 487.1 253.232 487.1C254.912 487.1 256.512 487.58 258.032 488.54C259.632 489.5 260.832 490.5 261.632 491.54L257.552 505.22L257.072 505.34C255.792 503.1 254.152 501.3 252.152 499.94C250.152 498.5 248.272 497.78 246.512 497.78C245.312 497.78 244.112 498.26 242.912 499.22C241.792 500.18 240.552 501.5 239.192 503.18V531.26C239.192 534.22 239.712 536.06 240.752 536.78C241.792 537.5 244.112 537.9 247.712 537.98ZM282.495 538.34C285.135 538.34 287.255 537.7 288.855 536.42C290.455 535.14 291.255 533.26 291.255 530.78C291.255 528.7 290.535 527.1 289.095 525.98C287.735 524.78 285.895 523.58 283.575 522.38L274.455 517.58C271.575 516.14 269.255 514.26 267.495 511.94C265.735 509.62 264.855 506.74 264.855 503.3C264.855 498.5 266.695 494.62 270.375 491.66C274.055 488.62 278.335 487.1 283.215 487.1C286.335 487.1 288.855 487.62 290.775 488.66C292.695 489.62 294.135 490.1 295.095 490.1C295.815 490.1 296.335 489.86 296.655 489.38C296.975 488.9 297.215 488.38 297.375 487.82H299.055L300.015 503.54L297.735 503.66C297.175 499.74 295.615 496.54 293.055 494.06C290.495 491.58 287.535 490.34 284.175 490.34C281.855 490.34 280.015 490.98 278.655 492.26C277.375 493.54 276.735 495.18 276.735 497.18C276.735 499.1 277.335 500.62 278.535 501.74C279.815 502.78 281.415 503.78 283.335 504.74L291.615 509.18C294.815 510.86 297.415 512.94 299.415 515.42C301.495 517.82 302.535 520.86 302.535 524.54C302.535 529.66 300.615 533.82 296.775 537.02C293.015 540.14 288.375 541.7 282.855 541.7C278.935 541.7 275.855 541.02 273.615 539.66C271.455 538.3 269.975 537.62 269.175 537.62C268.535 537.62 267.975 537.98 267.495 538.7C267.095 539.34 266.815 540.02 266.655 540.74H264.855L263.895 522.62L266.295 522.5C266.855 527.06 268.655 530.86 271.695 533.9C274.815 536.86 278.415 538.34 282.495 538.34ZM355.471 541.7H354.871L333.631 497.06C332.431 494.42 331.391 492.74 330.511 492.02C329.711 491.22 328.191 490.82 325.951 490.82V488.3H354.511V490.82C352.591 490.82 351.151 490.94 350.191 491.18C349.231 491.42 348.751 492.06 348.751 493.1C348.751 493.58 348.871 494.18 349.111 494.9C349.351 495.54 349.671 496.3 350.071 497.18L360.751 522.02L370.591 497.9C370.911 496.94 371.191 496.14 371.431 495.5C371.671 494.78 371.791 494.14 371.791 493.58C371.791 492.3 371.151 491.54 369.871 491.3C368.671 490.98 366.871 490.82 364.471 490.82V488.3H383.191V490.82C380.791 490.82 379.111 491.22 378.151 492.02C377.271 492.82 376.111 494.82 374.671 498.02L355.471 541.7ZM416.602 468.5C422.762 468.5 426.682 468.26 428.362 467.78C430.042 467.3 431.402 465.94 432.442 463.7H434.602L430.282 482.3H398.962L396.082 501.14C397.682 499.7 399.882 498.46 402.682 497.42C405.562 496.3 408.562 495.74 411.682 495.74C417.922 495.74 423.402 497.66 428.122 501.5C432.842 505.34 435.202 510.62 435.202 517.34C435.202 524.54 432.482 530.42 427.042 534.98C421.602 539.46 415.562 541.7 408.922 541.7C402.202 541.7 396.642 539.86 392.242 536.18C387.922 532.42 385.002 528.1 383.482 523.22L386.002 521.9C387.442 525.98 389.722 529.18 392.842 531.5C396.042 533.82 399.522 534.98 403.282 534.98C408.322 534.98 412.202 533.34 414.922 530.06C417.722 526.78 419.122 522.74 419.122 517.94C419.122 513.06 417.642 509.26 414.682 506.54C411.802 503.82 408.322 502.46 404.242 502.46C402.002 502.46 400.002 502.86 398.242 503.66C396.482 504.46 394.722 505.38 392.962 506.42L392.122 506.18L397.762 468.5H416.602Z" fill="white"/>
<rect x="537.5" y="381.167" width="948" height="231.667" rx="14.5" fill="url(#paint2_radial_12_33)" fill-opacity="0.96" stroke="#787878" stroke-width="3"/>
<path d="M2890.13 520H2862.53V516.4H2873.25V479.44L2862.21 482.08V478.56L2880.29 472.64V516.4H2890.13V520ZM2896.78 515.6C2896.78 514.16 2897.29 512.933 2898.3 511.92C2899.32 510.907 2900.54 510.4 2901.98 510.4C2903.42 510.4 2904.65 510.907 2905.66 511.92C2906.68 512.933 2907.18 514.16 2907.18 515.6C2907.18 517.04 2906.68 518.267 2905.66 519.28C2904.65 520.293 2903.42 520.8 2901.98 520.8C2900.54 520.8 2899.32 520.293 2898.3 519.28C2897.29 518.267 2896.78 517.04 2896.78 515.6ZM2942.7 520H2915.1V516.4H2925.82V479.44L2914.78 482.08V478.56L2932.86 472.64V516.4H2942.7V520ZM2947.76 496.72C2947.76 493.733 2948.22 490.8 2949.12 487.92C2950.08 484.987 2951.39 482.4 2953.04 480.16C2954.7 477.92 2956.64 476.107 2958.88 474.72C2961.18 473.333 2963.66 472.64 2966.32 472.64C2968.94 472.64 2971.36 473.333 2973.6 474.72C2975.9 476.107 2977.84 477.92 2979.44 480.16C2981.1 482.4 2982.38 484.987 2983.28 487.92C2984.24 490.8 2984.72 493.733 2984.72 496.72C2984.72 499.707 2984.24 502.667 2983.28 505.6C2982.38 508.48 2981.1 511.04 2979.44 513.28C2977.84 515.52 2975.9 517.333 2973.6 518.72C2971.36 520.107 2968.94 520.8 2966.32 520.8C2963.66 520.8 2961.18 520.107 2958.88 518.72C2956.64 517.333 2954.7 515.52 2953.04 513.28C2951.39 511.04 2950.08 508.48 2949.12 505.6C2948.22 502.667 2947.76 499.707 2947.76 496.72ZM2976.8 496.72C2976.8 494.16 2976.59 491.653 2976.16 489.2C2975.79 486.693 2975.18 484.48 2974.32 482.56C2973.52 480.64 2972.46 479.093 2971.12 477.92C2969.79 476.693 2968.19 476.08 2966.32 476.08C2964.46 476.08 2962.83 476.693 2961.44 477.92C2960.11 479.093 2958.99 480.64 2958.08 482.56C2957.23 484.48 2956.59 486.693 2956.16 489.2C2955.79 491.653 2955.6 494.16 2955.6 496.72C2955.6 499.28 2955.79 501.813 2956.16 504.32C2956.59 506.773 2957.23 508.96 2958.08 510.88C2958.99 512.8 2960.11 514.373 2961.44 515.6C2962.83 516.773 2964.46 517.36 2966.32 517.36C2968.19 517.36 2969.79 516.773 2971.12 515.6C2972.46 514.373 2973.52 512.8 2974.32 510.88C2975.18 508.96 2975.79 506.773 2976.16 504.32C2976.59 501.813 2976.8 499.28 2976.8 496.72ZM2991.84 494.8C2991.84 492.027 2992.86 489.733 2994.88 487.92C2996.96 486.053 2999.52 485.12 3002.56 485.12C3004.11 485.12 3005.52 485.387 3006.8 485.92C3008.08 486.4 3009.23 487.147 3010.24 488.16L3011.04 485.44H3013.36V496.48H3010.72C3010.19 493.707 3009.23 491.6 3007.84 490.16C3006.51 488.72 3004.8 488 3002.72 488C3001.12 488 2999.82 488.453 2998.8 489.36C2997.79 490.267 2997.28 491.44 2997.28 492.88C2997.28 493.893 2997.6 494.773 2998.24 495.52C2998.88 496.267 3000.24 497.173 3002.32 498.24L3008 501.12C3010.56 502.4 3012.38 503.76 3013.44 505.2C3014.51 506.587 3015.04 508.267 3015.04 510.24C3015.04 513.28 3013.87 515.813 3011.52 517.84C3009.18 519.813 3006.3 520.8 3002.88 520.8C3001.12 520.8 2999.47 520.453 2997.92 519.76C2996.38 519.067 2995.12 518.133 2994.16 516.96L2993.44 520H2991.04V507.6H2993.76C2994.14 510.853 2995.12 513.36 2996.72 515.12C2998.32 516.88 3000.32 517.76 3002.72 517.76C3004.7 517.76 3006.27 517.28 3007.44 516.32C3008.62 515.36 3009.2 514.107 3009.2 512.56C3009.2 511.387 3008.88 510.427 3008.24 509.68C3007.66 508.88 3006.62 508.107 3005.12 507.36L2998.64 504.16C2996.19 502.933 2994.43 501.6 2993.36 500.16C2992.35 498.667 2991.84 496.88 2991.84 494.8Z" fill="white"/>
<rect x="521.5" y="365.167" width="2555" height="263.667" rx="30.5" stroke="white" stroke-opacity="0.23" stroke-width="3"/>
<path d="M37 837.127C34.2 837.127 31.84 838.367 29.92 840.847C28.08 843.327 27 846.967 26.68 851.767H46.24C46.08 847.527 45.24 844.047 43.72 841.327C42.2 838.527 39.96 837.127 37 837.127ZM59.44 875.647C56.96 879.807 53.84 882.967 50.08 885.127C46.32 887.287 42.4 888.367 38.32 888.367C31.12 888.367 24.88 885.927 19.6 881.047C14.4 876.167 11.8 869.807 11.8 861.967C11.8 854.047 14.44 847.367 19.72 841.927C25.08 836.487 31.04 833.767 37.6 833.767C44.48 833.767 49.68 836.047 53.2 840.607C56.8 845.167 58.64 849.967 58.72 855.007H26.56V855.247C26.56 862.687 28.4 868.807 32.08 873.607C35.76 878.327 40.32 880.687 45.76 880.687C48.24 880.687 50.44 880.167 52.36 879.127C54.36 878.087 56.16 876.487 57.76 874.327L59.44 875.647ZM62.4166 836.887C66.0166 834.967 69.7366 832.327 73.5766 828.967C77.4166 825.607 80.3766 822.487 82.4566 819.607H83.4166V835.207C85.3366 835.207 88.0166 835.167 91.4566 835.087C94.8966 835.007 97.4966 834.887 99.2566 834.727L98.5366 838.927H83.4166V871.567C83.4166 874.367 84.0566 876.687 85.3366 878.527C86.6166 880.367 88.4966 881.287 90.9766 881.287C92.7366 881.287 94.2566 880.887 95.5366 880.087C96.8166 879.207 98.0966 877.887 99.3766 876.127L101.057 877.687C99.1366 880.887 96.6566 883.487 93.6166 885.487C90.6566 887.407 87.2566 888.367 83.4166 888.367C79.0166 888.367 75.2966 886.967 72.2566 884.167C69.2966 881.287 67.8166 877.567 67.8166 873.007L68.1766 838.807H62.4166V836.887ZM129.04 884.647V887.167H101.56V884.647C104.12 884.647 105.76 884.287 106.48 883.567C107.2 882.767 107.56 880.887 107.56 877.927V818.167C107.56 815.207 107.08 813.407 106.12 812.767C105.16 812.047 103.24 811.687 100.36 811.687V809.167H123.16V844.327C124.36 841.767 126.4 839.367 129.28 837.127C132.24 834.887 135.6 833.767 139.36 833.767C144.88 833.767 149 835.487 151.72 838.927C154.52 842.367 155.92 846.487 155.92 851.287V877.927C155.92 880.887 156.28 882.767 157 883.567C157.72 884.287 159.36 884.647 161.92 884.647V887.167H134.32V884.647C136.88 884.647 138.52 884.287 139.24 883.567C139.96 882.767 140.32 880.887 140.32 877.927V853.447C140.32 849.287 139.52 846.247 137.92 844.327C136.32 842.327 134.16 841.327 131.44 841.327C129.76 841.327 128.16 841.847 126.64 842.887C125.2 843.847 124.04 845.247 123.16 847.087V877.927C123.16 880.887 123.52 882.767 124.24 883.567C124.96 884.287 126.56 884.647 129.04 884.647ZM189.695 837.127C186.895 837.127 184.535 838.367 182.615 840.847C180.775 843.327 179.695 846.967 179.375 851.767H198.935C198.775 847.527 197.935 844.047 196.415 841.327C194.895 838.527 192.655 837.127 189.695 837.127ZM212.135 875.647C209.655 879.807 206.535 882.967 202.775 885.127C199.015 887.287 195.095 888.367 191.015 888.367C183.815 888.367 177.575 885.927 172.295 881.047C167.095 876.167 164.495 869.807 164.495 861.967C164.495 854.047 167.135 847.367 172.415 841.927C177.775 836.487 183.735 833.767 190.295 833.767C197.175 833.767 202.375 836.047 205.895 840.607C209.495 845.167 211.335 849.967 211.415 855.007H179.255V855.247C179.255 862.687 181.095 868.807 184.775 873.607C188.455 878.327 193.015 880.687 198.455 880.687C200.935 880.687 203.135 880.167 205.055 879.127C207.055 878.087 208.855 876.487 210.455 874.327L212.135 875.647ZM245.712 884.647V887.167H215.712V884.647C218.272 884.647 219.912 884.287 220.632 883.567C221.432 882.767 221.832 880.887 221.832 877.927V844.207C221.832 841.247 221.432 839.407 220.632 838.687C219.912 837.887 218.272 837.487 215.712 837.487V834.967H237.192V847.207C240.072 842.647 242.512 839.287 244.512 837.127C246.512 834.887 248.752 833.767 251.232 833.767C252.912 833.767 254.512 834.247 256.032 835.207C257.632 836.167 258.832 837.167 259.632 838.207L255.552 851.887L255.072 852.007C253.792 849.767 252.152 847.967 250.152 846.607C248.152 845.167 246.272 844.447 244.512 844.447C243.312 844.447 242.112 844.927 240.912 845.887C239.792 846.847 238.552 848.167 237.192 849.847V877.927C237.192 880.887 237.712 882.727 238.752 883.447C239.792 884.167 242.112 884.567 245.712 884.647ZM280.495 885.007C283.135 885.007 285.255 884.367 286.855 883.087C288.455 881.807 289.255 879.927 289.255 877.447C289.255 875.367 288.535 873.767 287.095 872.647C285.735 871.447 283.895 870.247 281.575 869.047L272.455 864.247C269.575 862.807 267.255 860.927 265.495 858.607C263.735 856.287 262.855 853.407 262.855 849.967C262.855 845.167 264.695 841.287 268.375 838.327C272.055 835.287 276.335 833.767 281.215 833.767C284.335 833.767 286.855 834.287 288.775 835.327C290.695 836.287 292.135 836.767 293.095 836.767C293.815 836.767 294.335 836.527 294.655 836.047C294.975 835.567 295.215 835.047 295.375 834.487H297.055L298.015 850.207L295.735 850.327C295.175 846.407 293.615 843.207 291.055 840.727C288.495 838.247 285.535 837.007 282.175 837.007C279.855 837.007 278.015 837.647 276.655 838.927C275.375 840.207 274.735 841.847 274.735 843.847C274.735 845.767 275.335 847.287 276.535 848.407C277.815 849.447 279.415 850.447 281.335 851.407L289.615 855.847C292.815 857.527 295.415 859.607 297.415 862.087C299.495 864.487 300.535 867.527 300.535 871.207C300.535 876.327 298.615 880.487 294.775 883.687C291.015 886.807 286.375 888.367 280.855 888.367C276.935 888.367 273.855 887.687 271.615 886.327C269.455 884.967 267.975 884.287 267.175 884.287C266.535 884.287 265.975 884.647 265.495 885.367C265.095 886.007 264.815 886.687 264.655 887.407H262.855L261.895 869.287L264.295 869.167C264.855 873.727 266.655 877.527 269.695 880.567C272.815 883.527 276.415 885.007 280.495 885.007ZM353.471 888.367H352.871L331.631 843.727C330.431 841.087 329.391 839.407 328.511 838.687C327.711 837.887 326.191 837.487 323.951 837.487V834.967H352.511V837.487C350.591 837.487 349.151 837.607 348.191 837.847C347.231 838.087 346.751 838.727 346.751 839.767C346.751 840.247 346.871 840.847 347.111 841.567C347.351 842.207 347.671 842.967 348.071 843.847L358.751 868.687L368.591 844.567C368.911 843.607 369.191 842.807 369.431 842.167C369.671 841.447 369.791 840.807 369.791 840.247C369.791 838.967 369.151 838.207 367.871 837.967C366.671 837.647 364.871 837.487 362.471 837.487V834.967H381.191V837.487C378.791 837.487 377.111 837.887 376.151 838.687C375.271 839.487 374.111 841.487 372.671 844.687L353.471 888.367ZM412.802 888.367C405.762 888.367 399.322 885.487 393.482 879.727C387.642 873.887 384.722 866.247 384.722 856.807C384.722 845.127 389.282 835.047 398.402 826.567C407.522 818.087 418.922 813.847 432.602 813.847C433.322 813.847 434.042 813.887 434.762 813.967C435.482 813.967 436.202 814.007 436.922 814.087L436.802 816.607H435.482C425.002 816.607 416.882 820.087 411.122 827.047C405.362 834.007 402.042 843.207 401.162 854.647C403.082 851.927 405.562 849.727 408.602 848.047C411.642 846.367 414.882 845.527 418.322 845.527C424.082 845.527 428.922 847.327 432.842 850.927C436.842 854.527 438.842 859.207 438.842 864.967C438.842 871.687 436.242 877.287 431.042 881.767C425.842 886.167 419.762 888.367 412.802 888.367ZM413.762 884.887C416.642 884.887 419.122 883.607 421.202 881.047C423.282 878.407 424.322 874.367 424.322 868.927C424.322 863.887 423.082 859.807 420.602 856.687C418.122 853.567 414.922 852.007 411.002 852.007C409.242 852.007 407.402 852.527 405.482 853.567C403.642 854.607 402.122 856.127 400.922 858.127C400.922 858.607 400.922 859.087 400.922 859.567C400.922 860.047 400.922 860.567 400.922 861.127C400.922 868.407 402.162 874.207 404.642 878.527C407.122 882.767 410.162 884.887 413.762 884.887Z" fill="white"/>
<rect x="537.5" y="727.833" width="2217" height="231.667" rx="14.5" fill="url(#paint3_radial_12_33)" fill-opacity="0.96" stroke="#787878" stroke-width="3"/>
<path d="M2862.41 866.667V865.707L2874.57 852.907C2878.94 848.32 2881.72 844.694 2882.89 842.027C2884.06 839.307 2884.65 836.587 2884.65 833.867C2884.65 831.147 2883.88 828.96 2882.33 827.307C2880.78 825.6 2878.65 824.747 2875.93 824.747C2873.1 824.747 2870.92 825.627 2869.37 827.387C2867.88 829.094 2866.65 830.934 2865.69 832.907L2862.97 831.707C2863.98 828.667 2865.74 825.84 2868.25 823.227C2870.81 820.614 2874.2 819.307 2878.41 819.307C2882.46 819.307 2885.74 820.507 2888.25 822.907C2890.76 825.254 2892.01 828.427 2892.01 832.427C2892.01 837.387 2890.04 841.92 2886.09 846.027C2882.14 850.134 2877.24 855.04 2871.37 860.747H2890.73L2891.61 853.627H2894.49V866.667H2862.41ZM2903.43 862.267C2903.43 860.827 2903.93 859.6 2904.95 858.587C2905.96 857.574 2907.19 857.067 2908.62 857.067C2910.07 857.067 2911.29 857.574 2912.31 858.587C2913.32 859.6 2913.83 860.827 2913.83 862.267C2913.83 863.707 2913.32 864.934 2912.31 865.947C2911.29 866.96 2910.07 867.467 2908.62 867.467C2907.19 867.467 2905.96 866.96 2904.95 865.947C2903.93 864.934 2903.43 863.707 2903.43 862.267ZM2930.08 866.667H2923.68L2942.32 826.667H2921.2L2920.4 833.707H2917.44V820.107H2948.64V820.907L2930.08 866.667ZM2951.71 866.667V865.707L2963.87 852.907C2968.24 848.32 2971.01 844.694 2972.19 842.027C2973.36 839.307 2973.95 836.587 2973.95 833.867C2973.95 831.147 2973.17 828.96 2971.63 827.307C2970.08 825.6 2967.95 824.747 2965.23 824.747C2962.4 824.747 2960.21 825.627 2958.67 827.387C2957.17 829.094 2955.95 830.934 2954.99 832.907L2952.27 831.707C2953.28 828.667 2955.04 825.84 2957.55 823.227C2960.11 820.614 2963.49 819.307 2967.71 819.307C2971.76 819.307 2975.04 820.507 2977.55 822.907C2980.05 825.254 2981.31 828.427 2981.31 832.427C2981.31 837.387 2979.33 841.92 2975.39 846.027C2971.44 850.134 2966.53 855.04 2960.67 860.747H2980.03L2980.91 853.627H2983.79V866.667H2951.71ZM2991.84 841.467C2991.84 838.694 2992.86 836.4 2994.88 834.587C2996.96 832.72 2999.52 831.787 3002.56 831.787C3004.11 831.787 3005.52 832.054 3006.8 832.587C3008.08 833.067 3009.23 833.814 3010.24 834.827L3011.04 832.107H3013.36V843.147H3010.72C3010.19 840.374 3009.23 838.267 3007.84 836.827C3006.51 835.387 3004.8 834.667 3002.72 834.667C3001.12 834.667 2999.82 835.12 2998.8 836.027C2997.79 836.934 2997.28 838.107 2997.28 839.547C2997.28 840.56 2997.6 841.44 2998.24 842.187C2998.88 842.934 3000.24 843.84 3002.32 844.907L3008 847.787C3010.56 849.067 3012.38 850.427 3013.44 851.867C3014.51 853.254 3015.04 854.934 3015.04 856.907C3015.04 859.947 3013.87 862.48 3011.52 864.507C3009.18 866.48 3006.3 867.467 3002.88 867.467C3001.12 867.467 2999.47 867.12 2997.92 866.427C2996.38 865.734 2995.12 864.8 2994.16 863.627L2993.44 866.667H2991.04V854.267H2993.76C2994.14 857.52 2995.12 860.027 2996.72 861.787C2998.32 863.547 3000.32 864.427 3002.72 864.427C3004.7 864.427 3006.27 863.947 3007.44 862.987C3008.62 862.027 3009.2 860.774 3009.2 859.227C3009.2 858.054 3008.88 857.094 3008.24 856.347C3007.66 855.547 3006.62 854.774 3005.12 854.027L2998.64 850.827C2996.19 849.6 2994.43 848.267 2993.36 846.827C2992.35 845.334 2991.84 843.547 2991.84 841.467Z" fill="white"/>
<rect x="521.5" y="711.833" width="2555" height="263.667" rx="30.5" stroke="white" stroke-opacity="0.23" stroke-width="3"/>
<path d="M2200.67 1110.6C2203.12 1110.6 2205.44 1109.48 2207.63 1107.24C2209.82 1104.95 2210.91 1101.29 2210.91 1096.28C2210.91 1092.65 2210.11 1089.43 2208.51 1086.6C2206.96 1083.72 2204.54 1082.28 2201.23 1082.28C2199.84 1082.28 2198.51 1082.47 2197.23 1082.84C2196 1083.21 2194.91 1083.99 2193.95 1085.16V1108.68C2194.75 1109.43 2195.74 1109.93 2196.91 1110.2C2198.08 1110.47 2199.34 1110.6 2200.67 1110.6ZM2201.07 1126.12V1129H2182.19V1126.12H2186.91V1081.8H2182.19V1078.92H2193.95V1083.16C2195.12 1081.93 2196.59 1080.79 2198.35 1079.72C2200.11 1078.65 2202.06 1078.12 2204.19 1078.12C2208.03 1078.12 2211.31 1079.67 2214.03 1082.76C2216.75 1085.8 2218.11 1089.77 2218.11 1094.68C2218.11 1097.67 2217.63 1100.36 2216.67 1102.76C2215.71 1105.11 2214.46 1107.11 2212.91 1108.76C2211.42 1110.36 2209.68 1111.61 2207.71 1112.52C2205.74 1113.37 2203.74 1113.8 2201.71 1113.8C2200.22 1113.8 2198.8 1113.56 2197.47 1113.08C2196.14 1112.6 2194.96 1111.99 2193.95 1111.24V1126.12H2201.07ZM2242.97 1092.76V1090.28C2242.97 1087.93 2242.36 1086.09 2241.13 1084.76C2239.9 1083.43 2238.14 1082.76 2235.85 1082.76C2234.09 1082.76 2232.46 1083.37 2230.97 1084.6C2229.53 1085.77 2228.36 1087.43 2227.45 1089.56L2224.49 1088.36C2225.72 1085.16 2227.53 1082.65 2229.93 1080.84C2232.38 1079.03 2235.16 1078.12 2238.25 1078.12C2241.82 1078.12 2244.68 1079.19 2246.81 1081.32C2248.94 1083.45 2250.01 1086.33 2250.01 1089.96V1106.92C2250.01 1107.83 2250.2 1108.52 2250.57 1109C2251 1109.48 2251.58 1109.72 2252.33 1109.72C2252.92 1109.72 2253.48 1109.61 2254.01 1109.4C2254.54 1109.13 2255.08 1108.76 2255.61 1108.28L2257.13 1110.28C2256.12 1111.4 2255.05 1112.28 2253.93 1112.92C2252.81 1113.51 2251.69 1113.8 2250.57 1113.8C2248.65 1113.8 2247.05 1113.32 2245.77 1112.36C2244.49 1111.35 2243.58 1109.91 2243.05 1108.04C2241.66 1109.75 2240.04 1111.13 2238.17 1112.2C2236.3 1113.21 2234.44 1113.72 2232.57 1113.72C2230.06 1113.72 2227.98 1112.97 2226.33 1111.48C2224.73 1109.93 2223.93 1107.96 2223.93 1105.56C2223.93 1103.53 2224.65 1101.77 2226.09 1100.28C2227.53 1098.79 2229.88 1097.45 2233.13 1096.28L2242.97 1092.76ZM2242.97 1105.8V1095.56L2236.25 1098.12C2234.38 1098.87 2233.02 1099.72 2232.17 1100.68C2231.32 1101.64 2230.89 1102.81 2230.89 1104.2C2230.89 1105.85 2231.29 1107.16 2232.09 1108.12C2232.94 1109.08 2234.09 1109.56 2235.53 1109.56C2236.81 1109.56 2238.09 1109.24 2239.37 1108.6C2240.65 1107.91 2241.85 1106.97 2242.97 1105.8ZM2277.7 1110.12V1113H2259.62V1110.12H2264.34V1081.8H2259.62V1078.92H2271.38V1084.84C2272.93 1083.35 2274.56 1081.85 2276.26 1080.36C2277.97 1078.87 2279.52 1078.12 2280.9 1078.12C2282.24 1078.12 2283.44 1078.47 2284.5 1079.16C2285.62 1079.85 2286.5 1080.57 2287.14 1081.32L2283.38 1087.16C2282.21 1086.31 2281.09 1085.56 2280.02 1084.92C2279.01 1084.28 2277.97 1083.96 2276.9 1083.96C2276.37 1083.96 2275.6 1084.15 2274.58 1084.52C2273.62 1084.84 2272.56 1085.53 2271.38 1086.6V1110.12H2277.7ZM2291.53 1087.8C2291.53 1085.03 2292.54 1082.73 2294.57 1080.92C2296.65 1079.05 2299.21 1078.12 2302.25 1078.12C2303.8 1078.12 2305.21 1078.39 2306.49 1078.92C2307.77 1079.4 2308.92 1080.15 2309.93 1081.16L2310.73 1078.44H2313.05V1089.48H2310.41C2309.88 1086.71 2308.92 1084.6 2307.53 1083.16C2306.2 1081.72 2304.49 1081 2302.41 1081C2300.81 1081 2299.5 1081.45 2298.49 1082.36C2297.48 1083.27 2296.97 1084.44 2296.97 1085.88C2296.97 1086.89 2297.29 1087.77 2297.93 1088.52C2298.57 1089.27 2299.93 1090.17 2302.01 1091.24L2307.69 1094.12C2310.25 1095.4 2312.06 1096.76 2313.13 1098.2C2314.2 1099.59 2314.73 1101.27 2314.73 1103.24C2314.73 1106.28 2313.56 1108.81 2311.21 1110.84C2308.86 1112.81 2305.98 1113.8 2302.57 1113.8C2300.81 1113.8 2299.16 1113.45 2297.61 1112.76C2296.06 1112.07 2294.81 1111.13 2293.85 1109.96L2293.13 1113H2290.73V1100.6H2293.45C2293.82 1103.85 2294.81 1106.36 2296.41 1108.12C2298.01 1109.88 2300.01 1110.76 2302.41 1110.76C2304.38 1110.76 2305.96 1110.28 2307.13 1109.32C2308.3 1108.36 2308.89 1107.11 2308.89 1105.56C2308.89 1104.39 2308.57 1103.43 2307.93 1102.68C2307.34 1101.88 2306.3 1101.11 2304.81 1100.36L2298.33 1097.16C2295.88 1095.93 2294.12 1094.6 2293.05 1093.16C2292.04 1091.67 2291.53 1089.88 2291.53 1087.8ZM2335.77 1081.08C2334.01 1081.08 2332.25 1081.91 2330.49 1083.56C2328.73 1085.16 2327.63 1087.64 2327.21 1091H2343.05C2342.94 1088.17 2342.25 1085.83 2340.97 1083.96C2339.74 1082.04 2338.01 1081.08 2335.77 1081.08ZM2350.33 1107.48C2348.67 1109.72 2346.7 1111.35 2344.41 1112.36C2342.11 1113.32 2339.71 1113.8 2337.21 1113.8C2332.73 1113.8 2328.81 1112.25 2325.45 1109.16C2322.14 1106.07 2320.49 1101.96 2320.49 1096.84C2320.49 1091.61 2322.09 1087.19 2325.29 1083.56C2328.49 1079.93 2332.27 1078.12 2336.65 1078.12C2341.34 1078.12 2344.73 1079.72 2346.81 1082.92C2348.94 1086.07 2350.01 1089.72 2350.01 1093.88H2327.05C2327.1 1098.79 2328.46 1102.6 2331.13 1105.32C2333.85 1108.04 2336.86 1109.4 2340.17 1109.4C2341.55 1109.4 2343.02 1109.16 2344.57 1108.68C2346.11 1108.2 2347.55 1107.24 2348.89 1105.8L2350.33 1107.48ZM2376.13 1073.08L2369.81 1091.24H2382.61L2376.13 1073.08ZM2370.05 1109.64V1113H2353.89V1109.64H2359.01L2374.77 1066.44H2380.93L2397.17 1109.64H2402.13V1113H2383.41V1109.64H2389.25L2383.81 1094.52H2368.61L2363.33 1109.64H2370.05ZM2420.23 1113.8C2418.21 1113.8 2416.21 1113.67 2414.23 1113.4C2412.31 1113.13 2410.26 1112.65 2408.07 1111.96V1063.08H2402.55V1060.2H2415.11V1083.16C2416.29 1081.93 2417.75 1080.79 2419.51 1079.72C2421.27 1078.65 2423.22 1078.12 2425.35 1078.12C2429.19 1078.12 2432.47 1079.67 2435.19 1082.76C2437.91 1085.8 2439.27 1089.77 2439.27 1094.68C2439.27 1097.67 2438.74 1100.36 2437.67 1102.76C2436.61 1105.11 2435.19 1107.11 2433.43 1108.76C2431.67 1110.36 2429.65 1111.61 2427.35 1112.52C2425.06 1113.37 2422.69 1113.8 2420.23 1113.8ZM2420.23 1110.6C2423.06 1110.6 2425.73 1109.43 2428.23 1107.08C2430.79 1104.73 2432.07 1101.13 2432.07 1096.28C2432.07 1092.65 2431.27 1089.43 2429.67 1086.6C2428.13 1083.72 2425.7 1082.28 2422.39 1082.28C2421.01 1082.28 2419.67 1082.47 2418.39 1082.84C2417.17 1083.21 2416.07 1083.99 2415.11 1085.16V1109.8C2415.91 1110.07 2416.71 1110.28 2417.51 1110.44C2418.37 1110.55 2419.27 1110.6 2420.23 1110.6ZM2447.74 1067.16C2447.74 1065.83 2448.17 1064.73 2449.02 1063.88C2449.93 1062.97 2451.02 1062.52 2452.3 1062.52C2453.64 1062.52 2454.76 1062.97 2455.66 1063.88C2456.57 1064.73 2457.02 1065.83 2457.02 1067.16C2457.02 1068.44 2456.57 1069.53 2455.66 1070.44C2454.76 1071.29 2453.64 1071.72 2452.3 1071.72C2451.02 1071.72 2449.93 1071.29 2449.02 1070.44C2448.17 1069.53 2447.74 1068.44 2447.74 1067.16ZM2456.38 1078.92V1110.12H2461.1V1113H2444.62V1110.12H2449.34V1081.8H2444.62V1078.92H2456.38ZM2484.95 1094.68V1088.44H2518.55V1094.68H2484.95ZM2560.43 1113.8C2558.24 1113.8 2556.11 1113.32 2554.03 1112.36C2552 1111.4 2550.19 1110.07 2548.59 1108.36C2547.04 1106.6 2545.79 1104.49 2544.83 1102.04C2543.87 1099.59 2543.39 1096.87 2543.39 1093.88C2543.39 1090.09 2544.08 1086.52 2545.47 1083.16C2546.85 1079.75 2548.77 1076.79 2551.23 1074.28C2553.73 1071.72 2556.69 1069.69 2560.11 1068.2C2563.57 1066.71 2567.36 1065.96 2571.47 1065.96C2572.05 1065.96 2572.64 1065.99 2573.23 1066.04C2573.87 1066.09 2574.48 1066.15 2575.07 1066.2V1069.4H2573.71C2566.72 1069.4 2561.31 1071.37 2557.47 1075.32C2553.68 1079.27 2551.52 1084.87 2550.99 1092.12C2552.37 1089.83 2554.08 1088.15 2556.11 1087.08C2558.19 1086.01 2560.29 1085.48 2562.43 1085.48C2566.05 1085.48 2569.23 1086.65 2571.95 1089C2574.72 1091.35 2576.11 1094.49 2576.11 1098.44C2576.11 1102.92 2574.56 1106.6 2571.47 1109.48C2568.37 1112.36 2564.69 1113.8 2560.43 1113.8ZM2560.75 1110.28C2563.15 1110.28 2565.17 1109.4 2566.83 1107.64C2568.48 1105.88 2569.31 1103.4 2569.31 1100.2C2569.31 1097 2568.37 1094.52 2566.51 1092.76C2564.69 1090.95 2562.35 1090.04 2559.47 1090.04C2557.81 1090.04 2556.19 1090.49 2554.59 1091.4C2553.04 1092.25 2551.81 1093.53 2550.91 1095.24V1095.56C2550.91 1100.04 2551.87 1103.61 2553.79 1106.28C2555.76 1108.95 2558.08 1110.28 2560.75 1110.28ZM2582.14 1089.72C2582.14 1086.73 2582.59 1083.8 2583.5 1080.92C2584.46 1077.99 2585.76 1075.4 2587.42 1073.16C2589.07 1070.92 2591.02 1069.11 2593.26 1067.72C2595.55 1066.33 2598.03 1065.64 2600.7 1065.64C2603.31 1065.64 2605.74 1066.33 2607.98 1067.72C2610.27 1069.11 2612.22 1070.92 2613.82 1073.16C2615.47 1075.4 2616.75 1077.99 2617.66 1080.92C2618.62 1083.8 2619.1 1086.73 2619.1 1089.72C2619.1 1092.71 2618.62 1095.67 2617.66 1098.6C2616.75 1101.48 2615.47 1104.04 2613.82 1106.28C2612.22 1108.52 2610.27 1110.33 2607.98 1111.72C2605.74 1113.11 2603.31 1113.8 2600.7 1113.8C2598.03 1113.8 2595.55 1113.11 2593.26 1111.72C2591.02 1110.33 2589.07 1108.52 2587.42 1106.28C2585.76 1104.04 2584.46 1101.48 2583.5 1098.6C2582.59 1095.67 2582.14 1092.71 2582.14 1089.72ZM2611.18 1089.72C2611.18 1087.16 2610.96 1084.65 2610.54 1082.2C2610.16 1079.69 2609.55 1077.48 2608.7 1075.56C2607.9 1073.64 2606.83 1072.09 2605.5 1070.92C2604.16 1069.69 2602.56 1069.08 2600.7 1069.08C2598.83 1069.08 2597.2 1069.69 2595.82 1070.92C2594.48 1072.09 2593.36 1073.64 2592.46 1075.56C2591.6 1077.48 2590.96 1079.69 2590.54 1082.2C2590.16 1084.65 2589.98 1087.16 2589.98 1089.72C2589.98 1092.28 2590.16 1094.81 2590.54 1097.32C2590.96 1099.77 2591.6 1101.96 2592.46 1103.88C2593.36 1105.8 2594.48 1107.37 2595.82 1108.6C2597.2 1109.77 2598.83 1110.36 2600.7 1110.36C2602.56 1110.36 2604.16 1109.77 2605.5 1108.6C2606.83 1107.37 2607.9 1105.8 2608.7 1103.88C2609.55 1101.96 2610.16 1099.77 2610.54 1097.32C2610.96 1094.81 2611.18 1092.28 2611.18 1089.72ZM2628.87 1113C2627.54 1113.16 2626.26 1112.84 2625.03 1112.04C2623.86 1111.24 2623.27 1109.96 2623.27 1108.2C2623.27 1106.87 2623.75 1105.75 2624.71 1104.84C2625.67 1103.88 2626.77 1103.4 2627.99 1103.4C2629.59 1103.4 2630.93 1103.96 2631.99 1105.08C2633.06 1106.15 2633.59 1107.8 2633.59 1110.04C2633.59 1113.93 2632.37 1117.11 2629.91 1119.56C2627.51 1122.01 2624.71 1123.53 2621.51 1124.12L2620.71 1121.72C2623.17 1120.97 2625.14 1119.88 2626.63 1118.44C2628.13 1117.05 2628.87 1115.24 2628.87 1113ZM2637.53 1089.72C2637.53 1086.73 2637.98 1083.8 2638.89 1080.92C2639.85 1077.99 2641.15 1075.4 2642.81 1073.16C2644.46 1070.92 2646.41 1069.11 2648.65 1067.72C2650.94 1066.33 2653.42 1065.64 2656.09 1065.64C2658.7 1065.64 2661.13 1066.33 2663.37 1067.72C2665.66 1069.11 2667.61 1070.92 2669.21 1073.16C2670.86 1075.4 2672.14 1077.99 2673.05 1080.92C2674.01 1083.8 2674.49 1086.73 2674.49 1089.72C2674.49 1092.71 2674.01 1095.67 2673.05 1098.6C2672.14 1101.48 2670.86 1104.04 2669.21 1106.28C2667.61 1108.52 2665.66 1110.33 2663.37 1111.72C2661.13 1113.11 2658.7 1113.8 2656.09 1113.8C2653.42 1113.8 2650.94 1113.11 2648.65 1111.72C2646.41 1110.33 2644.46 1108.52 2642.81 1106.28C2641.15 1104.04 2639.85 1101.48 2638.89 1098.6C2637.98 1095.67 2637.53 1092.71 2637.53 1089.72ZM2666.57 1089.72C2666.57 1087.16 2666.35 1084.65 2665.93 1082.2C2665.55 1079.69 2664.94 1077.48 2664.09 1075.56C2663.29 1073.64 2662.22 1072.09 2660.89 1070.92C2659.55 1069.69 2657.95 1069.08 2656.09 1069.08C2654.22 1069.08 2652.59 1069.69 2651.21 1070.92C2649.87 1072.09 2648.75 1073.64 2647.85 1075.56C2646.99 1077.48 2646.35 1079.69 2645.93 1082.2C2645.55 1084.65 2645.37 1087.16 2645.37 1089.72C2645.37 1092.28 2645.55 1094.81 2645.93 1097.32C2646.35 1099.77 2646.99 1101.96 2647.85 1103.88C2648.75 1105.8 2649.87 1107.37 2651.21 1108.6C2652.59 1109.77 2654.22 1110.36 2656.09 1110.36C2657.95 1110.36 2659.55 1109.77 2660.89 1108.6C2662.22 1107.37 2663.29 1105.8 2664.09 1103.88C2664.94 1101.96 2665.55 1099.77 2665.93 1097.32C2666.35 1094.81 2666.57 1092.28 2666.57 1089.72ZM2680.89 1089.72C2680.89 1086.73 2681.34 1083.8 2682.25 1080.92C2683.21 1077.99 2684.51 1075.4 2686.17 1073.16C2687.82 1070.92 2689.77 1069.11 2692.01 1067.72C2694.3 1066.33 2696.78 1065.64 2699.45 1065.64C2702.06 1065.64 2704.49 1066.33 2706.73 1067.72C2709.02 1069.11 2710.97 1070.92 2712.57 1073.16C2714.22 1075.4 2715.5 1077.99 2716.41 1080.92C2717.37 1083.8 2717.85 1086.73 2717.85 1089.72C2717.85 1092.71 2717.37 1095.67 2716.41 1098.6C2715.5 1101.48 2714.22 1104.04 2712.57 1106.28C2710.97 1108.52 2709.02 1110.33 2706.73 1111.72C2704.49 1113.11 2702.06 1113.8 2699.45 1113.8C2696.78 1113.8 2694.3 1113.11 2692.01 1111.72C2689.77 1110.33 2687.82 1108.52 2686.17 1106.28C2684.51 1104.04 2683.21 1101.48 2682.25 1098.6C2681.34 1095.67 2680.89 1092.71 2680.89 1089.72ZM2709.93 1089.72C2709.93 1087.16 2709.71 1084.65 2709.29 1082.2C2708.91 1079.69 2708.3 1077.48 2707.45 1075.56C2706.65 1073.64 2705.58 1072.09 2704.25 1070.92C2702.91 1069.69 2701.31 1069.08 2699.45 1069.08C2697.58 1069.08 2695.95 1069.69 2694.57 1070.92C2693.23 1072.09 2692.11 1073.64 2691.21 1075.56C2690.35 1077.48 2689.71 1079.69 2689.29 1082.2C2688.91 1084.65 2688.73 1087.16 2688.73 1089.72C2688.73 1092.28 2688.91 1094.81 2689.29 1097.32C2689.71 1099.77 2690.35 1101.96 2691.21 1103.88C2692.11 1105.8 2693.23 1107.37 2694.57 1108.6C2695.95 1109.77 2697.58 1110.36 2699.45 1110.36C2701.31 1110.36 2702.91 1109.77 2704.25 1108.6C2705.58 1107.37 2706.65 1105.8 2707.45 1103.88C2708.3 1101.96 2708.91 1099.77 2709.29 1097.32C2709.71 1094.81 2709.93 1092.28 2709.93 1089.72ZM2724.25 1089.72C2724.25 1086.73 2724.7 1083.8 2725.61 1080.92C2726.57 1077.99 2727.87 1075.4 2729.53 1073.16C2731.18 1070.92 2733.13 1069.11 2735.37 1067.72C2737.66 1066.33 2740.14 1065.64 2742.81 1065.64C2745.42 1065.64 2747.85 1066.33 2750.09 1067.72C2752.38 1069.11 2754.33 1070.92 2755.93 1073.16C2757.58 1075.4 2758.86 1077.99 2759.77 1080.92C2760.73 1083.8 2761.21 1086.73 2761.21 1089.72C2761.21 1092.71 2760.73 1095.67 2759.77 1098.6C2758.86 1101.48 2757.58 1104.04 2755.93 1106.28C2754.33 1108.52 2752.38 1110.33 2750.09 1111.72C2747.85 1113.11 2745.42 1113.8 2742.81 1113.8C2740.14 1113.8 2737.66 1113.11 2735.37 1111.72C2733.13 1110.33 2731.18 1108.52 2729.53 1106.28C2727.87 1104.04 2726.57 1101.48 2725.61 1098.6C2724.7 1095.67 2724.25 1092.71 2724.25 1089.72ZM2753.29 1089.72C2753.29 1087.16 2753.07 1084.65 2752.65 1082.2C2752.27 1079.69 2751.66 1077.48 2750.81 1075.56C2750.01 1073.64 2748.94 1072.09 2747.61 1070.92C2746.27 1069.69 2744.67 1069.08 2742.81 1069.08C2740.94 1069.08 2739.31 1069.69 2737.93 1070.92C2736.59 1072.09 2735.47 1073.64 2734.57 1075.56C2733.71 1077.48 2733.07 1079.69 2732.65 1082.2C2732.27 1084.65 2732.09 1087.16 2732.09 1089.72C2732.09 1092.28 2732.27 1094.81 2732.65 1097.32C2733.07 1099.77 2733.71 1101.96 2734.57 1103.88C2735.47 1105.8 2736.59 1107.37 2737.93 1108.6C2739.31 1109.77 2740.94 1110.36 2742.81 1110.36C2744.67 1110.36 2746.27 1109.77 2747.61 1108.6C2748.94 1107.37 2750.01 1105.8 2750.81 1103.88C2751.66 1101.96 2752.27 1099.77 2752.65 1097.32C2753.07 1094.81 2753.29 1092.28 2753.29 1089.72ZM2788.52 1067.16C2788.52 1065.83 2788.95 1064.73 2789.8 1063.88C2790.71 1062.97 2791.8 1062.52 2793.08 1062.52C2794.42 1062.52 2795.54 1062.97 2796.44 1063.88C2797.35 1064.73 2797.8 1065.83 2797.8 1067.16C2797.8 1068.44 2797.35 1069.53 2796.44 1070.44C2795.54 1071.29 2794.42 1071.72 2793.08 1071.72C2791.8 1071.72 2790.71 1071.29 2789.8 1070.44C2788.95 1069.53 2788.52 1068.44 2788.52 1067.16ZM2797.16 1078.92V1110.12H2801.88V1113H2785.4V1110.12H2790.12V1081.8H2785.4V1078.92H2797.16ZM2804.89 1078.92H2810.09V1071.56L2817.05 1068.52V1078.92H2827.21V1081.8H2817.05V1104.44C2817.05 1105.93 2817.48 1107.16 2818.33 1108.12C2819.19 1109.08 2820.44 1109.56 2822.09 1109.56C2823.27 1109.56 2824.36 1109.21 2825.37 1108.52C2826.39 1107.83 2827.43 1106.89 2828.49 1105.72L2830.25 1107.48C2828.81 1109.51 2827.11 1111.08 2825.13 1112.2C2823.16 1113.27 2821.16 1113.8 2819.13 1113.8C2816.52 1113.8 2814.36 1113.08 2812.65 1111.64C2810.95 1110.15 2810.09 1108.04 2810.09 1105.32V1081.8H2804.89V1078.92ZM2848.11 1081.08C2846.35 1081.08 2844.59 1081.91 2842.83 1083.56C2841.07 1085.16 2839.98 1087.64 2839.55 1091H2855.39C2855.28 1088.17 2854.59 1085.83 2853.31 1083.96C2852.08 1082.04 2850.35 1081.08 2848.11 1081.08ZM2862.67 1107.48C2861.02 1109.72 2859.04 1111.35 2856.75 1112.36C2854.46 1113.32 2852.06 1113.8 2849.55 1113.8C2845.07 1113.8 2841.15 1112.25 2837.79 1109.16C2834.48 1106.07 2832.83 1101.96 2832.83 1096.84C2832.83 1091.61 2834.43 1087.19 2837.63 1083.56C2840.83 1079.93 2844.62 1078.12 2848.99 1078.12C2853.68 1078.12 2857.07 1079.72 2859.15 1082.92C2861.28 1086.07 2862.35 1089.72 2862.35 1093.88H2839.39C2839.44 1098.79 2840.8 1102.6 2843.47 1105.32C2846.19 1108.04 2849.2 1109.4 2852.51 1109.4C2853.9 1109.4 2855.36 1109.16 2856.91 1108.68C2858.46 1108.2 2859.9 1107.24 2861.23 1105.8L2862.67 1107.48ZM2885.75 1110.12V1113H2867.67V1110.12H2872.39V1081.8H2867.67V1078.92H2879.43V1084.84C2880.98 1083.35 2882.6 1081.85 2884.31 1080.36C2886.02 1078.87 2887.56 1078.12 2888.95 1078.12C2890.28 1078.12 2891.48 1078.47 2892.55 1079.16C2893.67 1079.85 2894.55 1080.57 2895.19 1081.32L2891.43 1087.16C2890.26 1086.31 2889.14 1085.56 2888.07 1084.92C2887.06 1084.28 2886.02 1083.96 2884.95 1083.96C2884.42 1083.96 2883.64 1084.15 2882.63 1084.52C2881.67 1084.84 2880.6 1085.53 2879.43 1086.6V1110.12H2885.75ZM2916.17 1092.76V1090.28C2916.17 1087.93 2915.56 1086.09 2914.33 1084.76C2913.11 1083.43 2911.35 1082.76 2909.05 1082.76C2907.29 1082.76 2905.67 1083.37 2904.17 1084.6C2902.73 1085.77 2901.56 1087.43 2900.65 1089.56L2897.69 1088.36C2898.92 1085.16 2900.73 1082.65 2903.13 1080.84C2905.59 1079.03 2908.36 1078.12 2911.45 1078.12C2915.03 1078.12 2917.88 1079.19 2920.01 1081.32C2922.15 1083.45 2923.21 1086.33 2923.21 1089.96V1106.92C2923.21 1107.83 2923.4 1108.52 2923.77 1109C2924.2 1109.48 2924.79 1109.72 2925.53 1109.72C2926.12 1109.72 2926.68 1109.61 2927.21 1109.4C2927.75 1109.13 2928.28 1108.76 2928.81 1108.28L2930.33 1110.28C2929.32 1111.4 2928.25 1112.28 2927.13 1112.92C2926.01 1113.51 2924.89 1113.8 2923.77 1113.8C2921.85 1113.8 2920.25 1113.32 2918.97 1112.36C2917.69 1111.35 2916.79 1109.91 2916.25 1108.04C2914.87 1109.75 2913.24 1111.13 2911.37 1112.2C2909.51 1113.21 2907.64 1113.72 2905.77 1113.72C2903.27 1113.72 2901.19 1112.97 2899.53 1111.48C2897.93 1109.93 2897.13 1107.96 2897.13 1105.56C2897.13 1103.53 2897.85 1101.77 2899.29 1100.28C2900.73 1098.79 2903.08 1097.45 2906.33 1096.28L2916.17 1092.76ZM2916.17 1105.8V1095.56L2909.45 1098.12C2907.59 1098.87 2906.23 1099.72 2905.37 1100.68C2904.52 1101.64 2904.09 1102.81 2904.09 1104.2C2904.09 1105.85 2904.49 1107.16 2905.29 1108.12C2906.15 1109.08 2907.29 1109.56 2908.73 1109.56C2910.01 1109.56 2911.29 1109.24 2912.57 1108.6C2913.85 1107.91 2915.05 1106.97 2916.17 1105.8ZM2931.07 1078.92H2936.27V1071.56L2943.23 1068.52V1078.92H2953.39V1081.8H2943.23V1104.44C2943.23 1105.93 2943.65 1107.16 2944.51 1108.12C2945.36 1109.08 2946.61 1109.56 2948.27 1109.56C2949.44 1109.56 2950.53 1109.21 2951.55 1108.52C2952.56 1107.83 2953.6 1106.89 2954.67 1105.72L2956.43 1107.48C2954.99 1109.51 2953.28 1111.08 2951.31 1112.2C2949.33 1113.27 2947.33 1113.8 2945.31 1113.8C2942.69 1113.8 2940.53 1113.08 2938.83 1111.64C2937.12 1110.15 2936.27 1108.04 2936.27 1105.32V1081.8H2931.07V1078.92ZM2961.88 1067.16C2961.88 1065.83 2962.31 1064.73 2963.16 1063.88C2964.07 1062.97 2965.16 1062.52 2966.44 1062.52C2967.78 1062.52 2968.9 1062.97 2969.8 1063.88C2970.71 1064.73 2971.16 1065.83 2971.16 1067.16C2971.16 1068.44 2970.71 1069.53 2969.8 1070.44C2968.9 1071.29 2967.78 1071.72 2966.44 1071.72C2965.16 1071.72 2964.07 1071.29 2963.16 1070.44C2962.31 1069.53 2961.88 1068.44 2961.88 1067.16ZM2970.52 1078.92V1110.12H2975.24V1113H2958.76V1110.12H2963.48V1081.8H2958.76V1078.92H2970.52ZM2996.57 1113.8C2994.55 1113.8 2992.55 1113.4 2990.57 1112.6C2988.6 1111.75 2986.84 1110.55 2985.29 1109C2983.8 1107.45 2982.57 1105.59 2981.61 1103.4C2980.71 1101.16 2980.25 1098.68 2980.25 1095.96C2980.25 1093.24 2980.71 1090.79 2981.61 1088.6C2982.57 1086.36 2983.8 1084.47 2985.29 1082.92C2986.84 1081.37 2988.6 1080.2 2990.57 1079.4C2992.55 1078.55 2994.55 1078.12 2996.57 1078.12C2998.6 1078.12 3000.6 1078.55 3002.57 1079.4C3004.55 1080.2 3006.28 1081.37 3007.77 1082.92C3009.32 1084.47 3010.55 1086.36 3011.45 1088.6C3012.41 1090.79 3012.89 1093.24 3012.89 1095.96C3012.89 1098.68 3012.41 1101.16 3011.45 1103.4C3010.55 1105.59 3009.32 1107.45 3007.77 1109C3006.28 1110.55 3004.55 1111.75 3002.57 1112.6C3000.6 1113.4 2998.6 1113.8 2996.57 1113.8ZM2996.57 1081.16C2993.96 1081.16 2991.8 1082.44 2990.09 1085C2988.44 1087.51 2987.61 1091.16 2987.61 1095.96C2987.61 1100.76 2988.44 1104.44 2990.09 1107C2991.8 1109.51 2993.96 1110.76 2996.57 1110.76C2999.19 1110.76 3001.32 1109.51 3002.97 1107C3004.68 1104.44 3005.53 1100.76 3005.53 1095.96C3005.53 1091.16 3004.68 1087.51 3002.97 1085C3001.32 1082.44 2999.19 1081.16 2996.57 1081.16ZM3034.7 1110.12V1113H3018.22V1110.12H3022.94V1081.8H3018.22V1078.92H3029.98V1083.8C3031.42 1082.47 3033.1 1081.19 3035.02 1079.96C3036.94 1078.73 3039.15 1078.12 3041.66 1078.12C3045.18 1078.12 3047.66 1079.29 3049.1 1081.64C3050.59 1083.93 3051.34 1086.68 3051.34 1089.88V1110.12H3056.06V1113H3039.58V1110.12H3044.3V1091.72C3044.3 1089.43 3043.92 1087.35 3043.18 1085.48C3042.48 1083.56 3040.86 1082.6 3038.3 1082.6C3036.8 1082.6 3035.36 1082.87 3033.98 1083.4C3032.64 1083.88 3031.31 1084.68 3029.98 1085.8V1110.12H3034.7ZM3061.84 1087.8C3061.84 1085.03 3062.86 1082.73 3064.88 1080.92C3066.96 1079.05 3069.52 1078.12 3072.56 1078.12C3074.11 1078.12 3075.52 1078.39 3076.8 1078.92C3078.08 1079.4 3079.23 1080.15 3080.24 1081.16L3081.04 1078.44H3083.36V1089.48H3080.72C3080.19 1086.71 3079.23 1084.6 3077.84 1083.16C3076.51 1081.72 3074.8 1081 3072.72 1081C3071.12 1081 3069.82 1081.45 3068.8 1082.36C3067.79 1083.27 3067.28 1084.44 3067.28 1085.88C3067.28 1086.89 3067.6 1087.77 3068.24 1088.52C3068.88 1089.27 3070.24 1090.17 3072.32 1091.24L3078 1094.12C3080.56 1095.4 3082.38 1096.76 3083.44 1098.2C3084.51 1099.59 3085.04 1101.27 3085.04 1103.24C3085.04 1106.28 3083.87 1108.81 3081.52 1110.84C3079.18 1112.81 3076.3 1113.8 3072.88 1113.8C3071.12 1113.8 3069.47 1113.45 3067.92 1112.76C3066.38 1112.07 3065.12 1111.13 3064.16 1109.96L3063.44 1113H3061.04V1100.6H3063.76C3064.14 1103.85 3065.12 1106.36 3066.72 1108.12C3068.32 1109.88 3070.32 1110.76 3072.72 1110.76C3074.7 1110.76 3076.27 1110.28 3077.44 1109.32C3078.62 1108.36 3079.2 1107.11 3079.2 1105.56C3079.2 1104.39 3078.88 1103.43 3078.24 1102.68C3077.66 1101.88 3076.62 1101.11 3075.12 1100.36L3068.64 1097.16C3066.19 1095.93 3064.43 1094.6 3063.36 1093.16C3062.35 1091.67 3061.84 1089.88 3061.84 1087.8Z" fill="white"/>
<defs>
<filter id="filter0_d_12_33" x="497.73" y="0.848145" width="157.541" height="304.926" filterUnits="userSpaceOnUse" color-interpolation-filters="sRGB">
<feFlood flood-opacity="0" result="BackgroundImageFix"/>
<feColorMatrix in="SourceAlpha" type="matrix" values="0 0 0 0 0 0 0 0 0 0 0 0 0 0 0 0 0 0 127 0" result="hardAlpha"/>
<feMorphology radius="7" operator="dilate" in="SourceAlpha" result="effect1_dropShadow_12_33"/>
<feOffset dy="4"/>
<feGaussianBlur stdDeviation="16"/>
<feComposite in2="hardAlpha" operator="out"/>
<feColorMatrix type="matrix" values="0 0 0 0 1 0 0 0 0 0.6 0 0 0 0 0 0 0 0 0.98 0"/>
<feBlend mode="normal" in2="BackgroundImageFix" result="effect1_dropShadow_12_33"/>
<feBlend mode="normal" in="SourceGraphic" in2="effect1_dropShadow_12_33" result="shape"/>
</filter>
<radialGradient id="paint0_radial_12_33" cx="0" cy="0" r="1" gradientUnits="userSpaceOnUse" gradientTransform="translate(540.345 173.313) rotate(82.5158) scale(404.934 121.92)">
<stop stop-color="#FF8A00"/>
<stop offset="1" stop-color="#FFBA07"/>
</radialGradient>
<radialGradient id="paint1_radial_12_33" cx="0" cy="0" r="1" gradientUnits="userSpaceOnUse" gradientTransform="translate(539.682 175.154) rotate(82.6287) scale(418.639 124.189)">
<stop stop-color="#FF8A00"/>
<stop offset="1" stop-color="#FFBA07"/>
</radialGradient>
<radialGradient id="paint2_radial_12_33" cx="0" cy="0" r="1" gradientUnits="userSpaceOnUse" gradientTransform="translate(579.227 521.82) rotate(33.36) scale(755.012 808.474)">
<stop stop-color="white" stop-opacity="0.19"/>
<stop offset="1" stop-color="white" stop-opacity="0.32"/>
</radialGradient>
<radialGradient id="paint3_radial_12_33" cx="0" cy="0" r="1" gradientUnits="userSpaceOnUse" gradientTransform="translate(636.909 868.487) rotate(15.7503) scale(1529.51 931.621)">
<stop stop-color="white" stop-opacity="0.19"/>
<stop offset="1" stop-color="white" stop-opacity="0.32"/>
</radialGradient>
</defs>
</svg>
