<svg width="2852" height="1530" viewBox="0 0 2852 1530" fill="none" xmlns="http://www.w3.org/2000/svg">
<rect width="2846" height="1530" transform="translate(6)" fill="#1E1E20"/>
<path d="M387.611 110V105.45C389.478 103.63 391.274 101.833 393.001 100.06C394.774 98.24 396.408 96.5367 397.901 94.95C401.401 91.2633 403.968 87.9267 405.601 84.94C407.234 81.9533 408.051 79.1067 408.051 76.4C408.051 73.5067 407.281 71.22 405.741 69.54C404.248 67.86 402.218 67.02 399.651 67.02C399.184 67.02 398.648 67.0433 398.041 67.09C397.481 67.1367 396.874 67.23 396.221 67.37L394.891 72.2C394.424 73.9267 393.864 75.1633 393.211 75.91C392.604 76.61 391.811 76.96 390.831 76.96C389.291 76.96 388.101 76.2133 387.261 74.72C387.541 72.2467 388.358 70.2167 389.711 68.63C391.064 66.9967 392.768 65.8067 394.821 65.06C396.874 64.2667 399.068 63.87 401.401 63.87C405.928 63.87 409.218 64.99 411.271 67.23C413.324 69.4233 414.351 72.27 414.351 75.77C414.351 77.8233 413.931 79.83 413.091 81.79C412.298 83.7033 410.898 85.8733 408.891 88.3C406.884 90.68 404.084 93.5967 400.491 97.05C399.558 97.9833 398.414 99.08 397.061 100.34C395.754 101.6 394.378 102.907 392.931 104.26H416.381V110H387.611ZM453.061 96.49H445.711V110H439.901V96.49H420.861V92.78L441.651 64.15H445.711V92.08H453.061V96.49ZM425.061 92.08H439.901V71.43L425.061 92.08ZM455.931 110V107.48L461.531 106.5C461.578 104.633 461.601 102.767 461.601 100.9C461.648 98.9867 461.671 97.12 461.671 95.3V64.57L455.931 63.87V61.42L466.851 58.27L467.831 58.83L467.551 68.77V93.2L479.521 80.74L474.341 79.48V76.75H490.651V79.48L484.071 80.46L476.371 88.37L487.851 106.64L492.471 107.48V110H482.951L472.171 92.64L467.551 97.4C467.551 98.8933 467.551 100.41 467.551 101.95C467.598 103.49 467.644 105.007 467.691 106.5L473.291 107.48V110H455.931ZM512.622 87.39H508.772C508.772 91.0767 508.772 94.4833 508.772 97.61C508.819 100.69 508.866 103.723 508.912 106.71H513.182C517.662 106.71 520.999 105.893 523.192 104.26C525.386 102.627 526.482 100.27 526.482 97.19C526.482 93.9233 525.386 91.4733 523.192 89.84C520.999 88.2067 517.476 87.39 512.622 87.39ZM513.742 66.39H508.912C508.866 69.3767 508.819 72.41 508.772 75.49C508.772 78.5233 508.772 81.4167 508.772 84.17H512.412C516.659 84.17 519.739 83.4467 521.652 82C523.566 80.5533 524.522 78.2433 524.522 75.07C524.522 71.8967 523.612 69.6567 521.792 68.35C520.019 67.0433 517.336 66.39 513.742 66.39ZM495.542 66.04V63.17H515.842C520.696 63.17 524.452 64.2433 527.112 66.39C529.772 68.5367 531.102 71.2667 531.102 74.58C531.102 77.0533 530.262 79.3167 528.582 81.37C526.902 83.4233 524.126 84.8467 520.252 85.64C524.919 86.2933 528.279 87.67 530.332 89.77C532.432 91.87 533.482 94.3433 533.482 97.19C533.482 99.29 532.852 101.32 531.592 103.28C530.379 105.24 528.396 106.85 525.642 108.11C522.889 109.37 519.272 110 514.792 110H495.542V107.13L501.982 106.36C502.076 103.42 502.122 100.433 502.122 97.4C502.122 94.3667 502.122 91.3333 502.122 88.3V84.87C502.122 81.8367 502.122 78.8267 502.122 75.84C502.122 72.8067 502.076 69.7967 501.982 66.81L495.542 66.04Z" fill="white"/>
<g filter="url(#filter0_d_421_47)">
<rect x="39.2422" y="1194" width="842.182" height="128" rx="16" fill="url(#paint0_radial_421_47)" fill-opacity="0.96" shape-rendering="crispEdges"/>
</g>
<rect x="32" y="1185" width="856.667" height="142" rx="16" fill="url(#paint1_radial_421_47)" fill-opacity="0.96"/>
<rect x="17.5" y="11.5" width="885.667" height="1330" rx="30.5" stroke="white" stroke-opacity="0.23" stroke-width="3"/>
<path d="M379.633 1476.3V1472.1H398.633V1476.3L393.033 1477.5L376.633 1520.4H370.733L352.633 1477.2L347.433 1476.3V1472.1H373.733V1476.3L366.033 1477.5L377.033 1506.5L386.933 1477.6L379.633 1476.3ZM402.596 1520V1515.9L409.196 1514.6C409.263 1512.13 409.296 1509.47 409.296 1506.6C409.296 1503.67 409.296 1501.13 409.296 1499V1494.3C409.296 1491.57 409.263 1489.3 409.196 1487.5C409.196 1485.63 409.129 1483.7 408.996 1481.7L401.896 1480.8V1477L419.896 1470.7L421.496 1471.7L421.196 1485.8V1499C421.196 1501.13 421.196 1503.67 421.196 1506.6C421.196 1509.47 421.229 1512.17 421.296 1514.7L427.396 1515.9V1520H402.596ZM415.196 1461.4C413.063 1461.4 411.263 1460.73 409.796 1459.4C408.329 1458.07 407.596 1456.37 407.596 1454.3C407.596 1452.17 408.329 1450.43 409.796 1449.1C411.263 1447.77 413.063 1447.1 415.196 1447.1C417.329 1447.1 419.096 1447.77 420.496 1449.1C421.963 1450.43 422.696 1452.17 422.696 1454.3C422.696 1456.37 421.963 1458.07 420.496 1459.4C419.096 1460.73 417.329 1461.4 415.196 1461.4ZM457.36 1475.5C455.76 1475.5 454.16 1476.03 452.56 1477.1C451.027 1478.1 449.693 1479.77 448.56 1482.1C447.493 1484.43 446.827 1487.6 446.56 1491.6H460.26C462.66 1491.6 464.26 1491.1 465.06 1490.1C465.86 1489.1 466.26 1487.7 466.26 1485.9C466.26 1482.83 465.393 1480.33 463.66 1478.4C461.927 1476.47 459.827 1475.5 457.36 1475.5ZM457.36 1521.4C452.693 1521.4 448.593 1520.4 445.06 1518.4C441.527 1516.4 438.76 1513.53 436.76 1509.8C434.76 1506 433.76 1501.5 433.76 1496.3C433.76 1490.97 434.893 1486.4 437.16 1482.6C439.493 1478.73 442.493 1475.8 446.16 1473.8C449.893 1471.73 453.86 1470.7 458.06 1470.7C461.993 1470.7 465.427 1471.53 468.36 1473.2C471.293 1474.87 473.56 1477.2 475.16 1480.2C476.827 1483.2 477.66 1486.73 477.66 1490.8C477.66 1492.93 477.46 1494.77 477.06 1496.3H446.46C446.727 1502.03 448.227 1506.33 450.96 1509.2C453.76 1512.07 457.26 1513.5 461.46 1513.5C464.393 1513.5 466.86 1512.93 468.86 1511.8C470.927 1510.6 472.793 1509.07 474.46 1507.2L477.36 1509.8C475.427 1513.47 472.76 1516.33 469.36 1518.4C466.027 1520.4 462.027 1521.4 457.36 1521.4ZM484.925 1520V1515.9L491.425 1514.6C491.492 1512.13 491.525 1509.47 491.525 1506.6C491.525 1503.67 491.525 1501.13 491.525 1499V1493.7C491.525 1490.97 491.492 1488.8 491.425 1487.2C491.425 1485.53 491.358 1483.7 491.225 1481.7L484.225 1480.8V1477L500.925 1470.7L502.525 1471.7L503.225 1479.5C505.625 1476.77 508.225 1474.63 511.025 1473.1C513.892 1471.5 516.858 1470.7 519.925 1470.7C526.392 1470.7 530.558 1473.73 532.425 1479.8C535.092 1476.6 537.858 1474.3 540.725 1472.9C543.592 1471.43 546.558 1470.7 549.625 1470.7C554.158 1470.7 557.558 1472.1 559.825 1474.9C562.092 1477.7 563.225 1482.17 563.225 1488.3V1499C563.225 1501.27 563.225 1503.83 563.225 1506.7C563.225 1509.5 563.258 1512.17 563.325 1514.7L569.425 1515.9V1520H545.025V1515.9L551.225 1514.6C551.292 1512.13 551.325 1509.5 551.325 1506.7C551.325 1503.83 551.325 1501.27 551.325 1499V1489.8C551.325 1485.6 550.758 1482.77 549.625 1481.3C548.558 1479.83 546.758 1479.1 544.225 1479.1C540.692 1479.1 537.025 1480.8 533.225 1484.2C533.292 1484.87 533.325 1485.57 533.325 1486.3C533.392 1487.03 533.425 1487.8 533.425 1488.6V1499C533.425 1501.27 533.425 1503.83 533.425 1506.7C533.425 1509.5 533.458 1512.17 533.525 1514.7L539.525 1515.9V1520H515.025V1515.9L521.425 1514.6C521.492 1512.13 521.525 1509.5 521.525 1506.7C521.525 1503.83 521.525 1501.27 521.525 1499V1490C521.525 1485.93 520.992 1483.1 519.925 1481.5C518.925 1479.9 517.125 1479.1 514.525 1479.1C512.658 1479.1 510.792 1479.57 508.925 1480.5C507.125 1481.37 505.358 1482.57 503.625 1484.1V1499C503.625 1501.2 503.625 1503.73 503.625 1506.6C503.625 1509.47 503.658 1512.17 503.725 1514.7L509.625 1515.9V1520H484.925Z" fill="white"/>
<path d="M1341.3 67.93L1355.72 64.22L1356.7 64.92L1356.42 74.93V95.23C1356.42 96.9567 1356.42 98.7067 1356.42 100.48C1356.46 102.253 1356.51 104.027 1356.56 105.8L1366.5 107.48V110H1340.53V107.48L1350.4 105.8C1350.44 104.027 1350.47 102.253 1350.47 100.48C1350.51 98.7067 1350.54 96.9567 1350.54 95.23V70.03L1341.3 70.8V67.93ZM1373.78 110V105.45C1375.64 103.63 1377.44 101.833 1379.17 100.06C1380.94 98.24 1382.57 96.5367 1384.07 94.95C1387.57 91.2633 1390.13 87.9267 1391.77 84.94C1393.4 81.9533 1394.22 79.1067 1394.22 76.4C1394.22 73.5067 1393.45 71.22 1391.91 69.54C1390.41 67.86 1388.38 67.02 1385.82 67.02C1385.35 67.02 1384.81 67.0433 1384.21 67.09C1383.65 67.1367 1383.04 67.23 1382.39 67.37L1381.06 72.2C1380.59 73.9267 1380.03 75.1633 1379.38 75.91C1378.77 76.61 1377.98 76.96 1377 76.96C1375.46 76.96 1374.27 76.2133 1373.43 74.72C1373.71 72.2467 1374.52 70.2167 1375.88 68.63C1377.23 66.9967 1378.93 65.8067 1380.99 65.06C1383.04 64.2667 1385.23 63.87 1387.57 63.87C1392.09 63.87 1395.38 64.99 1397.44 67.23C1399.49 69.4233 1400.52 72.27 1400.52 75.77C1400.52 77.8233 1400.1 79.83 1399.26 81.79C1398.46 83.7033 1397.06 85.8733 1395.06 88.3C1393.05 90.68 1390.25 93.5967 1386.66 97.05C1385.72 97.9833 1384.58 99.08 1383.23 100.34C1381.92 101.6 1380.54 102.907 1379.1 104.26H1402.55V110H1373.78ZM1414.66 109.3L1433.14 70.52H1408.92V64.78H1437.83V68.35L1421.17 110H1415.36L1414.66 109.3ZM1442.1 110V107.48L1447.7 106.5C1447.74 104.633 1447.77 102.767 1447.77 100.9C1447.81 98.9867 1447.84 97.12 1447.84 95.3V64.57L1442.1 63.87V61.42L1453.02 58.27L1454 58.83L1453.72 68.77V93.2L1465.69 80.74L1460.51 79.48V76.75H1476.82V79.48L1470.24 80.46L1462.54 88.37L1474.02 106.64L1478.64 107.48V110H1469.12L1458.34 92.64L1453.72 97.4C1453.72 98.8933 1453.72 100.41 1453.72 101.95C1453.76 103.49 1453.81 105.007 1453.86 106.5L1459.46 107.48V110H1442.1ZM1498.79 87.39H1494.94C1494.94 91.0767 1494.94 94.4833 1494.94 97.61C1494.99 100.69 1495.03 103.723 1495.08 106.71H1499.35C1503.83 106.71 1507.17 105.893 1509.36 104.26C1511.55 102.627 1512.65 100.27 1512.65 97.19C1512.65 93.9233 1511.55 91.4733 1509.36 89.84C1507.17 88.2067 1503.64 87.39 1498.79 87.39ZM1499.91 66.39H1495.08C1495.03 69.3767 1494.99 72.41 1494.94 75.49C1494.94 78.5233 1494.94 81.4167 1494.94 84.17H1498.58C1502.83 84.17 1505.91 83.4467 1507.82 82C1509.73 80.5533 1510.69 78.2433 1510.69 75.07C1510.69 71.8967 1509.78 69.6567 1507.96 68.35C1506.19 67.0433 1503.5 66.39 1499.91 66.39ZM1481.71 66.04V63.17H1502.01C1506.86 63.17 1510.62 64.2433 1513.28 66.39C1515.94 68.5367 1517.27 71.2667 1517.27 74.58C1517.27 77.0533 1516.43 79.3167 1514.75 81.37C1513.07 83.4233 1510.29 84.8467 1506.42 85.64C1511.09 86.2933 1514.45 87.67 1516.5 89.77C1518.6 91.87 1519.65 94.3433 1519.65 97.19C1519.65 99.29 1519.02 101.32 1517.76 103.28C1516.55 105.24 1514.56 106.85 1511.81 108.11C1509.06 109.37 1505.44 110 1500.96 110H1481.71V107.13L1488.15 106.36C1488.24 103.42 1488.29 100.433 1488.29 97.4C1488.29 94.3667 1488.29 91.3333 1488.29 88.3V84.87C1488.29 81.8367 1488.29 78.8267 1488.29 75.84C1488.29 72.8067 1488.24 69.7967 1488.15 66.81L1481.71 66.04Z" fill="white"/>
<rect x="1016.5" y="252.203" width="825" height="1078" rx="14.5" fill="url(#paint2_radial_421_47)" fill-opacity="0.96" stroke="#787878" stroke-width="3"/>
<rect x="1000.5" y="11.5" width="857" height="1334.7" rx="30.5" stroke="white" stroke-opacity="0.23" stroke-width="3"/>
<path d="M1252.49 1477.2C1250.89 1477.2 1249.29 1477.74 1247.69 1478.8C1246.16 1479.8 1244.82 1481.47 1243.69 1483.8C1242.62 1486.14 1241.96 1489.3 1241.69 1493.3H1255.39C1257.79 1493.3 1259.39 1492.8 1260.19 1491.8C1260.99 1490.8 1261.39 1489.4 1261.39 1487.6C1261.39 1484.54 1260.52 1482.04 1258.79 1480.1C1257.06 1478.17 1254.96 1477.2 1252.49 1477.2ZM1252.49 1523.1C1247.82 1523.1 1243.72 1522.1 1240.19 1520.1C1236.66 1518.1 1233.89 1515.24 1231.89 1511.5C1229.89 1507.7 1228.89 1503.2 1228.89 1498C1228.89 1492.67 1230.02 1488.1 1232.29 1484.3C1234.62 1480.44 1237.62 1477.5 1241.29 1475.5C1245.02 1473.44 1248.99 1472.4 1253.19 1472.4C1257.12 1472.4 1260.56 1473.24 1263.49 1474.9C1266.42 1476.57 1268.69 1478.9 1270.29 1481.9C1271.96 1484.9 1272.79 1488.44 1272.79 1492.5C1272.79 1494.64 1272.59 1496.47 1272.19 1498H1241.59C1241.86 1503.74 1243.36 1508.04 1246.09 1510.9C1248.89 1513.77 1252.39 1515.2 1256.59 1515.2C1259.52 1515.2 1261.99 1514.64 1263.99 1513.5C1266.06 1512.3 1267.92 1510.77 1269.59 1508.9L1272.49 1511.5C1270.56 1515.17 1267.89 1518.04 1264.49 1520.1C1261.16 1522.1 1257.16 1523.1 1252.49 1523.1ZM1297.75 1523.1C1293.75 1523.1 1290.62 1522.1 1288.35 1520.1C1286.09 1518.1 1284.95 1514.9 1284.95 1510.5C1284.95 1508.97 1284.95 1507.54 1284.95 1506.2C1285.02 1504.8 1285.05 1503.14 1285.05 1501.2V1479.9H1277.65V1474.7L1285.75 1473.7L1289.55 1460H1297.65L1297.25 1473.8H1309.25V1479.9H1297.15V1509.4C1297.15 1511.87 1297.62 1513.67 1298.55 1514.8C1299.55 1515.94 1300.85 1516.5 1302.45 1516.5C1304.25 1516.5 1306.29 1515.67 1308.55 1514L1310.95 1516.5C1309.69 1518.57 1307.95 1520.2 1305.75 1521.4C1303.55 1522.54 1300.89 1523.1 1297.75 1523.1ZM1313.64 1521.7V1517.6L1320.24 1516.3C1320.3 1513.84 1320.34 1511.17 1320.34 1508.3C1320.34 1505.37 1320.34 1502.84 1320.34 1500.7V1457.8L1313.04 1456.8V1452.9L1330.94 1448.4L1332.44 1449.3L1332.04 1463.4V1481.3C1337.17 1475.37 1342.87 1472.4 1349.14 1472.4C1353.47 1472.4 1356.84 1473.84 1359.24 1476.7C1361.64 1479.57 1362.84 1484.1 1362.84 1490.3V1500.7C1362.84 1502.97 1362.84 1505.54 1362.84 1508.4C1362.84 1511.27 1362.87 1513.94 1362.94 1516.4L1369.04 1517.6V1521.7H1344.34V1517.6L1350.74 1516.3C1350.8 1513.84 1350.84 1511.2 1350.84 1508.4C1350.84 1505.54 1350.84 1502.97 1350.84 1500.7V1491.2C1350.84 1487.27 1350.3 1484.57 1349.24 1483.1C1348.24 1481.57 1346.47 1480.8 1343.94 1480.8C1340.2 1480.8 1336.34 1482.7 1332.34 1486.5V1500.7C1332.34 1502.9 1332.34 1505.44 1332.34 1508.3C1332.34 1511.17 1332.37 1513.87 1332.44 1516.4L1338.34 1517.6V1521.7H1313.64ZM1398.97 1477.2C1397.37 1477.2 1395.77 1477.74 1394.17 1478.8C1392.64 1479.8 1391.31 1481.47 1390.17 1483.8C1389.11 1486.14 1388.44 1489.3 1388.17 1493.3H1401.87C1404.27 1493.3 1405.87 1492.8 1406.67 1491.8C1407.47 1490.8 1407.87 1489.4 1407.87 1487.6C1407.87 1484.54 1407.01 1482.04 1405.27 1480.1C1403.54 1478.17 1401.44 1477.2 1398.97 1477.2ZM1398.97 1523.1C1394.31 1523.1 1390.21 1522.1 1386.67 1520.1C1383.14 1518.1 1380.37 1515.24 1378.37 1511.5C1376.37 1507.7 1375.37 1503.2 1375.37 1498C1375.37 1492.67 1376.51 1488.1 1378.77 1484.3C1381.11 1480.44 1384.11 1477.5 1387.77 1475.5C1391.51 1473.44 1395.47 1472.4 1399.67 1472.4C1403.61 1472.4 1407.04 1473.24 1409.97 1474.9C1412.91 1476.57 1415.17 1478.9 1416.77 1481.9C1418.44 1484.9 1419.27 1488.44 1419.27 1492.5C1419.27 1494.64 1419.07 1496.47 1418.67 1498H1388.07C1388.34 1503.74 1389.84 1508.04 1392.57 1510.9C1395.37 1513.77 1398.87 1515.2 1403.07 1515.2C1406.01 1515.2 1408.47 1514.64 1410.47 1513.5C1412.54 1512.3 1414.41 1510.77 1416.07 1508.9L1418.97 1511.5C1417.04 1515.17 1414.37 1518.04 1410.97 1520.1C1407.64 1522.1 1403.64 1523.1 1398.97 1523.1ZM1426.64 1521.7V1517.6L1433.04 1516.4C1433.11 1513.87 1433.14 1511.17 1433.14 1508.3C1433.14 1505.37 1433.14 1502.84 1433.14 1500.7V1495.4C1433.14 1492.67 1433.11 1490.5 1433.04 1488.9C1433.04 1487.24 1432.97 1485.4 1432.84 1483.4L1425.84 1482.5V1478.7L1442.54 1472.4L1444.14 1473.4L1445.14 1485.2C1446.67 1481.07 1448.74 1477.9 1451.34 1475.7C1453.94 1473.5 1456.54 1472.4 1459.14 1472.4C1460.94 1472.4 1462.57 1472.87 1464.04 1473.8C1465.57 1474.74 1466.57 1476.07 1467.04 1477.8C1466.97 1480.27 1466.37 1482.2 1465.24 1483.6C1464.11 1484.94 1462.54 1485.6 1460.54 1485.6C1458.14 1485.6 1455.87 1484.4 1453.74 1482L1452.84 1481C1449.31 1483.94 1446.77 1488.07 1445.24 1493.4V1500.7C1445.24 1502.77 1445.24 1505.24 1445.24 1508.1C1445.24 1510.9 1445.27 1513.54 1445.34 1516L1453.54 1517.6V1521.7H1426.64ZM1486.7 1523.1C1483.63 1523.1 1480.8 1522.74 1478.2 1522C1475.66 1521.34 1473.13 1520.3 1470.6 1518.9L1470.5 1507.3H1477.2L1479 1516.6C1481.4 1517.6 1484 1518.1 1486.8 1518.1C1490.2 1518.1 1492.73 1517.5 1494.4 1516.3C1496.06 1515.1 1496.9 1513.44 1496.9 1511.3C1496.9 1509.44 1496.23 1507.94 1494.9 1506.8C1493.56 1505.6 1491.3 1504.47 1488.1 1503.4L1483.1 1501.7C1479.36 1500.5 1476.4 1498.74 1474.2 1496.4C1472.06 1494.07 1471 1491.14 1471 1487.6C1471 1484.8 1471.73 1482.27 1473.2 1480C1474.66 1477.67 1476.8 1475.84 1479.6 1474.5C1482.46 1473.1 1485.93 1472.4 1490 1472.4C1492.86 1472.4 1495.46 1472.77 1497.8 1473.5C1500.2 1474.17 1502.56 1475.17 1504.9 1476.5L1504.4 1487H1497.8L1496 1478.6C1494.13 1477.8 1492.06 1477.4 1489.8 1477.4C1487.13 1477.4 1485.06 1477.97 1483.6 1479.1C1482.13 1480.24 1481.4 1481.77 1481.4 1483.7C1481.4 1485.5 1482 1486.97 1483.2 1488.1C1484.46 1489.17 1486.8 1490.27 1490.2 1491.4L1494.2 1492.6C1499.06 1494.27 1502.53 1496.34 1504.6 1498.8C1506.66 1501.27 1507.7 1504.24 1507.7 1507.7C1507.7 1512.17 1505.86 1515.87 1502.2 1518.8C1498.6 1521.67 1493.43 1523.1 1486.7 1523.1ZM1565.09 1478V1473.8H1584.09V1478L1578.49 1479.2L1562.09 1522.1H1556.19L1538.09 1478.9L1532.89 1478V1473.8H1559.19V1478L1551.49 1479.2L1562.49 1508.2L1572.39 1479.3L1565.09 1478ZM1610.96 1518.2C1613.82 1518.2 1616.19 1516.87 1618.06 1514.2C1619.92 1511.47 1620.86 1507.47 1620.86 1502.2C1620.86 1497.8 1619.96 1494.44 1618.16 1492.1C1616.42 1489.77 1614.06 1488.6 1611.06 1488.6C1609.39 1488.6 1607.69 1488.87 1605.96 1489.4C1604.29 1489.94 1602.62 1490.87 1600.96 1492.2C1600.89 1493.07 1600.82 1493.97 1600.76 1494.9C1600.76 1495.84 1600.76 1496.77 1600.76 1497.7C1600.76 1504.77 1601.69 1509.97 1603.56 1513.3C1605.42 1516.57 1607.89 1518.2 1610.96 1518.2ZM1633.16 1501.4C1633.16 1505.94 1632.09 1509.84 1629.96 1513.1C1627.82 1516.37 1625.09 1518.87 1621.76 1520.6C1618.42 1522.27 1614.92 1523.1 1611.26 1523.1C1604.26 1523.1 1598.66 1520.7 1594.46 1515.9C1590.32 1511.1 1588.26 1504.44 1588.26 1495.9C1588.26 1489.1 1589.89 1482.9 1593.16 1477.3C1596.49 1471.64 1601.19 1466.97 1607.26 1463.3C1613.39 1459.57 1620.62 1457.27 1628.96 1456.4L1629.56 1460.5C1621.29 1462.64 1614.89 1466 1610.36 1470.6C1605.89 1475.14 1602.99 1480.77 1601.66 1487.5C1605.72 1483.97 1610.39 1482.2 1615.66 1482.2C1619.46 1482.2 1622.66 1483.07 1625.26 1484.8C1627.86 1486.47 1629.82 1488.74 1631.16 1491.6C1632.49 1494.47 1633.16 1497.74 1633.16 1501.4Z" fill="white"/>
<path d="M2309.96 67.93L2324.38 64.22L2325.36 64.92L2325.08 74.93V95.23C2325.08 96.9567 2325.08 98.7067 2325.08 100.48C2325.13 102.253 2325.18 104.027 2325.22 105.8L2335.16 107.48V110H2309.19V107.48L2319.06 105.8C2319.11 104.027 2319.13 102.253 2319.13 100.48C2319.18 98.7067 2319.2 96.9567 2319.2 95.23V70.03L2309.96 70.8V67.93ZM2350.91 84.45H2353.71C2356.89 84.45 2359.34 83.6333 2361.06 82C2362.84 80.3667 2363.72 78.0567 2363.72 75.07C2363.72 72.5033 2362.98 70.52 2361.48 69.12C2360.04 67.72 2357.94 67.02 2355.18 67.02C2354.72 67.02 2354.23 67.0433 2353.71 67.09C2353.2 67.1367 2352.62 67.2067 2351.96 67.3L2351.05 70.8C2350.68 72.2467 2350.21 73.3433 2349.65 74.09C2349.09 74.79 2348.21 75.14 2346.99 75.14C2346.25 75.14 2345.57 74.9533 2344.96 74.58C2344.36 74.2067 2343.91 73.5767 2343.63 72.69C2344.24 69.75 2345.71 67.5567 2348.04 66.11C2350.38 64.6167 2353.15 63.87 2356.37 63.87C2360.48 63.87 2363.75 64.8967 2366.17 66.95C2368.6 68.9567 2369.81 71.5933 2369.81 74.86C2369.81 77.38 2369 79.6433 2367.36 81.65C2365.78 83.61 2363.54 85.1033 2360.64 86.13C2364.24 86.83 2366.9 88.1833 2368.62 90.19C2370.35 92.1967 2371.21 94.6467 2371.21 97.54C2371.21 100.06 2370.56 102.323 2369.25 104.33C2367.95 106.337 2366.13 107.947 2363.79 109.16C2361.46 110.327 2358.71 110.91 2355.53 110.91C2352.13 110.91 2349.19 110.14 2346.71 108.6C2344.29 107.013 2342.75 104.47 2342.09 100.97C2342.89 99.43 2344.08 98.66 2345.66 98.66C2346.88 98.66 2347.74 99.0567 2348.25 99.85C2348.81 100.643 2349.33 101.927 2349.79 103.7L2350.7 107.34C2351.5 107.527 2352.22 107.643 2352.87 107.69C2353.53 107.737 2354.11 107.76 2354.62 107.76C2358.08 107.76 2360.67 106.873 2362.39 105.1C2364.12 103.28 2364.98 100.807 2364.98 97.68C2364.98 94.6467 2364.1 92.2667 2362.32 90.54C2360.55 88.8133 2357.87 87.95 2354.27 87.95H2350.91V84.45ZM2385.91 84.45H2388.71C2391.89 84.45 2394.34 83.6333 2396.06 82C2397.84 80.3667 2398.72 78.0567 2398.72 75.07C2398.72 72.5033 2397.98 70.52 2396.48 69.12C2395.04 67.72 2392.94 67.02 2390.18 67.02C2389.72 67.02 2389.23 67.0433 2388.71 67.09C2388.2 67.1367 2387.62 67.2067 2386.96 67.3L2386.05 70.8C2385.68 72.2467 2385.21 73.3433 2384.65 74.09C2384.09 74.79 2383.21 75.14 2381.99 75.14C2381.25 75.14 2380.57 74.9533 2379.96 74.58C2379.36 74.2067 2378.91 73.5767 2378.63 72.69C2379.24 69.75 2380.71 67.5567 2383.04 66.11C2385.38 64.6167 2388.15 63.87 2391.37 63.87C2395.48 63.87 2398.75 64.8967 2401.17 66.95C2403.6 68.9567 2404.81 71.5933 2404.81 74.86C2404.81 77.38 2404 79.6433 2402.36 81.65C2400.78 83.61 2398.54 85.1033 2395.64 86.13C2399.24 86.83 2401.9 88.1833 2403.62 90.19C2405.35 92.1967 2406.21 94.6467 2406.21 97.54C2406.21 100.06 2405.56 102.323 2404.25 104.33C2402.95 106.337 2401.13 107.947 2398.79 109.16C2396.46 110.327 2393.71 110.91 2390.53 110.91C2387.13 110.91 2384.19 110.14 2381.71 108.6C2379.29 107.013 2377.75 104.47 2377.09 100.97C2377.89 99.43 2379.08 98.66 2380.66 98.66C2381.88 98.66 2382.74 99.0567 2383.25 99.85C2383.81 100.643 2384.33 101.927 2384.79 103.7L2385.7 107.34C2386.5 107.527 2387.22 107.643 2387.87 107.69C2388.53 107.737 2389.11 107.76 2389.62 107.76C2393.08 107.76 2395.67 106.873 2397.39 105.1C2399.12 103.28 2399.98 100.807 2399.98 97.68C2399.98 94.6467 2399.1 92.2667 2397.32 90.54C2395.55 88.8133 2392.87 87.95 2389.27 87.95H2385.91V84.45ZM2410.76 110V107.48L2416.36 106.5C2416.41 104.633 2416.43 102.767 2416.43 100.9C2416.48 98.9867 2416.5 97.12 2416.5 95.3V64.57L2410.76 63.87V61.42L2421.68 58.27L2422.66 58.83L2422.38 68.77V93.2L2434.35 80.74L2429.17 79.48V76.75H2445.48V79.48L2438.9 80.46L2431.2 88.37L2442.68 106.64L2447.3 107.48V110H2437.78L2427 92.64L2422.38 97.4C2422.38 98.8933 2422.38 100.41 2422.38 101.95C2422.43 103.49 2422.48 105.007 2422.52 106.5L2428.12 107.48V110H2410.76ZM2467.45 87.39H2463.6C2463.6 91.0767 2463.6 94.4833 2463.6 97.61C2463.65 100.69 2463.7 103.723 2463.74 106.71H2468.01C2472.49 106.71 2475.83 105.893 2478.02 104.26C2480.22 102.627 2481.31 100.27 2481.31 97.19C2481.31 93.9233 2480.22 91.4733 2478.02 89.84C2475.83 88.2067 2472.31 87.39 2467.45 87.39ZM2468.57 66.39H2463.74C2463.7 69.3767 2463.65 72.41 2463.6 75.49C2463.6 78.5233 2463.6 81.4167 2463.6 84.17H2467.24C2471.49 84.17 2474.57 83.4467 2476.48 82C2478.4 80.5533 2479.35 78.2433 2479.35 75.07C2479.35 71.8967 2478.44 69.6567 2476.62 68.35C2474.85 67.0433 2472.17 66.39 2468.57 66.39ZM2450.37 66.04V63.17H2470.67C2475.53 63.17 2479.28 64.2433 2481.94 66.39C2484.6 68.5367 2485.93 71.2667 2485.93 74.58C2485.93 77.0533 2485.09 79.3167 2483.41 81.37C2481.73 83.4233 2478.96 84.8467 2475.08 85.64C2479.75 86.2933 2483.11 87.67 2485.16 89.77C2487.26 91.87 2488.31 94.3433 2488.31 97.19C2488.31 99.29 2487.68 101.32 2486.42 103.28C2485.21 105.24 2483.23 106.85 2480.47 108.11C2477.72 109.37 2474.1 110 2469.62 110H2450.37V107.13L2456.81 106.36C2456.91 103.42 2456.95 100.433 2456.95 97.4C2456.95 94.3667 2456.95 91.3333 2456.95 88.3V84.87C2456.95 81.8367 2456.95 78.8267 2456.95 75.84C2456.95 72.8067 2456.91 69.7967 2456.81 66.81L2450.37 66.04Z" fill="white"/>
<rect x="1985.17" y="195.5" width="825" height="1130" rx="14.5" fill="url(#paint3_radial_421_47)" fill-opacity="0.96" stroke="#787878" stroke-width="3"/>
<rect x="1969.17" y="11.5" width="857" height="1330" rx="30.5" stroke="white" stroke-opacity="0.23" stroke-width="3"/>
<path d="M2221.16 1475.5C2219.56 1475.5 2217.96 1476.03 2216.36 1477.1C2214.82 1478.1 2213.49 1479.77 2212.36 1482.1C2211.29 1484.43 2210.62 1487.6 2210.36 1491.6H2224.06C2226.46 1491.6 2228.06 1491.1 2228.86 1490.1C2229.66 1489.1 2230.06 1487.7 2230.06 1485.9C2230.06 1482.83 2229.19 1480.33 2227.46 1478.4C2225.72 1476.47 2223.62 1475.5 2221.16 1475.5ZM2221.16 1521.4C2216.49 1521.4 2212.39 1520.4 2208.86 1518.4C2205.32 1516.4 2202.56 1513.53 2200.56 1509.8C2198.56 1506 2197.56 1501.5 2197.56 1496.3C2197.56 1490.97 2198.69 1486.4 2200.96 1482.6C2203.29 1478.73 2206.29 1475.8 2209.96 1473.8C2213.69 1471.73 2217.66 1470.7 2221.86 1470.7C2225.79 1470.7 2229.22 1471.53 2232.16 1473.2C2235.09 1474.87 2237.36 1477.2 2238.96 1480.2C2240.62 1483.2 2241.46 1486.73 2241.46 1490.8C2241.46 1492.93 2241.26 1494.77 2240.86 1496.3H2210.26C2210.52 1502.03 2212.02 1506.33 2214.76 1509.2C2217.56 1512.07 2221.06 1513.5 2225.26 1513.5C2228.19 1513.5 2230.66 1512.93 2232.66 1511.8C2234.72 1510.6 2236.59 1509.07 2238.26 1507.2L2241.16 1509.8C2239.22 1513.47 2236.56 1516.33 2233.16 1518.4C2229.82 1520.4 2225.82 1521.4 2221.16 1521.4ZM2266.42 1521.4C2262.42 1521.4 2259.29 1520.4 2257.02 1518.4C2254.75 1516.4 2253.62 1513.2 2253.62 1508.8C2253.62 1507.27 2253.62 1505.83 2253.62 1504.5C2253.69 1503.1 2253.72 1501.43 2253.72 1499.5V1478.2H2246.32V1473L2254.42 1472L2258.22 1458.3H2266.32L2265.92 1472.1H2277.92V1478.2H2265.82V1507.7C2265.82 1510.17 2266.29 1511.97 2267.22 1513.1C2268.22 1514.23 2269.52 1514.8 2271.12 1514.8C2272.92 1514.8 2274.95 1513.97 2277.22 1512.3L2279.62 1514.8C2278.35 1516.87 2276.62 1518.5 2274.42 1519.7C2272.22 1520.83 2269.55 1521.4 2266.42 1521.4ZM2282.3 1520V1515.9L2288.9 1514.6C2288.97 1512.13 2289 1509.47 2289 1506.6C2289 1503.67 2289 1501.13 2289 1499V1456.1L2281.7 1455.1V1451.2L2299.6 1446.7L2301.1 1447.6L2300.7 1461.7V1479.6C2305.84 1473.67 2311.54 1470.7 2317.8 1470.7C2322.14 1470.7 2325.5 1472.13 2327.9 1475C2330.3 1477.87 2331.5 1482.4 2331.5 1488.6V1499C2331.5 1501.27 2331.5 1503.83 2331.5 1506.7C2331.5 1509.57 2331.54 1512.23 2331.6 1514.7L2337.7 1515.9V1520H2313V1515.9L2319.4 1514.6C2319.47 1512.13 2319.5 1509.5 2319.5 1506.7C2319.5 1503.83 2319.5 1501.27 2319.5 1499V1489.5C2319.5 1485.57 2318.97 1482.87 2317.9 1481.4C2316.9 1479.87 2315.14 1479.1 2312.6 1479.1C2308.87 1479.1 2305 1481 2301 1484.8V1499C2301 1501.2 2301 1503.73 2301 1506.6C2301 1509.47 2301.04 1512.17 2301.1 1514.7L2307 1515.9V1520H2282.3ZM2367.64 1475.5C2366.04 1475.5 2364.44 1476.03 2362.84 1477.1C2361.31 1478.1 2359.97 1479.77 2358.84 1482.1C2357.77 1484.43 2357.11 1487.6 2356.84 1491.6H2370.54C2372.94 1491.6 2374.54 1491.1 2375.34 1490.1C2376.14 1489.1 2376.54 1487.7 2376.54 1485.9C2376.54 1482.83 2375.67 1480.33 2373.94 1478.4C2372.21 1476.47 2370.11 1475.5 2367.64 1475.5ZM2367.64 1521.4C2362.97 1521.4 2358.87 1520.4 2355.34 1518.4C2351.81 1516.4 2349.04 1513.53 2347.04 1509.8C2345.04 1506 2344.04 1501.5 2344.04 1496.3C2344.04 1490.97 2345.17 1486.4 2347.44 1482.6C2349.77 1478.73 2352.77 1475.8 2356.44 1473.8C2360.17 1471.73 2364.14 1470.7 2368.34 1470.7C2372.27 1470.7 2375.71 1471.53 2378.64 1473.2C2381.57 1474.87 2383.84 1477.2 2385.44 1480.2C2387.11 1483.2 2387.94 1486.73 2387.94 1490.8C2387.94 1492.93 2387.74 1494.77 2387.34 1496.3H2356.74C2357.01 1502.03 2358.51 1506.33 2361.24 1509.2C2364.04 1512.07 2367.54 1513.5 2371.74 1513.5C2374.67 1513.5 2377.14 1512.93 2379.14 1511.8C2381.21 1510.6 2383.07 1509.07 2384.74 1507.2L2387.64 1509.8C2385.71 1513.47 2383.04 1516.33 2379.64 1518.4C2376.31 1520.4 2372.31 1521.4 2367.64 1521.4ZM2395.3 1520V1515.9L2401.7 1514.7C2401.77 1512.17 2401.8 1509.47 2401.8 1506.6C2401.8 1503.67 2401.8 1501.13 2401.8 1499V1493.7C2401.8 1490.97 2401.77 1488.8 2401.7 1487.2C2401.7 1485.53 2401.64 1483.7 2401.5 1481.7L2394.5 1480.8V1477L2411.2 1470.7L2412.8 1471.7L2413.8 1483.5C2415.34 1479.37 2417.4 1476.2 2420 1474C2422.6 1471.8 2425.2 1470.7 2427.8 1470.7C2429.6 1470.7 2431.24 1471.17 2432.7 1472.1C2434.24 1473.03 2435.24 1474.37 2435.7 1476.1C2435.64 1478.57 2435.04 1480.5 2433.9 1481.9C2432.77 1483.23 2431.2 1483.9 2429.2 1483.9C2426.8 1483.9 2424.54 1482.7 2422.4 1480.3L2421.5 1479.3C2417.97 1482.23 2415.44 1486.37 2413.9 1491.7V1499C2413.9 1501.07 2413.9 1503.53 2413.9 1506.4C2413.9 1509.2 2413.94 1511.83 2414 1514.3L2422.2 1515.9V1520H2395.3ZM2455.36 1521.4C2452.3 1521.4 2449.46 1521.03 2446.86 1520.3C2444.33 1519.63 2441.8 1518.6 2439.26 1517.2L2439.16 1505.6H2445.86L2447.66 1514.9C2450.06 1515.9 2452.66 1516.4 2455.46 1516.4C2458.86 1516.4 2461.4 1515.8 2463.06 1514.6C2464.73 1513.4 2465.56 1511.73 2465.56 1509.6C2465.56 1507.73 2464.9 1506.23 2463.56 1505.1C2462.23 1503.9 2459.96 1502.77 2456.76 1501.7L2451.76 1500C2448.03 1498.8 2445.06 1497.03 2442.86 1494.7C2440.73 1492.37 2439.66 1489.43 2439.66 1485.9C2439.66 1483.1 2440.4 1480.57 2441.86 1478.3C2443.33 1475.97 2445.46 1474.13 2448.26 1472.8C2451.13 1471.4 2454.6 1470.7 2458.66 1470.7C2461.53 1470.7 2464.13 1471.07 2466.46 1471.8C2468.86 1472.47 2471.23 1473.47 2473.56 1474.8L2473.06 1485.3H2466.46L2464.66 1476.9C2462.8 1476.1 2460.73 1475.7 2458.46 1475.7C2455.8 1475.7 2453.73 1476.27 2452.26 1477.4C2450.8 1478.53 2450.06 1480.07 2450.06 1482C2450.06 1483.8 2450.66 1485.27 2451.86 1486.4C2453.13 1487.47 2455.46 1488.57 2458.86 1489.7L2462.86 1490.9C2467.73 1492.57 2471.2 1494.63 2473.26 1497.1C2475.33 1499.57 2476.36 1502.53 2476.36 1506C2476.36 1510.47 2474.53 1514.17 2470.86 1517.1C2467.26 1519.97 2462.1 1521.4 2455.36 1521.4ZM2533.76 1476.3V1472.1H2552.76V1476.3L2547.16 1477.5L2530.76 1520.4H2524.86L2506.76 1477.2L2501.56 1476.3V1472.1H2527.86V1476.3L2520.16 1477.5L2531.16 1506.5L2541.06 1477.6L2533.76 1476.3ZM2602.02 1500.3C2602.02 1504.7 2600.96 1508.5 2598.82 1511.7C2596.69 1514.83 2593.76 1517.23 2590.02 1518.9C2586.36 1520.57 2582.09 1521.4 2577.22 1521.4C2571.49 1521.4 2566.92 1520.07 2563.52 1517.4C2560.19 1514.73 2558.16 1510.97 2557.42 1506.1C2557.96 1504.77 2558.72 1503.8 2559.72 1503.2C2560.72 1502.53 2561.86 1502.2 2563.12 1502.2C2564.92 1502.2 2566.32 1502.77 2567.32 1503.9C2568.32 1504.97 2569.09 1506.93 2569.62 1509.8L2570.72 1515.9C2572.32 1516.3 2573.92 1516.5 2575.52 1516.5C2579.86 1516.5 2583.22 1515.17 2585.62 1512.5C2588.09 1509.83 2589.32 1506.23 2589.32 1501.7C2589.32 1496.83 2588.06 1493.13 2585.52 1490.6C2583.06 1488.07 2579.66 1486.8 2575.32 1486.8C2573.79 1486.8 2572.22 1486.9 2570.62 1487.1C2569.09 1487.3 2567.56 1487.57 2566.02 1487.9L2563.22 1486.6L2565.32 1456.1H2599.92V1466.3H2570.22L2569.22 1481.2C2572.09 1480.53 2575.26 1480.2 2578.72 1480.2C2585.79 1480.2 2591.42 1481.93 2595.62 1485.4C2599.89 1488.8 2602.02 1493.77 2602.02 1500.3Z" fill="white"/>
<defs>
<filter id="filter0_d_421_47" x="0.242188" y="1159" width="920.182" height="206" filterUnits="userSpaceOnUse" color-interpolation-filters="sRGB">
<feFlood flood-opacity="0" result="BackgroundImageFix"/>
<feColorMatrix in="SourceAlpha" type="matrix" values="0 0 0 0 0 0 0 0 0 0 0 0 0 0 0 0 0 0 127 0" result="hardAlpha"/>
<feMorphology radius="7" operator="dilate" in="SourceAlpha" result="effect1_dropShadow_421_47"/>
<feOffset dy="4"/>
<feGaussianBlur stdDeviation="16"/>
<feComposite in2="hardAlpha" operator="out"/>
<feColorMatrix type="matrix" values="0 0 0 0 1 0 0 0 0 0.6 0 0 0 0 0 0 0 0 0.98 0"/>
<feBlend mode="normal" in2="BackgroundImageFix" result="effect1_dropShadow_421_47"/>
<feBlend mode="normal" in="SourceGraphic" in2="effect1_dropShadow_421_47" result="shape"/>
</filter>
<radialGradient id="paint0_radial_421_47" cx="0" cy="0" r="1" gradientUnits="userSpaceOnUse" gradientTransform="translate(77.5232 1271.54) rotate(22.0734) scale(602.622 489.281)">
<stop stop-color="#FF8A00"/>
<stop offset="1" stop-color="#FFBA07"/>
</radialGradient>
<radialGradient id="paint1_radial_421_47" cx="0" cy="0" r="1" gradientUnits="userSpaceOnUse" gradientTransform="translate(70.9394 1271.02) rotate(23.858) scale(621.133 535.678)">
<stop stop-color="#FF8A00"/>
<stop offset="1" stop-color="#FFBA07"/>
</radialGradient>
<radialGradient id="paint2_radial_421_47" cx="0" cy="0" r="1" gradientUnits="userSpaceOnUse" gradientTransform="translate(1052.64 905.54) rotate(73.9824) scale(1989.79 1230.37)">
<stop stop-color="white" stop-opacity="0.19"/>
<stop offset="1" stop-color="white" stop-opacity="0.32"/>
</radialGradient>
<radialGradient id="paint3_radial_421_47" cx="0" cy="0" r="1" gradientUnits="userSpaceOnUse" gradientTransform="translate(2021.3 880.337) rotate(74.6822) scale(2078.37 1234.6)">
<stop stop-color="white" stop-opacity="0.19"/>
<stop offset="1" stop-color="white" stop-opacity="0.32"/>
</radialGradient>
</defs>
</svg>
