<svg width="720" height="256" viewBox="0 0 720 256" fill="none" xmlns="http://www.w3.org/2000/svg">
<g clip-path="url(#clip0_202_12)">
<path d="M109.12 99.42V85.14H173.72V99.42L154.68 103.5L98.92 249.36H78.86L17.32 102.48L-0.36 99.42V85.14H89.06V99.42L62.88 103.5L100.28 202.1L133.94 103.84L109.12 99.42ZM185.493 248V234.06L207.933 229.64C208.159 221.253 208.273 212.187 208.273 202.44C208.273 192.467 208.273 183.853 208.273 176.6V160.62C208.273 151.327 208.159 143.62 207.933 137.5C207.933 131.153 207.706 124.58 207.253 117.78L183.113 114.72V101.8L244.313 80.38L249.753 83.78L248.733 131.72V176.6C248.733 183.853 248.733 192.467 248.733 202.44C248.733 212.187 248.846 221.367 249.073 229.98L269.813 234.06V248H185.493ZM228.333 48.76C221.079 48.76 214.959 46.4933 209.973 41.96C204.986 37.4267 202.493 31.6467 202.493 24.62C202.493 17.3667 204.986 11.4733 209.973 6.93998C214.959 2.40665 221.079 0.139989 228.333 0.139989C235.586 0.139989 241.593 2.40665 246.353 6.93998C251.339 11.4733 253.833 17.3667 253.833 24.62C253.833 31.6467 251.339 37.4267 246.353 41.96C241.593 46.4933 235.586 48.76 228.333 48.76ZM356.39 96.7C350.95 96.7 345.51 98.5133 340.07 102.14C334.857 105.54 330.324 111.207 326.47 119.14C322.844 127.073 320.577 137.84 319.67 151.44H366.25C374.41 151.44 379.85 149.74 382.57 146.34C385.29 142.94 386.65 138.18 386.65 132.06C386.65 121.633 383.704 113.133 377.81 106.56C371.917 99.9867 364.777 96.7 356.39 96.7ZM356.39 252.76C340.524 252.76 326.584 249.36 314.57 242.56C302.557 235.76 293.15 226.013 286.35 213.32C279.55 200.4 276.15 185.1 276.15 167.42C276.15 149.287 280.004 133.76 287.71 120.84C295.644 107.693 305.844 97.72 318.31 90.92C331.004 83.8933 344.49 80.38 358.77 80.38C372.144 80.38 383.817 83.2133 393.79 88.88C403.764 94.5467 411.47 102.48 416.91 112.68C422.577 122.88 425.41 134.893 425.41 148.72C425.41 155.973 424.73 162.207 423.37 167.42H319.33C320.237 186.913 325.337 201.533 334.63 211.28C344.15 221.027 356.05 225.9 370.33 225.9C380.304 225.9 388.69 223.973 395.49 220.12C402.517 216.04 408.864 210.827 414.53 204.48L424.39 213.32C417.817 225.787 408.75 235.533 397.19 242.56C385.857 249.36 372.257 252.76 356.39 252.76ZM434.811 248V234.06L456.911 229.64C457.137 221.253 457.251 212.187 457.251 202.44C457.251 192.467 457.251 183.853 457.251 176.6V158.58C457.251 149.287 457.137 141.92 456.911 136.48C456.911 130.813 456.684 124.58 456.231 117.78L432.431 114.72V101.8L489.211 80.38L494.651 83.78L497.031 110.3C505.191 101.007 514.031 93.7533 523.551 88.54C533.297 83.1 543.384 80.38 553.811 80.38C575.797 80.38 589.964 90.6933 596.311 111.32C605.377 100.44 614.784 92.62 624.531 87.86C634.277 82.8733 644.364 80.38 654.791 80.38C670.204 80.38 681.764 85.14 689.471 94.66C697.177 104.18 701.031 119.367 701.031 140.22V176.6C701.031 184.307 701.031 193.033 701.031 202.78C701.031 212.3 701.144 221.367 701.371 229.98L722.111 234.06V248H639.151V234.06L660.231 229.64C660.457 221.253 660.571 212.3 660.571 202.78C660.571 193.033 660.571 184.307 660.571 176.6V145.32C660.571 131.04 658.644 121.407 654.791 116.42C651.164 111.433 645.044 108.94 636.431 108.94C624.417 108.94 611.951 114.72 599.031 126.28C599.257 128.547 599.371 130.927 599.371 133.42C599.597 135.913 599.711 138.52 599.711 141.24V176.6C599.711 184.307 599.711 193.033 599.711 202.78C599.711 212.3 599.824 221.367 600.051 229.98L620.451 234.06V248H537.151V234.06L558.911 229.64C559.137 221.253 559.251 212.3 559.251 202.78C559.251 193.033 559.251 184.307 559.251 176.6V146C559.251 132.173 557.437 122.54 553.811 117.1C550.411 111.66 544.291 108.94 535.451 108.94C529.104 108.94 522.757 110.527 516.411 113.7C510.291 116.647 504.284 120.727 498.391 125.94V176.6C498.391 184.08 498.391 192.693 498.391 202.44C498.391 212.187 498.504 221.367 498.731 229.98L518.791 234.06V248H434.811Z" fill="white"/>
</g>
<defs>
<clipPath id="clip0_202_12">
<rect width="719.939" height="256" fill="white"/>
</clipPath>
</defs>
</svg>
